<?xml version="1.0"?>
<svg width="780" height="780" xmlns="http://www.w3.org/2000/svg" xmlns:svg="http://www.w3.org/2000/svg">
 <g class="layer">
  <title>Layer 1</title>
  <g id="svg_1" transform="translate(-62.5 -16.0714) matrix(0.670136 0 0 0.670136 226.201 70.0905)">
   <defs stroke-width="5">
    <style stroke-width="5">.white-box-bg { fill: white; stroke: none; }
      .stroke-group { stroke-linecap: round; stroke-linejoin: round; }</style>
   </defs>
   <path class="white-box-bg" d="m64.92,413.52l-1.39,1.34l-1.22,0.94l-1.3,0.82l-1.39,0.68l-1.44,0.53l-1.5,0.38l-1.52,0.23l-1.93,0.08l-9.65,-0.07l-16.09,-0.15l-0.37,0l-0.05,0l-1.05,0.06l-0.61,0.05l-1.46,0.2l-0.19,0.03l-1.43,0.34l-0.18,0.06l-1.39,0.47l-0.18,0.08l-1.34,0.61l-0.17,0.09l-1.27,0.74l-0.17,0.1l-1.19,0.87l-0.15,0.12l-1.1,0.97l-0.14,0.14l-1,1.07l-0.13,0.15l-0.89,1.17l-0.11,0.16l-0.77,1.26l-0.09,0.16l-0.65,1.33l-0.07,0.17l-0.52,1.38l-0.05,0.19l-0.38,1.42l-0.04,0.19l-0.23,1.45l-0.02,0.19l-0.09,1.47l-0.01,0.19l0.06,1.48l0.01,0.19l0.2,1.46l0.04,0.19l0.34,1.43l0.05,0.18l0.48,1.39l0.07,0.18l0.62,1.34l0.08,0.17l0.74,1.27l0.11,0.17l0.86,1.19l0.12,0.15l0.98,1.1l0.13,0.14l1.08,1l0.15,0.13l1.17,0.89l0.16,0.11l1.25,0.77l0.17,0.09l1.32,0.65l0.18,0.07l1.38,0.52l0.18,0.05l1.43,0.38l0.18,0.04l1.46,0.23l0.55,0.06l1.11,0.09l0.15,0l0.41,0.01l16.01,0.15l0.03,0l16.51,0.12l0.02,0l16.52,0.1l0.01,0l16.49,0.09l16.44,0.06l16.32,0.05l16.17,0.04l15.97,0.04l15.74,0.03l15.46,0.03l15.15,0.04l14.8,0.04l14.4,0.05l13.96,0.07l13.49,0.09l12.98,0.1l12.41,0.13l11.82,0.16l10.9,0.18l0.37,0.01l0.05,0l1.05,-0.05l1.27,-0.1l0.81,-0.08l9.71,-1.3l2.87,-0.19l10.22,-0.04l0.05,0l13.3,-0.09l0.02,-0.01l14.05,-0.12l7.22,-0.06l1.66,0.04l0.14,0.01l14.55,0.53l0.15,0.01l15.33,0.4l0.13,0.01l15.47,0.27l0.12,0l15.52,0.16l0.1,0l15.5,0.06l0.08,0l15.4,-0.02l0.07,0l15.21,-0.09l0.05,0l14.96,-0.14l0.03,0l14.61,-0.17l0.02,0l14.18,-0.18l13.65,-0.19l13.03,-0.16l12.32,-0.14l11.57,-0.08l0.12,0l10.55,-0.01l0.19,0l9.5,0.07l0.28,0l1.12,0.02l1.64,0.11l1.3,0.19l1.27,0.31l0.28,0.1l0.45,0.14l1.3,0.39l1.38,0.35l0.24,0.05l1.45,0.22l0.19,0.02l1.47,0.08l0.2,0l1.47,-0.07l0.19,-0.02l1.45,-0.21l0.58,-0.12l0.71,-0.15l1.29,-0.32l1.29,-0.2l1.3,-0.09l1.67,0.03l0.23,0.01l0.04,0l1.06,0.01l0.61,-0.02l1.46,-0.12l0.19,-0.03l1.45,-0.26l0.19,-0.04l1.42,-0.41l0.18,-0.06l1.37,-0.54l0.17,-0.08l1.31,-0.67l0.17,-0.09l1.24,-0.8l0.15,-0.11l1.16,-0.92l0.14,-0.12l1.06,-1.03l0.13,-0.14l0.96,-1.12l0.11,-0.15l0.84,-1.21l0.1,-0.17l0.72,-1.28l0.08,-0.17l0.59,-1.35l0.07,-0.18l0.45,-1.41l0.05,-0.18l0.31,-1.44l0.03,-0.19l0.17,-1.46l0.01,-0.19l0.03,-1.48l-0.01,-0.19l-0.12,-1.47l-0.02,-0.19l-0.26,-1.45l-0.05,-0.18l-0.4,-1.42l-0.06,-0.18l-0.54,-1.37l-0.08,-0.18l-0.67,-1.31l-0.1,-0.16l-0.8,-1.24l-0.11,-0.16l-0.91,-1.15l-0.13,-0.15l-1.02,-1.05l-0.14,-0.14l-1.13,-0.95l-0.15,-0.12l-1.21,-0.83l-0.16,-0.11l-1.29,-0.71l-0.17,-0.09l-1.35,-0.58l-0.18,-0.07l-1.4,-0.45l-0.19,-0.05l-1.44,-0.31l-1.53,-0.26l-0.3,-0.04l-0.9,-0.13l-1.43,-0.36l-1.39,-0.49l-1.33,-0.63l-1.27,-0.76l-1.19,-0.88l-1.09,-0.99l-1.24,-1.36l-2.36,-2.87l-0.64,-0.83l-6.54,-8.75l-51.13,-77.71l-0.75,-1.45l-0.59,-1.53l-0.52,-1.98l-0.03,-0.14l-0.36,-1.38l-0.07,-0.23l-0.5,-1.39l-0.07,-0.17l-0.64,-1.33l-0.09,-0.17l-0.76,-1.26l-0.31,-0.46l-0.65,-0.9l-0.1,-0.11l-0.26,-0.32l-10.53,-12.65l-0.28,-0.35l-0.84,-1.05l-1.84,-2.68l-0.2,-0.34l-0.69,-1.26l-5.34,-10.63l-0.64,-1.39l-12.1,-9.78l-0.56,-1.47l-7.11,-15.14l-0.44,-1.49l-2.31,-8.72l-0.33,-1.41l-1.68,-8.57l-0.21,-1.24l-15.21,-14.66l-0.11,-1l20.16,61.04l-0.06,-0.69l-0.59,-9.46l-0.02,-0.35l-0.48,-10.07l-0.49,-10.27l-0.01,-0.23l-2.69,-5.85l-0.01,-0.12l-0.01,-0.12l-0.01,-0.21l-0.02,-0.17l-0.01,-0.13l-1,-10.71l-0.02,-0.16l-0.02,-0.17l-0.03,-0.29l-0.03,-0.24l-0.02,-0.17l5.5,52.97l-0.03,-0.19l-0.03,-0.21l-0.06,-0.36l-0.05,-0.29l-19.04,-60.21l16.84,48.54l-0.04,-0.21l-0.05,-0.23l-0.08,-0.4l-0.08,-0.32l-0.05,-0.23l-36.95,-101.88l-0.09,-0.36l-0.02,-0.04l-0.31,-1.01l-0.2,-0.57l38.44,101.63l-0.08,-0.17l2.31,-14.3l-0.1,-0.17l-0.81,-1.23l-0.11,-0.15l-0.93,-1.14l-0.13,-0.15l-1.03,-1.04l-0.15,-0.13l-35.13,-90.94l-0.15,-0.12l-1.22,-0.82l-0.17,-0.1l-1.29,-0.7l-0.32,-0.16l-0.61,-0.27l-1.88,-0.8l-1.3,-0.71l45.78,109.16l-1.14,-0.95l-1.03,-1.07l-0.92,-1.15l-0.81,-1.25l-34.68,-91.32l-0.68,-1.72l-3.7,-10.89l-0.04,-0.13l-0.05,-0.14l-0.08,-0.23l-0.07,-0.19l-0.05,-0.14l-4.21,-11.09l-0.05,-0.12l-0.05,-0.14l-0.09,-0.22l-0.08,-0.19l-0.05,-0.13l-4.48,-10.68l-0.05,-0.12l-0.06,-0.13l-0.09,-0.22l-0.08,-0.18l-0.06,-0.13l-4.72,-10.26l-0.05,-0.12l-0.06,-0.12l-0.1,-0.21l-0.09,-0.17l-0.06,-0.13l-4.93,-9.85l-0.05,-0.1l-0.06,-0.13l-0.11,-0.2l-0.09,-0.16l-0.06,-0.12l-5.1,-9.43l-0.06,-0.1l-0.07,-0.12l-0.11,-0.19l-0.09,-0.16l-0.06,-0.12l-5.25,-8.99l-0.06,-0.1l-0.07,-0.12l-0.11,-0.19l-0.1,-0.15l-0.06,-0.11l-5.37,-8.56l-0.06,-0.1l-0.07,-0.11l-0.11,-0.18l-0.1,-0.15l-0.07,-0.1l-5.44,-8.13l-0.06,-0.09l-0.08,-0.11l-0.12,-0.17l-0.1,-0.14l-0.07,-0.11l-1.49,-1.68l-0.06,-0.09l-0.08,-0.1l-0.12,-0.17l-0.1,-0.14l-0.08,-0.1l-5.5,-7.23l-0.07,-0.09l-0.07,-0.1l-0.13,-0.16l-0.11,-0.14l-0.08,-0.09l-5.48,-6.78l-0.07,-0.09l-0.08,-0.09l-0.13,-0.17l-0.11,-0.13l-0.08,-0.09l-5.43,-6.32l-0.08,-0.08l-0.08,-0.1l-0.14,-0.16l-0.11,-0.13l-0.09,-0.09l-5.34,-5.85l-0.07,-0.09l-0.09,-0.09l-0.15,-0.16l-0.12,-0.12l-0.09,-0.09l-5.22,-5.39l-0.08,-0.08l-0.09,-0.09l-0.16,-0.16l-0.12,-0.13l-0.1,-0.09l-5.06,-4.9l-0.09,-0.09l-0.1,-0.09l-0.16,-0.16l-0.14,-0.12l-0.1,-0.1l-4.69,-4.26l-0.28,-0.24l-0.03,-0.03l-0.83,-0.66l-0.49,-0.37l-1.22,-0.82l-0.96,-0.58l-0.49,-0.33l-0.69,-0.42l-1.18,-0.87l-1.35,-1.23l-0.04,-0.03l-1.05,-0.96l-0.19,-0.15l-1.18,-0.88l-0.16,-0.11l-1.26,-0.76l-0.49,-0.26l-0.99,-0.49l-0.14,-0.06l-0.38,-0.16l8.47,3.71l-0.19,-0.08l-0.23,-0.09l-0.37,-0.14l-0.31,-0.12l-0.22,-0.08l-5.46,-1.9l-0.21,-0.07l-0.24,-0.08l-0.4,-0.12l-0.32,-0.1l-0.24,-0.07l-5.18,-1.47l-0.23,-0.06l-0.25,-0.07l-0.42,-0.1l-0.35,-0.09l-0.26,-0.05l-4.85,-1.06l-0.25,-0.05l-0.27,-0.05l-0.46,-0.09l-0.38,-0.06l-0.28,-0.05l-4.47,-0.66l-0.27,-0.04l-0.31,-0.04l-0.51,-0.05l-0.42,-0.04l-0.31,-0.03l26.96,0.7l-0.31,-0.02l-0.34,-0.01l-0.59,-0.02l-0.47,-0.01l-0.35,0l-3.53,0.03l-0.37,0.01l-0.4,0.01l-0.68,0.04l-0.55,0.04l-0.38,0.04l12.12,6.1l-1.49,-0.07l-1.49,-0.21l-1.45,-0.36l-1.41,-0.51l-1.35,-0.64l-1.28,-0.78l-1.11,-0.83l-0.55,-0.39l-0.57,-0.4l-1.25,-0.77l-0.17,-0.09l-1.33,-0.64l-0.17,-0.08l-1.38,-0.51l-0.19,-0.05l-1.42,-0.38l-0.19,-0.04l-1.45,-0.23l-0.2,-0.02l-1.47,-0.09l-0.19,0l-1.47,0.06l-0.19,0.02l-1.46,0.2l-0.19,0.03l-1.43,0.34l-0.18,0.06l-1.4,0.48l-0.17,0.07l-1.34,0.62l-0.17,0.09l-1.27,0.74l-0.16,0.11l-1.19,0.86l-0.15,0.12l-1.11,0.98l-0.13,0.13l-1,1.08l-0.13,0.15l-0.89,1.17l-0.31,0.46l-0.59,0.94l-0.08,0.13l-0.2,0.36l-5.34,9.82l-4.92,9.06l-0.03,0.05l-3.85,7.14l-0.86,1.45l-0.79,1.09l-0.89,1.01l-0.98,0.93l-0.12,0.1l-0.64,0.54l-0.81,0.73l-1.11,1.1l-0.4,0.43l-0.76,0.91l-0.1,0.12l-0.26,0.35l-1.15,1.58l-0.26,0.37l-0.29,0.41l-0.45,0.71l-0.36,0.59l-0.25,0.44l-1.74,3.09l-0.08,0.14l-0.08,0.15l-0.13,0.25l-0.11,0.21l-0.08,0.15l-2.35,4.63l-0.06,0.12l-2.97,5.98l-0.08,0.16l-3.27,6.45l-0.19,0.38l-3.67,6.91l-0.29,0.53l-4.14,7.32l-0.38,0.66l-2.82,4.61l-0.94,1.4l-0.85,1.04l-0.94,0.96l-1.02,0.88l0,0l-0.69,0.52l-0.89,0.71l-1.18,1.05l-0.42,0.42l-0.81,0.87l-0.1,0.12l-0.54,0.66l-0.03,0.04l-0.67,0.95l-0.59,0.9l-0.62,1.06l-0.08,0.14l-0.21,0.4l-0.14,0.28l-0.17,0.36l-0.19,0.41l-0.31,0.69l-0.23,0.57l-0.16,0.42l-0.27,0.72l-0.08,0.22l-0.09,0.25l-0.14,0.41l-0.02,0.06l-0.01,0.03l-0.7,1.92l-0.68,1.41l-1.1,1.76l-0.14,0.23l-0.42,0.71l-0.7,1.3l-0.08,0.17l-0.56,1.36l-0.06,0.18l-0.43,1.41l-0.05,0.19l-0.28,1.44l-0.18,1.18l-0.1,0.55l-0.1,0.66l-0.32,1.36l-0.44,1.31l-0.57,1.27l-0.85,1.52l-1.57,2.51l-1.02,1.47l-0.92,1.09l-1.02,1l-1.11,0.89l-0.07,0.05l-0.65,0.45l-1.3,0.96l-0.91,0.73l-0.12,0.1l-0.32,0.29l-0.69,0.63l-0.33,0.31l-0.04,0.04l-0.88,0.94l-0.78,0.9l-0.84,1.06l-0.1,0.15l-0.29,0.42l-0.7,1.05l-0.19,0.29l-0.02,0.03l-0.51,0.86l-0.43,0.81l-0.47,0.93l-0.06,0.13l-0.16,0.35l-0.59,1.4l-0.21,0.51l-0.22,0.57l-0.34,0.99l-0.25,0.8l-0.17,0.6l-0.44,1.7l-0.11,0.44l-0.13,0.54l-0.15,0.76l-0.4,1.79l-0.45,1.38l-0.58,1.33l-0.89,1.58l-2.97,4.76l-5.24,8.32l-5.35,8.39l-0.07,0.12l-5.36,8.31l-0.09,0.13l-5.45,8.32l-0.1,0.16l-5.55,8.31l-0.12,0.18l-5.65,8.29l-0.14,0.2l-5.75,8.25l-0.16,0.22l-5.87,8.2l-0.17,0.24l-5.99,8.14l-0.19,0.26l-6.07,8.01l-0.22,0.3l-0.03,0.03l-0.58,0.88l-0.51,0.83l-0.55,0.96l-0.07,0.14l-0.19,0.37l-2.91,6l-0.84,1.54l-0.97,1.45l-4.95,6.67l-6.79,9.06l-0.06,0.09l-6.67,8.82l-0.09,0.1l-6.66,8.7l-0.09,0.12l-2.27,2.92l-1.06,1.25l-1.16,1.15l-0.95,0.86l-1.03,1.03l-0.19,0.21l-0.89,1.07l-0.44,0.59l-0.41,0.58l-5.07,7.44l-1.05,1.42l-6.07,7.57l-0.12,0.15l-7.06,8.65l-0.13,0.15l-7.27,8.75l-0.13,0.16l-7.52,8.88l-0.14,0.16l-7.82,9.06l-0.13,0.15l-8.16,9.29l-0.14,0.15l-8.54,9.54l-0.13,0.15l-8.97,9.85l-0.13,0.14l-9.44,10.19l-0.12,0.13l-7.38,7.84" id="svg_2" stroke-width="5"/>
   <g class="stroke-group" fill="none" id="mountain" stroke="black" stroke-width="4.44" transform="matrix(1 0 0 1 0 0)">
    <path d="m74.62,428.02c66.03,-69.65 99.4,-114.77 146.54,-179.19" data-class="ridge" fill="none" id="svg_3" stroke="rgb(0, 0, 0)" stroke-linecap="round" stroke-linejoin="round" stroke-width="5"/>
    <path d="m204.34,268.54c41.46,-53.85 73.06,-111.34 102.32,-155.17" data-class="ridge" fill="none" id="svg_4" stroke="rgb(0, 0, 0)" stroke-linecap="round" stroke-linejoin="round" stroke-width="5"/>
    <path d="m291.06,131.06c46.56,-60.1 42.54,-116.2 46.44,-2.22" data-class="ridge" fill="none" id="svg_5" stroke="rgb(0, 0, 0)" stroke-linecap="round" stroke-linejoin="round" stroke-width="5"/>
    <path d="m26.96,435.3c103.95,1.05 213.34,0.28 282.51,1.58" data-class="ridge" fill="none" id="svg_9" stroke="rgb(0, 0, 0)" stroke-linecap="round" stroke-linejoin="round" stroke-width="5"/>
    <path d="m238.26,433.07c81.51,4.71 127.66,-0.3 309.06,1.94" data-class="ridge" fill="none" id="svg_10" stroke="rgb(0, 0, 0)" stroke-linecap="round" stroke-linejoin="round" stroke-width="5"/>
    <path d="m371.86,434.89c94.55,4 207.43,-1.92 245.97,1.21" data-class="ridge" fill="none" id="svg_11" stroke="rgb(0, 0, 0)" stroke-linecap="round" stroke-linejoin="round" stroke-width="5"/>
    <path d="m164.84,322.73c16.9,-1.23 141.65,-0.55 124.29,-0.85" data-class="ridge" fill="none" id="svg_12" stroke="rgb(0, 0, 0)" stroke-linecap="round" stroke-linejoin="round" stroke-width="5"/>
    <path d="m297.83,356.46c65.26,-92.63 45.39,-122.23 86.87,11.02" data-class="ridge" fill="none" id="svg_13" stroke="rgb(0, 0, 0)" stroke-linecap="round" stroke-linejoin="round" stroke-width="5"/>
    <path d="m392.51,293.29c8.06,66.54 36.9,60.95 49.73,98.84" data-class="ridge" fill="none" id="svg_14" stroke="rgb(0, 0, 0)" stroke-linecap="round" stroke-linejoin="round" stroke-width="5"/>
    <path d="m211.72,264.24c-14.04,-9.77 84.1,5.31 85.63,-7.81" data-class="ridge" fill="none" id="svg_15" stroke="rgb(0, 0, 0)" stroke-linecap="round" stroke-linejoin="round" stroke-width="5"/>
    <path d="m328.64,279.27c65.47,-86.75 41.11,-163.24 77.71,19.46" data-class="ridge" fill="none" id="svg_16" stroke="rgb(0, 0, 0)" stroke-linecap="round" stroke-linejoin="round" stroke-width="5"/>
    <path d="m409.08,208.46c46.73,52.28 70.89,69.72 91.89,77.95" data-class="ridge" fill="none" id="svg_17" stroke="rgb(0, 0, 0)" stroke-linecap="round" stroke-linejoin="round" stroke-width="5"/>
    <path d="m273.44,191.2c-11.75,-33.22 8.12,-48.12 14.16,-16.31" data-class="contour" fill="none" id="svg_18" stroke="rgb(0, 0, 0)" stroke-linecap="round" stroke-linejoin="round" stroke-width="5"/>
    <path d="m298.22,228.02c64.87,-47.79 79.49,-96.76 84.67,-71.58" data-class="contour" fill="none" id="svg_19" stroke="rgb(0, 0, 0)" stroke-linecap="round" stroke-linejoin="round" stroke-width="5"/>
    <path d="m383.29,154.88c13.79,13.81 26.24,41.39 62.65,81.67" data-class="contour" fill="none" id="svg_20" stroke="rgb(0, 0, 0)" stroke-linecap="round" stroke-linejoin="round" stroke-width="5"/>
    <path d="m292.76,134.8c1.94,-11.04 6.26,-33.51 9.13,5.81" data-class="contour" fill="none" id="svg_21" stroke="rgb(0, 0, 0)" stroke-linecap="round" stroke-linejoin="round" stroke-width="5"/>
    <path d="m348.92,153.78c16.68,-38.49 28.05,-63.47 33.42,-71.6" data-class="contour" fill="none" id="svg_22" stroke="rgb(0, 0, 0)" stroke-linecap="round" stroke-linejoin="round" stroke-width="5"/>
    <path d="m384.53,84.97c-9.99,40.39 -2.75,29.89 42.78,97.73" data-class="contour" fill="none" id="svg_23" stroke="rgb(0, 0, 0)" stroke-linecap="round" stroke-linejoin="round" stroke-width="5"/>
    <path d="m356.79,38.13c-8.15,19.22 6.56,73.4 -14.38,126.27" data-class="contour" fill="none" id="svg_24" stroke="rgb(0, 0, 0)" stroke-linecap="round" stroke-linejoin="round" stroke-width="5"/>
    <path d="m347.95,147.76c-13.84,50.36 -12.31,94.15 -63.39,113.45" data-class="contour" fill="none" id="svg_25" stroke="rgb(0, 0, 0)" stroke-linecap="round" stroke-linejoin="round" stroke-width="5"/>
    <path d="m332.36,274.98c-31.47,44.64 -31.36,64.55 -78.76,83.27" data-class="contour" fill="none" id="svg_26" stroke="rgb(0, 0, 0)" stroke-linecap="round" stroke-linejoin="round" stroke-width="5"/>
    <path d="m355.19,29.76c27.81,47.73 45.83,79.89 61.83,113.84" data-class="contour" fill="none" id="svg_27" stroke="rgb(0, 0, 0)" stroke-linecap="round" stroke-linejoin="round" stroke-width="5"/>
    <path d="m404.44,112.3c27.62,59.67 48.9,90.05 77.71,139.6" data-class="contour" fill="none" id="svg_28" stroke="rgb(0, 0, 0)" stroke-linecap="round" stroke-linejoin="round" stroke-width="5"/>
    <path d="m453.71,212.12c38.22,49.37 53.19,99.69 126.15,185.58" data-class="contour" fill="none" id="svg_29" stroke="rgb(0, 0, 0)" stroke-linecap="round" stroke-linejoin="round" stroke-width="5"/>
    <path d="m354.08,26.96c-37.08,68.25 -36,63.64 -33.24,118.57" data-class="contour" fill="none" id="svg_30" stroke="rgb(0, 0, 0)" stroke-linecap="round" stroke-linejoin="round" stroke-width="5"/>
    <path d="m338.7,173.02c-29.06,51.88 -21.7,35.87 -45.05,61.32" data-class="contour" fill="none" id="svg_31" stroke="rgb(0, 0, 0)" stroke-linecap="round" stroke-linejoin="round" stroke-width="5"/>
    <path d="m292.55,235.9c-34.57,116.48 -71.92,49.47 -123.14,148.43" data-class="contour" fill="none" id="svg_32" stroke="rgb(0, 0, 0)" stroke-linecap="round" stroke-linejoin="round" stroke-width="5"/>
    <path d="m395.95,107.78c-17.69,-38.62 -14.9,-25.25 -13.14,18.09" data-class="contour" fill="none" id="svg_33" stroke="rgb(0, 0, 0)" stroke-linecap="round" stroke-linejoin="round" stroke-width="5"/>
    <path d="m381.65,122.09c-0.13,130.21 0.91,128.77 7.34,172.88" data-class="contour" fill="none" id="svg_34" stroke="rgb(0, 0, 0)" stroke-linecap="round" stroke-linejoin="round" stroke-width="5"/>
    <path d="m376.1,187.5c-27.9,33.82 -36.98,71.58 -54.12,101.46" data-class="contour" fill="none" id="svg_35" stroke="rgb(0, 0, 0)" stroke-linecap="round" stroke-linejoin="round" stroke-width="5"/>
    <path d="m101.24,404.39c97.61,2.07 82.19,-35.87 129.06,-65.05" data-class="ridge" fill="none" id="svg_36" stroke="rgb(0, 0, 0)" stroke-linecap="round" stroke-linejoin="round" stroke-width="5"/>
    <path d="m227.03,338.16c14.74,5.86 47.89,45.15 38.87,35.33" data-class="ridge" fill="none" id="svg_37" stroke="rgb(0, 0, 0)" stroke-linecap="round" stroke-linejoin="round" stroke-width="5"/>
    <path d="m227.49,406.55c70.83,-9.99 64.95,-36.49 122.12,-98.35" data-class="ridge" fill="none" id="svg_38" stroke="rgb(0, 0, 0)" stroke-linecap="round" stroke-linejoin="round" stroke-width="5"/>
    <path d="m346.75,308.19c33.71,46.19 60.74,99.62 117.67,115.25" data-class="ridge" fill="none" id="svg_39" stroke="rgb(0, 0, 0)" stroke-linecap="round" stroke-linejoin="round" stroke-width="5"/>
    <path d="m443.06,394.87c2.47,-1.46 22.89,-37.83 49.71,-81.71" data-class="ridge" fill="none" id="svg_40" stroke="rgb(0, 0, 0)" stroke-linecap="round" stroke-linejoin="round" stroke-width="5"/>
    <path d="m492.35,310.24c19.74,23.39 38.91,46.24 108.24,120.27" data-class="ridge" fill="none" id="svg_41" stroke="rgb(0, 0, 0)" stroke-linecap="round" stroke-linejoin="round" stroke-width="5"/>
    <path d="m266.09,292.53c-18.08,-5.55 63.73,1.25 58.06,-3.58" data-class="ridge" fill="none" id="svg_42" stroke="rgb(0, 0, 0)" stroke-linecap="round" stroke-linejoin="round" stroke-width="5"/>
    <path d="m303.88,317.06c63.34,-77.02 43.53,-114.85 91.15,40.15" data-class="ridge" fill="none" id="svg_43" stroke="rgb(0, 0, 0)" stroke-linecap="round" stroke-linejoin="round" stroke-width="5"/>
    <path d="m438.27,293.11c12.28,27.73 -44.69,6.54 74.27,14.66" data-class="ridge" fill="none" id="svg_44" stroke="rgb(0, 0, 0)" stroke-linecap="round" stroke-linejoin="round" stroke-width="5"/>
    <path d="m302.73,229.63c-13.17,38.27 -0.44,31.38 43.54,-18.14" data-class="contour" fill="none" id="svg_45" stroke="rgb(0, 0, 0)" stroke-linecap="round" stroke-linejoin="round" stroke-width="5"/>
    <path d="m341.35,215.59c27.23,-37.56 33.4,-82.81 53.05,-30.19" data-class="contour" fill="none" id="svg_46" stroke="rgb(0, 0, 0)" stroke-linecap="round" stroke-linejoin="round" stroke-width="5"/>
    <path d="m390.68,174.77c19.1,21.62 17.44,54.5 53.11,73.42" data-class="contour" fill="none" id="svg_47" stroke="rgb(0, 0, 0)" stroke-linecap="round" stroke-linejoin="round" stroke-width="5"/>
    <path d="m323.3,195.26c17.44,-25.87 32.13,-19.04 43.05,-57.44" data-class="contour" fill="none" id="svg_48" stroke="rgb(0, 0, 0)" stroke-linecap="round" stroke-linejoin="round" stroke-width="5"/>
    <path d="m356.34,155.77c18.51,-11.55 13.11,-19.98 26.61,-36.18" data-class="contour" fill="none" id="svg_49" stroke="rgb(0, 0, 0)" stroke-linecap="round" stroke-linejoin="round" stroke-width="5"/>
    <path d="m366.88,141.81c19.94,-33.33 4.42,-5.78 36.29,21.22" data-class="contour" fill="none" id="svg_50" stroke="rgb(0, 0, 0)" stroke-linecap="round" stroke-linejoin="round" stroke-width="5"/>
    <path d="m384.36,139.26c3.52,4.13 16.13,23.99 52.53,72.37" data-class="contour" fill="none" id="svg_51" stroke="rgb(0, 0, 0)" stroke-linecap="round" stroke-linejoin="round" stroke-width="5"/>
   </g>
  </g>
  <g id="svg_52" transform="matrix(0.572072 0 0 0.572072 202.128 348.557)">
   <defs stroke-width="6">
    <style stroke-width="6">.white-box-bg { fill: white; stroke: none; }
      .stroke-group { stroke-linecap: round; stroke-linejoin: round; }</style>
   </defs>
   <path class="white-box-bg" d="m18.15,544.67l0.51,0.32l0.99,0.62l1.2,0.91l1.09,1.03l0.99,1.13l0.97,1.38l0.88,1.39l0.82,1.17l0.12,0.15l0.95,1.12l0.13,0.14l1.07,1.02l0.14,0.13l1.16,0.91l0.16,0.11l1.24,0.79l0.16,0.1l1.31,0.66l0.18,0.08l1.37,0.54l0.18,0.06l1.42,0.4l0.19,0.04l1.45,0.26l0.19,0.02l1.47,0.12l0.19,0l1.47,-0.03l0.19,-0.01l1.46,-0.17l0.19,-0.04l1.44,-0.31l0.19,-0.05l1.4,-0.46l0.18,-0.07l1.35,-0.59l0.17,-0.08l1.28,-0.72l0.16,-0.11l1.21,-0.84l0.16,-0.12l1.11,-0.95l0.69,-0.65l1.39,-1.19l1.2,-0.84l1.27,-0.71l1.34,-0.59l1.39,-0.46l1.43,-0.32l1.45,-0.17l1.46,-0.04l1.46,0.11l1.44,0.25l1.41,0.39l1.37,0.52l1.3,0.66l1.24,0.78l0.1,0.07l0.56,0.42l1.06,0.75l1.25,0.78l0.17,0.1l1.31,0.66l0.18,0.08l1.37,0.53l0.18,0.06l1.42,0.39l0.19,0.04l1.45,0.25l0.19,0.03l1.47,0.1l0.19,0.01l1.47,-0.04l0.2,-0.01l1.46,-0.18l0.19,-0.04l1.43,-0.32l0.19,-0.05l1.4,-0.46l0.18,-0.07l1.34,-0.6l0.17,-0.09l1.28,-0.72l0.17,-0.1l1.2,-0.85l0.15,-0.12l1.12,-0.96l0.4,-0.39l0.77,-0.79l0.1,-0.11l0.27,-0.31l6.31,-7.36l2.69,-3.13l1.3,-1.37l1.15,-0.98l1.24,-0.87l1.32,-0.73l1.39,-0.6l1.44,-0.46l1.48,-0.3l1.51,-0.16l1.51,0l1.79,0.17l1.1,0.2l4.71,0.99l1.36,0.32l2.05,0.57l1.79,0.59l1.38,0.61l1.31,0.75l1.23,0.88l1.13,1l1.03,1.11l0.91,1.2l0.21,0.35l0.24,0.37l0.82,1.28l0.81,1.12l0.15,0.19l0.97,1.11l0.13,0.14l1.07,1.01l0.15,0.12l1.16,0.9l0.16,0.11l1.25,0.78l0.17,0.09l1.32,0.66l0.17,0.08l1.38,0.52l0.18,0.06l1.42,0.38l0.19,0.04l1.45,0.25l0.2,0.02l1.46,0.1l0.2,0l1.47,-0.04l0.19,-0.02l1.46,-0.19l0.19,-0.03l1.43,-0.33l0.19,-0.05l1.39,-0.47l0.18,-0.08l1.34,-0.6l0.18,-0.09l1.27,-0.73l0.16,-0.1l1.2,-0.86l0.2,-0.15l0.53,-0.44l1.69,-1.47l1.19,-0.84l1.28,-0.73l1.34,-0.6l1.39,-0.47l1.44,-0.32l1.45,-0.19l1.47,-0.04l1.47,0.11l1.45,0.24l1.41,0.39l1.37,0.52l1.32,0.66l1.24,0.78l1.16,0.9l1.07,1.01l1.21,1.38l0.19,0.25l0.93,1.08l0.17,0.17l1.07,1.01l0.14,0.13l1.16,0.9l0.16,0.11l1.24,0.79l0.17,0.1l1.32,0.66l0.17,0.07l1.38,0.53l0.18,0.06l1.42,0.39l0.19,0.05l1.45,0.25l0.19,0.02l1.47,0.11l0.19,0l1.47,-0.04l0.19,-0.01l1.46,-0.18l0.19,-0.04l1.44,-0.32l0.18,-0.05l1.4,-0.47l0.18,-0.06l1.35,-0.6l0.17,-0.09l1.28,-0.73l0.16,-0.1l1.2,-0.85l0.16,-0.12l1.11,-0.96l0.14,-0.13l1.01,-1.07l0.37,-0.42l0.69,-0.87l0.09,-0.12l0.24,-0.33l2.08,-2.98l1.24,-1.59l1.12,-1.16l1.24,-1.03l1.69,-1.11l0.95,-0.56l1.2,-0.78l0.19,-0.14l1.15,-0.92l0.14,-0.12l1.06,-1.03l0.38,-0.41l0.72,-0.84l0.15,-0.19l1.01,-1.16l0.88,-0.85l1.19,-0.98l0.35,-0.27l1.09,-0.92l0.17,-0.16l1.04,-1.05l0.12,-0.14l0.93,-1.15l0.11,-0.15l0.81,-1.23l0.1,-0.18l0.68,-1.29l0.29,-0.62l1,-1.88l0.97,-1.4l1.4,-1.6l3.73,-3.81l1.35,-1.26l3.17,-2.75l1.66,-1.3l2.52,-1.8l1.96,-1.25l2,-1.14l2.19,-1.09l1.71,-0.74l2.27,-0.83l1.77,-0.55l2.16,-0.56l2.18,-0.44l1.9,-0.3l2.87,-0.33l1.54,-0.13l3.72,-0.17l1.13,-0.03l4.67,0.02l0.73,0.02l5.62,0.2l0.36,0.02l3.31,0.17l1.81,0.18l1.43,0.29l1.4,0.43l1.35,0.55l1.29,0.69l1.21,0.81l1.13,0.93l1.03,1.03l0.93,1.12l0.82,1.21l0.69,1.29l0.57,1.34l0.43,1.4l0.29,1.43l0.16,1.45l0.01,1.83l-0.02,0.58l0.01,1.43l0.01,0.24l0.15,1.46l0.03,0.19l0.3,1.45l0.04,0.18l0.44,1.41l0.07,0.18l0.57,1.36l0.08,0.17l0.7,1.29l0.23,0.38l0.81,1.21l0.92,1.11l0.29,0.32l1.01,1.01l0.14,0.12l1.1,0.91l0.15,0.11l1.18,0.8l0.16,0.1l1.25,0.68l0.17,0.08l1.31,0.57l0.18,0.06l1.36,0.43l0.52,0.14l1.05,0.24l0.14,0.03l0.39,0.07l0.62,0.1l0.3,0.05l0.34,0.05l0.56,0.07l0.46,0.05l0.33,0.03l1.88,0.15l0.11,0.01l0.12,0.01l0.22,0.02l0.17,0.01l0.12,0.01l2.86,0.15l0.22,0.01l4.1,0.15l0.15,0.01l3.61,0.1l1.86,0.14l1.47,0.26l1.44,0.41l1.38,0.55l1.33,0.68l1.25,0.81l1.17,0.93l1.06,1.05l0.96,1.14l0.84,1.24l0.71,1.31l0.58,1.37l0.44,1.43l0.29,1.46l0.15,1.49l0,1.49l-0.15,1.48l-0.3,1.47l-0.55,1.78l-0.34,0.93l-0.12,0.34l-0.01,0.05l-0.31,1.01l-0.15,0.59l-0.3,1.44l-0.03,0.19l-0.16,1.46l-0.01,0.2l-0.01,1.47l0.01,0.19l0.13,1.47l0.02,0.19l0.28,1.44l0.04,0.19l0.42,1.41l0.06,0.18l0.55,1.37l0.08,0.17l0.68,1.31l0.1,0.16l0.81,1.24l0.11,0.15l0.93,1.15l0.12,0.14l1.04,1.05l0.14,0.13l1.13,0.95l0.15,0.11l1.22,0.83l0.16,0.1l1.29,0.71l0.18,0.08l1.35,0.58l0.18,0.06l1.41,0.44l0.18,0.05l1.44,0.3l0.19,0.03l1.47,0.16l0.19,0.01l1.47,0.01l0.19,0l1.47,-0.14l0.19,-0.02l1.45,-0.28l0.18,-0.04l1.42,-0.42l0.18,-0.06l1.36,-0.55l0.18,-0.08l1.3,-0.68l0.17,-0.1l1.23,-0.81l0.16,-0.11l1.14,-0.92l0.15,-0.13l1.05,-1.03l0.13,-0.14l0.94,-1.13l0.12,-0.16l0.82,-1.21l0.11,-0.17l0.7,-1.29l0.24,-0.5l0.45,-1.02l0.05,-0.14l0.15,-0.38l2.4,-6.58l2.76,-7.52l2.96,-8.01l0.57,-1.53l0.69,-1.62l0.67,-1.24l0.78,-1.17l0.89,-1.08l0.98,-1.01l1.08,-0.9l1.16,-0.8l1.22,-0.69l1.29,-0.57l1.33,-0.44l1.71,-0.4l0.12,-0.03l1.39,-0.32l0.24,-0.07l1.39,-0.47l0.86,-0.34l1.75,-0.59l1.43,-0.34l1.45,-0.19l1.47,-0.04l1.47,0.09l1.45,0.24l1.78,0.48l1.6,0.51l1.08,0.31l0.13,0.03l0.4,0.09l1.05,0.22l0.24,0.05l0.26,0.05l0.45,0.08l0.37,0.06l0.26,0.04l1.55,0.23l0.16,0.02l0.19,0.03l0.31,0.04l0.25,0.02l0.18,0.02l1.91,0.2l0.12,0.01l0.14,0.01l0.22,0.02l0.19,0.01l0.13,0.01l2.17,0.15l0.09,0.01l0.11,0l0.17,0.01l0.14,0.01l0.11,0.01l2.34,0.1l0.07,0l0.09,0l0.14,0.01l0.11,0l0.09,0l2.27,0.06l0.23,0l2.69,0.02l0.23,0l2.6,-0.01l0.21,-0.01l2.5,-0.05l0.2,0l2.34,-0.08l0.21,-0.01l2.12,-0.11l0.23,-0.01l2.03,-0.13l0.11,0l0.06,-0.01l0.15,-0.01l0.12,-0.01l0.09,-0.01l1.32,-0.11l0.12,-0.01l0.14,-0.02l0.23,-0.02l0.19,-0.02l0.14,-0.02l0.76,-0.09l0.26,-0.03l0.29,-0.04l0.49,-0.08l0.4,-0.07l0.29,-0.05l0.07,-0.01l0.37,-0.08l0.05,-0.01l1.07,-0.27l0.6,-0.18l1.45,-0.51l0.42,-0.18l1.35,-0.63l1.28,-0.77l0.35,-0.24l1.16,-0.86l0.15,-0.12l1.07,-0.97l0.14,-0.13l0.97,-1.07l0.12,-0.15l0.87,-1.16l0.11,-0.16l0.75,-1.23l0.09,-0.17l0.63,-1.31l0.08,-0.17l0.5,-1.36l0.05,-0.18l0.37,-1.4l0.04,-0.19l0.23,-1.43l0.02,-0.19l0.09,-1.44l0.01,-0.19l-0.05,-1.45l-0.02,-0.19l-0.19,-1.43l-0.03,-0.19l-0.33,-1.41l-0.05,-0.18l-0.46,-1.38l-0.07,-0.17l-0.59,-1.33l-0.08,-0.17l-0.72,-1.26l-0.1,-0.16l-0.83,-1.18l-0.12,-0.15l-0.94,-1.1l-0.13,-0.14l-1.05,-1l-0.14,-0.12l-1.14,-0.9l-0.15,-0.11l-1.22,-0.78l-0.38,-0.22l-1.3,-0.67l-1.35,-0.53l-0.43,-0.15l-1.42,-0.41l-0.54,-0.12l-1.09,-0.22l-0.15,-0.02l-0.4,-0.06l-0.22,-0.03l-0.25,-0.03l-0.28,-0.03l-0.48,-0.04l-0.38,-0.03l-0.28,-0.02l-0.88,-0.06l-0.37,-0.02l-0.04,0l-1.06,0l-0.61,0.02l-1.47,0.12l-0.19,0.03l-1.44,0.26l-1.15,0.27l-1.92,0.35l-1.94,0.14l-1.08,0.02l-0.3,0.01l-2.01,0.01l-0.33,0l-1.98,-0.01l-0.38,0l-1.86,-0.05l-0.45,-0.01l-1.64,-0.07l-0.56,-0.04l-1.27,-0.08l-0.72,-0.06l-0.72,-0.08l-0.9,-0.11l-1.37,-0.24l-0.08,-0.02l-0.36,-0.07l-0.68,-0.13l-1.77,-0.42l-1.38,-0.47l-1.32,-0.6l-1.26,-0.73l-1.19,-0.85l-1.09,-0.96l-1,-1.07l-0.89,-1.15l-0.77,-1.23l-0.65,-1.31l-0.52,-1.36l-0.39,-1.4l-0.25,-1.44l-0.1,-1.45l0.03,-1.46l0.18,-1.45l0.31,-1.42l0.57,-1.73l3.57,-9.35l3.85,-10.06l3.86,-10.02l3.83,-9.94l3.15,-8.14l0.66,-1.51l0.79,-1.43l0.45,-0.74l0.68,-1.26l0.26,-0.54l0.44,-1.02l0.06,-0.14l0.14,-0.38l1.46,-4.01l0.06,-0.16l1.8,-4.85l1.71,-4.54l0.73,-1.69l0.71,-1.28l0.83,-1.2l0.95,-1.12l1.05,-1.02l1.15,-0.92l1.23,-0.79l1.31,-0.68l1.36,-0.54l1.41,-0.4l1.44,-0.27l1.46,-0.12l1.47,0.02l1.46,0.16l1.43,0.3l1.4,0.45l1.35,0.57l0.32,0.18l0.39,0.21l1.32,0.68l1.3,0.59l0.22,0.08l1.39,0.48l0.19,0.05l1.43,0.34l0.19,0.04l1.46,0.19l0.19,0.02l1.47,0.05l0.2,0l1.46,-0.1l0.29,-0.03l0.67,-0.09l2.12,-0.34l1.48,-0.08l1.49,0.06l1.46,0.2l1.45,0.35l1.39,0.5l1.35,0.62l1.27,0.76l1.2,0.88l1.1,0.99l1,1.1l0.88,1.19l0.76,1.27l0.63,1.34l0.5,1.4l0.45,1.8l1.54,7.92l1.77,9.03l1.82,9.39l1.89,9.78l1.97,10.21l2.04,10.68l2.12,11.21l2.2,11.76l2.3,12.35l2.39,13l2.44,13.36l0.07,0.36l0.01,0.05l0.25,1.03l0.16,0.58l0.47,1.4l0.07,0.18l0.61,1.34l0.08,0.17l0.74,1.28l0.1,0.16l0.85,1.2l0.12,0.15l0.97,1.11l0.13,0.14l1.08,1.01l0.14,0.12l1.17,0.9l0.16,0.11l1.24,0.78l0.17,0.1l1.32,0.65l0.18,0.08l1.37,0.52l0.19,0.06l1.42,0.38l0.18,0.05l1.46,0.24l0.19,0.02l1.47,0.1l0.19,0.01l1.47,-0.05l0.19,-0.01l1.46,-0.19l0.19,-0.04l1.44,-0.33l0.18,-0.05l1.4,-0.47l0.18,-0.07l1.34,-0.6l0.17,-0.09l1.28,-0.73l0.16,-0.11l1.2,-0.85l0.15,-0.12l1.11,-0.97l0.14,-0.13l1.01,-1.07l0.12,-0.15l0.9,-1.16l0.11,-0.16l0.78,-1.25l0.1,-0.17l0.65,-1.31l0.08,-0.18l0.52,-1.38l0.06,-0.18l0.38,-1.42l0.05,-0.19l0.24,-1.45l0.02,-0.19l0.1,-1.47l0.01,-0.19l-0.05,-1.47l-0.04,-0.56l-0.13,-1.1l-0.02,-0.15l-0.07,-0.4l-2.42,-13.28l-0.01,-0.03l-2.39,-13.03l-0.01,-0.03l-2.3,-12.39l-0.01,-0.03l-2.21,-11.79l0,-0.02l-2.13,-11.24l0,-0.02l-2.05,-10.72l0,-0.02l-1.97,-10.24l0,-0.01l-1.9,-9.81l-1.83,-9.42l-1.77,-9.07l-1.71,-8.75l-1.66,-8.46l-1.6,-8.21l-1.56,-8.03l-1.52,-7.86l-1.49,-7.75l-1.45,-7.67l-1.43,-7.65l-1.36,-7.36l-0.07,-0.36l-0.01,-0.04l-0.25,-1.03l-0.17,-0.59l-0.47,-1.39l-0.07,-0.18l-0.61,-1.34l-0.09,-0.17l-0.73,-1.28l-0.11,-0.16l-0.85,-1.2l-0.12,-0.15l-0.97,-1.11l-0.14,-0.13l-1.07,-1.01l-0.15,-0.13l-1.16,-0.89l-0.31,-0.22l-0.55,-0.36l-1.71,-1.08l-1.17,-0.91l-1.08,-1.03l-0.97,-1.12l-0.85,-1.22l-0.73,-1.3l-0.6,-1.36l-0.46,-1.42l-0.31,-1.45l-0.17,-1.48l-0.02,-1.49l0.12,-1.48l0.27,-1.47l0.52,-1.78l1.33,-3.85l0.37,-1l2.17,-5.42l0.4,-0.94l2.64,-5.82l0.41,-0.85l3.2,-6.33l0.4,-0.75l3.83,-6.93l0.38,-0.65l4.54,-7.59l0.34,-0.56l5.32,-8.33l0.31,-0.46l6.15,-9.12l0.27,-0.39l7.02,-9.96l0.21,-0.3l0.02,-0.04l0.56,-0.9l0.3,-0.52l0.67,-1.32l0.08,-0.17l0.53,-1.37l0.06,-0.18l0.4,-1.42l0.05,-0.19l0.25,-1.45l0.03,-0.19l0.11,-1.47l0.01,-0.19l-0.03,-1.47l-0.02,-0.23l-0.12,-1.03l0,0l-0.25,-2.11l-0.03,-1.42l0.1,-1.41l0.23,-1.4l0.37,-1.37l0.49,-1.33l0.62,-1.28l0.73,-1.21l1.06,-1.43l0.86,-1.05l0.9,-1.22l0.09,-0.12l0.75,-1.27l0.09,-0.17l0.62,-1.33l0.08,-0.18l0.49,-1.39l0.05,-0.18l0.36,-1.43l0.03,-0.19l0.21,-1.46l0.06,-0.55l0.06,-1.11l0,-0.15l0.01,-0.41l-0.06,-8.55l-0.01,-0.43l-0.01,-0.47l-0.05,-0.8l-0.06,-0.65l-0.05,-0.47l-0.95,-7.85l-0.05,-0.43l-0.08,-0.49l-0.14,-0.81l-0.14,-0.66l-0.11,-0.48l-1.75,-7.26l-0.11,-0.42l-0.13,-0.48l-0.24,-0.79l-0.21,-0.64l-0.17,-0.46l-2.5,-6.75l-0.15,-0.39l-0.18,-0.44l-0.31,-0.74l-0.28,-0.59l-0.21,-0.42l-3.19,-6.32l-0.18,-0.35l-0.21,-0.39l-0.37,-0.64l-0.31,-0.52l-0.24,-0.38l-3.84,-5.94l-0.19,-0.3l-0.23,-0.33l-0.39,-0.55l-0.33,-0.44l-0.25,-0.32l-4.44,-5.61l-0.2,-0.25l-0.22,-0.27l-0.39,-0.45l-0.32,-0.37l-0.24,-0.26l-5,-5.32l-0.19,-0.2l-0.21,-0.22l-0.37,-0.36l-0.3,-0.29l-0.22,-0.21l-5.5,-5.06l-0.17,-0.15l-0.19,-0.17l-0.32,-0.29l-0.27,-0.22l-0.2,-0.17l-5.93,-4.82l-0.15,-0.12l-0.16,-0.13l-0.29,-0.22l-0.23,-0.17l-0.17,-0.13l-6.29,-4.61l-0.12,-0.09l-0.14,-0.1l-0.23,-0.17l-0.2,-0.13l-0.14,-0.09l-6.58,-4.43l-0.1,-0.07l-0.11,-0.07l-0.18,-0.12l-0.15,-0.09l-0.11,-0.07l-6.8,-4.28l-0.07,-0.04l-0.08,-0.05l-0.13,-0.08l-0.1,-0.07l-0.08,-0.04l-6.82,-4.09l-0.17,-0.09l-7.2,-4.2l-0.07,-0.03l-6.97,-4.01l-6.64,-3.86l-0.27,-0.17l-5.99,-3.59l-0.47,-0.29l-5.62,-3.57l-0.31,-0.19l-0.04,-0.02l-0.93,-0.51l-0.54,-0.28l-1.34,-0.6l-0.18,-0.07l-1.4,-0.47l-0.34,-0.1l-1.27,-0.29l-0.55,-0.11l-0.6,-0.1l-2.32,-0.34l-2.14,-0.44l-2.07,-0.69l-0.33,-0.13l-1.65,-0.75l-1.26,-0.73l-1.18,-0.85l-1.09,-0.96l-1,-1.06l-0.89,-1.15l-0.77,-1.23l-0.65,-1.3l-0.65,-1.7l-0.25,-0.76l-0.49,-1.29l-0.09,-0.21l-0.63,-1.27l-0.26,-0.47l-0.55,-0.92l-0.08,-0.12l-0.22,-0.33l-0.17,-0.25l-0.2,-0.29l-0.03,-0.03l-0.61,-0.79l-0.37,-0.45l-0.94,-1.03l-0.13,-0.13l-1.03,-0.94l-0.14,-0.11l-1.11,-0.84l-0.44,-0.3l-0.88,-0.56l-0.13,-0.07l-0.34,-0.2l-0.92,-0.5l-0.48,-0.26l-0.54,-0.27l-0.93,-0.43l-0.76,-0.32l-0.57,-0.23l-1.96,-0.73l-0.23,-0.09l-0.27,-0.1l-0.45,-0.15l-0.37,-0.12l-0.27,-0.08l-3.26,-0.98l-0.14,-0.04l-0.16,-0.04l-0.27,-0.08l-0.21,-0.06l-0.16,-0.04l-4.21,-1.08l-0.09,-0.03l-0.11,-0.02l-0.17,-0.04l-0.15,-0.04l-0.1,-0.02l-4.95,-1.14l-0.08,-0.02l-0.04,-0.01l-0.19,-0.04l-5.56,-1.18l-0.2,-0.04l-6.18,-1.22l-0.17,-0.03l-6.47,-1.2l-0.14,-0.03l-6.66,-1.17l-0.12,-0.02l-6.74,-1.13l-0.1,-0.02l-6.69,-1.07l-0.1,-0.01l-6.52,-1l-0.11,-0.02l-6.24,-0.91l-0.11,-0.01l-5.83,-0.81l-0.13,-0.02l-2.49,-0.32l-2.19,-0.42l-0.24,-0.08l-0.59,-0.17l-1.61,-0.44l-1.36,-0.3l-0.19,-0.04l-1.46,-0.18l-0.55,-0.04l-1.11,-0.05l-0.15,0l-0.41,0.01l-1.68,0.04l-1.01,0l-0.55,-0.01l-2.32,-0.17l-0.84,-0.1l-0.13,-0.02l-3.34,-0.43l-0.14,-0.02l-2.75,-0.38l-0.15,-0.02l-2.19,-0.32l-0.17,-0.02l-1.64,-0.25l-0.19,-0.03l-0.36,-0.05l-0.65,-0.12l-0.44,-0.08l-0.18,-0.03l-0.74,-0.14l-0.19,-0.03l-0.02,0l-0.7,-0.1l-0.7,-0.08l-0.51,-0.05l-0.03,-0.01l-0.17,-0.01l-1.82,-0.13l-2.12,-0.25l-0.71,-0.12l-1.84,-0.4l-1.42,-0.47l-1.37,-0.6l-1.31,-0.75l-1.22,-0.86l-1.13,-0.99l-1.03,-1.09l-0.91,-1.19l-0.79,-1.28l-0.66,-1.35l-0.52,-1.41l-0.37,-1.45l-0.23,-1.48l-0.1,-1.88l0,-2.34l-0.01,-0.36l0,-0.05l-0.06,-1.06l-0.06,-0.6l-0.22,-1.46l-0.04,-0.18l-0.35,-1.43l-0.06,-0.19l-0.49,-1.38l-0.08,-0.18l-0.63,-1.33l-0.09,-0.17l-0.75,-1.27l-0.11,-0.16l-0.87,-1.18l-0.13,-0.15l-0.98,-1.09l-0.14,-0.14l-1.09,-0.98l-0.15,-0.13l-1.18,-0.87l-0.16,-0.11l-1.26,-0.76l-0.17,-0.09l-1.33,-0.63l-0.18,-0.07l-1.39,-0.5l-0.18,-0.06l-1.43,-0.36l-0.19,-0.03l-1.45,-0.22l-0.19,-0.02l-1.47,-0.07l-0.2,0l-1.47,0.07l-0.19,0.02l-1.45,0.21l-0.19,0.04l-1.43,0.35l-0.19,0.06l-1.38,0.5l-0.18,0.07l-1.33,0.63l-0.17,0.09l-1.26,0.75l-0.16,0.11l-1.19,0.88l-0.15,0.12l-1.09,0.99l-0.13,0.13l-0.99,1.09l-0.13,0.15l-0.87,1.18l-0.11,0.16l-0.76,1.26l-0.09,0.17l-0.63,1.33l-0.07,0.18l-0.5,1.39l-0.06,0.18l-0.36,1.43l-0.03,0.19l-0.22,1.45l-0.06,0.56l-0.06,1.1l-0.01,0.15l0,0.42l0.08,34.29l-0.11,2.05l-0.27,1.63l-0.67,2.39l0,0l-0.12,0.42l-0.16,0.61l-0.31,1.51l-0.03,0.2l-0.16,1.53l-0.01,0.2l0.01,1.54l0.01,0.2l0.16,1.53l0.03,0.21l0.31,1.49l0.15,0.54l0.33,1.55l0.17,1.26l0.06,1.29l0.01,0.2l0.02,0.28l0.56,12.18l0.02,1.08l-0.04,26.59l-0.07,23.6l-0.05,19.91l0,0.03l0,16.48l0,0.08l0.06,13.27l0,0.17l0.17,10.54l0,0.09l0,0.09l0.01,0.16l0,0.13l0.01,0.09l0.29,7.49l0,0.18l0.02,0.2l0.02,0.34l0.02,0.28l0.01,0.2l0.41,4.7l0.05,0.44l0.06,0.49l0.12,0.83l0.11,0.67l0.1,0.49l0.48,2.31l0.08,0.37l0.01,0.05l0.3,1.07l0.19,0.61l0.54,1.45l0.08,0.19l0.69,1.38l0.29,0.51l0.61,0.99l0.08,0.14l0.25,0.35l0.41,0.59l0.23,0.3l0.03,0.04l0.68,0.84l0.41,0.48l1.05,1.09l0.26,0.24l0.53,0.47l1.55,1.32l1.02,1.07l0.91,1.16l0.8,1.24l0.67,1.32l0.53,1.37l0.4,1.43l0.26,1.45l0.11,1.47l-0.03,1.48l-0.18,1.47l-0.33,1.44l-0.46,1.4l-0.6,1.35l-0.73,1.28l-1.06,1.51l-2.43,3.1l-0.13,0.17l-5.24,6.56l-0.09,0.12l-0.48,0.59l-1.34,1.49l-1.5,1.34l-0.54,0.43l-1.07,0.94l-0.17,0.17l-1,1.08l-0.16,0.19l-0.87,1.12l-0.44,0.63l-0.4,0.61l-2.53,4.05l-1.66,2.31l-3.84,4.7l-0.01,0.01l-5.3,6.51l-0.05,0.05l-5.27,6.54l-0.07,0.09l-5.26,6.6l-0.09,0.12l-2.87,3.69l-1.25,1.44l-1.6,1.51l-0.81,0.76l-0.42,0.43l-0.75,0.83l-0.09,0.11l-0.26,0.32l-4.34,5.49l-0.13,0.16l-4.55,5.64l-0.11,0.14l-4.62,5.64l-0.11,0.12l-4.69,5.64l-0.09,0.11l-4.76,5.66l-0.08,0.09l-4.83,5.67l-4.97,5.79l-5.04,5.82l-5.08,5.87l-5.14,5.9l-5.17,5.94l-5.21,6.01l-0.02,0.02l-5.24,6.07l-0.03,0.03l-5.28,6.14l-0.04,0.04l-5.32,6.23l-0.04,0.06l-5.36,6.33l-0.05,0.06l-0.73,0.87l-0.63,0.72l-4.45,4.88l-0.02,0.02l-5.45,6l-0.02,0.02l-5.34,5.9l-0.02,0.02l-5.27,5.84l-0.02,0.03l-5.2,5.79l-0.02,0.02l-5.17,5.78l-0.02,0.02l-5.15,5.78l-0.02,0.02l-5.15,5.8l-0.02,0.02l-5.17,5.85l-0.02,0.02l-5.22,5.91l-0.02,0.02l-5.28,6.01l-0.01,0.02l-5.37,6.12l-0.02,0.02l-5.47,6.26l-0.01,0.02l-5.6,6.42l-0.01,0.01l-4.18,4.8l-1.3,1.36l-1.15,0.97l-1.23,0.85l-1.32,0.73l-1.38,0.59l-1.79,0.56l-0.87,0.22l-0.24,0.07l-0.27,0.07l-0.46,0.13l-0.37,0.12l-0.27,0.09l-9.83,3.26l-0.25,0.08l-0.28,0.1l-0.47,0.17l-0.38,0.15l-0.27,0.11l-9.73,4.01l-0.34,0.15l-0.04,0.02l-0.95,0.46l-0.54,0.28l-1.27,0.75l-0.16,0.11l-1.18,0.87l-0.15,0.12l-1.1,0.98l-0.13,0.14l-1,1.09l-0.12,0.14l-0.88,1.18l-0.11,0.16l-0.76,1.26l-0.09,0.17l-0.64,1.33l-0.07,0.17l-0.51,1.39l-0.05,0.18l-0.37,1.43l-0.04,0.19l-0.22,1.45l-0.02,0.19l-0.08,1.47l0,0.2l0.07,1.47l0.01,0.19l0.21,1.46l0.04,0.18l0.35,1.43l0.06,0.19l0.49,1.39l0.07,0.17l0.62,1.34l0.09,0.17l0.75,1.26l0.11,0.17l0.87,1.18l0.12,0.15l0.99,1.1l0.13,0.13l1.09,1l0.14,0.12l1.18,0.88l0.76,0.52" id="svg_53" stroke-width="6"/>
   <g class="stroke-group" fill="none" id="road" stroke="black" stroke-width="4.88">
    <path d="m39.07,542.32c42.17,-48.8 69.31,-79.77 104.99,-118.84" data-class="edge" fill="none" id="svg_54" stroke="rgb(0, 0, 0)" stroke-linecap="round" stroke-linejoin="round" stroke-width="6"/>
    <path d="m128.48,442.3c34.6,-42.76 67.52,-77.23 97.17,-115.1" data-class="edge" fill="none" id="svg_55" stroke="rgb(0, 0, 0)" stroke-linecap="round" stroke-linejoin="round" stroke-width="6"/>
    <path d="m217.83,339.05c32.55,-45.09 67.43,-77.7 102.8,-139.91" data-class="edge" fill="none" id="svg_56" stroke="rgb(0, 0, 0)" stroke-linecap="round" stroke-linejoin="round" stroke-width="6"/>
    <path d="m283.14,199.34c-22.44,33.34 -16.7,70.66 -17.53,-172.38" data-class="edge" fill="none" id="svg_57" stroke="rgb(0, 0, 0)" stroke-linecap="round" stroke-linejoin="round" stroke-width="6"/>
    <path d="m535.21,537.2c-16.15,-89.08 -25.98,-134.68 -34.92,-183.62" data-class="edge" fill="none" id="svg_58" stroke="rgb(0, 0, 0)" stroke-linecap="round" stroke-linejoin="round" stroke-width="6"/>
    <path d="m474.64,392.41c5.02,-59.82 2.74,-81.38 52.78,-150.92" data-class="edge" fill="none" id="svg_59" stroke="rgb(0, 0, 0)" stroke-linecap="round" stroke-linejoin="round" stroke-width="6"/>
    <path d="m535.19,214.5c2.92,-61.55 -58.54,-82.58 -97.61,-108.27" data-class="edge" fill="none" id="svg_60" stroke="rgb(0, 0, 0)" stroke-linecap="round" stroke-linejoin="round" stroke-width="6"/>
    <path d="m441.71,109.78c-35.8,-14.92 -72.91,-28.84 -139.25,-38.84" data-class="edge" fill="none" id="svg_61" stroke="rgb(0, 0, 0)" stroke-linecap="round" stroke-linejoin="round" stroke-width="6"/>
    <path d="m81.89,539.78c42.54,-49.74 70.34,-80.59 97.82,-119.2" data-class="edge" fill="none" id="svg_62" stroke="rgb(0, 0, 0)" stroke-linecap="round" stroke-linejoin="round" stroke-width="6"/>
    <path d="m161.45,447.29c38.74,-51.79 70.54,-86.35 97.45,-127.17" data-class="edge" fill="none" id="svg_63" stroke="rgb(0, 0, 0)" stroke-linecap="round" stroke-linejoin="round" stroke-width="6"/>
    <path d="m251.49,336.34c27.25,-44.8 62.77,-75.74 102.31,-158.93" data-class="edge" fill="none" id="svg_64" stroke="rgb(0, 0, 0)" stroke-linecap="round" stroke-linejoin="round" stroke-width="6"/>
    <path d="m319.43,203.74c30.49,-65.63 6.98,-92.46 -52.48,-115.02" data-class="edge" fill="none" id="svg_65" stroke="rgb(0, 0, 0)" stroke-linecap="round" stroke-linejoin="round" stroke-width="6"/>
    <path d="m368.32,565.82c15.46,-42.62 45.12,-120.69 66.6,-174.97" data-class="edge" fill="none" id="svg_66" stroke="rgb(0, 0, 0)" stroke-linecap="round" stroke-linejoin="round" stroke-width="6"/>
    <path d="m423.03,423.14c9.62,-26.98 35.03,-88.25 52.09,-153.2" data-class="edge" fill="none" id="svg_67" stroke="rgb(0, 0, 0)" stroke-linecap="round" stroke-linejoin="round" stroke-width="6"/>
    <path d="m472.76,268.01c26.83,-80.25 5.2,-123.08 -63.94,-158.86" data-class="edge" fill="none" id="svg_68" stroke="rgb(0, 0, 0)" stroke-linecap="round" stroke-linejoin="round" stroke-width="6"/>
    <path d="m410.52,110.06c-34.52,-17.18 -64.55,-25.25 -117.84,-33.3" data-class="edge" fill="none" id="svg_69" stroke="rgb(0, 0, 0)" stroke-linecap="round" stroke-linejoin="round" stroke-width="6"/>
    <path d="m199.27,539.51c48.97,-69.29 62.01,-104.24 47.03,-63.89" data-class="center_guide_line" fill="none" id="svg_70" stroke="rgb(0, 0, 0)" stroke-linecap="round" stroke-linejoin="round" stroke-width="6"/>
    <path d="m213.15,525.86c41.3,-57.55 65.23,-35.37 125.33,-39.33" data-class="center_guide_line" fill="none" id="svg_71" stroke="rgb(0, 0, 0)" stroke-linecap="round" stroke-linejoin="round" stroke-width="6"/>
    <path d="m267.8,443.49c-33.9,40.82 -6.34,4.8 9.34,-24.03" data-class="center_guide_line" fill="none" id="svg_72" stroke="rgb(0, 0, 0)" stroke-linecap="round" stroke-linejoin="round" stroke-width="6"/>
    <path d="m284.36,411.43c-3.15,8 -1.74,6.08 17.78,-19.87" data-class="center_guide_line" fill="none" id="svg_73" stroke="rgb(0, 0, 0)" stroke-linecap="round" stroke-linejoin="round" stroke-width="6"/>
    <path d="m273.07,435.39c13.58,-34.91 18.56,-39.57 30.28,-44.81" data-class="center_guide_line" fill="none" id="svg_74" stroke="rgb(0, 0, 0)" stroke-linecap="round" stroke-linejoin="round" stroke-width="6"/>
    <path d="m279.47,425.02c37.93,-51.54 37.75,-47.24 114.38,-45.39" data-class="center_guide_line" fill="none" id="svg_75" stroke="rgb(0, 0, 0)" stroke-linecap="round" stroke-linejoin="round" stroke-width="6"/>
    <path d="m293.56,330.96c-0.39,92.95 -0.21,64.98 31.86,14.33" data-class="center_guide_line" fill="none" id="svg_76" stroke="rgb(0, 0, 0)" stroke-linecap="round" stroke-linejoin="round" stroke-width="6"/>
    <path d="m326.04,348.66c-3.72,14.91 -10.19,9.03 13.81,-26.07" data-class="center_guide_line" fill="none" id="svg_77" stroke="rgb(0, 0, 0)" stroke-linecap="round" stroke-linejoin="round" stroke-width="6"/>
    <path d="m325.89,351c24.06,-30.77 15.23,-75.94 112.32,-68.43" data-class="center_guide_line" fill="none" id="svg_78" stroke="rgb(0, 0, 0)" stroke-linecap="round" stroke-linejoin="round" stroke-width="6"/>
    <path d="m258.94,285.37c99.62,1.1 69.63,1.7 48.3,0.27" data-class="center_guide_line" fill="none" id="svg_79" stroke="rgb(0, 0, 0)" stroke-linecap="round" stroke-linejoin="round" stroke-width="6"/>
    <path d="m345.36,252.63c0.71,92.69 0.34,69.16 9.18,42.11" data-class="center_guide_line" fill="none" id="svg_80" stroke="rgb(0, 0, 0)" stroke-linecap="round" stroke-linejoin="round" stroke-width="6"/>
    <path d="m350.62,305.68c7.03,-17.85 12.71,-19.6 26.42,-44.83" data-class="center_guide_line" fill="none" id="svg_81" stroke="rgb(0, 0, 0)" stroke-linecap="round" stroke-linejoin="round" stroke-width="6"/>
    <path d="m361.71,278.71c31.41,-37.39 17.08,-80.5 98.58,-75.93" data-class="center_guide_line" fill="none" id="svg_82" stroke="rgb(0, 0, 0)" stroke-linecap="round" stroke-linejoin="round" stroke-width="6"/>
    <path d="m377.73,201.09c2.68,-42.11 -0.92,-32.02 -0.04,13.3" data-class="center_guide_line" fill="none" id="svg_83" stroke="rgb(0, 0, 0)" stroke-linecap="round" stroke-linejoin="round" stroke-width="6"/>
    <path d="m376.72,207.67c3.71,37.55 -6.18,60.13 20.27,0.9" data-class="center_guide_line" fill="none" id="svg_84" stroke="rgb(0, 0, 0)" stroke-linecap="round" stroke-linejoin="round" stroke-width="6"/>
    <path d="m396.34,208.62c24.35,-57.85 -15.94,-83.74 -27.72,-98.03" data-class="center_guide_line" fill="none" id="svg_85" stroke="rgb(0, 0, 0)" stroke-linecap="round" stroke-linejoin="round" stroke-width="6"/>
    <path d="m442.61,140.7c-132.51,10.76 -87.96,-13.14 -98.43,33.85" data-class="center_guide_line" fill="none" id="svg_86" stroke="rgb(0, 0, 0)" stroke-linecap="round" stroke-linejoin="round" stroke-width="6"/>
    <path d="m361.09,107.1c23.13,12.07 -7.5,-3.96 -11.94,-6.53" data-class="center_guide_line" fill="none" id="svg_87" stroke="rgb(0, 0, 0)" stroke-linecap="round" stroke-linejoin="round" stroke-width="6"/>
    <path d="m366.16,117.69c-83.21,2.89 -53.46,-10.91 -17.84,-9.15" data-class="center_guide_line" fill="none" id="svg_88" stroke="rgb(0, 0, 0)" stroke-linecap="round" stroke-linejoin="round" stroke-width="6"/>
    <path d="m317.33,88.58c1.75,0.29 12.62,2.5 32.88,12.21" data-class="center_guide_line" fill="none" id="svg_89" stroke="rgb(0, 0, 0)" stroke-linecap="round" stroke-linejoin="round" stroke-width="6"/>
    <path d="m269.57,99.33c77.05,-12.87 57.55,-10.49 -4.5,-18.07" data-class="center_guide_line" fill="none" id="svg_90" stroke="rgb(0, 0, 0)" stroke-linecap="round" stroke-linejoin="round" stroke-width="6"/>
    <path d="m26.96,530.15c65.31,-29.76 135.6,-5.97 124.71,5.53" data-class="roadway" fill="none" id="svg_91" stroke="rgb(0, 0, 0)" stroke-linecap="round" stroke-linejoin="round" stroke-width="6"/>
    <path d="m169.03,509.48c38.84,-49.87 22.49,-46.58 50.86,9.82" data-class="roadway" fill="none" id="svg_92" stroke="rgb(0, 0, 0)" stroke-linecap="round" stroke-linejoin="round" stroke-width="6"/>
    <path d="m324.9,520.18c-2.7,1.59 70.17,1.73 77.01,0.81" data-class="roadway" fill="none" id="svg_93" stroke="rgb(0, 0, 0)" stroke-linecap="round" stroke-linejoin="round" stroke-width="6"/>
    <path d="m426.05,520.34c9.66,2.5 40.15,0.47 28.32,-0.05" data-class="roadway" fill="none" id="svg_94" stroke="rgb(0, 0, 0)" stroke-linecap="round" stroke-linejoin="round" stroke-width="6"/>
    <path d="m289.55,73.42c-31.82,0.48 -30.32,1.95 -16.09,-7.31" data-class="roadway" fill="none" id="svg_95" stroke="rgb(0, 0, 0)" stroke-linecap="round" stroke-linejoin="round" stroke-width="6"/>
    <path d="m266.89,59.98c15.52,-2.56 37.17,5.69 55.89,4.75" data-class="roadway" fill="none" id="svg_96" stroke="rgb(0, 0, 0)" stroke-linecap="round" stroke-linejoin="round" stroke-width="6"/>
    <path d="m271.05,66.62c18.72,0.23 24.49,6.57 34.55,3.09" data-class="roadway" fill="none" id="svg_97" stroke="rgb(0, 0, 0)" stroke-linecap="round" stroke-linejoin="round" stroke-width="6"/>
    <path d="m317.5,64.89c-28.3,-3.45 -19.5,-3.85 -2.47,1.26" data-class="roadway" fill="none" id="svg_98" stroke="rgb(0, 0, 0)" stroke-linecap="round" stroke-linejoin="round" stroke-width="6"/>
    <path d="m318.03,64.97c22.32,2.11 96.93,13.95 88.44,18.36" data-class="roadway" fill="none" id="svg_99" stroke="rgb(0, 0, 0)" stroke-linecap="round" stroke-linejoin="round" stroke-width="6"/>
   </g>
  </g>
  <g id="svg_100" transform="matrix(1 0 0 1 0 0) translate(290.95 450.873) scale(1.05849 1.05849) translate(-290.95 -450.873) translate(-19.6429 28.5714) matrix(0.36 0 0 0.36 308.779 420.487)">
   <defs>
    <style>.white-box-bg { fill: white; stroke: none; }
      .stroke-group { stroke-linecap: round; stroke-linejoin: round; }</style>
   </defs>
   <path class="white-box-bg" d="m21.77,224.22l0.64,0.2l1.82,0.53l1.36,0.55l1.3,0.67l1.23,0.8l1.14,0.92l1.05,1.03l0.94,1.12l0.83,1.21l0.71,1.28l0.57,1.35l0.56,1.74l0.36,1.38l0.1,0.35l0.01,0.04l0.33,0.99l0.2,0.56l0.56,1.32l0.09,0.17l0.68,1.27l0.1,0.16l0.8,1.2l0.12,0.15l0.91,1.11l0.13,0.14l1.02,1.02l0.14,0.13l1.11,0.92l0.15,0.11l1.2,0.81l0.16,0.1l1.27,0.69l0.17,0.08l1.32,0.56l0.18,0.07l1.38,0.43l1.07,0.28l0.53,0.13l0.89,0.2l1.42,0.47l1.36,0.61l1.3,0.75l1.22,0.87l1.12,0.98l1.02,1.1l0.91,1.19l0.78,1.27l0.66,1.35l0.51,1.4l0.37,1.45l0.23,1.48l0.07,1.5l-0.07,1.49l-0.22,1.48l-0.37,1.45l-13.31,-74.32l-0.65,1.35l-0.97,1.6l-0.18,0.25l-0.8,1.31l-0.31,0.58l-0.52,1.07l-0.07,0.15l-0.17,0.41l-2.19,5.38l-0.14,0.34l-0.01,0.04l-0.34,1l-0.17,0.57l-0.36,1.42l-0.03,0.19l-0.21,1.45l-0.06,0.55l-0.06,1.1l-0.01,0.15l0,0.41l0.02,5.4l0,0.35l0.01,0.05l0.06,1l0.05,0.58l0.2,1.4l0.04,0.18l0.32,1.36l0.15,0.52l0.33,1l0.05,0.14l0.14,0.36l2.16,5.42l0.14,0.34l0.02,0.04l0.44,0.94l0.27,0.54l0.73,1.26l0.29,0.46l0.62,0.9l0.09,0.12l0.25,0.32l4.26,5.38l0.24,0.3l0.03,0.03l0.75,0.83l0.71,0.73l0.84,0.81l0.11,0.1l0.33,0.28l6.42,5.35l0.21,0.18l0.03,0.02l0.63,0.48l0.59,0.43l0.69,0.46l0.09,0.06l0.27,0.17l8.44,5.15l0.36,0.21l0.4,0.23l0.68,0.37l0.57,0.28l0.41,0.21l10.36,4.84l0.29,0.14l0.33,0.14l0.57,0.24l0.46,0.18l0.34,0.13l12.37,4.53l0.25,0.09l0.28,0.1l0.48,0.16l0.39,0.12l0.29,0.08l14.25,4.11l0.22,0.06l0.25,0.06l0.42,0.11l0.34,0.08l0.25,0.06l16,3.56l0.2,0.05l0.22,0.04l0.38,0.08l0.3,0.05l0.23,0.04l17.63,2.94l0.19,0.03l0.2,0.03l0.35,0.05l0.28,0.04l0.2,0.02l19.15,2.23l0.18,0.02l0.19,0.02l0.32,0.03l0.27,0.02l0.19,0.01l20.35,1.42l0.37,0.02l0.05,0.01l1.05,0.01l0.61,-0.02l1.47,-0.11l0.19,-0.02l1.45,-0.26l0.19,-0.04l1.42,-0.39l0.18,-0.06l1.37,-0.53l0.18,-0.08l1.31,-0.67l0.17,-0.09l1.24,-0.79l0.16,-0.11l1.16,-0.91l0.15,-0.12l1.06,-1.02l0.43,-0.45l0.43,-0.47l1.06,-1.22l0.5,-0.47l1.01,-1.05l0.91,-1.14l0.8,-1.23l0.67,-1.3l0.27,-0.67l1.01,0.42l1.41,0.43l1.45,0.28l1.47,0.14l1.06,0l2.08,0.1l0.28,0.03l1.42,0.08l0.24,0l1.47,-0.07l0.56,-0.05l1.1,-0.15l0.14,-0.02l0.41,-0.08l10.31,-2.04l0.25,-0.05l0.27,-0.06l0.46,-0.1l0.37,-0.1l0.27,-0.06l9.99,-2.68l0.25,-0.07l0.28,-0.08l0.46,-0.15l0.38,-0.12l0.28,-0.09l9.34,-3.21l0.27,-0.1l0.29,-0.1l0.49,-0.19l0.4,-0.16l0.29,-0.12l8.51,-3.66l0.29,-0.13l0.33,-0.15l0.54,-0.26l0.44,-0.22l0.31,-0.16l7.48,-4l0.33,-0.18l0.38,-0.22l0.61,-0.37l0.5,-0.31l0.36,-0.23l6.23,-4.21l0.4,-0.27l0.57,-0.42l1.59,-1.03l1.35,-0.69l1.41,-0.55l1.46,-0.41l1.5,-0.26l1.51,-0.1l1.51,0.05l1.5,0.2l1.48,0.35l1.43,0.5l1.37,0.64l1.3,0.78l1.52,1.13l0.99,0.82l0.22,0.17l0.03,0.02l0.64,0.48l0.6,0.43l0.69,0.47l0.1,0.06l0.26,0.16l8.67,5.22l0.36,0.2l0.4,0.23l0.68,0.36l0.56,0.28l0.42,0.2l10.69,4.93l0.3,0.13l0.32,0.15l0.56,0.23l0.46,0.17l0.33,0.13l12.84,4.64l0.25,0.09l0.28,0.09l0.46,0.15l0.39,0.12l0.28,0.08l14.85,4.23l0.22,0.06l0.23,0.06l0.41,0.1l0.33,0.08l0.24,0.06l16.75,3.71l0.19,0.04l0.21,0.04l0.36,0.08l0.3,0.05l0.21,0.04l18.52,3.1l0.18,0.03l0.19,0.03l0.33,0.04l0.27,0.04l0.2,0.02l20.19,2.41l0.16,0.02l0.18,0.02l0.31,0.03l0.25,0.02l0.18,0.02l54.54,-23.39l0.37,0.02l0.04,0.01l1.06,0.01l0.61,-0.01l1.47,-0.1l0.19,-0.02l1.45,-0.25l0.19,-0.04l1.42,-0.39l0.18,-0.06l1.38,-0.52l0.17,-0.08l1.32,-0.65l0.17,-0.1l1.25,-0.78l0.15,-0.11l1.17,-0.9l0.14,-0.13l1.07,-1.01l0.14,-0.14l0.96,-1.11l0.12,-0.15l0.86,-1.2l0.1,-0.16l0.73,-1.28l0.09,-0.17l0.6,-1.34l0.07,-0.18l0.47,-1.4l0.05,-0.18l0.33,-1.44l0.03,-0.19l0.19,-1.46l0.01,-0.19l0.05,-1.47l-0.01,-0.19l-0.1,-1.47l-0.02,-0.19l-0.25,-1.45l-0.04,-0.19l-0.39,-1.42l-0.06,-0.19l-0.52,-1.37l-0.08,-0.18l-0.65,-1.32l-0.1,-0.16l-0.78,-1.25l-0.11,-0.16l-0.9,-1.16l-0.12,-0.15l-1.02,-1.07l-0.13,-0.13l-1.11,-0.97l-0.16,-0.12l-1.2,-0.85l-0.16,-0.1l-1.28,-0.74l-0.17,-0.08l-1.34,-0.6l-0.18,-0.07l-1.4,-0.47l-0.18,-0.05l-1.44,-0.33l-0.55,-0.1l-1.09,-0.15l-0.15,-0.02l-0.41,-0.04l-53.81,23.44l-0.99,-0.09l-18.76,-2.24l-1.05,-0.15l-16.97,-2.84l-1.15,-0.23l-15.03,-3.33l-1.29,-0.32l-12.91,-3.67l-1.49,-0.48l-10.54,-3.82l-1.78,-0.72l-1.2,-0.56l-1.64,-0.85l-1.23,-0.81l-1.15,-0.93l-1.05,-1.03l-0.95,-1.13l28.17,40.78l-0.7,-1.3l-0.58,-1.36l-0.43,-1.41l-0.3,-1.44l-0.16,-1.47l-0.01,-1.47l0.14,-1.47l0.28,-1.45l0.42,-1.41l0.56,-1.37l0.69,-1.3l0.81,-1.23l0.93,-1.14l1.04,-1.05l1.14,-0.94l1.22,-0.82l1.3,-0.7l1.7,-0.71l5.35,-1.93l1.77,-0.56l14.34,-3.86l1.4,-0.33l2.58,-0.52l1.86,-0.28l1.5,-0.08l1.5,0.08l1.49,0.23l1.45,0.37l1.77,0.65l0.02,0.01l1.34,0.5l0.23,0.07l1.42,0.38l0.19,0.04l1.45,0.24l0.19,0.02l1.47,0.09l0.19,0l1.48,-0.05l0.19,-0.02l1.46,-0.19l0.18,-0.04l1.44,-0.34l0.18,-0.05l1.39,-0.48l0.18,-0.07l1.34,-0.61l0.5,-0.26l0.96,-0.54l0.13,-0.08l0.35,-0.22l0.62,-0.41l-14.47,32.73l1.5,-0.67l2.74,-0.83l2.24,-0.52l2.15,-0.38l4.54,-0.59l1.6,-0.15l6.19,-0.35l1.26,-0.04l38.7,-25l2.04,0.11l2.01,0.33l0.7,0.15l1.41,0.24l0.24,0.03l1.46,0.11l0.2,0l1.47,-0.04l1.66,-0.12l0,-0.01l0.21,-0.01l1.42,-0.12l2.19,0.06l5.54,0.48l0.84,0.09l8.99,1.12l0.8,0.12l25.2,-32.28l0.81,0.15l8.77,1.74l-57.15,-21.81l8.29,1.99l0.94,0.25l7.54,2.16l1.09,0.34l6.49,2.22l1.32,0.49l5.08,2.1l1.67,0.78l3.2,1.64l2.21,1.3l0.19,0.12l1.54,1.15l1.13,1.03l1.02,1.15l1.34,1.87l0,0l0.24,0.34l0.36,0.48l0.94,1.14l0.13,0.14l-2.95,6.04l0.14,0.12l1.14,0.93l0.16,0.12l1.23,0.81l0.16,0.1l1.3,0.68l0.18,0.08l1.36,0.56l0.18,0.07l1.41,0.42l0.19,0.04l1.45,0.28l0.19,0.03l1.46,0.14l0.2,0l1.47,0l0.19,-0.01l1.46,-0.15l0.19,-0.03l1.45,-0.3l0.18,-0.05l1.41,-0.43l0.18,-0.07l1.36,-0.57l0.17,-0.08l1.3,-0.7l0.16,-0.1l1.22,-0.82l0.15,-0.12l1.14,-0.94l0.14,-0.13l1.04,-1.04l0.12,-0.15l0.93,-1.14l0.12,-0.16l0.81,-1.22l0.1,-0.17l0.68,-1.3l0.08,-0.17l0.56,-1.37l0.07,-0.18l0.42,-1.41l0.04,-0.19l0.28,-1.44l0.03,-0.19l0.14,-1.47l0,-0.19l0,-1.47l-0.01,-0.19l-0.16,-1.47l-0.02,-0.19l-0.3,-1.44l-0.05,-0.19l-0.43,-1.4l-0.07,-0.19l-0.57,-1.35l-0.24,-0.51l-0.51,-0.98l-0.08,-0.13l-0.21,-0.35l-14.2,25.45l-0.17,-0.28l-0.03,-0.03l-0.53,-0.79l-0.33,-0.44l-0.83,-1.03l-0.33,-0.38l-0.68,-0.72l-0.1,-0.1l-0.26,-0.25l-3.49,-3.3l-0.23,-0.22l-0.03,-0.03l-0.7,-0.59l-0.65,-0.53l-0.77,-0.57l-0.1,-0.08l-0.3,-0.2l-4.75,-3.17l-0.36,-0.23l-0.41,-0.26l-0.69,-0.41l-0.57,-0.31l-0.43,-0.23l-5.95,-3.05l-0.27,-0.14l-0.31,-0.15l-0.53,-0.24l-0.43,-0.19l-0.31,-0.14l-0.02,-0.01l-1.69,-0.79l-1.27,-0.77l-1.2,-0.89l-1.1,-1.01l-0.99,-1.11l-0.88,-1.2l-0.76,-1.28l-0.62,-1.36l-0.49,-1.41l-0.34,-1.45l-0.2,-1.47l-0.05,-1.49l0.09,-1.49l0.25,-1.47l25.39,45.56l0.53,-1.39l0.66,-1.33l0.8,-1.27l0.92,-1.17l1.02,-1.08l1.14,-0.97l1.22,-0.85l1.3,-0.73l1.71,-0.75l2.54,-0.96l0.28,-0.08l1.51,-0.53l1.5,-0.36l1.52,-0.2l1.93,-0.05l4.74,0.11l0.13,0l13.8,0.4l0.14,0l13.19,0.47l0.37,0.01l0.04,0l1.06,-0.03l0.61,-0.03l1.46,-0.16l0.19,-0.04l1.44,-0.3l0.19,-0.05l1.4,-0.44l0.18,-0.07l1.35,-0.57l0.18,-0.09l1.29,-0.71l0.16,-0.1l1.22,-0.83l0.15,-0.11l1.13,-0.95l0.14,-0.13l1.03,-1.05l0.13,-0.15l0.92,-1.14l0.11,-0.16l0.81,-1.23l0.09,-0.17l0.68,-1.3l0.08,-0.18l0.55,-1.36l0.07,-0.19l0.41,-1.41l0.04,-0.19l0.27,-1.44l0.03,-0.19l0.13,-1.47l0.01,-0.19l-0.02,-1.47l-0.01,-0.2l-0.16,-1.46l-0.03,-0.19l-0.3,-1.44l-0.05,-0.19l-0.44,-1.4l-0.07,-0.18l-0.58,-1.36l-0.08,-0.17l-0.71,-1.29l-0.1,-0.16l-0.83,-1.22l-0.12,-0.15l-0.94,-1.13l-0.13,-0.14l-1.06,-1.03l-0.14,-0.13l-1.15,-0.92l-0.15,-0.11l-1.24,-0.81l-0.55,-0.32l-0.58,-0.33l-1.28,-0.67l-1.19,-0.78l-1.12,-0.89l-1.02,-0.99l-0.92,-1.08l-0.82,-1.17l-0.7,-1.24l-0.58,-1.29l-0.57,-1.69l-0.21,-0.74l-0.33,-1l-0.07,-0.19l-0.14,-0.38l-0.68,-1.71l-0.89,-2.76l-0.45,-1.81l-0.34,-1.56l-0.81,-4.55l-0.14,-0.84l-0.28,-1.99l-0.16,-1.93l0.02,-1.54l0.19,-1.54l0.42,-1.88l0.19,-0.68l0.32,-1.39l0.04,-0.23l0.2,-1.46l0.01,-0.19l0.05,-1.47l-0.01,-0.2l-0.09,-1.46l-0.03,-0.2l-0.24,-1.45l-0.04,-0.19l-0.38,-1.42l-0.06,-0.18l-0.52,-1.38l-0.66,-1.53l0,0l-0.13,-0.31l-0.17,-0.37l-0.49,-1.41l-0.34,-1.46l-0.25,-1.85l-0.05,-0.56l-0.18,-1.42l-0.05,-0.23l-0.33,-1.44l-0.05,-0.18l-0.47,-1.4l-0.43,-1.07l-0.64,-1.94l-0.43,-2l-0.78,-4.99l-0.03,-0.13l-0.02,-0.14l-0.04,-0.24l-0.04,-0.2l-0.02,-0.14l-1.82,-9.37l-0.03,-0.17l-0.04,-0.19l-0.07,-0.32l-0.06,-0.26l-0.04,-0.19l-2.24,-9.25l-0.06,-0.21l-0.06,-0.25l-0.11,-0.4l-0.09,-0.33l-0.07,-0.24l-2.75,-8.97l-0.09,-0.27l-0.09,-0.29l-0.17,-0.5l-0.15,-0.4l-0.04,-0.11l-0.61,-1.82l-0.33,-1.47l-0.18,-1.49l-0.03,-1.51l0.12,-1.49l0.27,-1.48l0.42,-1.45l0.7,-1.74l0.34,-0.76l0.54,-1.33l0.08,-0.23l0.42,-1.42l0.05,-0.19l0.27,-1.46l0.03,-0.2l0.13,-1.48l0.01,-0.19l-0.02,-1.49l-0.01,-0.19l-0.17,-1.48l-0.03,-0.19l-0.31,-1.45l-0.05,-0.19l-0.45,-1.42l-0.07,-0.18l-0.59,-1.37l-0.08,-0.17l-0.73,-1.3l-0.1,-0.16l-0.85,-1.23l-0.11,-0.15l-0.97,-1.13l-0.38,-0.41l-0.8,-0.79l-0.09,-0.08l-0.57,-0.5l-0.01,0l-0.78,-0.61l-0.47,-0.33l-1.15,-0.76l-0.16,-0.09l-1.22,-0.64l-0.16,-0.08l-1.28,-0.53l-0.49,-0.18l-0.99,-0.32l-0.14,-0.04l-0.37,-0.1l-1.14,-0.29l-0.34,-0.09l-0.37,-0.08l-0.64,-0.14l-0.52,-0.1l-0.38,-0.06l-2.56,-0.42l-0.14,-0.02l-0.16,-0.02l-0.27,-0.04l-0.22,-0.03l-0.16,-0.02l-0.12,-0.02l-1.84,-0.32l-1.44,-0.4l-1.39,-0.54l-1.33,-0.67l-1.25,-0.81l-1.47,-1.16l-3.73,-3.27l-0.23,-0.2l-0.03,-0.02l-0.67,-0.54l-0.64,-0.48l-0.74,-0.52l-0.1,-0.06l-0.29,-0.19l-2.27,-1.42l-1.42,-0.98l-1.06,-0.89l-0.98,-0.99l-1.1,-1.33l-0.45,-0.61l-0.91,-1.11l-0.16,-0.17l-1.04,-1.04l-0.14,-0.13l-1.14,-0.93l-0.16,-0.12l-1.22,-0.82l-0.17,-0.1l-1.29,-0.69l-0.18,-0.08l-1.36,-0.56l-0.52,-0.19l-1.06,-0.34l-0.14,-0.03l-0.4,-0.11l-23.77,-5.86l-0.17,-0.04l-0.18,-0.05l-0.31,-0.06l-0.25,-0.06l-0.19,-0.04l-18.89,-3.76l-0.26,-0.05l-0.3,-0.06l-0.49,-0.08l-0.4,-0.06l-0.3,-0.04l-8.2,-1.03l-1.88,-0.34l-1.86,-0.53l-0.64,-0.17l-0.42,-0.1l-1.44,-0.27l-0.56,-0.08l-1.1,-0.11l-0.15,-0.01l-0.41,-0.02l-48.41,-1.71l-0.07,-0.01l-44.24,-1.35l-0.09,0l-39.85,-0.97l-0.12,0l-35.71,-0.55l-0.17,0l-31.83,-0.14l-0.22,0l-28.42,0.3l-0.08,0.01l-0.04,0l-0.21,0l-24.87,0.75l-0.1,0.01l-0.1,0l-0.19,0.01l-0.14,0.01l-0.11,0l-21.55,1.21l-0.13,0.01l-0.14,0l-0.24,0.02l-0.19,0.02l-0.14,0.01l-18.64,1.67l-0.16,0.02l-0.19,0.01l-0.3,0.04l-0.25,0.03l-0.19,0.02l-15.96,2.14l-0.22,0.03l-0.23,0.04l-0.4,0.06l-0.32,0.06l-0.23,0.04l-13.54,2.61l-0.27,0.05l-0.3,0.07l-0.5,0.11l-0.41,0.1l-0.29,0.08l-11.34,3.05l-0.33,0.1l-0.37,0.11l-0.62,0.19l-0.49,0.17l-0.37,0.13l-9.41,3.49l-0.38,0.14l-0.43,0.18l-0.71,0.3l-0.58,0.27l-0.41,0.2l-7.78,3.9l-0.41,0.21l-0.46,0.25l-0.75,0.44l-0.61,0.37l-0.44,0.28l-6.48,4.33l-0.39,0.27l-0.44,0.31l-0.71,0.55l-0.57,0.46l-0.41,0.34l-5.54,4.82l-0.33,0.3l-0.36,0.33l-0.6,0.58l-0.47,0.49l-0.33,0.36l-4.93,5.43l-0.23,0.26l-0.27,0.31l-0.43,0.52l-0.34,0.43l-0.24,0.32l-4.59,6.14l-0.15,0.21l-0.17,0.23l-0.25,0.37l-1.17,1.56l-0.38,0.42l-0.99,1.17l-0.9,1.16l-0.31,0.46l-0.6,0.94l-0.08,0.12l-0.2,0.36l-4.54,8.22l-0.14,0.27l-0.02,0.03l-0.38,0.79l-0.34,0.73l-0.35,0.84l-0.04,0.12l-0.12,0.32l-3.62,10.15l-0.13,0.39l-0.14,0.44l-0.22,0.74l-0.17,0.61l-0.11,0.45l-2.78,11.73l-0.06,0.29l-0.07,0.32l-0.11,0.54l-0.07,0.44l-0.06,0.32l-2.04,13.13l-0.03,0.22l-0.03,0.24l-0.06,0.4l-0.03,0.33l-0.03,0.24l-1.36,14.05l-0.01,0.17l-0.02,0.19l-0.02,0.31l-0.02,0.26l-0.01,0.18l-0.75,14.52l0,0.13l-0.01,0.15l-0.01,0.26l-0.01,0.2l0,0.15l-0.23,14.54l0,0.12l0,0.12l0,0.22l0,0.17l0,0.12l0.2,13.31l-0.07,1.92l-0.22,1.52l-0.36,1.48l-0.52,1.45l-0.66,1.38l-0.8,1.31l-0.93,1.22l-1.05,1.12l-1.16,1l-1.25,0.88l-1.67,0.94l-0.64,0.32l-1.25,0.69l-0.2,0.12l-1.21,0.84l-0.16,0.12l-1.12,0.95l-0.14,0.13l-1.03,1.05l-0.12,0.15l-0.92,1.15l-0.11,0.15l-0.8,1.24l-0.1,0.17l-0.68,1.3l-0.08,0.18l-0.54,1.37l-0.06,0.18l-0.41,1.41l-0.04,0.19l-0.27,1.45l-0.03,0.19l-0.12,1.47l0,0.19l0.02,1.47l0.01,0.19l0.16,1.47l0.03,0.19l0.31,1.44l0.05,0.18l0.45,1.4l0.07,0.18l0.58,1.36l0.08,0.17l0.72,1.29l0.1,0.16l0.83,1.21l0.12,0.16l0.95,1.12l0.13,0.14l1.06,1.03l0.14,0.12l1.15,0.92l0.16,0.11l1.24,0.8l0.16,0.1l1.31,0.68l0.18,0.08l1.36,0.54l0.4,0.14" id="svg_101" stroke-width="7"/>
   <g class="stroke-group" fill="none" id="bus" stroke="black" stroke-width="5.56" transform="matrix(1 0 0 1 0 0)">
    <path d="m49.51,190.72c10.42,127.59 -22.11,-67.25 12.23,-115.99" data-class="body" fill="none" id="svg_102" stroke="rgb(0, 0, 0)" stroke-linecap="round" stroke-linejoin="round" stroke-width="7"/>
    <path d="m60.63,77.53c29.55,-48.18 59.43,-57.94 384.36,-45.8" data-class="body" fill="none" id="svg_103" stroke="rgb(0, 0, 0)" stroke-linecap="round" stroke-linejoin="round" stroke-width="7"/>
    <path d="m503.67,44.15c-170.7,-45.14 -18.76,48.24 33.91,103.02" data-class="windshield" fill="none" id="svg_104" stroke="rgb(0, 0, 0)" stroke-linecap="round" stroke-linejoin="round" stroke-width="7"/>
    <path d="m552.65,136.66c-1.97,100.67 16.14,77.92 -485.62,81.33" data-class="windshield" fill="none" id="svg_105" stroke="rgb(0, 0, 0)" stroke-linecap="round" stroke-linejoin="round" stroke-width="7"/>
    <path d="m55.45,131.98c28.22,-52.66 118.05,-0.61 246.72,6.8" data-class="body" fill="none" id="svg_106" stroke="rgb(0, 0, 0)" stroke-linecap="round" stroke-linejoin="round" stroke-width="7"/>
    <path d="m249.04,134.84c93.5,18.27 176.64,2.36 227.01,-0.21" data-class="body" fill="none" id="svg_107" stroke="rgb(0, 0, 0)" stroke-linecap="round" stroke-linejoin="round" stroke-width="7"/>
    <path d="m26.95,208.06c117.08,4.68 241.08,-9.67 337.33,-2.86" data-class="body" fill="none" id="svg_108" stroke="rgb(0, 0, 0)" stroke-linecap="round" stroke-linejoin="round" stroke-width="7"/>
    <path d="m297.52,204.53c84.14,-2.08 193.82,-3.8 279.23,-0.47" data-class="body" fill="none" id="svg_109" stroke="rgb(0, 0, 0)" stroke-linecap="round" stroke-linejoin="round" stroke-width="7"/>
    <path d="m69.13,70.81c145.97,0.55 117.72,-12.31 125.13,47.24" data-class="window" fill="none" id="svg_110" stroke="rgb(0, 0, 0)" stroke-linecap="round" stroke-linejoin="round" stroke-width="7"/>
    <path d="m181.83,69.61c20.81,44.72 -0.72,105.85 4.54,-0.47" data-class="window" fill="none" id="svg_111" stroke="rgb(0, 0, 0)" stroke-linecap="round" stroke-linejoin="round" stroke-width="7"/>
    <path d="m265.73,132.17c-147.37,-23.98 -122.17,-20.27 -124.17,-42.47" data-class="window" fill="none" id="svg_112" stroke="rgb(0, 0, 0)" stroke-linecap="round" stroke-linejoin="round" stroke-width="7"/>
    <path d="m140.64,106.54c-13.26,37.41 34.45,-41.38 -35.87,-50.09" data-class="window" fill="none" id="svg_113" stroke="rgb(0, 0, 0)" stroke-linecap="round" stroke-linejoin="round" stroke-width="7"/>
    <path d="m160.3,68.7c143.22,5.89 112.8,-16.15 117.4,55.32" data-class="window" fill="none" id="svg_114" stroke="rgb(0, 0, 0)" stroke-linecap="round" stroke-linejoin="round" stroke-width="7"/>
    <path d="m276.08,68.54c15.08,48.47 -0.54,129.02 4.54,3.22" data-class="window" fill="none" id="svg_115" stroke="rgb(0, 0, 0)" stroke-linecap="round" stroke-linejoin="round" stroke-width="7"/>
    <path d="m327.99,139.84c-119.34,-16.32 -84.07,8.76 -95.64,-72.35" data-class="window" fill="none" id="svg_116" stroke="rgb(0, 0, 0)" stroke-linecap="round" stroke-linejoin="round" stroke-width="7"/>
    <path d="m236.53,111.41c-21.58,61.97 19.09,-52.22 -28.35,-53" data-class="window" fill="none" id="svg_117" stroke="rgb(0, 0, 0)" stroke-linecap="round" stroke-linejoin="round" stroke-width="7"/>
    <path d="m258.25,69.69c137.43,2.87 133.9,-9.92 137.35,40.83" data-class="window" fill="none" id="svg_118" stroke="rgb(0, 0, 0)" stroke-linecap="round" stroke-linejoin="round" stroke-width="7"/>
    <path d="m382.21,69.72c16.01,27.01 -6.31,103.53 14.3,47.41" data-class="window" fill="none" id="svg_119" stroke="rgb(0, 0, 0)" stroke-linecap="round" stroke-linejoin="round" stroke-width="7"/>
    <path d="m432.09,136.58c-150.95,6.51 -128.31,9.86 -121.05,-20.2" data-class="window" fill="none" id="svg_120" stroke="rgb(0, 0, 0)" stroke-linecap="round" stroke-linejoin="round" stroke-width="7"/>
    <path d="m318.99,139.69c-18.05,3.66 12.99,-47.35 -13.62,-70.23" data-class="window" fill="none" id="svg_121" stroke="rgb(0, 0, 0)" stroke-linecap="round" stroke-linejoin="round" stroke-width="7"/>
    <path d="m358.3,69.78c186.04,1.58 206.46,-1.15 170.12,-4.55" data-class="windshield" fill="none" id="svg_122" stroke="rgb(0, 0, 0)" stroke-linecap="round" stroke-linejoin="round" stroke-width="7"/>
    <path d="m486.71,42.86c74.34,12.03 60.5,116.28 72.95,140.48" data-class="windshield" fill="none" id="svg_123" stroke="rgb(0, 0, 0)" stroke-linecap="round" stroke-linejoin="round" stroke-width="7"/>
    <path d="m556.04,149.37c-130.95,-23.82 -176.69,-22.25 -118.7,-11.22" data-class="windshield" fill="none" id="svg_124" stroke="rgb(0, 0, 0)" stroke-linecap="round" stroke-linejoin="round" stroke-width="7"/>
    <path d="m434.27,131.6c9.38,24.71 21.48,-64.03 -29.35,-74.89" data-class="windshield" fill="none" id="svg_125" stroke="rgb(0, 0, 0)" stroke-linecap="round" stroke-linejoin="round" stroke-width="7"/>
    <path d="m344.16,222.04c-5.39,-70.59 7.48,-90.54 -1.73,-150.44" data-class="window" fill="none" id="svg_126" stroke="rgb(0, 0, 0)" stroke-linecap="round" stroke-linejoin="round" stroke-width="7"/>
    <path d="m342.32,146.32c0.37,-54.47 3.95,-84.58 -22.08,-87.7" data-class="window" fill="none" id="svg_127" stroke="rgb(0, 0, 0)" stroke-linecap="round" stroke-linejoin="round" stroke-width="7"/>
    <path d="m320.7,100.44c169.6,21.3 157.43,19.26 40.45,-43.95" data-class="window" fill="none" id="svg_128" stroke="rgb(0, 0, 0)" stroke-linecap="round" stroke-linejoin="round" stroke-width="7"/>
    <path d="m370.14,73.04c31.01,-18.71 17.74,35.27 21.13,164.89" data-class="window" fill="none" id="svg_129" stroke="rgb(0, 0, 0)" stroke-linecap="round" stroke-linejoin="round" stroke-width="7"/>
    <path d="m371.8,212.28c2.24,1.59 -0.96,-96.9 3.08,-81.52" data-class="window" fill="none" id="svg_130" stroke="rgb(0, 0, 0)" stroke-linecap="round" stroke-linejoin="round" stroke-width="7"/>
    <path d="m358.55,140.22c-3.18,-44.05 7.13,-48.34 -7.36,-70.33" data-class="window" fill="none" id="svg_131" stroke="rgb(0, 0, 0)" stroke-linecap="round" stroke-linejoin="round" stroke-width="7"/>
    <path d="m159.32,196.96c48.41,-20.37 76.51,13.7 50.88,42.86" data-class="window" fill="none" id="svg_132" stroke="rgb(0, 0, 0)" stroke-linecap="round" stroke-linejoin="round" stroke-width="7"/>
    <path d="m164.65,239.88c-26.26,-22.32 2.92,-72.09 48.83,-43.53" data-class="window" fill="none" id="svg_135" stroke="rgb(0, 0, 0)" stroke-linecap="round" stroke-linejoin="round" stroke-width="7"/>
    <path d="m67.56,227.37c214.11,-2.23 189.8,-4.02 134.74,13.11" data-class="window" fill="none" id="svg_136" stroke="rgb(0, 0, 0)" stroke-linecap="round" stroke-linejoin="round" stroke-width="7"/>
    <path d="m210.03,209.63c4.83,36.46 2.48,36.68 -72.42,42.94" data-class="window" fill="none" id="svg_137" stroke="rgb(0, 0, 0)" stroke-linecap="round" stroke-linejoin="round" stroke-width="7"/>
    <path d="m206.87,236.52c-31.17,17.51 -31.1,6.29 -62.47,-16.29" data-class="window" fill="none" id="svg_138" stroke="rgb(0, 0, 0)" stroke-linecap="round" stroke-linejoin="round" stroke-width="7"/>
    <path d="m190.56,215.08c-84.65,-6.2 -65.27,-6.71 100.35,-4.83" data-class="window" fill="none" id="svg_139" stroke="rgb(0, 0, 0)" stroke-linecap="round" stroke-linejoin="round" stroke-width="7"/>
    <path d="m401.86,187.88c79.31,-2.57 71.66,11.1 68.96,51.94" data-class="windshield" fill="none" id="svg_140" stroke="rgb(0, 0, 0)" stroke-linecap="round" stroke-linejoin="round" stroke-width="7"/>
    <path d="m409.58,228.24c5.18,-13.71 -17.58,-47.94 73.72,-40.7" data-class="windshield" fill="none" id="svg_143" stroke="rgb(0, 0, 0)" stroke-linecap="round" stroke-linejoin="round" stroke-width="7"/>
    <path d="m353.91,208.29c143.97,-0.4 143.38,-7.12 93.01,41.45" data-class="windshield" fill="none" id="svg_144" stroke="rgb(0, 0, 0)" stroke-linecap="round" stroke-linejoin="round" stroke-width="7"/>
    <path d="m450.24,239.03c53.62,1.63 66.49,-1.01 -68.92,-0.43" data-class="windshield" fill="none" id="svg_145" stroke="rgb(0, 0, 0)" stroke-linecap="round" stroke-linejoin="round" stroke-width="7"/>
    <path d="m471.77,233.98c-33.78,21.97 -58.13,8.42 -68.66,-18.5" data-class="windshield" fill="none" id="svg_146" stroke="rgb(0, 0, 0)" stroke-linecap="round" stroke-linejoin="round" stroke-width="7"/>
    <path d="m267.86,211.01c112.97,-3.7 139.34,4.27 241.7,-2.3" data-class="windshield" fill="none" id="svg_147" stroke="rgb(0, 0, 0)" stroke-linecap="round" stroke-linejoin="round" stroke-width="7"/>
    <path d="m56.24,195.35c-3.32,-35.42 48.53,-5.91 103.73,0.3" data-class="window" fill="none" id="svg_148" stroke="rgb(0, 0, 0)" stroke-linecap="round" stroke-linejoin="round" stroke-width="7"/>
    <path d="m473.5,210.62c1.1,-54.03 13.95,-31.04 10.81,-32.53" data-class="windshield" fill="none" id="svg_149" stroke="rgb(0, 0, 0)" stroke-linecap="round" stroke-linejoin="round" stroke-width="7"/>
    <path d="m521.36,201.65c-20.45,-3.26 -42.14,-0.2 -36.14,-0.08" data-class="windshield" fill="none" id="svg_150" stroke="rgb(0, 0, 0)" stroke-linecap="round" stroke-linejoin="round" stroke-width="7"/>
   </g>
  </g>
 </g>
</svg>