<svg xmlns="http://www.w3.org/2000/svg" width="670.1" height="353.0">
  <defs>
    <style>
      .white-box-bg { fill: white; stroke: none; }
      .stroke-group { stroke-linecap: round; stroke-linejoin: round; }
    </style>
  </defs>
  
  <path class="white-box-bg" d="M 14.296280398628213,227.51033171617837 L 14.636280398628202,227.9803317161784 L 14.906280398628212,228.32033171617843 L 15.62628039862821,229.39033171617837 L 16.2462803986282,230.53033171617835 L 16.396280398628207,230.8603317161784 L 16.726280398628205,231.57033171617843 L 17.156280398628212,232.42033171617834 L 17.87628039862821,233.70033171617843 L 17.98628039862821,233.8603317161784 L 18.836280398628205,235.06033171617844 L 18.946280398628204,235.2203317161784 L 19.916280398628203,236.33033171617842 L 20.046280398628213,236.4703317161784 L 21.116280398628206,237.4803317161784 L 21.506280398628206,237.82033171617843 L 22.396280398628207,238.54033171617834 L 22.5762803986282,238.67033171617834 L 22.946280398628204,238.93033171617844 L 40.17628039862821,250.8503317161784 L 40.17628039862821,250.8503317161784 L 40.4962803986282,251.0903317161784 L 41.116280398628206,251.4903317161784 L 41.446280398628204,251.70033171617843 L 42.226280398628205,252.18033171617844 L 43.73628039862821,253.2203317161784 L 44.8562803986282,254.16033171617835 L 45.87628039862821,255.21033171617842 L 46.79628039862821,256.3503317161784 L 47.586280398628205,257.5803317161784 L 48.26628039862821,258.8803317161784 L 48.81628039862821,260.2403317161784 L 49.226280398628205,261.65033171617836 L 49.4962803986282,263.0903317161784 L 49.62628039862821,264.54033171617834 L 49.6062803986282,266.01033171617837 L 49.45628039862821,267.4703317161784 L 49.15628039862821,268.90033171617836 L 48.7162803986282,270.30033171617833 L 48.14628039862821,271.65033171617836 L 47.446280398628204,272.93033171617844 L 46.616280398628206,274.14033171617837 L 45.68628039862821,275.27033171617836 L 44.6362803986282,276.30033171617833 L 43.1362803986282,277.51033171617837 L 42.616280398628206,277.9603317161784 L 42.336280398628205,278.2103317161784 L 41.2762803986282,279.2403317161784 L 41.14628039862821,279.39033171617837 L 40.20628039862821,280.52033171617836 L 40.086280398628205,280.67033171617834 L 39.256280398628206,281.89033171617837 L 39.15628039862821,282.05033171617833 L 38.45628039862821,283.3403317161784 L 38.366280398628206,283.51033171617837 L 37.79628039862821,284.8703317161784 L 37.726280398628205,285.05033171617833 L 37.28628039862821,286.4503317161784 L 37.23628039862821,286.64033171617837 L 36.93628039862821,288.0803317161784 L 36.90628039862821,288.27033171617836 L 36.756280398628206,289.7403317161784 L 36.73628039862821,289.93033171617844 L 36.726280398628205,291.40033171617836 L 36.73628039862821,291.5903317161784 L 36.866280398628206,293.06033171617844 L 36.89628039862821,293.2503317161784 L 37.1662803986282,294.7003317161784 L 37.20628039862821,294.8803317161784 L 37.62628039862821,296.30033171617833 L 37.68628039862821,296.4803317161784 L 38.23628039862821,297.8403317161784 L 38.31628039862821,298.02033171617836 L 39.006280398628206,299.32033171617843 L 39.09628039862821,299.4903317161784 L 39.90628039862821,300.7203317161784 L 40.01628039862821,300.8703317161784 L 40.946280398628204,302.02033171617836 L 41.06628039862821,302.16033171617835 L 42.09628039862821,303.2203317161784 L 42.2462803986282,303.3503317161784 L 43.37628039862821,304.29033171617834 L 43.5262803986282,304.41033171617835 L 44.7462803986282,305.2403317161784 L 44.90628039862821,305.3403317161784 L 46.196280398628204,306.04033171617834 L 46.366280398628206,306.1303317161784 L 47.726280398628205,306.7003317161784 L 48.2462803986282,306.89033171617837 L 49.3062803986282,307.2403317161784 L 49.446280398628204,307.28033171617835 L 49.84628039862821,307.39033171617837 L 73.2262803986282,313.40033171617836 L 73.3562803986282,313.43033171617844 L 73.5062803986282,313.4703317161784 L 73.7562803986282,313.53033171617835 L 73.96628039862821,313.57033171617843 L 74.11628039862822,313.6103317161784 L 99.9862803986282,319.26033171617837 L 100.1062803986282,319.28033171617835 L 100.2362803986282,319.31033171617844 L 100.4462803986282,319.3603317161784 L 100.62628039862821,319.39033171617837 L 100.7562803986282,319.41033171617835 L 128.61628039862822,324.5903317161784 L 128.71628039862821,324.6103317161784 L 128.8262803986282,324.6303317161784 L 129.02628039862822,324.66033171617835 L 129.1862803986282,324.69033171617843 L 129.2962803986282,324.7103317161784 L 158.8462803986282,329.3503317161784 L 158.9362803986282,329.3603317161784 L 159.0462803986282,329.3803317161784 L 159.2262803986282,329.40033171617836 L 159.3762803986282,329.42033171617834 L 159.4862803986282,329.44033171617843 L 190.42628039862822,333.4803317161784 L 190.5162803986282,333.4903317161784 L 190.6262803986282,333.5003317161784 L 190.79628039862823,333.52033171617836 L 190.9362803986282,333.54033171617834 L 191.03628039862818,333.55033171617833 L 223.09628039862818,336.94033171617843 L 223.1862803986282,336.9503317161784 L 223.28628039862818,336.9603317161784 L 223.4562803986282,336.9703317161784 L 223.59628039862818,336.9803317161784 L 223.6962803986282,336.9903317161784 L 256.5862803986282,339.67033171617834 L 256.67628039862825,339.68033171617844 L 256.77628039862816,339.68033171617844 L 256.94628039862823,339.7003317161784 L 257.0862803986282,339.7003317161784 L 257.18628039862824,339.7103317161784 L 290.6162803986282,341.6203317161784 L 290.7062803986282,341.6203317161784 L 290.81628039862824,341.6303317161784 L 290.9862803986282,341.64033171617837 L 291.1362803986282,341.64033171617837 L 291.2362803986282,341.65033171617836 L 324.92628039862825,342.7303317161784 L 325.02628039862816,342.7303317161784 L 325.1362803986282,342.7403317161784 L 325.31628039862824,342.7403317161784 L 325.4662803986282,342.7403317161784 L 325.5762803986282,342.7403317161784 L 359.2462803986282,342.9503317161784 L 359.3562803986282,342.9503317161784 L 359.4662803986282,342.9503317161784 L 359.66628039862826,342.9503317161784 L 359.8262803986282,342.9503317161784 L 359.94628039862823,342.9503317161784 L 393.30628039862825,342.2203317161784 L 393.41628039862826,342.2203317161784 L 393.54628039862826,342.2103317161784 L 393.76628039862817,342.2003317161784 L 393.93628039862824,342.2003317161784 L 394.06628039862824,342.19033171617843 L 426.8262803986282,340.4803317161784 L 426.9562803986282,340.4703317161784 L 427.0962803986282,340.4603317161784 L 427.3362803986282,340.44033171617843 L 427.52628039862816,340.43033171617844 L 427.67628039862825,340.42033171617834 L 459.55628039862813,337.66033171617835 L 459.69628039862823,337.65033171617836 L 459.8562803986282,337.6303317161784 L 460.1262803986282,337.6103317161784 L 460.3462803986282,337.5803317161784 L 460.5062803986282,337.56033171617844 L 491.2162803986282,333.7203317161784 L 491.3862803986282,333.69033171617843 L 491.5662803986281,333.67033171617834 L 491.8762803986282,333.6203317161784 L 492.1262803986282,333.5803317161784 L 492.30628039862813,333.55033171617833 L 521.5562803986281,328.57033171617843 L 521.7562803986282,328.53033171617835 L 521.9662803986282,328.4903317161784 L 522.3262803986282,328.42033171617834 L 522.6162803986282,328.3603317161784 L 522.8262803986282,328.32033171617843 L 550.3262803986282,322.14033171617837 L 550.5462803986281,322.0903317161784 L 550.8062803986281,322.03033171617835 L 551.2262803986282,321.92033171617834 L 551.5762803986282,321.8303317161784 L 551.8262803986282,321.76033171617837 L 577.2662803986282,314.3603317161784 L 577.5362803986282,314.28033171617835 L 577.8362803986282,314.19033171617843 L 578.3362803986282,314.02033171617836 L 578.7462803986282,313.8803317161784 L 579.0462803986281,313.77033171617836 L 602.1362803986282,305.1303317161784 L 602.4562803986282,305.0003317161784 L 602.8162803986281,304.8603317161784 L 603.4262803986281,304.6003317161784 L 603.9162803986281,304.3803317161784 L 604.2662803986282,304.2103317161784 L 624.8162803986281,294.2503317161784 L 625.5262803986282,293.8803317161784 L 625.7362803986282,293.77033171617836 L 626.7862803986282,293.1303317161784 L 627.1562803986282,292.89033171617837 L 628.3362803986282,292.01033171617837 L 628.4862803986282,291.89033171617837 L 629.5762803986282,290.90033171617836 L 629.7162803986282,290.77033171617836 L 630.7062803986282,289.68033171617844 L 630.8262803986282,289.53033171617835 L 631.7062803986282,288.3503317161784 L 631.8162803986281,288.19033171617843 L 632.5762803986282,286.93033171617844 L 632.6662803986281,286.76033171617837 L 633.2962803986281,285.43033171617844 L 633.3662803986282,285.2503317161784 L 633.8662803986282,283.8703317161784 L 633.9262803986281,283.68033171617844 L 634.2862803986282,282.26033171617837 L 634.3262803986282,282.07033171617843 L 634.5462803986281,280.6103317161784 L 634.5662803986281,280.42033171617834 L 634.6362803986282,278.9503317161784 L 634.6362803986282,278.76033171617837 L 634.5662803986281,277.29033171617834 L 634.5462803986281,277.0903317161784 L 634.3362803986282,275.64033171617837 L 634.2962803986281,275.4503317161784 L 633.9562803986282,274.04033171617834 L 633.6262803986282,272.9603317161784 L 633.4862803986282,272.39033171617837 L 633.2662803986282,271.66033171617835 L 632.9662803986282,270.2103317161784 L 632.8262803986282,268.7303317161784 L 632.8262803986282,267.2403317161784 L 632.9762803986282,265.77033171617836 L 633.2662803986282,264.31033171617844 L 633.6962803986282,262.89033171617837 L 634.2762803986282,261.52033171617836 L 634.9762803986282,260.2203317161784 L 635.8162803986281,258.9903317161784 L 636.7662803986282,257.8503317161784 L 637.8162803986281,256.81033171617844 L 637.8962803986282,256.7403317161784 L 638.2962803986281,256.41033171617835 L 639.4162803986281,255.44033171617843 L 639.7762803986282,255.13033171617838 L 650.4562803986282,245.28033171617835 L 650.7062803986282,245.04033171617834 L 650.7362803986282,245.01033171617837 L 651.4462803986282,244.28033171617835 L 651.8362803986282,243.8503317161784 L 652.7262803986282,242.77033171617836 L 652.8362803986282,242.62033171617838 L 653.6262803986282,241.45033171617843 L 653.7262803986282,241.29033171617834 L 654.3962803986282,240.06033171617844 L 654.6362803986282,239.58033171617842 L 655.0662803986281,238.6103317161784 L 655.1162803986282,238.4803317161784 L 655.2562803986282,238.1103317161784 L 658.8562803986282,228.45033171617843 L 659.0562803986281,227.90033171617836 L 659.1662803986281,227.56033171617844 L 659.3562803986282,226.91033171617835 L 659.4862803986282,226.4703317161784 L 659.8062803986281,225.04033171617834 L 659.8362803986282,224.8503317161784 L 660.0262803986282,223.39033171617837 L 660.0362803986282,223.20033171617843 L 660.0762803986282,221.7303317161784 L 660.0762803986282,221.53033171617835 L 659.9662803986282,220.06033171617844 L 659.9462803986282,219.87033171617838 L 659.6962803986282,218.42033171617834 L 659.5762803986282,217.88033171617838 L 659.2962803986281,216.81033171617844 L 659.2462803986282,216.66033171617835 L 659.1262803986282,216.27033171617836 L 647.1562803986282,180.20033171617837 L 647.0262803986282,179.82033171617837 L 647.0062803986282,179.77033171617836 L 646.5762803986282,178.70033171617837 L 646.1362803986282,177.7203317161784 L 645.5862803986282,176.64033171617837 L 645.5062803986282,176.4903317161784 L 645.2862803986282,176.1003317161784 L 626.0162803986282,143.6703317161784 L 625.8262803986282,143.3603317161784 L 625.8062803986281,143.32033171617837 L 625.2262803986282,142.46033171617842 L 624.6562803986282,141.69033171617838 L 623.9862803986282,140.83033171617836 L 623.8862803986282,140.7203317161784 L 623.6262803986282,140.4103317161784 L 597.8862803986282,111.6003317161784 L 597.6762803986281,111.37033171617838 L 597.6562803986282,111.34033171617841 L 597.0262803986282,110.70033171617837 L 596.4262803986281,110.13033171617838 L 595.7262803986282,109.51033171617837 L 595.6262803986282,109.43033171617839 L 595.3562803986282,109.21033171617842 L 564.2262803986282,84.26033171617837 L 563.8062803986281,83.94033171617838 L 563.3262803986282,83.58033171617836 L 562.5062803986282,83.01033171617837 L 561.8262803986282,82.57033171617837 L 561.3162803986281,82.26033171617837 L 525.7162803986282,61.22033171617841 L 525.3162803986281,60.99033171617839 L 524.8762803986282,60.74033171617839 L 524.1062803986282,60.3503317161784 L 523.4762803986282,60.05033171617839 L 523.0062803986282,59.84033171617841 L 483.5862803986282,42.620331716178384 L 483.2162803986282,42.460331716178416 L 482.79628039862814,42.2903317161784 L 482.0862803986282,42.03033171617841 L 481.4962803986282,41.82033171617837 L 481.0662803986281,41.68033171617839 L 438.7562803986282,28.410331716178405 L 438.40628039862816,28.30033171617839 L 438.0062803986282,28.190331716178378 L 437.3362803986282,28.01033171617837 L 436.78628039862815,27.880331716178375 L 436.3862803986282,27.7903317161784 L 392.1362803986282,18.560331716178382 L 391.78628039862815,18.49033171617839 L 391.40628039862816,18.420331716178396 L 390.7562803986282,18.320331716178373 L 390.2262803986282,18.24033171617839 L 389.8362803986282,18.190331716178378 L 344.5862803986282,13.090331716178412 L 344.2462803986282,13.060331716178382 L 343.8562803986282,13.020331716178362 L 343.2062803986282,12.980331716178398 L 342.67628039862825,12.950331716178368 L 342.28628039862815,12.940331716178378 L 296.9962803986282,12.0403317161784 L 296.64628039862816,12.0403317161784 L 296.2462803986282,12.0403317161784 L 295.56628039862824,12.060331716178382 L 295.01628039862817,12.090331716178412 L 294.6162803986282,12.110331716178393 L 250.23628039862822,15.490331716178389 L 249.85628039862823,15.520331716178362 L 249.42628039862822,15.560331716178382 L 248.7062803986282,15.650331716178414 L 248.11628039862822,15.740331716178389 L 247.6862803986282,15.810331716178382 L 244.22628039862823,16.440331716178378 L 242.3262803986282,16.690331716178378 L 240.78628039862818,16.730331716178398 L 239.2662803986282,16.610331716178393 L 237.7562803986282,16.34033171617841 L 236.28628039862818,15.910331716178405 L 234.86628039862822,15.340331716178412 L 233.5062803986282,14.620331716178384 L 231.91628039862823,13.560331716178382 L 231.59628039862818,13.320331716178373 L 230.99628039862822,12.890331716178366 L 230.9462803986282,12.860331716178393 L 230.35628039862823,12.490331716178389 L 230.2062803986282,12.400331716178414 L 229.54628039862823,12.020331716178362 L 229.5162803986282,12.01033171617837 L 228.8862803986282,11.690331716178378 L 228.73628039862822,11.620331716178384 L 228.03628039862818,11.300331716178391 L 228.0062803986282,11.2903317161784 L 227.35628039862823,11.0403317161784 L 227.1962803986282,10.980331716178398 L 226.4662803986282,10.740331716178389 L 226.4362803986282,10.730331716178398 L 225.7562803986282,10.5403317161784 L 225.59628039862818,10.50033171617838 L 224.85628039862823,10.330331716178364 L 224.8262803986282,10.330331716178364 L 224.1262803986282,10.200331716178368 L 223.9662803986282,10.180331716178387 L 223.2062803986282,10.080331716178364 L 223.17628039862822,10.080331716178364 L 222.4662803986282,10.03033171617841 L 222.30628039862822,10.020331716178362 L 221.53628039862818,10.00033171617838 L 221.5062803986282,10.00033171617838 L 220.80628039862822,10.020331716178362 L 220.6362803986282,10.020331716178362 L 219.8762803986282,10.080331716178364 L 219.84628039862818,10.080331716178364 L 219.1462803986282,10.170331716178396 L 218.97628039862823,10.190331716178378 L 218.22628039862823,10.320331716178373 L 218.1962803986282,10.330331716178364 L 217.5062803986282,10.480331716178398 L 217.34628039862818,10.520331716178362 L 216.60628039862823,10.720331716178407 L 216.5762803986282,10.730331716178398 L 215.90628039862818,10.950331716178368 L 215.74628039862822,11.01033171617837 L 215.03628039862818,11.28033171617841 L 215.0062803986282,11.2903317161784 L 214.35628039862823,11.580331716178364 L 214.2062803986282,11.650331716178414 L 213.5262803986282,11.990331716178389 L 213.49628039862822,12.00033171617838 L 212.8862803986282,12.350331716178403 L 212.74628039862822,12.440331716178378 L 212.09628039862818,12.850331716178403 L 212.0662803986282,12.860331716178393 L 211.48628039862822,13.270331716178362 L 211.35628039862823,13.370331716178384 L 210.7562803986282,13.840331716178412 L 210.72628039862823,13.850331716178403 L 210.1962803986282,14.310331716178382 L 209.8862803986282,14.600331716178403 L 209.5062803986282,14.950331716178368 L 202.28628039862818,21.920331716178396 L 202.0762803986282,22.120331716178384 L 201.92628039862822,22.27033171617836 L 200.5662803986282,23.51033171617837 L 199.3762803986282,24.400331716178414 L 198.11628039862822,25.160331716178405 L 196.7762803986282,25.7903317161784 L 195.03628039862818,26.410331716178405 L 162.6762803986282,36.2303317161784 L 162.1962803986282,36.380331716178375 L 161.6662803986282,36.56033171617838 L 160.7862803986282,36.890331716178366 L 160.0762803986282,37.18033171617839 L 159.5662803986282,37.410331716178405 L 123.34628039862821,53.93033171617839 L 123.0762803986282,54.06033171617838 L 123.0462803986282,54.080331716178364 L 122.28628039862821,54.460331716178416 L 121.6062803986282,54.84033171617841 L 120.83628039862822,55.2903317161784 L 120.7362803986282,55.36033171617839 L 120.46628039862821,55.5403317161784 L 88.6062803986282,76.6703317161784 L 88.31628039862821,76.87033171617838 L 88.27628039862822,76.89033171617837 L 87.4762803986282,77.49033171617839 L 86.7562803986282,78.07033171617837 L 85.96628039862821,78.75033171617838 L 85.8562803986282,78.8503317161784 L 85.5762803986282,79.12033171617838 L 59.216280398628214,104.77033171617836 L 58.93628039862821,105.05033171617839 L 58.89628039862819,105.09033171617841 L 58.12628039862821,105.94033171617838 L 57.446280398628204,106.76033171617837 L 56.706280398628195,107.7203317161784 L 56.61628039862822,107.8503317161784 L 56.36628039862822,108.2203317161784 L 36.34628039862821,138.45033171617837 L 36.116280398628206,138.81033171617838 L 36.086280398628205,138.8603317161784 L 35.4662803986282,139.95033171617837 L 34.946280398628204,140.9803317161784 L 34.39628039862821,142.1703317161784 L 34.336280398628205,142.3403317161784 L 34.15628039862821,142.7903317161784 L 21.3262803986282,177.7203317161784 L 21.176280398628208,178.14033171617837 L 21.166280398628203,178.19033171617838 L 20.81628039862821,179.39033171617837 L 20.546280398628213,180.51033171617837 L 20.286280398628207,181.8003317161784 L 20.256280398628206,181.9703317161784 L 20.196280398628204,182.46033171617842 L 18.616280398628206,195.63033171617838 L 18.306280398628203,197.46033171617842 L 17.916280398628203,198.89033171617837 L 17.3862803986282,200.27033171617836 L 16.7162803986282,201.5903317161784 L 15.926280398628208,202.8403317161784 L 14.786280398628207,204.30033171617833 L 14.09628039862821,205.1103317161784 L 13.196280398628204,206.25033171617838 L 13.056280398628203,206.45033171617843 L 12.256280398628206,207.71033171617842 L 12.166280398628203,207.88033171617838 L 11.48628039862821,209.21033171617842 L 11.406280398628212,209.39033171617837 L 10.87628039862821,210.78033171617835 L 10.816280398628209,210.96033171617842 L 10.426280398628208,212.39033171617837 L 10.386280398628202,212.57033171617843 L 10.136280398628202,214.02033171617836 L 10.1062803986282,214.21033171617842 L 10.006280398628206,215.68033171617844 L 9.996280398628201,215.87033171617838 L 10.036280398628207,217.3503317161784 L 10.056280398628203,217.54033171617834 L 10.23628039862821,219.00033171617838 L 10.266280398628211,219.19033171617843 L 10.59628039862821,220.62033171617838 L 10.646280398628207,220.81033171617844 L 11.1062803986282,222.21033171617842 L 11.176280398628208,222.39033171617837 L 11.776280398628202,223.7303317161784 L 11.866280398628206,223.90033171617836 L 12.59628039862821,225.18033171617844 L 12.696280398628204,225.3403317161784 L 13.546280398628213,226.55033171617833 L 14.296280398628213,227.51033171617837"/>
  
  <g id="ice_rock_1" class="stroke-group" stroke="black" stroke-width="7.0" fill="none">
    <path data-class="facet" fill="none" stroke="black" d="M 32.256280398628206,224.70033171617843 C 34.97879229305474,-48.77461021972704 591.2880141938457,-22.92690356538651 643.1191824824621,222.01440630746822" />
    <path data-class="facet" fill="none" stroke="black" d="M 643.1162803986282,222.01033171617837 C 643.170656354209,288.71501506694597 155.06527291492304,359.39154842173923 26.956992557636752,216.16487102574638" />
    <path data-class="facet" fill="none" stroke="black" d="M 221.5062803986282,26.99033171617839 C 167.84651442203054,71.43497618062474 221.25545531612002,157.31156383939054 113.50628039862812,266.9903317161783" />
    <path data-class="facet" fill="none" stroke="black" d="M 221.5062803986282,26.99033171617839 C 321.5062803986282,156.99033171617816 321.5062803986282,156.9903317161781 293.5062803986284,302.9903317161786" />
    <path data-class="facet" fill="none" stroke="black" d="M 401.5062803986282,38.99033171617839 C 269.99616325272825,182.15753086420784 243.650787648567,143.9139001605135 509.50628039862806,278.9903317161784" />
    <path data-class="facet" fill="none" stroke="black" d="M 401.5062803986282,38.99033171617839 C 469.50628039862806,186.99033171617884 469.50628039862806,186.99033171617873 569.5062803986282,110.99033171617856" />
    <path data-class="facet" fill="none" stroke="black" d="M 89.5062803986282,110.99033171617839 C 215.88471824241222,177.73840652365845 163.45227499808783,88.14784746775302 305.5062803986282,158.9903317161784" />
    <path data-class="facet" fill="none" stroke="black" d="M 305.5062803986282,158.9903317161784 C 398.8690166722556,95.38637132013866 503.6162913997282,186.58549123212975 641.506280398628,218.99033171617805" />
    <path data-class="facet" fill="none" stroke="black" d="M 113.5062803986282,266.9903317161784 C 179.50628039862815,164.99033171617828 179.50628039862815,164.99033171617828 293.5062803986283,302.9903317161786" />
    <path data-class="facet" fill="none" stroke="black" d="M 293.5062803986282,302.9903317161784 C 401.50628039862784,194.9903317161785 401.50628039862795,194.9903317161785 509.5062803986284,278.9903317161783" />
    <path data-class="facet" fill="none" stroke="black" d="M 509.5062803986282,278.9903317161784 C 462.96802657324554,139.86881956496302 581.9595257231604,240.95292797580407 641.5062803986278,218.99033171617805" />
    <path data-class="facet" fill="none" stroke="black" d="M 53.67628039862821,290.82033171617843 C 197.48723277958064,331.00937933522584 492.1538994462471,348.3427126685592 617.677708970057,278.81890314475015" />
  </g>
</svg>