<svg xmlns="http://www.w3.org/2000/svg" width="777.8" height="594.0">
  <defs>
    <style>
      .white-box-bg { fill: white; stroke: none; }
      .stroke-group { stroke-linecap: round; stroke-linejoin: round; }
    </style>
  </defs>
  
  <path class="white-box-bg" d="M 23.950188751940487,488.7894511439015 L 25.15018875194049,490.1794511439015 L 26.000188751940485,491.3794511439014 L 26.72018875194049,492.6494511439015 L 27.320188751940485,493.9994511439014 L 27.780188751940486,495.3894511439014 L 28.100188751940486,496.81945114390146 L 28.280188751940486,498.2794511439015 L 28.320188751940485,499.7494511439014 L 28.22018875194049,501.20945114390145 L 27.97018875194049,502.6594511439015 L 27.58018875194049,504.06945114390146 L 27.05018875194049,505.43945114390147 L 26.070188751940485,507.4094511439015 L 26.08018875194049,507.4194511439015 L 25.73018875194049,508.1094511439014 L 25.630188751940487,508.32945114390145 L 25.100188751940486,509.69945114390146 L 25.040188751940484,509.8894511439014 L 24.65018875194049,511.30945114390147 L 24.610188751940484,511.4894511439014 L 24.350188751940486,512.9394511439015 L 24.33018875194049,513.1294511439014 L 24.22018875194049,514.5994511439014 L 24.210188751940485,514.7894511439015 L 24.250188751940485,516.2694511439014 L 24.26018875194049,516.4594511439014 L 24.44018875194049,517.9194511439015 L 24.47018875194049,518.1094511439014 L 24.80018875194049,519.5494511439015 L 24.850188751940486,519.7294511439014 L 25.310188751940487,521.1294511439014 L 25.380188751940487,521.3094511439015 L 25.97018875194049,522.6594511439015 L 26.060188751940487,522.8294511439015 L 26.780188751940486,524.1094511439014 L 26.890188751940485,524.2694511439014 L 27.73018875194049,525.4794511439014 L 27.850188751940486,525.6294511439014 L 28.810188751940487,526.7394511439014 L 28.94018875194049,526.8794511439014 L 30.01018875194049,527.8994511439015 L 30.15018875194049,528.0194511439014 L 31.310188751940487,528.9294511439015 L 31.47018875194049,529.0394511439015 L 32.710188751940485,529.8294511439015 L 32.88018875194049,529.9294511439015 L 34.20018875194049,530.5894511439014 L 35.56018875194049,531.1994511439015 L 36.030188751940486,531.3894511439014 L 36.33018875194049,531.5094511439014 L 37.570188751940485,532.1594511439015 L 38.750188751940485,532.9194511439015 L 39.850188751940486,533.7794511439015 L 40.87018875194048,534.7394511439014 L 41.790188751940484,535.7994511439015 L 42.61018875194049,536.9294511439015 L 43.320188751940485,538.1394511439014 L 44.060188751940494,539.7294511439014 L 45.25018875194049,542.5994511439014 L 45.38018875194049,542.9194511439015 L 45.40018875194048,542.9594511439014 L 45.83018875194049,543.8494511439014 L 46.09018875194048,544.3594511439014 L 46.790188751940484,545.5494511439015 L 47.08018875194049,545.9894511439014 L 47.67018875194049,546.8494511439014 L 47.75018875194049,546.9594511439014 L 47.99018875194049,547.2694511439014 L 57.810188751940494,559.7094511439014 L 58.040188751940484,559.9894511439014 L 58.070188751940485,560.0294511439015 L 58.77018875194049,560.8094511439015 L 59.19018875194049,561.2494511439014 L 60.25018875194049,562.2594511439014 L 60.67018875194049,562.6194511439014 L 61.53018875194049,563.3094511439015 L 61.65018875194048,563.3994511439015 L 61.98018875194048,563.6394511439014 L 74.40018875194048,572.2994511439015 L 74.6601887519405,572.4894511439014 L 74.70018875194049,572.5094511439014 L 75.49018875194048,572.9994511439014 L 75.95018875194049,573.2694511439014 L 77.09018875194047,573.8694511439014 L 77.54018875194049,574.0794511439015 L 78.43018875194048,574.4594511439014 L 78.55018875194048,574.5094511439014 L 78.89018875194049,574.6394511439014 L 93.59018875194047,580.0194511439014 L 93.9401887519405,580.1394511439014 L 93.99018875194048,580.1594511439015 L 95.01018875194049,580.4694511439014 L 95.9701887519405,580.7094511439014 L 97.0601887519405,580.9494511439015 L 97.21018875194048,580.9794511439014 L 97.62018875194047,581.0494511439015 L 114.1001887519405,583.5694511439015 L 114.6301887519405,583.6394511439014 L 115.2201887519405,583.7094511439014 L 116.2201887519405,583.7994511439015 L 117.0301887519405,583.8394511439014 L 117.6301887519405,583.8494511439014 L 135.7601887519405,584.0294511439015 L 136.1201887519405,584.0294511439015 L 136.5301887519405,584.0294511439015 L 137.2201887519405,583.9994511439014 L 137.7801887519405,583.9694511439014 L 138.1901887519405,583.9394511439015 L 157.9601887519405,582.1894511439015 L 158.2001887519405,582.1694511439015 L 158.4701887519405,582.1394511439014 L 158.9301887519405,582.0894511439014 L 159.30018875194048,582.0394511439015 L 159.5701887519405,581.9994511439014 L 180.5401887519405,578.7694511439014 L 180.6901887519405,578.7394511439014 L 180.86018875194048,578.7194511439014 L 181.14018875194049,578.6694511439015 L 181.36018875194048,578.6294511439014 L 181.5301887519405,578.5994511439014 L 203.30018875194048,574.3394511439014 L 203.3801887519405,574.3294511439015 L 203.4201887519405,574.3194511439015 L 203.6301887519405,574.2694511439014 L 225.9901887519405,569.4394511439015 L 226.02018875194048,569.4394511439015 L 247.96018875194048,564.6494511439015 L 248.3201887519405,564.5794511439015 L 269.1001887519405,560.3994511439015 L 269.91018875194044,560.2494511439014 L 277.3701887519405,559.0294511439015 L 279.16018875194044,558.8194511439015 L 280.6001887519405,558.7994511439015 L 282.0401887519405,558.9094511439015 L 283.82018875194046,559.2194511439014 L 287.8701887519405,560.1494511439015 L 288.20018875194046,560.2094511439014 L 288.2401887519405,560.2194511439014 L 289.1701887519405,560.3794511439014 L 290.03018875194044,560.4994511439014 L 291.02018875194045,560.6094511439014 L 291.15018875194045,560.6194511439014 L 291.52018875194045,560.6394511439014 L 297.16018875194044,560.8994511439015 L 297.46018875194045,560.9094511439015 L 297.50018875194047,560.9194511439015 L 298.3501887519405,560.9194511439015 L 299.14018875194046,560.8894511439014 L 300.03018875194044,560.8394511439014 L 300.15018875194045,560.8294511439015 L 300.4801887519405,560.7894511439015 L 306.0401887519405,560.1694511439015 L 306.57018875194046,560.0994511439014 L 307.16018875194044,560.0194511439014 L 308.15018875194045,559.8394511439014 L 308.94018875194047,559.6594511439015 L 309.52018875194045,559.5294511439015 L 314.9301887519405,558.1294511439014 L 315.39018875194046,557.9994511439014 L 315.90018875194045,557.8494511439014 L 316.76018875194046,557.5694511439015 L 317.45018875194046,557.3194511439015 L 317.96018875194045,557.1294511439014 L 319.3601887519405,556.5694511439015 L 321.21018875194045,555.9294511439015 L 322.7301887519405,555.5894511439014 L 324.2901887519405,555.3994511439015 L 325.8501887519405,555.3694511439014 L 327.8001887519405,555.5494511439015 L 336.3601887519405,556.7594511439014 L 338.27018875194045,557.1394511439014 L 340.14018875194046,557.7094511439014 L 346.53018875194044,560.0394511439015 L 348.13018875194047,560.7094511439014 L 349.3601887519405,561.3694511439014 L 350.82018875194046,562.3194511439015 L 354.3601887519405,564.8994511439015 L 355.90018875194045,566.1494511439015 L 357.02018875194045,567.2694511439014 L 358.26018875194046,568.8194511439015 L 364.01018875194046,576.7894511439015 L 364.09018875194045,576.8994511439015 L 364.13018875194047,576.9494511439015 L 364.33018875194045,577.2194511439014 L 364.34018875194045,577.2294511439014 L 364.70018875194046,577.6894511439015 L 364.84018875194045,577.8494511439014 L 365.3101887519405,578.3894511439014 L 365.41018875194044,578.4994511439014 L 365.94018875194047,579.0494511439015 L 365.97018875194044,579.0794511439015 L 366.4901887519405,579.5694511439015 L 366.6001887519405,579.6694511439015 L 367.1801887519405,580.1594511439015 L 367.22018875194044,580.1894511439015 L 367.78018875194044,580.6194511439014 L 367.90018875194045,580.7094511439014 L 368.53018875194044,581.1394511439014 L 368.5601887519405,581.1694511439015 L 369.1701887519405,581.5494511439015 L 369.3001887519405,581.6194511439014 L 369.96018875194045,581.9894511439014 L 370.00018875194047,582.0094511439014 L 370.64018875194046,582.3294511439015 L 370.78018875194044,582.3894511439014 L 371.47018875194044,582.6994511439015 L 371.52018875194045,582.7094511439014 L 372.1801887519405,582.9594511439014 L 372.32018875194046,583.0194511439014 L 373.0501887519405,583.2494511439014 L 373.09018875194045,583.2594511439014 L 373.78018875194044,583.4494511439015 L 373.9301887519405,583.4794511439014 L 374.6701887519405,583.6394511439014 L 374.71018875194045,583.6494511439015 L 375.41018875194044,583.7694511439014 L 375.5601887519405,583.7894511439015 L 376.32018875194046,583.8794511439014 L 376.3601887519405,583.8794511439014 L 377.07018875194046,583.9294511439015 L 377.22018875194044,583.9394511439015 L 377.9801887519405,583.9494511439015 L 378.03018875194044,583.9494511439015 L 378.7401887519405,583.9294511439015 L 378.89018875194046,583.9194511439015 L 379.65018875194045,583.8594511439014 L 379.69018875194047,583.8494511439014 L 380.40018875194045,583.7594511439014 L 380.5501887519405,583.7394511439014 L 381.3001887519405,583.5994511439014 L 381.34018875194045,583.5894511439014 L 382.03018875194044,583.4294511439015 L 382.1801887519405,583.3994511439015 L 382.91018875194044,583.1894511439015 L 382.95018875194046,583.1794511439015 L 383.63018875194047,582.9494511439015 L 383.77018875194045,582.8994511439015 L 384.4801887519405,582.6194511439014 L 384.52018875194045,582.5994511439014 L 385.1701887519405,582.3094511439015 L 385.3001887519405,582.2394511439014 L 385.9801887519405,581.8894511439014 L 386.02018875194045,581.8694511439014 L 386.64018875194046,581.5194511439014 L 386.77018875194045,581.4394511439015 L 387.41018875194044,581.0294511439015 L 387.44018875194047,580.9994511439014 L 388.02018875194045,580.5894511439014 L 388.14018875194046,580.4994511439014 L 388.7401887519405,580.0294511439015 L 388.77018875194045,579.9994511439014 L 389.3101887519405,579.5294511439015 L 389.6101887519405,579.2594511439014 L 390.02018875194045,578.8594511439014 L 399.46018875194045,569.5194511439014 L 400.6101887519405,568.4694511439014 L 401.6001887519405,567.7094511439014 L 402.91018875194044,566.8694511439014 L 410.50018875194047,562.4194511439015 L 412.3501887519405,561.4594511439014 L 414.3101887519405,560.7194511439014 L 417.52018875194045,559.6994511439015 L 419.15018875194045,559.2594511439014 L 420.4801887519405,559.0294511439015 L 421.83018875194045,558.9094511439015 L 423.1801887519405,558.9294511439015 L 424.8601887519405,559.0894511439014 L 424.9201887519405,559.0994511439014 L 425.1801887519405,559.1394511439014 L 425.47018875194044,559.1694511439015 L 425.95018875194046,559.2294511439014 L 426.3501887519405,559.2594511439014 L 426.64018875194046,559.2894511439015 L 434.7401887519405,559.8894511439014 L 435.00018875194047,559.8994511439015 L 435.3001887519405,559.9194511439015 L 435.8001887519405,559.9394511439015 L 436.21018875194045,559.9494511439015 L 436.50018875194047,559.9494511439015 L 444.6001887519405,559.9794511439014 L 444.89018875194046,559.9794511439014 L 445.20018875194046,559.9694511439014 L 445.7301887519405,559.9494511439015 L 446.16018875194044,559.9294511439015 L 446.4801887519405,559.9094511439015 L 454.41018875194044,559.3394511439014 L 454.72018875194044,559.3094511439015 L 455.07018875194046,559.2794511439015 L 455.65018875194045,559.2094511439014 L 456.1201887519405,559.1494511439015 L 456.46018875194045,559.0994511439014 L 464.0601887519405,557.9194511439015 L 464.41018875194044,557.8594511439014 L 464.8001887519405,557.7894511439015 L 465.44018875194047,557.6594511439015 L 465.97018875194044,557.5394511439015 L 466.3501887519405,557.4394511439015 L 467.89018875194046,557.0494511439015 L 469.4801887519405,556.7194511439014 L 470.76018875194046,556.5694511439015 L 472.0601887519405,556.5294511439015 L 473.6701887519405,556.6094511439014 L 477.15018875194045,556.9494511439015 L 478.5501887519405,557.1294511439014 L 497.88018875194047,560.2494511439014 L 498.7301887519405,560.3994511439015 L 519.4801887519405,564.5694511439015 L 519.8701887519405,564.6494511439015 L 541.6301887519405,569.4194511439015 L 541.6501887519405,569.4294511439015 L 563.7501887519405,574.2394511439014 L 563.8301887519406,574.2494511439014 L 563.9101887519405,574.2694511439014 L 564.0501887519405,574.2994511439015 L 564.1701887519405,574.3194511439015 L 564.2501887519405,574.3394511439014 L 585.9401887519405,578.5994511439014 L 586.0901887519406,578.6194511439014 L 586.2601887519405,578.6594511439015 L 586.5501887519405,578.7094511439014 L 586.7801887519405,578.7494511439014 L 586.9501887519406,578.7694511439014 L 607.9801887519405,581.9994511439014 L 608.2201887519406,582.0394511439015 L 608.4901887519405,582.0794511439015 L 608.9501887519406,582.1294511439014 L 609.3301887519406,582.1694511439015 L 609.6101887519405,582.1994511439015 L 629.6701887519405,583.9394511439015 L 630.0301887519405,583.9694511439014 L 630.4301887519405,583.9894511439014 L 631.1101887519405,584.0194511439014 L 631.6701887519405,584.0294511439015 L 632.0701887519406,584.0294511439015 L 650.8701887519405,583.8494511439014 L 651.3701887519405,583.8394511439014 L 651.9301887519405,583.8194511439015 L 652.8701887519405,583.7494511439014 L 653.6401887519405,583.6594511439015 L 654.1901887519405,583.5894511439014 L 671.7701887519405,581.0594511439015 L 672.0901887519406,581.0094511439014 L 672.1401887519405,580.9994511439014 L 673.0701887519406,580.8094511439015 L 673.9301887519405,580.6094511439014 L 674.8901887519405,580.3494511439014 L 675.0201887519405,580.3094511439015 L 675.3801887519405,580.1994511439015 L 691.5901887519406,574.8094511439015 L 691.9701887519406,574.6794511439015 L 692.0201887519405,574.6594511439015 L 693.1101887519405,574.2194511439014 L 694.1001887519405,573.7694511439014 L 695.2001887519406,573.2094511439014 L 695.3401887519406,573.1294511439014 L 695.7401887519405,572.8994511439015 L 710.1501887519405,564.2794511439015 L 710.5301887519405,564.0494511439015 L 710.5801887519406,564.0194511439014 L 711.6401887519405,563.2694511439014 L 712.5901887519406,562.5394511439015 L 713.6201887519405,561.6694511439015 L 713.7601887519405,561.5394511439015 L 714.1201887519405,561.1894511439015 L 726.6301887519405,548.8194511439015 L 726.9301887519405,548.5094511439014 L 726.9701887519406,548.4694511439014 L 727.8001887519405,547.5294511439015 L 728.5201887519405,546.6294511439014 L 729.3001887519405,545.5694511439015 L 729.4001887519405,545.4194511439015 L 729.6601887519405,545.0194511439014 L 740.1101887519405,528.2694511439014 L 740.3001887519405,527.9594511439014 L 740.3201887519406,527.9194511439015 L 740.8201887519406,526.9994511439014 L 741.0901887519406,526.4594511439014 L 741.6801887519405,525.1294511439014 L 741.7501887519405,524.9494511439015 L 742.2001887519406,523.5694511439015 L 742.4901887519405,522.5294511439015 L 742.8701887519405,521.2894511439015 L 743.3501887519405,519.8694511439014 L 743.7701887519405,518.4194511439015 L 743.8001887519405,518.2694511439014 L 744.0601887519405,516.8194511439015 L 744.0901887519406,516.5894511439014 L 744.1701887519405,515.6394511439014 L 744.1701887519405,515.6394511439014 L 744.3701887519405,513.3094511439015 L 744.6601887519405,511.7794511439015 L 745.1101887519405,510.2894511439015 L 745.7101887519406,508.84945114390143 L 746.4601887519406,507.47945114390143 L 747.3501887519405,506.19945114390146 L 748.6201887519405,504.71945114390144 L 753.2101887519406,499.8994511439015 L 753.4101887519405,499.68945114390147 L 753.4301887519405,499.6694511439015 L 753.9801887519405,499.0394511439015 L 754.4601887519406,498.44945114390146 L 754.9901887519405,497.7694511439014 L 755.0601887519405,497.6694511439015 L 755.2401887519405,497.4094511439015 L 759.3101887519405,491.55945114390147 L 759.4901887519405,491.2994511439015 L 759.5201887519405,491.2694511439014 L 760.0001887519405,490.47945114390143 L 760.4301887519405,489.7494511439014 L 760.8801887519405,488.8994511439015 L 760.9401887519405,488.7894511439015 L 761.1001887519405,488.45945114390145 L 763.9801887519405,482.2994511439015 L 764.1201887519405,481.97945114390143 L 764.1401887519405,481.93945114390147 L 764.5201887519405,480.9894511439014 L 764.8401887519406,480.1094511439014 L 765.1601887519405,479.08945114390144 L 765.2001887519406,478.94945114390146 L 765.3001887519405,478.56945114390146 L 766.9201887519405,472.1794511439015 L 767.0101887519405,471.7994511439015 L 767.0201887519405,471.7594511439014 L 767.2201887519406,470.6694511439015 L 767.3701887519405,469.6694511439015 L 767.5001887519405,468.5194511439014 L 767.5101887519405,468.3594511439014 L 767.5401887519405,467.9294511439015 L 767.8201887519406,461.3694511439014 L 767.8301887519406,460.96945114390144 L 767.8301887519406,460.9194511439015 L 767.8001887519405,459.7794511439015 L 767.7401887519405,458.71945114390144 L 767.6201887519405,457.5294511439015 L 767.6001887519405,457.3694511439014 L 767.5301887519405,456.9294511439015 L 766.3701887519405,450.20945114390145 L 766.3001887519405,449.82945114390145 L 766.2901887519405,449.7794511439015 L 766.0301887519405,448.68945114390147 L 765.7501887519405,447.68945114390147 L 765.3901887519405,446.56945114390146 L 765.3401887519406,446.4194511439015 L 765.1801887519405,446.0094511439014 L 762.4501887519406,439.1594511439015 L 762.3201887519406,438.81945114390146 L 762.3001887519405,438.7794511439015 L 761.8501887519405,437.82945114390145 L 761.4201887519405,436.97945114390143 L 760.8801887519405,436.0194511439014 L 760.8101887519405,435.8994511439015 L 760.5901887519406,435.5494511439015 L 756.1101887519405,428.6094511439014 L 755.9301887519405,428.33945114390144 L 755.9101887519405,428.30945114390147 L 755.3701887519405,427.55945114390147 L 754.8501887519405,426.8794511439014 L 754.2301887519405,426.1394511439014 L 754.1401887519405,426.0394511439015 L 753.9001887519405,425.7694511439014 L 747.4901887519405,418.81945114390146 L 747.3001887519405,418.6194511439014 L 747.2801887519405,418.58945114390144 L 746.7101887519406,418.0294511439015 L 746.1801887519405,417.5294511439015 L 745.5501887519405,416.97945114390143 L 745.4701887519406,416.8994511439015 L 745.2301887519405,416.70945114390145 L 738.6501887519405,411.4194511439015 L 736.3901887519405,409.31945114390146 L 730.9001887519405,403.4994511439014 L 730.6101887519405,403.20945114390145 L 730.5801887519406,403.1694511439015 L 729.7201887519406,402.3694511439014 L 728.8901887519405,401.6594511439015 L 727.9301887519405,400.8994511439015 L 727.7901887519405,400.7994511439015 L 727.4201887519405,400.5394511439015 L 720.1501887519405,395.6094511439014 L 719.8901887519405,395.43945114390147 L 719.8601887519405,395.4094511439015 L 719.0801887519406,394.93945114390147 L 718.6201887519405,394.6794511439015 L 717.4901887519405,394.1094511439014 L 717.0501887519405,393.8994511439015 L 716.1701887519405,393.5294511439015 L 716.0501887519405,393.4894511439014 L 715.7201887519406,393.3694511439014 L 708.3101887519405,390.72945114390143 L 708.0001887519405,390.6194511439014 L 707.9601887519406,390.6094511439014 L 707.0401887519405,390.32945114390145 L 706.5101887519405,390.18945114390147 L 705.2001887519406,389.9094511439015 L 704.7001887519406,389.82945114390145 L 703.7101887519406,389.69945114390146 L 703.5701887519406,389.6794511439015 L 703.2001887519406,389.6494511439015 L 695.8101887519405,389.08945114390144 L 695.5001887519405,389.06945114390146 L 695.4601887519406,389.06945114390146 L 694.5601887519405,389.0494511439015 L 694.0401887519405,389.0494511439015 L 692.7901887519405,389.1094511439014 L 692.3101887519405,389.1494511439015 L 691.3801887519405,389.2694511439014 L 691.2501887519405,389.2894511439015 L 690.9101887519405,389.33945114390144 L 688.8801887519405,389.69945114390146 L 687.1001887519405,389.9294511439015 L 685.6701887519405,389.97945114390143 L 684.2401887519405,389.8894511439014 L 682.8301887519406,389.6594511439015 L 681.4401887519405,389.2994511439015 L 680.0901887519406,388.80945114390147 L 678.8001887519405,388.18945114390147 L 677.5701887519406,387.44945114390146 L 676.4201887519405,386.59945114390143 L 675.3601887519405,385.6394511439014 L 674.3901887519405,384.57945114390145 L 673.5301887519405,383.43945114390147 L 672.7801887519405,382.21945114390144 L 672.1501887519405,380.9294511439015 L 671.6501887519405,379.58945114390144 L 671.2701887519405,378.20945114390145 L 670.9701887519406,376.43945114390147 L 670.6701887519405,373.94945114390146 L 670.6201887519405,373.58945114390144 L 670.6201887519405,373.5394511439015 L 670.4301887519405,372.4994511439014 L 670.2901887519405,371.8894511439014 L 669.9101887519405,370.4894511439014 L 669.8401887519406,370.2594511439014 L 669.3601887519405,368.45945114390145 L 669.1101887519405,366.9894511439014 L 669.0201887519405,365.4994511439014 L 669.0701887519406,364.0094511439015 L 669.2801887519405,362.5294511439015 L 669.6201887519405,361.07945114390145 L 670.1101887519405,359.6694511439015 L 670.7401887519405,358.31945114390146 L 671.5001887519405,357.0394511439015 L 672.3801887519405,355.83945114390144 L 673.3801887519405,354.72945114390143 L 674.4801887519405,353.72945114390143 L 675.6201887519405,352.8794511439015 L 676.1601887519405,352.45945114390145 L 676.6701887519405,352.0394511439015 L 677.7701887519405,351.05945114390147 L 677.9001887519405,350.9194511439015 L 678.9001887519405,349.82945114390145 L 679.0201887519405,349.6794511439015 L 679.9001887519405,348.5094511439015 L 680.0101887519405,348.34945114390143 L 680.7701887519405,347.08945114390144 L 680.8601887519405,346.9194511439015 L 681.4901887519405,345.58945114390144 L 681.5701887519406,345.4094511439015 L 682.0701887519406,344.0194511439015 L 682.1201887519405,343.83945114390144 L 682.4801887519405,342.4094511439015 L 682.8101887519405,340.7794511439015 L 682.9001887519405,340.33945114390144 L 682.9201887519405,340.21945114390144 L 683.2601887519405,338.9294511439015 L 683.7101887519406,337.6794511439015 L 684.2701887519405,336.46945114390144 L 685.1101887519405,335.0294511439015 L 686.5901887519406,332.70945114390145 L 686.7901887519405,332.3894511439015 L 687.0001887519405,332.0394511439015 L 687.3401887519406,331.43945114390147 L 687.6101887519405,330.94945114390146 L 687.8001887519405,330.58945114390144 L 698.4601887519406,309.6594511439015 L 698.6301887519405,309.31945114390146 L 698.8201887519406,308.9294511439015 L 699.1201887519405,308.2594511439015 L 699.3501887519405,307.71945114390144 L 699.5101887519405,307.31945114390146 L 707.8601887519405,285.6494511439015 L 708.0101887519405,285.2594511439015 L 708.1601887519405,284.82945114390145 L 708.4001887519405,284.07945114390145 L 708.5801887519406,283.47945114390143 L 708.7101887519406,283.0294511439015 L 714.5301887519405,260.9094511439015 L 714.6401887519405,260.46945114390144 L 714.7601887519405,259.97945114390143 L 714.9201887519405,259.1494511439015 L 715.0401887519405,258.46945114390144 L 715.1201887519405,257.96945114390144 L 718.1901887519405,235.6894511439015 L 718.2501887519405,235.1894511439015 L 718.3101887519405,234.64945114390147 L 718.3801887519405,233.71945114390147 L 718.4101887519405,232.95945114390148 L 718.4201887519405,232.40945114390146 L 718.4601887519406,224.2594511439015 L 718.5401887519405,222.66945114390145 L 718.5801887519406,222.35945114390145 L 718.6401887519405,221.85945114390145 L 718.7701887519405,220.5094511439015 L 718.8501887519405,219.16945114390145 L 718.8501887519405,218.40945114390146 L 718.8401887519406,217.71945114390147 L 718.5401887519405,209.3094511439015 L 718.4701887519406,208.3794511439015 L 718.3601887519405,207.2494511439015 L 718.2901887519405,206.64945114390147 L 715.2001887519406,184.53945114390146 L 715.1601887519405,184.2494511439015 L 715.1501887519405,184.21945114390147 L 715.0001887519405,183.39945114390147 L 714.8301887519406,182.63945114390148 L 714.6201887519405,181.79945114390145 L 714.5901887519406,181.6794511439015 L 714.5001887519405,181.3694511439015 L 707.8901887519405,159.52945114390147 L 707.8001887519405,159.23945114390145 L 707.7901887519405,159.19945114390148 L 707.5001887519405,158.3794511439015 L 707.2001887519406,157.6294511439015 L 706.8401887519406,156.77945114390147 L 706.7901887519405,156.66945114390145 L 706.6501887519405,156.35945114390145 L 696.3201887519406,135.32945114390148 L 696.1801887519405,135.04945114390145 L 696.1601887519405,135.01945114390148 L 695.7301887519405,134.23945114390145 L 695.3201887519406,133.53945114390146 L 694.8201887519406,132.7594511439015 L 694.7501887519405,132.64945114390147 L 694.5501887519405,132.3694511439015 L 680.5001887519405,112.71945114390147 L 680.0601887519405,112.13945114390148 L 679.6101887519405,111.56945114390149 L 679.6001887519405,111.57945114390148 L 679.1401887519405,110.9994511439015 L 678.9901887519405,110.81945114390149 L 677.9701887519406,109.75945114390149 L 677.8301887519406,109.6194511439015 L 676.7101887519406,108.66945114390148 L 676.2801887519405,108.33945114390147 L 675.3701887519405,107.67945114390147 L 675.2401887519405,107.59945114390146 L 674.8501887519405,107.34945114390146 L 656.9601887519406,96.30945114390147 L 656.6701887519405,96.13945114390148 L 656.6401887519405,96.11945114390147 L 655.7901887519405,95.65945114390146 L 655.2901887519405,95.40945114390146 L 654.0701887519406,94.85945114390148 L 653.5901887519406,94.66945114390148 L 652.6401887519405,94.32945114390148 L 652.5101887519405,94.28945114390149 L 652.1501887519405,94.17945114390147 L 633.9701887519406,88.86945114390147 L 633.6301887519405,88.77945114390147 L 633.5901887519406,88.76945114390148 L 632.6201887519405,88.53945114390149 L 632.0501887519405,88.42945114390147 L 630.6801887519405,88.22945114390149 L 630.1501887519405,88.16945114390148 L 629.1101887519405,88.10945114390148 L 628.9601887519406,88.09945114390146 L 628.5801887519406,88.08945114390147 L 610.2701887519405,87.99945114390147 L 609.9601887519406,87.99945114390147 L 609.9201887519405,87.99945114390147 L 609.0001887519405,88.03945114390149 L 608.4801887519405,88.07945114390148 L 607.2201887519406,88.22945114390149 L 606.7401887519405,88.30945114390147 L 605.8001887519405,88.48945114390148 L 605.6701887519405,88.51945114390148 L 605.3301887519406,88.60945114390148 L 587.1601887519405,93.22945114390149 L 586.9001887519405,93.29945114390148 L 584.8901887519405,93.74945114390147 L 583.2701887519405,93.92945114390147 L 583.2201887519406,93.92945114390147 L 582.6101887519405,93.94945114390148 L 581.0101887519405,94.01945114390148 L 579.5501887519405,94.15945114390146 L 579.3601887519405,94.18945114390147 L 577.9101887519405,94.46945114390147 L 577.7201887519406,94.51945114390148 L 576.3101887519405,94.93945114390147 L 576.1301887519405,94.99945114390147 L 574.7701887519405,95.55945114390147 L 574.6001887519405,95.63945114390148 L 573.3001887519405,96.32945114390148 L 573.1301887519405,96.42945114390147 L 571.9001887519405,97.24945114390147 L 571.7501887519405,97.35945114390148 L 570.6101887519405,98.28945114390149 L 570.4601887519406,98.41945114390148 L 569.4201887519405,99.45945114390148 L 568.6601887519405,100.28945114390149 L 568.2701887519405,100.73945114390148 L 567.8301887519406,101.25945114390149 L 566.8401887519406,102.22945114390149 L 565.7701887519405,103.10945114390148 L 564.3301887519406,104.07945114390148 L 563.2901887519405,104.70945114390148 L 562.5201887519405,105.20945114390148 L 562.3801887519405,105.30945114390147 L 562.0901887519406,105.51945114390148 L 544.8401887519406,118.13945114390148 L 544.4301887519405,118.45945114390148 L 543.9801887519405,118.8094511439015 L 543.2401887519405,119.4294511439015 L 542.6501887519405,119.95945114390148 L 542.2301887519405,120.34945114390146 L 536.6401887519405,125.76945114390148 L 535.2301887519405,126.9994511439015 L 534.0101887519405,127.8694511439015 L 532.7101887519406,128.60945114390145 L 531.3501887519405,129.21945114390147 L 529.9301887519405,129.6894511439015 L 528.4701887519406,130.01945114390148 L 526.9801887519405,130.19945114390148 L 525.4901887519405,130.22945114390146 L 523.3301887519406,130.04945114390145 L 522.6901887519405,130.01945114390148 L 522.4101887519405,130.0094511439015 L 520.9701887519406,130.01945114390148 L 520.7801887519405,130.02945114390147 L 519.3501887519405,130.1894511439015 L 519.1601887519405,130.21945114390147 L 517.7501887519405,130.5094511439015 L 517.5701887519406,130.5594511439015 L 516.2001887519406,130.97945114390146 L 515.6801887519405,131.16945114390145 L 514.6801887519405,131.5694511439015 L 514.5401887519405,131.6294511439015 L 514.1801887519405,131.79945114390145 L 505.4401887519404,135.97945114390146 L 505.0801887519405,136.15945114390146 L 504.67018875194043,136.3694511439015 L 504.00018875194047,136.73945114390145 L 503.4501887519405,137.04945114390145 L 503.0601887519404,137.27945114390147 L 494.4801887519405,142.60945114390145 L 494.2001887519405,142.78945114390146 L 493.90018875194045,142.97945114390146 L 493.39018875194046,143.32945114390148 L 492.9901887519405,143.6194511439015 L 492.6901887519404,143.82945114390148 L 484.1101887519405,150.23945114390145 L 483.91018875194044,150.39945114390147 L 483.69018875194047,150.5694511439015 L 483.32018875194046,150.85945114390145 L 483.03018875194044,151.10945114390145 L 482.8101887519405,151.28945114390146 L 474.2301887519405,158.63945114390148 L 474.09018875194045,158.7594511439015 L 473.94018875194047,158.89945114390147 L 473.6701887519405,159.13945114390148 L 473.46018875194045,159.32945114390148 L 473.3101887519405,159.46945114390147 L 464.7301887519405,167.60945114390145 L 464.63018875194047,167.69945114390148 L 464.53018875194044,167.79945114390145 L 464.3501887519405,167.97945114390146 L 464.21018875194045,168.1194511439015 L 464.1001887519405,168.21945114390147 L 455.50018875194047,176.96945114390147 L 455.44018875194047,177.02945114390147 L 455.38018875194047,177.09945114390146 L 455.27018875194045,177.20945114390148 L 455.1801887519405,177.29945114390145 L 455.1201887519405,177.3694511439015 L 446.5401887519405,186.48945114390145 L 446.44018875194047,186.59945114390146 L 442.4801887519405,190.88945114390148 L 441.44018875194047,191.9394511439015 L 440.32018875194046,192.89945114390147 L 439.3101887519405,193.6894511439015 L 438.22018875194044,194.63945114390148 L 437.8501887519405,194.9994511439015 L 437.0401887519405,195.84945114390146 L 436.84018875194045,196.0694511439015 L 436.52018875194045,196.4394511439015 L 429.01018875194046,205.45945114390148 L 428.09018875194045,206.48945114390145 L 420.3001887519405,214.7594511439015 L 419.95018875194046,215.1194511439015 L 411.71018875194045,223.46945114390147 L 411.16018875194044,224.0094511439015 L 403.14018875194046,231.59945114390146 L 402.3501887519405,232.3194511439015 L 399.63018875194047,234.64945114390147 L 398.19018875194047,235.77945114390147 L 396.95018875194046,236.5594511439015 L 395.64018875194046,237.21945114390147 L 394.27018875194045,237.7494511439015 L 392.8501887519405,238.13945114390148 L 391.41018875194044,238.38945114390148 L 389.95018875194046,238.4994511439015 L 388.4801887519405,238.45945114390148 L 387.02018875194045,238.27945114390147 L 385.59018875194045,237.95945114390148 L 384.20018875194046,237.4994511439015 L 382.8601887519405,236.90945114390146 L 381.58018875194045,236.1894511439015 L 380.38018875194047,235.34945114390146 L 379.27018875194045,234.38945114390148 L 378.25018875194047,233.32945114390148 L 377.3501887519405,232.1794511439015 L 376.5601887519405,230.9394511439015 L 375.90018875194045,229.6294511439015 L 375.3601887519405,228.26945114390148 L 374.97018875194044,226.84945114390146 L 374.71018875194045,225.40945114390146 L 374.6001887519405,223.94945114390148 L 374.64018875194046,222.10945114390145 L 374.6701887519405,221.6194511439015 L 374.6801887519405,221.39945114390147 L 374.9201887519405,217.0694511439015 L 375.1001887519405,215.3094511439015 L 375.3701887519405,213.9294511439015 L 375.78018875194044,212.5694511439015 L 376.3101887519405,211.2594511439015 L 376.96018875194045,210.0094511439015 L 377.7301887519405,208.8194511439015 L 378.6001887519405,207.70945114390148 L 379.58018875194045,206.6894511439015 L 380.64018875194046,205.7594511439015 L 382.08018875194045,204.73945114390145 L 384.77018875194045,202.9994511439015 L 385.02018875194045,202.83945114390147 L 385.28018875194044,202.65945114390146 L 385.7301887519405,202.34945114390146 L 386.09018875194045,202.08945114390147 L 386.3501887519405,201.89945114390147 L 394.66018875194044,195.57945114390148 L 394.90018875194045,195.38945114390148 L 395.16018875194044,195.1794511439015 L 395.6001887519405,194.8194511439015 L 395.96018875194045,194.51945114390148 L 396.21018875194045,194.28945114390146 L 403.52018875194045,187.73945114390145 L 403.75018875194047,187.52945114390147 L 404.00018875194047,187.28945114390146 L 404.4201887519405,186.88945114390148 L 404.75018875194047,186.54945114390145 L 404.9901887519405,186.3094511439015 L 411.4301887519405,179.4994511439015 L 411.64018875194046,179.27945114390147 L 411.8601887519405,179.02945114390147 L 412.2401887519405,178.59945114390146 L 412.5401887519405,178.23945114390145 L 412.75018875194047,177.97945114390146 L 418.4301887519405,170.90945114390146 L 418.6101887519405,170.6894511439015 L 418.8101887519405,170.4294511439015 L 419.13018875194047,169.9994511439015 L 419.39018875194046,169.63945114390148 L 419.57018875194046,169.3794511439015 L 424.6101887519405,162.01945114390148 L 424.75018875194047,161.79945114390145 L 424.91018875194044,161.5594511439015 L 425.1801887519405,161.13945114390148 L 425.39018875194046,160.79945114390145 L 425.5401887519405,160.54945114390145 L 430.03018875194044,152.88945114390148 L 430.15018875194045,152.6894511439015 L 430.27018875194045,152.45945114390148 L 430.4801887519405,152.08945114390147 L 430.64018875194046,151.76945114390148 L 430.76018875194046,151.54945114390145 L 434.8101887519405,143.5594511439015 L 434.89018875194046,143.38945114390148 L 434.9901887519405,143.19945114390148 L 435.14018875194046,142.8794511439015 L 435.26018875194046,142.60945114390145 L 435.3501887519405,142.41945114390145 L 439.0501887519405,134.09945114390146 L 439.1101887519405,133.95945114390148 L 439.1701887519405,133.8094511439015 L 439.28018875194044,133.54945114390145 L 439.3701887519405,133.32945114390148 L 439.4301887519405,133.1794511439015 L 442.8701887519405,124.52945114390147 L 442.91018875194044,124.4294511439015 L 442.95018875194046,124.3094511439015 L 443.03018875194044,124.1194511439015 L 443.08018875194045,123.95945114390148 L 443.13018875194047,123.84945114390146 L 446.39018875194046,114.8694511439015 L 446.4201887519405,114.79945114390145 L 446.4301887519405,114.75945114390149 L 446.4901887519405,114.57945114390148 L 449.71018875194045,105.19945114390148 L 449.75018875194047,105.07945114390148 L 453.01018875194046,95.32945114390148 L 456.27018875194045,85.60945114390148 L 456.3501887519405,85.37945114390146 L 459.69018875194047,75.77945114390147 L 459.83018875194045,75.38945114390148 L 463.3501887519405,65.82945114390148 L 463.5601887519405,65.28945114390149 L 467.3601887519405,55.74945114390147 L 467.64018875194046,55.06945114390149 L 471.82018875194046,45.50945114390149 L 472.1801887519405,44.729451143901485 L 477.0401887519405,34.66945114390148 L 477.19018875194047,34.34945114390146 L 477.20018875194046,34.30945114390147 L 477.59018875194045,33.36945114390147 L 477.8001887519405,32.81945114390149 L 478.2301887519405,31.469451143901466 L 478.28018875194044,31.29945114390148 L 478.58018875194045,29.909451143901464 L 478.6101887519405,29.729451143901485 L 478.7901887519405,28.32945114390148 L 478.8001887519405,28.139451143901482 L 478.84018875194045,26.729451143901485 L 478.84018875194045,26.539451143901488 L 478.7401887519405,25.129451143901463 L 478.72018875194044,24.949451143901484 L 478.50018875194047,23.54945114390148 L 478.46018875194045,23.369451143901472 L 478.1001887519405,21.999451143901467 L 478.0501887519405,21.82945114390148 L 477.5601887519405,20.499451143901467 L 477.4901887519405,20.32945114390148 L 476.88018875194047,19.04945114390148 L 476.8001887519405,18.899451143901473 L 476.07018875194046,17.669451143901483 L 475.97018875194044,17.509451143901487 L 475.1001887519405,16.33945114390147 L 474.97018875194044,16.179451143901474 L 473.9901887519405,15.08945114390147 L 473.8501887519405,14.949451143901484 L 472.77018875194045,13.959451143901475 L 472.6201887519405,13.82945114390148 L 471.44018875194047,12.949451143901484 L 471.28018875194044,12.83945114390147 L 470.02018875194045,12.07945114390148 L 469.8501887519405,11.989451143901476 L 468.52018875194045,11.359451143901481 L 468.3501887519405,11.279451143901468 L 466.96018875194045,10.779451143901468 L 466.78018875194044,10.719451143901466 L 465.3501887519405,10.359451143901481 L 465.16018875194044,10.319451143901489 L 463.71018875194045,10.099451143901462 L 463.52018875194045,10.07945114390148 L 462.0501887519405,9.999451143901467 L 461.8501887519405,9.999451143901467 L 460.38018875194047,10.069451143901489 L 460.19018875194047,10.07945114390148 L 458.7301887519405,10.289451143901488 L 458.5501887519405,10.32945114390148 L 457.1201887519405,10.679451143901474 L 456.9301887519405,10.739451143901476 L 455.5401887519405,11.229451143901485 L 455.3701887519405,11.299451143901479 L 454.03018875194044,11.929451143901474 L 453.8601887519405,12.019451143901478 L 452.6001887519405,12.769451143901478 L 452.44018875194047,12.869451143901472 L 451.25018875194047,13.749451143901467 L 451.1001887519405,13.869451143901472 L 450.01018875194046,14.849451143901462 L 449.8701887519405,14.989451143901476 L 448.88018875194047,16.06945114390149 L 448.75018875194047,16.219451143901466 L 447.8701887519405,17.399451143901473 L 447.65018875194045,17.729451143901485 L 446.9901887519405,18.80945114390147 L 446.84018875194045,19.05945114390147 L 446.4301887519405,19.84945114390146 L 441.2901887519405,30.499451143901467 L 441.2301887519405,30.629451143901463 L 441.16018875194044,30.769451143901478 L 441.0501887519405,31.019451143901478 L 440.96018875194045,31.219451143901466 L 440.90018875194045,31.35945114390148 L 436.28018875194044,41.939451143901465 L 436.2301887519405,42.04945114390148 L 436.1801887519405,42.179451143901474 L 436.09018875194045,42.38945114390148 L 436.02018875194045,42.55945114390147 L 435.97018875194044,42.689451143901465 L 431.82018875194046,53.07945114390148 L 431.7901887519405,53.179451143901474 L 431.75018875194047,53.27945114390147 L 431.6801887519405,53.449451143901484 L 431.63018875194047,53.58945114390147 L 431.59018875194045,53.689451143901465 L 427.83018875194045,63.89945114390147 L 427.8001887519405,63.969451143901466 L 427.7901887519405,64.00945114390149 L 427.72018875194044,64.19945114390148 L 424.22018875194044,74.26945114390148 L 424.1701887519405,74.41945114390148 L 420.7901887519405,84.46945114390147 L 420.78018875194044,84.49945114390147 L 417.6001887519405,94.03945114390149 L 417.5401887519405,94.20945114390148 L 414.4801887519405,103.12945114390146 L 414.34018875194045,103.51945114390148 L 411.33018875194045,111.79945114390145 L 411.09018875194045,112.41945114390145 L 408.0601887519405,120.04945114390145 L 407.71018875194045,120.87945114390149 L 404.6001887519405,127.88945114390148 L 404.1101887519405,128.91945114390145 L 403.64018875194046,129.83945114390147 L 402.75018875194047,131.40945114390146 L 401.9201887519405,132.59945114390146 L 400.97018875194044,133.6894511439015 L 399.9301887519405,134.6894511439015 L 398.7901887519405,135.58945114390147 L 397.57018875194046,136.3694511439015 L 396.28018875194044,137.02945114390147 L 394.94018875194047,137.5594511439015 L 393.5501887519405,137.95945114390148 L 392.13018875194047,138.22945114390146 L 390.69018875194047,138.34945114390146 L 389.2401887519405,138.33945114390147 L 387.8001887519405,138.1894511439015 L 386.38018875194047,137.89945114390147 L 385.00018875194047,137.46945114390147 L 383.66018875194044,136.90945114390146 L 382.39018875194046,136.22945114390146 L 381.19018875194047,135.41945114390145 L 380.07018875194046,134.5094511439015 L 379.0401887519405,133.48945114390145 L 378.1201887519405,132.3694511439015 L 377.3101887519405,131.1794511439015 L 376.6101887519405,129.90945114390146 L 376.0501887519405,128.5694511439015 L 375.6101887519405,127.1894511439015 L 375.3101887519405,125.77945114390147 L 375.1101887519405,123.97945114390146 L 374.7401887519405,118.23945114390145 L 374.7301887519405,118.07945114390148 L 374.72018875194044,117.89945114390147 L 374.69018875194047,117.59945114390146 L 374.6701887519405,117.34945114390146 L 374.65018875194045,117.1794511439015 L 372.5401887519405,97.51945114390148 L 372.4901887519405,97.13945114390148 L 372.4901887519405,97.09945114390146 L 372.3101887519405,96.03945114390149 L 372.1801887519405,95.42945114390147 L 371.8101887519405,93.97945114390149 L 371.75018875194047,93.79945114390148 L 371.2301887519405,92.38945114390148 L 371.15018875194045,92.20945114390148 L 370.4901887519405,90.85945114390148 L 370.40018875194045,90.68945114390147 L 369.6101887519405,89.41945114390148 L 369.50018875194047,89.25945114390149 L 368.59018875194045,88.06945114390149 L 368.47018875194044,87.91945114390148 L 367.44018875194047,86.82945114390148 L 367.3001887519405,86.68945114390147 L 366.1701887519405,85.69945114390148 L 366.02018875194045,85.57945114390148 L 364.8001887519405,84.71945114390147 L 364.63018875194047,84.60945114390148 L 363.33018875194045,83.86945114390147 L 363.16018875194044,83.77945114390147 L 361.7901887519405,83.16945114390148 L 361.6001887519405,83.09945114390146 L 360.1801887519405,82.62945114390146 L 359.9901887519405,82.57945114390148 L 358.53018875194044,82.25945114390149 L 358.34018875194045,82.21945114390147 L 356.8701887519405,82.04945114390148 L 356.69018875194047,82.03945114390149 L 355.21018875194045,81.99945114390147 L 355.02018875194045,82.00945114390149 L 353.5501887519405,82.11945114390147 L 353.3601887519405,82.14945114390147 L 351.91018875194044,82.39945114390147 L 351.7301887519405,82.44945114390148 L 350.3101887519405,82.84945114390146 L 350.13018875194047,82.90945114390146 L 348.75018875194047,83.43945114390147 L 348.58018875194045,83.51945114390148 L 347.27018875194045,84.18945114390147 L 347.1001887519405,84.27945114390147 L 345.8601887519405,85.06945114390149 L 345.70018875194046,85.18945114390147 L 344.5401887519405,86.09945114390146 L 344.40018875194045,86.21945114390147 L 343.34018875194045,87.23945114390148 L 343.20018875194046,87.37945114390146 L 342.25018875194047,88.49945114390147 L 342.13018875194047,88.64945114390147 L 341.28018875194044,89.85945114390148 L 341.1801887519405,90.01945114390148 L 340.46018875194045,91.29945114390148 L 340.38018875194047,91.47945114390149 L 339.78018875194044,92.81945114390149 L 339.72018875194044,92.99945114390147 L 339.26018875194046,94.39945114390147 L 339.01018875194046,95.29945114390148 L 338.8701887519405,95.87945114390146 L 338.6101887519405,96.98945114390148 L 338.13018875194047,98.40945114390146 L 337.51018875194046,99.76945114390148 L 336.76018875194046,101.05945114390147 L 335.89018875194046,102.27945114390147 L 334.89018875194046,103.39945114390147 L 333.7901887519405,104.40945114390146 L 332.6001887519405,105.30945114390147 L 331.32018875194046,106.08945114390147 L 329.97018875194044,106.72945114390149 L 328.5601887519405,107.23945114390148 L 327.1101887519405,107.59945114390146 L 325.63018875194047,107.81945114390149 L 324.14018875194046,107.88945114390148 L 322.64018875194046,107.79945114390148 L 321.16018875194044,107.57945114390148 L 319.72018875194044,107.19945114390148 L 318.3101887519405,106.67945114390147 L 316.97018875194044,106.01945114390148 L 315.69018875194047,105.23945114390148 L 314.51018875194046,104.32945114390148 L 313.4201887519405,103.30945114390147 L 312.4301887519405,102.17945114390147 L 311.57018875194046,100.95945114390148 L 310.83018875194045,99.65945114390146 L 310.07018875194046,97.94945114390148 L 306.77018875194045,89.39945114390147 L 306.7401887519405,89.31945114390149 L 306.71018875194045,89.22945114390149 L 306.65018875194045,89.06945114390149 L 306.59018875194045,88.94945114390148 L 306.5601887519405,88.85945114390148 L 302.95018875194046,80.10945114390148 L 302.90018875194045,79.99945114390147 L 302.8501887519405,79.85945114390148 L 302.75018875194047,79.63945114390148 L 302.6701887519405,79.45945114390148 L 302.6101887519405,79.32945114390148 L 298.72018875194044,70.73945114390148 L 298.65018875194045,70.58945114390147 L 298.57018875194046,70.41945114390148 L 298.4301887519405,70.12945114390146 L 298.32018875194046,69.89945114390147 L 298.2401887519405,69.72945114390149 L 293.95018875194046,61.30945114390147 L 293.8601887519405,61.12945114390146 L 293.75018875194047,60.91945114390148 L 293.57018875194046,60.58945114390147 L 293.4201887519405,60.30945114390147 L 293.3101887519405,60.11945114390147 L 288.52018875194045,51.84945114390146 L 288.41018875194044,51.64945114390147 L 288.27018875194045,51.429451143901474 L 288.0401887519405,51.04945114390148 L 287.8501887519405,50.74945114390147 L 287.70018875194046,50.52945114390147 L 282.3101887519405,42.429451143901474 L 282.1701887519405,42.219451143901466 L 282.01018875194046,41.979451143901485 L 281.72018875194044,41.58945114390147 L 281.4901887519405,41.26945114390148 L 281.32018875194046,41.03945114390149 L 275.20018875194046,33.09945114390146 L 275.0401887519405,32.87945114390146 L 274.8501887519405,32.63945114390148 L 274.52018875194045,32.24945114390147 L 274.25018875194047,31.929451143901474 L 274.0501887519405,31.699451143901484 L 267.09018875194045,23.909451143901464 L 266.91018875194044,23.699451143901484 L 266.69018875194047,23.469451143901466 L 266.33018875194045,23.08945114390147 L 266.03018875194044,22.789451143901488 L 265.8101887519405,22.56945114390149 L 257.95018875194046,14.989451143901476 L 257.69018875194047,14.729451143901485 L 257.65018875194045,14.699451143901484 L 256.8501887519405,14.019451143901478 L 256.3701887519405,13.639451143901482 L 255.1801887519405,12.779451143901468 L 255.02018875194048,12.669451143901483 L 253.7401887519405,11.929451143901474 L 253.5701887519405,11.849451143901462 L 252.23018875194052,11.239451143901476 L 252.0501887519405,11.159451143901464 L 250.66018875194047,10.689451143901465 L 250.48018875194052,10.639451143901482 L 249.04018875194052,10.299451143901479 L 248.85018875194052,10.259451143901487 L 247.39018875194049,10.069451143901489 L 247.2001887519405,10.049451143901479 L 245.73018875194052,9.999451143901467 L 245.54018875194052,9.999451143901467 L 244.0701887519405,10.099451143901462 L 243.8801887519405,10.119451143901472 L 242.4301887519405,10.359451143901481 L 242.2401887519405,10.399451143901473 L 240.8201887519405,10.769451143901478 L 240.6301887519405,10.82945114390148 L 239.2501887519405,11.349451143901462 L 239.08018875194048,11.429451143901474 L 237.7501887519405,12.069451143901489 L 237.59018875194047,12.169451143901483 L 236.33018875194048,12.939451143901465 L 236.1801887519405,13.049451143901479 L 235.0101887519405,13.939451143901465 L 234.8601887519405,14.069451143901489 L 233.78018875194047,15.069451143901489 L 233.65018875194048,15.209451143901475 L 232.6801887519405,16.31945114390149 L 232.5601887519405,16.469451143901466 L 231.7001887519405,17.659451143901464 L 231.5901887519405,17.81945114390149 L 230.8501887519405,19.09945114390146 L 230.77018875194048,19.269451143901478 L 230.1601887519405,20.60945114390148 L 230.08018875194048,20.789451143901488 L 229.61018875194048,22.179451143901474 L 229.5601887519405,22.35945114390148 L 229.2201887519405,23.79945114390148 L 229.1801887519405,23.989451143901476 L 228.9901887519405,25.449451143901484 L 228.9701887519405,25.639451143901482 L 228.9201887519405,27.10945114390148 L 228.9201887519405,27.29945114390148 L 229.02018875194048,28.769451143901478 L 229.0401887519405,28.959451143901475 L 229.2801887519405,30.409451143901464 L 229.3201887519405,30.59945114390146 L 229.6901887519405,32.01945114390148 L 229.7501887519405,32.209451143901475 L 230.27018875194048,33.58945114390147 L 230.3501887519405,33.75945114390149 L 230.9901887519405,35.08945114390147 L 231.0901887519405,35.24945114390147 L 231.86018875194048,36.50945114390149 L 231.97018875194047,36.659451143901464 L 232.8601887519405,37.82945114390148 L 233.23018875194052,38.25945114390149 L 233.97018875194047,39.07945114390148 L 234.08018875194048,39.189451143901465 L 234.3701887519405,39.479451143901485 L 241.35018875194052,46.219451143901466 L 242.52018875194048,47.429451143901474 L 247.92018875194051,53.489451143901476 L 248.97018875194047,54.74945114390147 L 253.1101887519405,60.13945114390148 L 254.15018875194048,61.62945114390146 L 254.8601887519405,62.89945114390147 L 255.4401887519405,64.22945114390149 L 255.89018875194049,65.61945114390147 L 256.21018875194045,67.03945114390149 L 256.38018875194047,68.47945114390149 L 256.4201887519405,69.93945114390147 L 256.3101887519405,71.38945114390148 L 256.07018875194046,72.81945114390149 L 255.6801887519405,74.22945114390149 L 255.16018875194047,75.57945114390148 L 254.5101887519405,76.88945114390148 L 253.7401887519405,78.11945114390147 L 252.8601887519405,79.26945114390148 L 251.8601887519405,80.33945114390147 L 250.77018875194048,81.29945114390148 L 249.59018875194047,82.14945114390147 L 248.33018875194048,82.87945114390146 L 247.0001887519405,83.47945114390149 L 245.6301887519405,83.95945114390148 L 243.8601887519405,84.37945114390146 L 241.8701887519405,84.74945114390147 L 241.5501887519405,84.81945114390149 L 241.5101887519405,84.82945114390148 L 240.60018875194052,85.04945114390148 L 239.77018875194048,85.27945114390147 L 238.84018875194047,85.56945114390149 L 238.72018875194047,85.60945114390148 L 238.3701887519405,85.72945114390149 L 220.4301887519405,92.46945114390147 L 220.1701887519405,92.56945114390149 L 220.14018875194049,92.57945114390148 L 219.4101887519405,92.89945114390147 L 218.7501887519405,93.19945114390148 L 218.0001887519405,93.56945114390149 L 217.9001887519405,93.61945114390147 L 217.6301887519405,93.76945114390148 L 200.1301887519405,103.47945114390149 L 199.7201887519405,103.70945114390148 L 198.5101887519405,104.43945114390147 L 198.4501887519405,104.46945114390147 L 197.4501887519405,105.06945114390149 L 196.2201887519405,105.66945114390148 L 194.9301887519405,106.14945114390147 L 193.9101887519405,106.42945114390147 L 193.2401887519405,106.62945114390146 L 192.55018875194048,106.85945114390148 L 191.2201887519405,107.35945114390148 L 191.05018875194048,107.43945114390147 L 189.77018875194048,108.05945114390147 L 189.6001887519405,108.14945114390147 L 188.39018875194049,108.89945114390147 L 188.2301887519405,109.00945114390149 L 187.1001887519405,109.8694511439015 L 186.9501887519405,109.98945114390145 L 185.9001887519405,110.94945114390148 L 185.77018875194048,111.07945114390148 L 184.8101887519405,112.13945114390148 L 184.7001887519405,112.28945114390146 L 183.8501887519405,113.4294511439015 L 183.30018875194048,114.2494511439015 L 182.89018875194049,114.8094511439015 L 182.5701887519405,115.27945114390147 L 181.7001887519405,116.35945114390145 L 180.7301887519405,117.34945114390146 L 180.0301887519405,117.95945114390148 L 179.86018875194048,118.09945114390146 L 178.80018875194048,119.03945114390146 L 178.55018875194048,119.25945114390149 L 178.4101887519405,119.38945114390148 L 176.9401887519405,120.59945114390146 L 175.6801887519405,121.44945114390148 L 174.3401887519405,122.16945114390145 L 172.9301887519405,122.73945114390145 L 171.4601887519405,123.16945114390145 L 169.9701887519405,123.44945114390148 L 168.4501887519405,123.57945114390148 L 166.9301887519405,123.54945114390145 L 165.4101887519405,123.35945114390145 L 163.9301887519405,123.02945114390147 L 162.4901887519405,122.53945114390146 L 161.1001887519405,121.90945114390146 L 159.4501887519405,120.94945114390148 L 159.1201887519405,120.72945114390146 L 157.9001887519405,120.01945114390148 L 157.6901887519405,119.89945114390147 L 156.36018875194048,119.28945114390146 L 156.1801887519405,119.20945114390148 L 154.80018875194048,118.72945114390146 L 154.6201887519405,118.66945114390145 L 153.1901887519405,118.32945114390148 L 153.0101887519405,118.28945114390146 L 151.55018875194048,118.07945114390148 L 151.36018875194048,118.06945114390149 L 149.9001887519405,117.9994511439015 L 149.7101887519405,117.9994511439015 L 148.2501887519405,118.07945114390148 L 148.0601887519405,118.09945114390146 L 146.61018875194048,118.31945114390149 L 146.4201887519405,118.35945114390145 L 145.0001887519405,118.71945114390147 L 144.8201887519405,118.76945114390148 L 143.4401887519405,119.26945114390148 L 143.2601887519405,119.33945114390147 L 141.9401887519405,119.96945114390147 L 141.77018875194048,120.06945114390149 L 140.5101887519405,120.81945114390149 L 140.36018875194048,120.9294511439015 L 139.1801887519405,121.79945114390145 L 139.0301887519405,121.91945114390145 L 137.9501887519405,122.90945114390146 L 137.8101887519405,123.03945114390146 L 136.83018875194048,124.12945114390149 L 136.7101887519405,124.27945114390147 L 135.83018875194048,125.44945114390148 L 135.7301887519405,125.60945114390145 L 134.9701887519405,126.8694511439015 L 134.8801887519405,127.03945114390146 L 134.2601887519405,128.35945114390145 L 134.1801887519405,128.53945114390146 L 133.6901887519405,129.91945114390145 L 133.6301887519405,130.09945114390146 L 133.27018875194048,131.51945114390148 L 133.2301887519405,131.70945114390148 L 133.02018875194048,133.15945114390146 L 133.0001887519405,133.34945114390146 L 132.9201887519405,134.8094511439015 L 132.9201887519405,134.9994511439015 L 132.9901887519405,136.46945114390147 L 133.0101887519405,136.66945114390145 L 133.2201887519405,138.1194511439015 L 133.2601887519405,138.3094511439015 L 133.61018875194048,139.73945114390145 L 133.6601887519405,139.9294511439015 L 134.1601887519405,141.3094511439015 L 134.2301887519405,141.48945114390145 L 134.8501887519405,142.8194511439015 L 134.9401887519405,142.98945114390145 L 135.7001887519405,144.2594511439015 L 135.9901887519405,144.6894511439015 L 136.6501887519405,145.6194511439015 L 136.6901887519405,145.65945114390146 L 137.7601887519405,147.1894511439015 L 138.4901887519405,148.48945114390145 L 139.0901887519405,149.85945114390145 L 139.55018875194048,151.27945114390147 L 139.8701887519405,152.73945114390145 L 140.0401887519405,154.22945114390146 L 140.0601887519405,155.71945114390147 L 139.9301887519405,157.20945114390148 L 139.6501887519405,158.6794511439015 L 139.2301887519405,160.10945114390145 L 138.6701887519405,161.4994511439015 L 137.9801887519405,162.8194511439015 L 136.9401887519405,164.3794511439015 L 130.3801887519405,173.28945114390146 L 130.1901887519405,173.5594511439015 L 129.9701887519405,173.8694511439015 L 129.61018875194048,174.39945114390147 L 129.3401887519405,174.82945114390148 L 129.14018875194049,175.14945114390147 L 116.9001887519405,195.34945114390146 L 116.73018875194049,195.63945114390148 L 116.54018875194049,195.96945114390147 L 116.24018875194051,196.51945114390148 L 116.0001887519405,196.97945114390146 L 115.83018875194048,197.3194511439015 L 105.4101887519405,218.6294511439015 L 105.26018875194049,218.94945114390148 L 105.1001887519405,219.3094511439015 L 104.8401887519405,219.90945114390146 L 104.64018875194049,220.40945114390146 L 104.49018875194051,220.76945114390148 L 96.15018875194048,242.85945114390145 L 96.0301887519405,243.20945114390148 L 95.89018875194049,243.59945114390146 L 95.67018875194049,244.26945114390148 L 95.51018875194049,244.8194511439015 L 95.40018875194048,245.21945114390147 L 89.3801887519405,267.72945114390143 L 89.2801887519405,268.1294511439015 L 89.17018875194049,268.56945114390146 L 89.01018875194049,269.31945114390146 L 88.90018875194048,269.93945114390147 L 88.82018875194049,270.3894511439015 L 85.36018875194048,292.96945114390144 L 85.30018875194048,293.4194511439015 L 85.24018875194048,293.9294511439015 L 85.1601887519405,294.7794511439015 L 85.11018875194048,295.46945114390144 L 85.09018875194047,295.97945114390143 L 84.40018875194048,318.2994511439015 L 84.39018875194049,318.80945114390147 L 84.40018875194048,319.3794511439015 L 84.43018875194048,320.33945114390144 L 84.48018875194049,321.11945114390153 L 84.5301887519405,321.6794511439015 L 85.1301887519405,327.34945114390143 L 85.23018875194049,329.36945114390153 L 85.14018875194049,330.97945114390143 L 84.8801887519405,332.56945114390146 L 84.23018875194049,334.8994511439015 L 84.24018875194048,334.8994511439015 L 84.0301887519405,335.6294511439015 L 83.98018875194049,335.8594511439014 L 83.71018875194048,337.30945114390147 L 83.6901887519405,337.4994511439015 L 83.5601887519405,338.96945114390144 L 83.5601887519405,339.1694511439015 L 83.58018875194048,340.6294511439015 L 83.59018875194047,340.9194511439015 L 83.74018875194048,342.2494511439015 L 83.77018875194048,342.45945114390145 L 84.0301887519405,343.7694511439015 L 84.05018875194048,343.8594511439014 L 84.4401887519405,345.1794511439015 L 84.46018875194048,345.22945114390143 L 84.73018875194049,345.93945114390147 L 84.82018875194049,346.1594511439015 L 85.07018875194049,346.7594511439015 L 85.29018875194049,347.21945114390144 L 85.30018875194048,347.2494511439015 L 85.9101887519405,348.59945114390143 L 86.39018875194049,350.0094511439015 L 86.7201887519405,351.45945114390145 L 86.9101887519405,352.93945114390147 L 86.96018875194048,354.4294511439015 L 86.8501887519405,355.9194511439015 L 86.6001887519405,357.3794511439015 L 86.20018875194049,358.81945114390146 L 85.6601887519405,360.20945114390145 L 84.82018875194049,361.86945114390153 L 84.57018875194049,362.30945114390147 L 84.39018875194049,362.6394511439015 L 78.8801887519405,372.8594511439014 L 77.98018875194049,374.3594511439014 L 77.15018875194048,375.47945114390143 L 76.23018875194049,376.5194511439014 L 75.21018875194048,377.46945114390144 L 74.11018875194048,378.31945114390146 L 72.93018875194048,379.06945114390146 L 71.6901887519405,379.69945114390146 L 70.40018875194048,380.21945114390144 L 68.7201887519405,380.70945114390145 L 62.75018875194049,382.1694511439015 L 62.460188751940485,382.2394511439014 L 62.42018875194049,382.2494511439014 L 61.59018875194048,382.4994511439014 L 60.84018875194048,382.7394511439014 L 59.99018875194049,383.0494511439015 L 59.88018875194049,383.08945114390144 L 59.570188751940485,383.21945114390144 L 52.97018875194049,385.9994511439014 L 52.47018875194049,386.22945114390143 L 51.92018875194049,386.47945114390143 L 51.00018875194049,386.94945114390146 L 50.26018875194048,387.3594511439014 L 49.73018875194048,387.6694511439015 L 43.75018875194049,391.2994511439015 L 43.320188751940485,391.56945114390146 L 42.84018875194048,391.8794511439014 L 42.05018875194049,392.43945114390147 L 41.42018875194049,392.9094511439015 L 40.97018875194049,393.2594511439014 L 35.45018875194049,397.7494511439014 L 35.070188751940485,398.06945114390146 L 34.66018875194049,398.4294511439015 L 33.98018875194049,399.0494511439015 L 33.44018875194049,399.57945114390145 L 33.06018875194049,399.96945114390144 L 28.130188751940487,405.1794511439015 L 27.80018875194049,405.5394511439015 L 27.44018875194049,405.93945114390147 L 26.860188751940484,406.6494511439015 L 26.40018875194049,407.2394511439014 L 26.070188751940485,407.6694511439015 L 21.880188751940487,413.43945114390147 L 21.600188751940486,413.84945114390143 L 21.280188751940486,414.30945114390147 L 20.780188751940486,415.1094511439014 L 20.390188751940485,415.7694511439014 L 20.12018875194049,416.2594511439014 L 16.80018875194049,422.4194511439015 L 16.55018875194049,422.8894511439014 L 16.290188751940484,423.4194511439015 L 15.880188751940487,424.33945114390144 L 15.570188751940485,425.08945114390144 L 15.350188751940486,425.6394511439014 L 12.90018875194049,432.2994511439015 L 12.800188751940489,432.56945114390146 L 12.790188751940484,432.6094511439014 L 12.540188751940484,433.3994511439015 L 12.33018875194049,434.1394511439014 L 12.12018875194049,434.97945114390143 L 12.090188751940488,435.09945114390143 L 12.020188751940488,435.4094511439015 L 10.600188751940486,442.4894511439014 L 10.540188751940484,442.80945114390147 L 10.540188751940484,442.84945114390143 L 10.40018875194049,443.7494511439014 L 10.310188751940487,444.58945114390144 L 10.22018875194049,445.5494511439015 L 10.22018875194049,445.6794511439015 L 10.200188751940487,446.0294511439015 L 10.01018875194049,453.1094511439014 L 10.000188751940485,453.45945114390145 L 10.000188751940485,453.5094511439014 L 10.030188751940486,454.5094511439014 L 10.090188751940488,455.43945114390147 L 10.19018875194049,456.47945114390143 L 10.210188751940485,456.6294511439014 L 10.26018875194049,457.0094511439014 L 11.380188751940487,463.97945114390143 L 11.44018875194049,464.33945114390144 L 11.450188751940487,464.3894511439014 L 11.69018875194049,465.43945114390147 L 11.94018875194049,466.3994511439015 L 12.26018875194049,467.47945114390143 L 12.310188751940487,467.6194511439014 L 12.450188751940487,468.0094511439014 L 14.980188751940489,474.7694511439014 L 15.12018875194049,475.1294511439014 L 15.140188751940485,475.1694511439015 L 15.590188751940488,476.1794511439015 L 16.040188751940484,477.08945114390144 L 16.58018875194049,478.09945114390143 L 16.66018875194049,478.22945114390143 L 16.890188751940485,478.59945114390143 L 20.97018875194049,485.06945114390146 L 21.170188751940486,485.3794511439014 L 21.200188751940487,485.4194511439015 L 21.820188751940485,486.2894511439015 L 22.430188751940484,487.06945114390146 L 23.140188751940485,487.9194511439015 L 23.240188751940487,488.0394511439015 L 23.530188751940486,488.33945114390144 L 23.950188751940487,488.7894511439015"/>
  
  <g id="coral_reef" class="stroke-group" stroke="black" stroke-width="7.0" fill="none">
    <path data-class="branch" fill="none" stroke="black" d="M 41.17018875194049,515.1294511439014 C 123.5581274558127,458.26867070224296 229.89770215604338,471.9002728052045 353.2435036330901,479.5148391624823" />
    <path data-class="branch" fill="none" stroke="black" d="M 353.2401887519405,479.5194511439014 C 450.58367007719204,452.50470355752293 696.0411599557347,440.8879694144724 727.2547615361066,514.5491610802173" />
    <path data-class="branch" fill="none" stroke="black" d="M 53.88018875194049,518.9594511439014 C 89.08607110488126,644.6816733661241 330.35812992841153,474.0497289216795 377.88018875194086,566.959451143902" />
    <path data-class="branch" fill="none" stroke="black" d="M 377.88018875194047,566.9594511439014 C 451.1769616277572,474.0497289216786 664.5779011702411,644.6816733661235 725.8801887519403,518.9594511439011" />
    <path data-class="rib" fill="none" stroke="black" d="M 355.59018875194045,482.95945114390145 C 329.6897125614643,354.9594511439017 372.35637922813083,226.95945114390148 355.5944744662263,98.95945114390156" />
    <path data-class="branch" fill="none" stroke="black" d="M 353.88018875194047,350.95945114390145 C 286.0413609131126,312.4141868843516 275.3453902171419,212.64443282888337 233.88018875194015,170.95945114390125" />
    <path data-class="opening" fill="none" stroke="black" d="M 269.88018875194047,230.95945114390148 C 202.04136091311258,230.39848829722442 191.345390217142,182.49058667503706 149.88018875194032,134.9594511439012" />
    <path data-class="branch" fill="none" stroke="black" d="M 341.88018875194047,278.95945114390145 C 415.79960267135397,278.68524915541354 461.1475880193402,171.47227165672214 521.8801887519402,146.9594511439012" />
    <path data-class="rib" fill="none" stroke="black" d="M 449.88018875194047,206.95945114390148 C 472.44260672612285,197.179858187838 534.9926840997298,189.96299661803525 581.8801887519408,122.95945114390165" />
    <path data-class="fan" fill="none" stroke="black" d="M 365.88018875194047,194.95945114390148 C 432.45894333069504,155.3697075541577 425.9450762453994,97.69519159392769 461.88018875194035,26.95945114390159" />
    <path data-class="polyp" fill="none" stroke="black" d="M 341.88018875194047,194.95945114390148 C 291.4186502904021,139.25249143694177 302.1188072762731,77.39168557613587 245.88018875194066,26.959451143901504" />
    <path data-class="rib" fill="none" stroke="black" d="M 149.8401887519405,422.2794511439015 C 25.511633237509947,316.72565137541665 165.66547939135617,83.89434233358133 281.8376887100274,98.28187904711308" />
    <path data-class="rib" fill="none" stroke="black" d="M 281.84018875194045,98.27945114390147 C 390.3700965941361,194.77780671569613 292.3889899814503,427.6091157575313 150.68161811373332,422.1191646009311" />
    <path data-class="opening" fill="none" stroke="black" d="M 185.8801887519405,398.95945114390145 C 154.43276011970104,316.6048832651903 138.11323475188703,227.72146232557864 197.88018875194052,122.95945114390153" />
    <path data-class="rib" fill="none" stroke="black" d="M 197.8801887519405,398.95945114390145 C 210.19947277491198,286.5539462010829 215.9700925560675,225.32114914739068 281.8801887519404,98.95945114390148" />
    <path data-class="rib" fill="none" stroke="black" d="M 185.8801887519405,398.95945114390145 C 236.00858420781637,323.76685796008826 279.7517932960647,258.1520443277151 329.88018875194075,182.95945114390176" />
    <path data-class="rib" fill="none" stroke="black" d="M 149.8801887519405,338.95945114390145 C 198.3304541727941,308.49468062030724 232.84303962655608,351.76294177092166 305.88018875194064,302.9594511439017" />
    <path data-class="rib" fill="none" stroke="black" d="M 486.25018875194047,434.0194511439014 C 398.01487892994163,322.9438152480815 550.794905920495,30.00994210368168 666.2481176862184,122.01473592651561" />
    <path data-class="rib" fill="none" stroke="black" d="M 666.2501887519405,122.01945114390148 C 772.561834684725,247.91604627340658 619.7818076941717,456.50444033548524 485.92268879385387,433.9758787453378" />
    <path data-class="opening" fill="none" stroke="black" d="M 533.8801887519405,410.95945114390145 C 497.43742738687916,315.0946194581743 546.3467919468145,202.1722184760719 581.8801887519406,110.95945114390153" />
    <path data-class="rib" fill="none" stroke="black" d="M 545.8801887519405,410.95945114390145 C 585.2117395540799,332.0494689692139 658.6341994471275,246.60048081780283 665.8801887519409,122.95945114390159" />
    <path data-class="branch" fill="none" stroke="black" d="M 521.8801887519405,410.95945114390145 C 568.43256371262,341.84647012261587 624.500509607555,300.71791816707423 701.8801887519406,218.95945114390176" />
    <path data-class="branch" fill="none" stroke="black" d="M 497.88018875194047,326.95945114390145 C 556.540683071785,294.77672839401555 625.3110558070396,280.68536701907067 665.880188751941,338.95945114390156" />
    <path data-class="branch" fill="none" stroke="black" d="M 89.89018875194049,507.56945114390146 C 38.051808458311875,411.89073812597974 153.0943853500039,266.2615471153448 161.88739109333358,375.49394602841255" />
    <path data-class="branch" fill="none" stroke="black" d="M 161.89018875194049,375.4894511439014 C 157.3245002696509,427.9498100460827 132.76064852205548,555.3564954788773 89.88018875194052,506.95945114390156" />
    <path data-class="branch" fill="none" stroke="black" d="M 100.51018875194049,339.6494511439015 C 155.36590303765485,280.2165940010442 155.36590303765476,408.216594001044 100.50876018051196,339.6451654296159" />
    <path data-class="branch" fill="none" stroke="black" d="M 174.0701887519405,519.5594511439015 C 146.26777530165995,410.6404992073018 243.4939091828147,316.685127898378 258.0455129193407,411.4849431016713" />
    <path data-class="branch" fill="none" stroke="black" d="M 258.0501887519405,411.4894511439014 C 248.88572475944667,457.6312784955312 239.18921995062712,556.9561670716519 173.88018875194055,518.9594511439017" />
    <path data-class="branch" fill="none" stroke="black" d="M 196.5101887519405,375.2994511439015 C 251.365903037655,308.2546892391391 251.3659030376546,478.9213559058061 196.508760180512,375.3023082867586" />
    <path data-class="branch" fill="none" stroke="black" d="M 569.7301887519405,519.7294511439014 C 523.0171290619545,418.9254175223381 621.6594877085497,289.696444756799 653.7482134540186,375.63312366772743" />
    <path data-class="branch" fill="none" stroke="black" d="M 653.7501887519405,375.6294511439014 C 661.8446503986675,432.38858555628656 654.013193678049,544.9279240503055 569.8801887519406,518.9594511439014" />
    <path data-class="branch" fill="none" stroke="black" d="M 592.1701887519405,351.2994511439015 C 639.4039982757499,284.2546892391399 682.0706649424163,454.92135590580585 592.165903037655,351.30230828675883" />
    <path data-class="branch" fill="none" stroke="black" d="M 270.07018875194046,531.5594511439015 C 187.75858539839848,493.08073763887546 330.8963180234557,370.67092603212586 354.051776927524,471.48862035343905" />
    <path data-class="branch" fill="none" stroke="black" d="M 354.0501887519405,471.4894511439014 C 364.40366986852456,521.9531410336498 298.75572241368127,566.9794839846244 269.8801887519406,530.9594511439017" />
    <path data-class="branch" fill="none" stroke="black" d="M 389.72018875194044,532.4294511439015 C 329.7668901432755,446.7796171551124 480.08306849158254,395.54411049474913 497.7392105272772,484.25386912645763" />
    <path data-class="branch" fill="none" stroke="black" d="M 497.7401887519405,484.2494511439014 C 519.0440639571948,549.0323106325244 427.1793677338782,552.9745578762498 389.88018875194075,530.9594511439017" />
    <path data-class="branch" fill="none" stroke="black" d="M 41.88018875194049,482.95945114390145 C -4.262413743603027,442.7606989157381 66.66009857683298,363.6464072097498 113.8801887519405,410.95945114390156" />
    <path data-class="branch" fill="none" stroke="black" d="M 113.8801887519405,410.95945114390145 C 177.29106219222575,451.15820337206605 108.00690574889956,530.2724950780517 41.88018875194046,482.95945114390145" />
    <path data-class="branch" fill="none" stroke="black" d="M 653.8801887519405,506.95945114390145 C 607.737586256397,480.76426397812634 678.6600985768329,362.5236222668959 725.8801887519408,422.95945114390145" />
    <path data-class="branch" fill="none" stroke="black" d="M 725.8801887519405,422.95945114390145 C 789.2910621922265,467.5369912508538 720.0069057488992,531.7118890174457 653.8801887519406,506.95945114390145" />
    <path data-class="branch" fill="none" stroke="black" d="M 89.8801887519405,470.95945114390145 L 89.8802887519405,470.9595511439014" />
    <path data-class="branch" fill="none" stroke="black" d="M 305.88018875194047,482.95945114390145 L 305.88028875194044,482.9595511439014" />
    <path data-class="branch" fill="none" stroke="black" d="M 425.88018875194047,482.95945114390145 L 425.88028875194044,482.9595511439014" />
    <path data-class="branch" fill="none" stroke="black" d="M 689.8801887519405,458.95945114390145 L 689.8802887519405,458.9595511439014" />
  </g>
</svg>