<?xml version="1.0"?>
<svg width="512" height="512" xmlns="http://www.w3.org/2000/svg" xmlns:svg="http://www.w3.org/2000/svg">
 <g class="layer">
  <title>Layer 1</title>
  <g id="svg_38" transform="translate(250.22012329101562, 238.30459594726562) scale(0.5996003746986389) translate(-249.195, -252.82000000000002)">
   <defs>
    <style>.white-box-bg { fill: white; stroke: none; }
      .stroke-group { stroke-linecap: round; stroke-linejoin: round; }</style>
   </defs>
   <path class="white-box-bg" d="m22.26,217.71l0.86,-1.21l0.94,-1.08l1.03,-0.99l1.13,-0.89l1.2,-0.77l1.28,-0.66l1.32,-0.53l1.38,-0.4l1.76,-0.33l0.27,-0.04l1.55,-0.15l1.24,-0.02l1.55,0.1l1.04,0.11l1.86,0.3l1.45,0.39l0.69,0.25l1.41,0.46l1.44,0.31l1.47,0.16l1.48,0.03l1.47,-0.13l1.46,-0.27l1.41,-0.41l1.38,-0.54l1.31,-0.68l1.24,-0.81l1.15,-0.92l1.06,-1.04l0.95,-1.13l0.83,-1.22l0.71,-1.29l0.19,-0.44l0.46,-0.94l0.28,-0.63l0.44,-1.01l0.51,-1.38l0.06,-0.19l0.38,-1.42l0.04,-0.19l0.23,-1.45l0.03,-0.19l0.09,-1.47l0,-0.19l-0.05,-1.47l-0.02,-0.2l-0.2,-1.45l-0.03,-0.19l-0.34,-1.44l-0.05,-0.18l-0.48,-1.39l-0.07,-0.18l-0.61,-1.34l-0.09,-0.17l-0.74,-1.27l-0.11,-0.17l-0.86,-1.19l-0.12,-0.15l-0.97,-1.1l-0.14,-0.14l-1.07,-1l-0.15,-0.13l-1.17,-0.89l-0.16,-0.11l-1.25,-0.77l-0.17,-0.1l-1.32,-0.64l-0.18,-0.08l-1.38,-0.51l-0.18,-0.06l-1.43,-0.38l-0.54,-0.12l-1.09,-0.19l-0.15,-0.02l-0.41,-0.05l-11.29,-1.22l-0.31,-0.03l-0.04,-0.01l-0.89,-0.05l-0.52,-0.01l-1.24,0.01l-0.47,0.03l-0.93,0.08l-0.13,0.01l-0.35,0.05l-9.36,1.32l-0.36,0.06l-0.04,0.01l-1.03,0.2l-0.58,0.14l-1.4,0.41l-0.52,0.18l-1.02,0.39l-0.14,0.06l-0.37,0.17l-7.5,3.45l-0.34,0.16l-0.04,0.02l-0.94,0.51l-0.54,0.31l-1.25,0.82l-0.46,0.33l-0.88,0.7l-0.12,0.1l-0.31,0.27l-5.87,5.26l-0.25,0.22l-0.03,0.03l-0.68,0.69l-0.38,0.4l-0.88,1.03l-0.31,0.4l-0.6,0.82l-0.08,0.12l-0.21,0.31l-4.29,6.69l-0.22,0.36l-0.02,0.05l-0.59,1.06l-0.49,0.99l-0.51,1.16l-0.07,0.16l-0.16,0.43l-2.82,7.83l-0.11,0.33l-0.02,0.04l-0.28,0.94l-0.23,0.88l-0.23,1.01l-0.03,0.14l-0.06,0.38l-1.44,8.77l-0.04,0.29l-0.01,0.04l-0.1,0.82l-0.06,0.77l-0.05,0.87l-0.01,0.11l0,0.33l-0.07,9.08l0,0.51l0.02,0.58l0.06,0.97l0.07,0.79l0.06,0.58l1.18,8.95l0.07,0.49l0.09,0.55l0.18,0.92l0.17,0.75l0.14,0.54l2.34,8.7l0.15,0.5l0.17,0.55l0.31,0.92l0.29,0.75l0.21,0.53l3.52,8.29l0.12,0.27l0.01,0.03l0.37,0.75l0.35,0.69l0.42,0.76l0.06,0.1l0.17,0.28l4.66,7.49l0.19,0.29l0.02,0.04l0.57,0.81l0.56,0.74l0.65,0.8l0.09,0.11l0.26,0.29l5.54,6.06l0.3,0.31l0.03,0.03l0.89,0.85l0.85,0.74l1,0.8l0.13,0.1l0.39,0.28l6.42,4.41l0.28,0.19l0.04,0.03l0.84,0.51l0.5,0.28l1.23,0.62l0.47,0.21l0.96,0.39l0.13,0.05l0.36,0.13l7.29,2.47l0.36,0.12l0.05,0.01l1.06,0.29l0.61,0.15l1.51,0.27l0.57,0.07l1.15,0.1l0.16,0.01l0.42,0.01l8.06,0.17l0.37,0.01l0.05,0l1.06,-0.05l0.61,-0.04l1.47,-0.19l0.56,-0.09l1.09,-0.24l0.15,-0.03l0.4,-0.11l8.91,-2.52l0.3,-0.09l0.04,-0.01l0.86,-0.29l0.49,-0.19l1.16,-0.49l0.43,-0.2l0.84,-0.43l0.12,-0.06l0.3,-0.18l9.68,-5.64l0.32,-0.19l0.04,-0.02l0.88,-0.59l0.79,-0.57l0.88,-0.69l0.12,-0.09l0.31,-0.27l2.72,-2.41l1.49,-1.19l1.28,-0.83l1.35,-0.69l1.42,-0.55l1.47,-0.4l1.5,-0.25l1.51,-0.1l1.52,0.06l1.89,0.26l10.4,1.99l0.8,0.17l15.88,3.64l0.86,0.21l14.09,3.81l0.92,0.28l12.37,3.92l0.98,0.33l10.72,3.96l1.06,0.42l9.14,3.9l1.12,0.52l7.65,3.78l1.19,0.64l5.69,3.25l1.47,0.93l1.1,0.85l1.02,0.95l1.16,1.31l0.05,0.06l1.08,1.47l0.74,1.26l0.61,1.32l0.49,1.38l0.35,1.41l0.26,1.81l0.2,2.14l0.03,0.22l0.48,4.36l0.45,4.24l0.04,0.47l0.34,4.06l0.05,0.72l0.22,4.17l0.03,0.91l0.05,4.44l-0.01,1.03l-0.16,4.85l-0.06,1.1l-0.45,5.38l-0.12,1.13l-0.8,6.01l-0.18,1.12l-1.37,7.38l-0.06,0.31l-0.1,0.61l-0.04,0.31l-0.35,2.44l-0.36,1.84l-0.43,1.44l-0.72,1.73l-0.35,0.73l-0.07,0.15l-2.27,4.7l-0.03,0.06l-2.18,4.57l-0.03,0.07l-0.02,0.04l-0.09,0.19l-1.94,4.29l-0.06,0.12l-0.06,0.14l-0.1,0.23l-0.08,0.19l-0.06,0.14l-1.59,3.88l-0.08,0.19l-0.08,0.2l-0.13,0.35l-0.11,0.29l-0.07,0.21l-0.82,2.32l-0.67,1.66l-0.66,1.27l-0.78,1.2l-0.89,1.12l-0.99,1.03l-1.09,0.93l-1.17,0.82l-1.24,0.71l-1.63,0.73l-2.51,0.99l-1.2,0.43l-8.83,2.9l-1.56,0.45l-6.44,1.62l-1.96,0.4l-4.38,0.69l-2.3,0.24l-2.9,0.16l-2.38,0l-2.35,-0.12l-2.02,-0.2l-2.87,-0.4l-1.24,-0.22l-4.25,-0.85l-0.25,-0.05l-5.33,-1.13l-0.12,-0.03l-0.13,-0.02l-0.22,-0.05l-0.18,-0.03l-0.13,-0.03l-5.74,-1.02l-0.23,-0.04l-0.27,-0.05l-0.44,-0.06l-0.37,-0.05l-0.26,-0.03l-6.28,-0.72l-0.3,-0.03l-0.33,-0.03l-0.56,-0.04l-0.46,-0.03l-0.34,-0.01l-7.24,-0.24l-0.31,-0.01l-0.34,-0.01l-0.59,0.01l-0.47,0.01l-0.35,0.01l-8.6,0.43l-0.29,0.02l-0.32,0.02l-0.53,0.05l-0.44,0.04l-0.32,0.04l-10.32,1.31l-0.25,0.03l-0.28,0.04l-0.46,0.07l-0.38,0.07l-0.27,0.05l-12.38,2.41l-0.2,0.04l-0.23,0.05l-0.38,0.08l-0.31,0.08l-0.23,0.05l-14.73,3.74l-0.17,0.04l-0.19,0.05l-0.31,0.09l-0.25,0.07l-0.19,0.05l-17.38,5.27l-0.13,0.04l-0.15,0.05l-0.26,0.08l-0.2,0.07l-0.15,0.05l-20.09,6.92l-0.35,0.13l-0.04,0.01l-0.98,0.41l-0.55,0.25l-1.31,0.67l-0.17,0.1l-1.23,0.8l-0.16,0.11l-1.15,0.92l-0.14,0.13l-1.06,1.02l-0.13,0.14l-0.95,1.13l-0.12,0.15l-0.84,1.21l-0.1,0.17l-0.71,1.28l-0.08,0.18l-0.59,1.35l-0.07,0.18l-0.44,1.4l-0.05,0.19l-0.31,1.44l-0.03,0.19l-0.17,1.46l-0.01,0.19l-0.02,1.47l0,0.19l0.13,1.47l0.02,0.19l0.27,1.45l0.04,0.19l0.41,1.41l0.06,0.18l0.54,1.37l0.08,0.18l0.68,1.31l0.1,0.16l0.8,1.24l0.11,0.15l0.91,1.16l0.13,0.14l1.03,1.06l0.14,0.13l1.12,0.95l0.16,0.12l1.21,0.83l0.16,0.1l1.29,0.72l0.17,0.08l1.35,0.58l0.18,0.07l1.41,0.45l0.18,0.05l1.44,0.31l0.19,0.03l1.46,0.16l0.2,0.02l1.47,0.02l0.19,-0.01l1.47,-0.12l0.19,-0.03l1.44,-0.26l0.55,-0.13l1.07,-0.29l0.14,-0.05l0.39,-0.13l12.79,-4.41l1.82,-0.52l1.49,-0.27l1.5,-0.12l1.52,0.03l1.5,0.18l1.47,0.34l1.43,0.48l1.38,0.62l1.31,0.76l1.22,0.89l1.13,1.01l1.02,1.11l0.91,1.21l0.71,1.19l0.35,0.56l0.39,0.6l0.88,1.18l0.12,0.15l0.98,1.1l0.14,0.14l1.08,0.99l0.15,0.12l1.18,0.88l0.16,0.11l1.26,0.76l0.17,0.1l1.32,0.63l0.18,0.08l1.39,0.5l0.18,0.06l1.43,0.36l0.18,0.04l1.46,0.22l0.19,0.02l1.47,0.08l0.19,0l1.47,-0.06l0.2,-0.02l1.45,-0.21l0.55,-0.11l1.08,-0.25l0.14,-0.04l0.4,-0.11l17.97,-5.42l1.48,-0.39l16.6,-3.8l1.81,-0.32l1.47,-0.12l1.47,0.03l1.46,0.18l1.44,0.32l1.4,0.45l1.35,0.6l1.28,0.72l1.21,0.84l1.12,0.96l1.02,1.07l0.9,1.16l0.99,1.55l0.09,0.15l0.74,1.18l0.34,0.48l0.65,0.86l0.09,0.11l0.5,0.59l0.02,0.02l0.75,0.77l0.45,0.43l1.12,0.98l0.16,0.12l1.22,0.87l0.16,0.1l1.3,0.74l0.18,0.09l1.36,0.6l0.19,0.07l1.42,0.47l0.19,0.05l1.46,0.32l0.19,0.03l1.48,0.18l0.2,0.01l1.49,0.03l0.57,-0.02l1.12,-0.08l0.15,-0.02l0.42,-0.05l1.25,-0.17l0.33,-0.05l0.04,0l0.96,-0.19l0.87,-0.19l0.98,-0.26l0.13,-0.04l0.36,-0.11l3.17,-1.04l0.23,-0.07l0.25,-0.09l0.41,-0.15l0.34,-0.13l0.25,-0.09l5.4,-2.15l0.1,-0.04l0.12,-0.05l0.19,-0.08l0.16,-0.07l0.12,-0.04l7.65,-3.31l0.22,-0.1l10.59,-4.79l0.13,-0.06l5.43,-2.52l1.67,-0.68l1.38,-0.41l1.42,-0.28l1.44,-0.14l1.44,0l1.44,0.14l1.42,0.28l1.38,0.41l1.34,0.54l1.28,0.67l1.21,0.79l1.13,0.9l1.03,1.01l0.94,1.1l0.82,1.18l0.71,1.26l0.58,1.32l0.45,1.37l0.32,1.41l0.18,1.44l0.05,1.8l-0.01,0.62l0.01,0.89l0,0.16l0.02,0.35l0.13,2.04l0.03,0.36l0,0.04l0.12,1.02l0.1,0.59l0.28,1.4l0.05,0.18l0.42,1.37l0.07,0.17l0.55,1.32l0.08,0.17l0.67,1.26l0.28,0.47l0.58,0.9l0.08,0.12l0.24,0.33l0.28,0.38l0.23,0.3l0.03,0.04l0.7,0.84l0.42,0.46l1.07,1.08l0.15,0.13l1.17,0.96l0.16,0.12l1.27,0.84l0.17,0.1l1.34,0.7l0.18,0.09l1.41,0.56l0.19,0.06l1.46,0.42l0.19,0.05l1.5,0.27l0.39,0.05l0.72,0.07l1.91,0.16l1.43,0.25l1.39,0.39l1.96,0.76l0.54,0.22l0.55,0.2l1.34,0.42l0.18,0.04l1.37,0.29l0.18,0.03l1.4,0.17l0.18,0.01l1.4,0.03l0.54,-0.01l1.05,-0.07l0.14,-0.01l0.39,-0.04l0.46,-0.06l0.31,-0.04l0.34,-0.05l0.57,-0.09l0.46,-0.09l0.34,-0.06l1.62,-0.33l0.08,-0.02l2.78,-0.59l0.37,-0.08l0.04,-0.01l1.02,-0.28l0.58,-0.19l1.38,-0.51l0.17,-0.07l1.33,-0.64l0.17,-0.1l1.25,-0.76l0.16,-0.11l1.18,-0.89l0.14,-0.13l1.08,-0.99l0.14,-0.14l0.98,-1.1l0.12,-0.15l0.86,-1.19l0.11,-0.16l0.74,-1.27l0.09,-0.17l0.62,-1.34l0.07,-0.18l0.48,-1.39l0.06,-0.19l0.34,-1.43l0.04,-0.19l0.2,-1.45l0.09,-1.08l0.09,-0.64l0.06,-0.73l0.26,-1.43l0.4,-1.39l0.53,-1.35l0.66,-1.29l0.79,-1.23l0.89,-1.14l1.01,-1.05l1.1,-0.94l1.18,-0.84l1.26,-0.72l1.33,-0.59l1.38,-0.46l1.41,-0.33l1.44,-0.18l1.45,-0.05l1.45,0.09l1.43,0.24l1.4,0.37l1.36,0.5l1.64,0.79l0.03,0.02l0.12,0.06l0.13,0.08l0.23,0.12l0.19,0.1l0.14,0.07l10.72,5.36l0.09,0.04l0.09,0.04l0.16,0.08l0.13,0.06l0.09,0.04l12.63,5.93l0.22,0.1l14.99,6.74l0.34,0.15l0.04,0.02l0.98,0.37l0.58,0.2l1.42,0.4l0.18,0.05l1.45,0.26l0.19,0.02l1.47,0.12l0.19,0.01l1.47,-0.02l0.2,-0.02l1.46,-0.16l0.19,-0.04l1.44,-0.31l0.18,-0.05l1.4,-0.45l0.47,-0.17l0.59,-0.24l1.72,-0.73l1.46,-0.45l1.5,-0.3l1.52,-0.15l1.53,0.01l1.9,0.21l5.24,0.84l0.25,0.03l0.28,0.04l0.48,0.07l0.38,0.04l0.29,0.03l6.92,0.63l0.21,0.02l0.24,0.02l0.39,0.02l0.33,0.02l0.23,0.01l7.96,0.28l0.17,0l0.18,0l0.32,0.01l0.25,0l0.19,0l9.17,-0.09l0.12,0l0.15,0l0.24,-0.01l0.19,-0.01l0.15,0l10.53,-0.47l0.1,0l0.11,-0.01l0.18,-0.01l0.14,0l0.11,-0.01l12.06,-0.84l0.08,-0.01l0.04,0l0.2,-0.01l2.65,-0.24l1.78,-0.07l1.42,0.08l1.41,0.21l1.38,0.35l1.68,0.6l2.21,0.9l0.14,0.06l0.76,0.3l0.36,0.14l0.03,0.01l1.01,0.34l0.59,0.17l1.44,0.34l0.2,0.04l1.47,0.19l0.19,0.02l1.49,0.05l0.19,0l1.49,-0.1l0.19,-0.02l1.46,-0.24l0.22,-0.05l1.41,-0.37l0.14,-0.05l1.67,-0.45l1.37,-0.24l1.38,-0.11l1.38,0.02l1.73,0.19l12.74,1.96l0.25,0.03l23.3,3.18l0.36,0.04l0.05,0.01l1.05,0.08l0.61,0.02l1.47,-0.01l0.19,-0.01l1.47,-0.16l0.19,-0.03l1.44,-0.3l0.18,-0.05l1.41,-0.44l0.18,-0.07l1.35,-0.57l0.18,-0.09l1.29,-0.7l0.16,-0.1l1.22,-0.83l0.15,-0.12l1.13,-0.94l0.15,-0.13l1.03,-1.05l0.12,-0.14l0.93,-1.15l0.11,-0.16l0.81,-1.23l0.1,-0.16l0.68,-1.31l0.08,-0.17l0.55,-1.37l0.06,-0.18l0.42,-1.41l0.04,-0.19l0.28,-1.45l0.02,-0.19l0.13,-1.46l0.01,-0.19l-0.01,-1.48l-0.01,-0.19l-0.16,-1.46l-0.03,-0.19l-0.3,-1.44l-0.05,-0.19l-0.44,-1.4l-0.06,-0.19l-0.58,-1.35l-0.08,-0.17l-0.71,-1.3l-0.1,-0.16l-0.83,-1.22l-0.11,-0.15l-0.95,-1.13l-0.13,-0.14l-1.05,-1.03l-0.14,-0.13l-1.15,-0.92l-0.15,-0.12l-1.24,-0.8l-0.16,-0.1l-1.31,-0.68l-0.17,-0.08l-1.37,-0.56l-0.18,-0.06l-1.41,-0.41l-0.54,-0.13l-1.09,-0.22l-0.15,-0.03l-0.4,-0.06l-22.62,-3.08l-0.39,-0.05l-22.54,-3.47l-0.29,-0.04l-13.11,-2.2l-1.64,-0.35l-1.28,-0.39l-1.55,-0.64l-3.29,-1.52l-9.34,-4.37l-10.99,-5.19l-0.33,-0.15l-0.04,-0.02l-0.98,-0.4l-0.58,-0.2l-1.4,-0.43l-0.19,-0.05l-1.44,-0.29l-0.19,-0.03l-1.47,-0.15l-0.36,-0.02l-1.3,-0.01l-0.27,0.01l-1.82,-0.02l-1.44,-0.17l-1.42,-0.3l-1.74,-0.54l-5.34,-1.97l-0.1,-0.04l-13.03,-4.7l-0.11,-0.04l-14.13,-4.97l-0.12,-0.04l-14.94,-5.12l-0.35,-0.12l-0.04,-0.01l-1.02,-0.28l-0.59,-0.15l-1.45,-0.27l-0.19,-0.03l-1.47,-0.12l-0.19,-0.01l-1.47,0.01l-0.19,0.01l-1.47,0.16l-0.22,0.04l-1.41,0.29l-0.14,0.04l-1.71,0.36l-1.4,0.16l-1.4,0.03l-1.39,-0.11l-1.38,-0.23l-1.36,-0.36l-1.6,-0.59l-1.61,-0.77l-1.44,-0.85l-1.15,-0.84l-1.07,-0.95l-0.97,-1.05l-0.87,-1.13l-0.76,-1.21l-0.64,-1.28l-0.51,-1.33l-0.38,-1.38l-0.32,-1.75l-0.04,-0.28l-0.18,-2.35l-0.08,-3.41l0.02,-1.75l0.33,-6.22l0.02,-0.37l0,-0.04l-0.01,-1.06l-0.03,-0.61l-0.13,-1.46l-0.03,-0.19l-0.27,-1.45l-0.05,-0.19l-0.42,-1.41l-0.06,-0.18l-0.55,-1.36l-0.52,-1.11l-0.25,-0.51l-0.31,-0.61l-0.53,-1.36l-0.4,-1.4l-0.26,-1.44l-0.15,-1.82l-0.16,-4.7l0.03,-1.55l0,-0.59l-0.02,-1.68l-0.04,-0.88l-0.72,-9.45l-0.83,-11.66l-0.02,-0.2l-0.6,-7.07l-0.08,-1.56l-0.02,-1l-0.09,-1.42l-0.07,-0.62l-0.11,-0.76l-0.32,-2.26l-0.66,-6.92l0,-0.02l-0.95,-9.85l-0.01,-0.15l-0.46,-5.13l-0.06,-2.29l0.26,-2.74l-0.01,0l0.03,-0.18l0.05,-0.6l0.05,-1.47l0,-0.2l-0.09,-1.47l-0.04,-0.28l-0.21,-1.36l-0.19,-0.93l-0.29,-1.85l-0.08,-1.49l0.07,-1.49l0.22,-1.48l0.36,-1.45l0.51,-1.4l0.64,-1.35l0.77,-1.28l0.9,-1.19l1.01,-1.1l1.12,-0.99l1.21,-0.88l1.29,-0.75l1.36,-0.62l1.41,-0.48l1.82,-0.42l5.73,-1.04l0.79,-0.13l1.51,-0.21l0.85,-0.11l7.58,-0.79l0.57,-0.06l7.99,-0.63l0.3,-0.02l8.33,-0.55l1.31,-0.08l1.81,-0.03l1.44,0.12l1.42,0.25l1.39,0.39l1.35,0.52l1.29,0.65l1.53,0.96l1.42,1l0.17,0.11l0.2,0.14l0.32,0.21l0.27,0.17l0.2,0.13l6.75,4.18l0.22,0.14l0.26,0.15l0.43,0.25l0.35,0.19l0.26,0.14l6.67,3.51l0.3,0.16l0.34,0.16l0.58,0.28l0.48,0.21l0.34,0.15l6.45,2.68l0.41,0.16l0.46,0.18l0.78,0.27l0.65,0.21l0.47,0.14l6.33,1.79l0.27,0.08l0.04,0.01l0.8,0.19l0.75,0.15l0.85,0.15l0.12,0.01l0.32,0.05l6.18,0.76l0.37,0.04l0.04,0.01l1.06,0.06l0.97,0.03l1.11,-0.01l0.15,-0.01l0.42,-0.02l5.7,-0.43l0.44,-0.04l0.06,0l1.27,-0.19l1.17,-0.22l1.31,-0.32l0.17,-0.05l0.48,-0.14l5.37,-1.74l0.31,-0.11l0.04,-0.01l0.88,-0.34l0.5,-0.21l1.18,-0.55l0.45,-0.24l0.85,-0.48l0.11,-0.07l0.31,-0.2l5.11,-3.3l0.26,-0.18l0.03,-0.02l0.73,-0.53l0.42,-0.32l0.96,-0.81l0.35,-0.32l0.68,-0.66l0.09,-0.09l0.24,-0.26l4.58,-4.98l0.27,-0.3l0.03,-0.03l0.73,-0.91l0.64,-0.85l0.68,-1.01l0.09,-0.14l0.23,-0.38l4.03,-6.9l0.16,-0.28l0.02,-0.03l0.42,-0.82l0.37,-0.76l0.38,-0.89l0.05,-0.12l0.13,-0.33l1.56,-4.18l0.73,-1.69l0.72,-1.29l0.83,-1.22l0.96,-1.13l1.06,-1.02l1.15,-0.92l1.56,-1l0.38,-0.23l0.05,-0.03l1.08,-0.74l0.97,-0.72l1.06,-0.87l0.14,-0.12l0.37,-0.35l3.73,-3.59l0.28,-0.28l0.03,-0.04l0.77,-0.84l0.68,-0.8l0.73,-0.94l0.09,-0.13l0.25,-0.36l3.06,-4.54l0.19,-0.29l0.03,-0.04l0.5,-0.86l0.45,-0.8l0.47,-0.93l0.06,-0.13l0.15,-0.35l2.29,-5.29l0.12,-0.29l0.02,-0.04l0.31,-0.85l0.27,-0.79l0.27,-0.9l0.04,-0.13l0.09,-0.34l1.41,-5.79l0.07,-0.3l0.01,-0.04l0.16,-0.85l0.13,-0.79l0.12,-0.9l0.01,-0.13l0.03,-0.33l0.48,-6.05l0.02,-0.31l0,-0.03l0.03,-0.89l-0.01,-0.81l-0.03,-0.93l0,-0.13l-0.03,-0.34l-0.52,-6.04l-0.03,-0.33l-0.01,-0.04l-0.13,-0.93l-0.15,-0.86l-0.2,-0.97l-0.03,-0.13l-0.09,-0.36l-1.55,-5.78l-0.1,-0.35l-0.01,-0.04l-0.33,-0.99l-0.33,-0.9l-0.42,-1.01l-0.06,-0.14l-0.18,-0.37l-2.59,-5.3l-0.19,-0.36l-0.02,-0.04l-0.58,-1l-0.56,-0.91l-0.68,-1l-0.1,-0.13l-0.28,-0.35l-3.67,-4.64l-0.27,-0.34l-0.04,-0.04l-0.84,-0.92l-0.81,-0.81l-0.96,-0.88l-0.13,-0.12l-0.38,-0.3l-4.82,-3.82l-0.35,-0.27l-0.04,-0.03l-1.05,-0.71l-0.99,-0.62l-1.16,-0.65l-0.16,-0.08l-0.45,-0.21l-6.1,-2.83l-0.38,-0.17l-0.08,-0.03l-1.09,-0.42l-0.64,-0.22l-1.68,-0.67l-1.3,-0.66l-1.22,-0.78l-1.14,-0.9l-1.05,-1.01l-0.94,-1.1l-0.84,-1.18l-0.71,-1.27l-0.59,-1.32l-0.46,-1.38l-0.41,-1.77l-0.09,-0.51l-0.19,-0.9l-0.04,-0.16l-0.08,-0.34l-0.58,-2.17l-0.09,-0.31l-0.01,-0.04l-0.29,-0.9l-0.19,-0.51l-0.49,-1.21l-0.21,-0.46l-0.45,-0.88l-0.06,-0.11l-0.18,-0.32l-0.98,-1.71l-0.23,-0.37l-0.02,-0.05l-0.71,-1.03l-0.68,-0.93l-0.82,-1.02l-0.12,-0.13l-0.33,-0.36l-1.35,-1.43l-0.23,-0.24l-0.03,-0.03l-0.71,-0.68l-0.67,-0.6l-0.79,-0.65l-0.11,-0.08l-0.3,-0.23l-1.54,-1.13l-1.75,-1.33l-1.11,-1.05l-1.01,-1.17l-0.88,-1.25l-0.75,-1.35l-0.6,-1.41l-0.46,-1.47l-0.31,-1.5l-0.15,-1.53l0.01,-1.92l0.07,-1.14l0.01,-1.43l-0.01,-0.24l-0.13,-1.46l-0.08,-0.56l-0.19,-1.09l-0.03,-0.14l-0.09,-0.41l-1.65,-6.77l-0.1,-0.4l-0.12,-0.45l-0.23,-0.74l-0.19,-0.6l-0.15,-0.44l-2.14,-5.87l-0.15,-0.41l-0.19,-0.46l-0.33,-0.77l-0.28,-0.62l-0.22,-0.44l-2.54,-5.05l-0.22,-0.41l-0.25,-0.46l-0.44,-0.76l-0.38,-0.61l-0.28,-0.43l-2.89,-4.31l-0.27,-0.39l-0.31,-0.43l-0.55,-0.72l-0.46,-0.56l-0.34,-0.41l-3.19,-3.64l-0.32,-0.36l-0.36,-0.39l-0.63,-0.63l-0.46,-0.44l-0.31,-0.34l-0.78,-0.75l-0.9,-1.06l-0.81,-1.15l-0.69,-1.21l-0.87,-1.91l0,0l-0.44,-0.97l-0.11,-0.21l-0.73,-1.28l-0.11,-0.16l-0.85,-1.2l-0.12,-0.15l-0.97,-1.11l-0.14,-0.13l-1.07,-1.01l-0.15,-0.13l-1.16,-0.89l-0.16,-0.11l-1.25,-0.78l-0.17,-0.09l-1.32,-0.66l-0.18,-0.07l-1.37,-0.52l-0.19,-0.06l-1.42,-0.38l-0.19,-0.04l-1.45,-0.24l-0.19,-0.03l-1.47,-0.09l-0.2,-0.01l-1.46,0.05l-0.86,0.07l-1.82,0.06l-1.46,-0.1l-1.44,-0.23l-1.41,-0.38l-1.68,-0.63l-0.66,-0.22l-0.41,-0.14l-1.43,-0.38l-0.19,-0.04l-1.45,-0.24l-0.55,-0.06l-1.11,-0.09l-0.15,0l-0.41,-0.02l-4.6,-0.06l-0.39,0l-0.44,0.01l-0.74,0.03l-0.59,0.03l-0.44,0.04l-4.39,0.4l-0.39,0.04l-0.44,0.05l-0.73,0.1l-0.54,0.1l-2.23,0.26l-1.8,0.02l-1.46,-0.11l-1.44,-0.27l-1.41,-0.4l-1.36,-0.53l-1.31,-0.67l-1.23,-0.79l-1.15,-0.9l-1.32,-1.27l-1.58,-1.67l-1.13,-1.3l-3.04,-3.77l-0.66,-0.85l-3.51,-4.8l-0.27,-0.37l-3.84,-5.47l-0.06,-0.09l-4.05,-5.68l-0.08,-0.12l-0.1,-0.13l-0.16,-0.22l-0.13,-0.17l-0.1,-0.13l-3.82,-4.96l-0.18,-0.22l-0.19,-0.24l-0.34,-0.4l-0.28,-0.33l-0.2,-0.23l-3.73,-4.15l-0.3,-0.33l-0.35,-0.36l-0.6,-0.6l-0.5,-0.47l-0.37,-0.33l-3.86,-3.39l-0.25,-0.21l-0.03,-0.02l-0.73,-0.58l-0.69,-0.51l-0.8,-0.55l-0.12,-0.07l-0.3,-0.2l-4.17,-2.53l-0.36,-0.22l-0.05,-0.02l-1.08,-0.56l-1.01,-0.48l-1.18,-0.49l-0.16,-0.06l-0.45,-0.15l-0.63,-0.21l-1.48,-0.56l-1.13,-0.55l-1.36,-0.8l-0.79,-0.51l-1.24,-0.71l-0.21,-0.11l-1.34,-0.62l-0.18,-0.07l-1.39,-0.48l-0.18,-0.05l-1.44,-0.34l-0.54,-0.1l-1.1,-0.16l-0.15,-0.02l-0.41,-0.04l-17.46,-1.44l-0.21,-0.02l-0.24,-0.02l-0.41,-0.02l-0.33,-0.01l-0.24,-0.01l-15.21,-0.38l-0.26,-0.01l-0.3,0l-0.51,0.01l-0.41,0.01l-0.3,0.01l-12.96,0.6l-0.33,0.02l-0.36,0.02l-0.62,0.06l-0.5,0.05l-0.36,0.05l-10.95,1.47l-0.38,0.06l-0.44,0.07l-0.73,0.13l-0.58,0.13l-0.43,0.09l-9.17,2.24l-0.44,0.11l-0.49,0.13l-0.81,0.25l-0.65,0.22l-0.48,0.17l-7.68,2.89l-0.45,0.17l-0.51,0.21l-0.83,0.37l-0.67,0.33l-0.48,0.24l-6.52,3.47l-0.42,0.23l-0.46,0.26l-0.77,0.48l-0.61,0.4l-0.44,0.3l-5.69,4.02l-0.34,0.25l-0.38,0.28l-0.63,0.5l-0.49,0.42l-0.36,0.31l-5.15,4.59l-0.24,0.23l-0.28,0.25l-0.44,0.43l-0.36,0.37l-0.26,0.26l-4.86,5.18l-0.15,0.17l-0.16,0.18l-0.27,0.3l-0.22,0.26l-0.16,0.18l-4.79,5.75l-0.07,0.08l-0.07,0.08l-0.12,0.15l-0.1,0.12l-0.07,0.09l-4.89,6.2l-4.88,6.14l-0.41,0.5l-4.36,5.19l-1.34,1.43l-1.18,1.02l-1.29,0.9l-1.37,0.76l-1.8,0.76l-2.4,0.87l-0.29,0.11l-0.04,0.01l-0.81,0.35l-0.46,0.21l-1.1,0.55l-0.41,0.23l-0.79,0.48l-0.11,0.06l-0.28,0.19l-4.93,3.33l-0.37,0.26l-0.04,0.03l-1.01,0.79l-0.89,0.77l-0.98,0.92l-0.12,0.13l-0.35,0.36l-3.74,4.11l-0.26,0.3l-0.04,0.03l-0.71,0.9l-0.63,0.85l-0.67,0.99l-0.06,0.1l-0.08,0.11l-1.04,1.59l-1.02,1.24l-1.14,1.13l-1.26,0.99l-1.7,1.07l-4.62,2.58l-0.32,0.18l-0.04,0.03l-0.89,0.57l-0.5,0.34l-1.17,0.9l-0.15,0.12l-1.07,1.01l-0.14,0.13l-0.97,1.11l-0.12,0.15l-0.86,1.2l-0.1,0.16l-0.74,1.27l-0.09,0.17l-0.61,1.34l-0.07,0.18l-0.48,1.39l-0.05,0.19l-0.34,1.43l-0.03,0.19l-0.19,1.46l-0.02,0.19l-0.05,1.47l0,0.2l0.1,1.47l0.02,0.19l0.24,1.45l0.04,0.19l0.38,1.42l0.05,0.18l0.52,1.38l0.08,0.18l0.65,1.32l0.09,0.17l0.77,1.25l0.11,0.16l0.9,1.17l0.12,0.14l1.01,1.08l0.14,0.13l1.1,0.98l0.92,0.73l1.33,1.16l0.97,1.03l0.87,1.11l0.76,1.19l0.64,1.26l0.52,1.31l0.5,1.69l0.15,0.63l0.09,0.32l0.01,0.04l0.26,0.89l0.28,0.82l0.34,0.92l0.05,0.13l0.14,0.33l1.58,3.6l0.18,0.41l0.03,0.05l0.6,1.14l0.59,1.01l0.73,1.13l0.1,0.15l0.3,0.4l1.94,2.56l0.21,0.27l0.03,0.03l0.62,0.74l0.38,0.41l0.95,0.95l0.13,0.12l1.03,0.87l0.41,0.31l0.82,0.59l0.11,0.07l0.32,0.21l2.28,1.43l0.32,0.2l0.04,0.02l0.96,0.52l0.56,0.28l1.39,0.61l0.19,0.07l1.45,0.47l0.19,0.05l1.48,0.31l0.57,0.1l1.14,0.13l0.15,0.02l0.42,0.02l1.79,0.1l1.81,0.19l1.43,0.29l1.39,0.43l1.35,0.56l1.28,0.68l1.21,0.81l1.13,0.93l1.03,1.02l0.93,1.13l0.81,1.21l0.69,1.28l0.57,1.34l0.43,1.39l0.29,1.43l0.2,1.81l0.36,6.36l0.03,0.31l0,0.04l0.1,0.89l0.11,0.82l0.16,0.92l0.02,0.12l0.08,0.34l1.78,7.83l0.12,0.49l0.15,0.55l0.27,0.92l0.25,0.74l0.19,0.54l0.17,0.47l0.55,1.69l0.31,1.39l0.17,1.41l0.04,1.43l-0.1,1.42l-0.23,1.41l-0.36,1.37l-0.62,1.67l-0.4,0.96l-0.5,1.34l-0.07,0.23l-0.37,1.42l-0.04,0.19l-0.24,1.45l-0.02,0.19l-0.09,1.47l0,0.2l0.06,1.47l0.01,0.19l0.2,1.46l0.04,0.19l0.34,1.43l0.05,0.18l0.48,1.39l0.08,0.18l0.61,1.34l0.1,0.19l0.73,1.25l0.23,0.36l0.93,1.59l0.61,1.34l0.48,1.39l0.34,1.44l0.19,1.46l0.05,1.47l-0.09,1.47l-0.24,1.45l-0.37,1.43l-0.52,1.38l-0.65,1.32l-0.78,1.25l-0.89,1.17l-1.01,1.08l-1.11,0.97l-1.2,0.86l-1.27,0.74l-1.34,0.61l-1.4,0.47l-1.79,0.42l-0.3,0.05l-3.16,0.34l-1.63,0.07l-1.4,0l-1.4,-0.11l-1.55,-0.17l-1.5,-0.23l-1.48,-0.35l-1.04,-0.29l-1.58,-0.52l-1.53,-0.66l-0.56,-0.27l-1.58,-0.87l-1.49,-1.01l-0.32,-0.23l-1.45,-1.21l-1.32,-1.34l-0.42,-0.48l-1.17,-1.46l-1.02,-1.57l-0.75,-1.3l-0.82,-1.56l-0.66,-1.64l-1.87,-5.34l-0.12,-0.34l-0.02,-0.04l-0.41,-0.98l-0.25,-0.55l-0.69,-1.31l-0.09,-0.16l-0.81,-1.23l-0.11,-0.16l-0.93,-1.15l-0.12,-0.14l-1.04,-1.05l-0.14,-0.13l-1.13,-0.95l-0.15,-0.11l-1.22,-0.83l-0.16,-0.1l-1.29,-0.71l-0.18,-0.08l-1.35,-0.58l-0.95,-0.35l-0.64,-0.27l-0.28,-0.1l-1.36,-0.42l-1.4,-0.3l-1.42,-0.16l-1.42,-0.02l-1.43,0.11l-1.4,0.25l-1.38,0.38l-1.33,0.5l-1.28,0.64l-1.22,0.75l-1.13,0.86l-1.05,0.97l-0.95,1.06l-0.85,1.15l-0.74,1.22l-0.61,1.29l-0.62,1.47l0.01,0l-0.37,0.86l-0.08,0.22l-0.44,1.41l-0.05,0.18l-0.3,1.44l-0.03,0.19l-0.16,1.47l-0.01,0.19l-0.01,1.47l0.01,0.19l0.13,1.47l0.02,0.19l0.28,1.45l0.13,0.54l0.25,0.91l0.09,0.38l0.43,1.44l0.28,1.46l0.13,1.48l-0.01,1.48l-0.17,1.48l-0.3,1.46l-0.45,1.41l-0.59,1.37l-0.72,1.3l-0.85,1.22l-0.96,1.13l-1.07,1.03l-1.17,0.92l-1.26,0.8l-1.32,0.67l-1.39,0.54l-1.43,0.4l-1.47,0.25l-1.48,0.11l-1.48,-0.04l-1.48,-0.19l-1.45,-0.34l-1.41,-0.47l-1.35,-0.61l-1.29,-0.75l-1.21,-0.86l-1.11,-0.99l-1.01,-1.09l-0.9,-1.18l-0.78,-1.27l-0.81,-1.67l-0.32,-0.75l-1.02,-2.94l-1.23,-4.56l-0.58,-2.93l-0.62,-4.71l-0.19,-3.1l0.04,-4.41l0.06,-1.45l0.18,-1.44l0.57,-3.47l0.36,-1.68l0.5,-1.64l0.62,-1.71l0.82,-1.93l0.91,-1.61z" id="svg_39" stroke-width="3.34"/>
   <g class="stroke-group" fill="none" id="tree" stroke="black" stroke-width="3.34">
    <path d="m240.95,39.88c43.76,-13.02 40.64,80.91 112.13,55.32" data-class="trunk" fill="none" id="svg_40" stroke="rgb(0, 0, 0)" stroke-linecap="round" stroke-linejoin="round" stroke-opacity="1" stroke-width="3.34"/>
    <path d="m399.47,199.09c67.33,-4.9 41.41,104.35 -13.96,53.95" data-class="trunk" fill="none" id="svg_41" stroke="rgb(0, 0, 0)" stroke-linecap="round" stroke-linejoin="round" stroke-opacity="1" stroke-width="3.34"/>
    <path d="m417.08,261.52c-14.75,84.81 -86.74,16.07 -110.57,-7.27" data-class="trunk" fill="none" id="svg_42" stroke="rgb(0, 0, 0)" stroke-linecap="round" stroke-linejoin="round" stroke-opacity="1" stroke-width="3.34"/>
    <path d="m224.53,342.63c3.11,-11.13 -19.91,-55.99 -158.59,-75.51" data-class="root" fill="none" id="svg_43" stroke="rgb(0, 0, 0)" stroke-linecap="round" stroke-linejoin="round" stroke-opacity="1" stroke-width="3.34"/>
    <path d="m74.88,272.61c-70.85,73.6 -109.92,-95.65 -27.55,-77.93" data-class="root" fill="none" id="svg_44" stroke="rgb(0, 0, 0)" stroke-linecap="round" stroke-linejoin="round" stroke-opacity="1" stroke-width="3.34"/>
    <path d="m82.02,120.57c78.34,-39.68 44.47,-97.51 166.98,-84.38" data-class="root" fill="none" id="svg_45" stroke="rgb(0, 0, 0)" stroke-linecap="round" stroke-linejoin="round" stroke-opacity="1" stroke-width="3.34"/>
    <path d="m194.56,460.92c-9.31,-43.6 11.34,-43.93 29.25,-109.53" data-class="canopy" fill="none" id="svg_46" stroke="rgb(0, 0, 0)" stroke-linecap="round" stroke-linejoin="round" stroke-opacity="1" stroke-width="3.34"/>
    <path d="m208.3,389.34c12.07,-57.18 -13.27,-70.73 16.02,-83.07" data-class="canopy" fill="none" id="svg_47" stroke="rgb(0, 0, 0)" stroke-linecap="round" stroke-linejoin="round" stroke-opacity="1" stroke-width="3.34"/>
    <path d="m202.16,312.38c47.64,-29.25 48.24,-67.97 75.36,-103.44" data-class="canopy" fill="none" id="svg_48" stroke="rgb(0, 0, 0)" stroke-linecap="round" stroke-linejoin="round" stroke-opacity="1" stroke-width="3.34"/>
    <path d="m319.4,496.41c-102.5,-45.33 -68.58,-42.53 -52.82,-104.56" data-class="canopy" fill="none" id="svg_49" stroke="rgb(0, 0, 0)" stroke-linecap="round" stroke-linejoin="round" stroke-opacity="1" stroke-width="3.34"/>
    <path d="m266.53,460.84c4.65,-129.27 -17.7,-125.5 0.02,-252.32" data-class="canopy" fill="none" id="svg_50" stroke="rgb(0, 0, 0)" stroke-linecap="round" stroke-linejoin="round" stroke-opacity="1" stroke-width="3.34"/>
    <path d="m248.19,303.42c15.67,-27.7 17.08,-85.03 51.2,-95.99" data-class="canopy" fill="none" id="svg_51" stroke="rgb(0, 0, 0)" stroke-linecap="round" stroke-linejoin="round" stroke-opacity="1" stroke-width="3.34"/>
    <path d="m229.52,274.73c-25.24,-7.24 -27.37,-44.73 -59.09,-52.67" data-class="branch" fill="none" id="svg_52" stroke="rgb(0, 0, 0)" stroke-linecap="round" stroke-linejoin="round" stroke-opacity="1" stroke-width="3.34"/>
    <path d="m199.41,263.5c-77.14,-37.76 -98.71,-145.53 9.71,-95.98" data-class="branch" fill="none" id="svg_53" stroke="rgb(0, 0, 0)" stroke-linecap="round" stroke-linejoin="round" stroke-opacity="1" stroke-width="3.34"/>
    <path d="m112.62,144.11c-24.6,32.34 -41.66,-82.78 46.3,-41.8" data-class="branch" fill="none" id="svg_54" stroke="rgb(0, 0, 0)" stroke-linecap="round" stroke-linejoin="round" stroke-opacity="1" stroke-width="3.34"/>
    <path d="m264.59,263.98c18.93,-51.88 61.33,-32.27 41.08,-64.33" data-class="root" fill="none" id="svg_55" stroke="rgb(0, 0, 0)" stroke-linecap="round" stroke-linejoin="round" stroke-opacity="1" stroke-width="3.34"/>
    <path d="m325.44,138.05c0.31,31.61 61.15,43.55 -4.21,8.43" data-class="root" fill="none" id="svg_56" stroke="rgb(0, 0, 0)" stroke-linecap="round" stroke-linejoin="round" stroke-opacity="1" stroke-width="3.34"/>
    <path d="m393.46,187.31c14.08,-30.22 -33.49,-20.69 -29.82,-38.72" data-class="root" fill="none" id="svg_57" stroke="rgb(0, 0, 0)" stroke-linecap="round" stroke-linejoin="round" stroke-opacity="1" stroke-width="3.34"/>
    <path d="m220,283.08c38.97,-64.79 51.56,-74.14 11.42,-89.99" data-class="root" fill="none" id="svg_58" stroke="rgb(0, 0, 0)" stroke-linecap="round" stroke-linejoin="round" stroke-opacity="1" stroke-width="3.34"/>
    <path d="m305.11,147.45c-7.21,29.09 13.49,-29.69 -59.95,-18.04" data-class="root" fill="none" id="svg_59" stroke="rgb(0, 0, 0)" stroke-linecap="round" stroke-linejoin="round" stroke-opacity="1" stroke-width="3.34"/>
    <path d="m281.3,102.48c-11.24,8.5 -8.24,-26.37 -34.2,-21.59" data-class="root" fill="none" id="svg_60" stroke="rgb(0, 0, 0)" stroke-linecap="round" stroke-linejoin="round" stroke-opacity="1" stroke-width="3.34"/>
    <path d="m197.76,298.12c11.54,-25.63 -1.68,-17.04 -40.63,-51.82" data-class="branch" fill="none" id="svg_61" stroke="rgb(0, 0, 0)" stroke-linecap="round" stroke-linejoin="round" stroke-opacity="1" stroke-width="3.34"/>
    <path d="m197.63,287.3c-32.59,-46.26 -70.34,-57.15 -38.95,-62.62" data-class="branch" fill="none" id="svg_62" stroke="rgb(0, 0, 0)" stroke-linecap="round" stroke-linejoin="round" stroke-opacity="1" stroke-width="3.34"/>
    <path d="m136.53,221.86c40.98,42.52 -54.55,79.23 -70.25,17.98" data-class="branch" fill="none" id="svg_63" stroke="rgb(0, 0, 0)" stroke-linecap="round" stroke-linejoin="round" stroke-opacity="1" stroke-width="3.34"/>
    <path d="m254.57,295.72c49.54,-26.07 122.93,0.48 131.52,-42.44" data-class="branch" fill="none" id="svg_64" stroke="rgb(0, 0, 0)" stroke-linecap="round" stroke-linejoin="round" stroke-opacity="1" stroke-width="3.34"/>
    <path d="m271.54,287.95c101.38,-14.66 130.29,-38.73 75.74,-82.61" data-class="branch" fill="none" id="svg_65" stroke="rgb(0, 0, 0)" stroke-linecap="round" stroke-linejoin="round" stroke-opacity="1" stroke-width="3.34"/>
    <path d="m320.23,177.64c27.53,61.5 96.32,54.85 81.67,13.21" data-class="branch" fill="none" id="svg_66" stroke="rgb(0, 0, 0)" stroke-linecap="round" stroke-linejoin="round" stroke-opacity="1" stroke-width="3.34"/>
    <path d="m198.14,421c19.01,34.35 -14.78,22.56 -62.39,50.72" data-class="canopy" fill="none" id="svg_67" stroke="rgb(0, 0, 0)" stroke-linecap="round" stroke-linejoin="round" stroke-opacity="1" stroke-width="3.34"/>
    <path d="m201.76,432.23c-106.8,49.7 -55,-15.94 -195.15,34.92" data-class="canopy" fill="none" id="svg_68" stroke="rgb(0, 0, 0)" stroke-linecap="round" stroke-linejoin="round" stroke-opacity="1" stroke-width="3.34"/>
    <path d="m191.44,457.87c-112.2,53.22 -31.4,9.84 -34.91,-5.65" data-class="canopy" fill="none" id="svg_69" stroke="rgb(0, 0, 0)" stroke-linecap="round" stroke-linejoin="round" stroke-opacity="1" stroke-width="3.34"/>
    <path d="m270.67,414.67c-4.62,55.15 26.78,37.39 101.5,73.97" data-class="canopy" fill="none" id="svg_70" stroke="rgb(0, 0, 0)" stroke-linecap="round" stroke-linejoin="round" stroke-opacity="1" stroke-width="3.34"/>
    <path d="m253.1,449.24c75.88,39.18 59.61,52.61 153.23,43.67" data-class="canopy" fill="none" id="svg_71" stroke="rgb(0, 0, 0)" stroke-linecap="round" stroke-linejoin="round" stroke-opacity="1" stroke-width="3.34"/>
    <path d="m311.88,459.63c99.24,33.57 138.66,55.78 61.01,18.9" data-class="canopy" fill="none" id="svg_72" stroke="rgb(0, 0, 0)" stroke-linecap="round" stroke-linejoin="round" stroke-opacity="1" stroke-width="3.34"/>
    <path d="m253.42,388.24c1.09,55.21 -25.1,47.56 -29.14,82.58" data-class="canopy" fill="none" id="svg_73" stroke="rgb(0, 0, 0)" stroke-linecap="round" stroke-linejoin="round" stroke-opacity="1" stroke-width="3.34"/>
    <path d="m240.83,419.66c-15.91,88.14 -45.72,122.38 -12.99,22.83" data-class="canopy" fill="none" id="svg_74" stroke="rgb(0, 0, 0)" stroke-linecap="round" stroke-linejoin="round" stroke-opacity="1" stroke-width="3.34"/>
    <path d="m222.8,427.83c32.8,75.83 -12.91,81.65 9.84,76.94" data-class="canopy" fill="none" id="svg_75" stroke="rgb(0, 0, 0)" stroke-linecap="round" stroke-linejoin="round" stroke-opacity="1" stroke-width="3.34"/>
    <path d="m232.03,428.6c-17.67,-41.05 15.16,-9.35 12.06,-83.3" data-class="canopy" fill="none" id="svg_76" stroke="rgb(0, 0, 0)" stroke-linecap="round" stroke-linejoin="round" stroke-opacity="1" stroke-width="3.34"/>
    <path d="m237.94,407.63c20.78,-9.24 -11.99,-58.02 0.04,-98.34" data-class="canopy" fill="none" id="svg_77" stroke="rgb(0, 0, 0)" stroke-linecap="round" stroke-linejoin="round" stroke-opacity="1" stroke-width="3.34"/>
    <path d="m237.08,356.53c-17.8,-17.33 -5.26,-76.7 -0.52,-54.41" data-class="canopy" fill="none" id="svg_78" stroke="rgb(0, 0, 0)" stroke-linecap="round" stroke-linejoin="round" stroke-opacity="1" stroke-width="3.34"/>
    <path d="m266.1,392.03c-9.65,-3.76 -2.68,-50.31 -6.54,-43.03" data-class="canopy" fill="none" id="svg_79" stroke="rgb(0, 0, 0)" stroke-linecap="round" stroke-linejoin="round" stroke-opacity="1" stroke-width="3.34"/>
    <path d="m264.39,372.58c-4.04,13.96 -6.64,-28 -2.48,-47.84" data-class="canopy" fill="none" id="svg_80" stroke="rgb(0, 0, 0)" stroke-linecap="round" stroke-linejoin="round" stroke-opacity="1" stroke-width="3.34"/>
    <path d="m264.26,359.35c-10.48,-45.27 -3.07,-71.22 12.47,-74.42" data-class="canopy" fill="none" id="svg_81" stroke="rgb(0, 0, 0)" stroke-linecap="round" stroke-linejoin="round" stroke-opacity="1" stroke-width="3.34"/>
    <path d="m178.19,127.23c-44.08,-22.78 5.85,-92.03 64.15,-52.23" data-class="root" fill="none" id="svg_82" stroke="rgb(0, 0, 0)" stroke-linecap="round" stroke-linejoin="round" stroke-opacity="1" stroke-width="3.34"/>
    <path d="m217.55,125.63c-11.68,6.68 -3.49,28.48 25.89,9.03" data-class="root" fill="none" id="svg_83" stroke="rgb(0, 0, 0)" stroke-linecap="round" stroke-linejoin="round" stroke-opacity="1" stroke-width="3.34"/>
    <path d="m195.43,118.37c41.59,27.63 82.8,-21.41 34.94,-45.7" data-class="root" fill="none" id="svg_84" stroke="rgb(0, 0, 0)" stroke-linecap="round" stroke-linejoin="round" stroke-opacity="1" stroke-width="3.34"/>
    <path d="m320.11,148.93c-44.5,-25.34 -17.88,-58.3 16.85,-56.03" data-class="root" fill="none" id="svg_85" stroke="rgb(0, 0, 0)" stroke-linecap="round" stroke-linejoin="round" stroke-opacity="1" stroke-width="3.34"/>
    <path d="m302.1,99.35c14.82,-9.54 64.52,-12.77 74.15,38.02" data-class="root" fill="none" id="svg_86" stroke="rgb(0, 0, 0)" stroke-linecap="round" stroke-linejoin="round" stroke-opacity="1" stroke-width="3.34"/>
    <path d="m202.41,268.29c-53.52,-95.37 19.58,20.68 37.57,-78.15" data-class="bark" fill="none" id="svg_87" stroke="rgb(0, 0, 0)" stroke-linecap="round" stroke-linejoin="round" stroke-opacity="1" stroke-width="3.34"/>
    <path d="m334.28,223.93c29.14,-0.05 -51.94,-68.36 23.53,-60.36" data-class="branch" fill="none" id="svg_88" stroke="rgb(0, 0, 0)" stroke-linecap="round" stroke-linejoin="round" stroke-opacity="1" stroke-width="3.34"/>
    <path d="m58.58,477.3c123.89,-42.15 258.32,5.5 407.05,24.22" data-class="canopy" fill="none" id="svg_89" stroke="rgb(0, 0, 0)" stroke-linecap="round" stroke-linejoin="round" stroke-opacity="1" stroke-width="3.34"/>
   </g>
  </g>
  <g id="svg_90" transform="translate(235.84544372558594, 338.1217956542969) scale(0.3499999940395355) translate(-199.57, -163.39)">
   <defs>
    <style>.white-box-bg { fill: white; stroke: none; }
      .stroke-group { stroke-linecap: round; stroke-linejoin: round; }</style>
   </defs>
   <path class="white-box-bg" d="m68.02,349.02l0.3,0.29l0.26,0.21l1.04,1.09l0.93,1.19l0.8,1.27l0.67,1.35l0.54,1.41l0.38,1.45l0.31,1.86l0.08,0.74l0.06,0.49l1.35,9.37l0.07,0.46l0.09,0.51l0.18,0.87l0.16,0.69l0.13,0.51l2.51,9.14l0.13,0.44l0.15,0.49l0.27,0.81l0.25,0.65l0.18,0.48l3.61,8.8l0.18,0.42l0.21,0.46l0.37,0.77l0.31,0.62l0.24,0.44l4.65,8.31l0.23,0.39l0.26,0.44l0.47,0.73l0.39,0.58l0.3,0.42l5.6,7.64l0.28,0.38l0.33,0.42l0.57,0.68l0.48,0.55l0.35,0.39l6.48,6.83l0.34,0.35l0.4,0.39l0.68,0.64l0.57,0.5l0.43,0.35l7.26,5.88l0.42,0.32l0.46,0.35l0.81,0.57l0.67,0.44l0.49,0.31l8.22,4.93l0.24,0.14l0.03,0.02l0.7,0.38l0.65,0.33l0.75,0.35l0.1,0.05l0.29,0.12l9.18,3.81l0.27,0.11l0.04,0.01l0.78,0.28l0.72,0.24l0.84,0.25l0.11,0.03l0.32,0.08l9.84,2.4l0.29,0.07l0.03,0l0.84,0.17l0.78,0.12l0.89,0.12l0.12,0.01l0.33,0.03l10.46,0.85l0.29,0.02l0.04,0l0.86,0.03l0.78,0l0.9,-0.02l0.12,-0.01l0.33,-0.02l0.82,-0.07l1.78,-0.05l1.42,0.09l1.4,0.22l1.38,0.36l1.33,0.48l1.29,0.61l1.22,0.73l1.14,0.84l1.06,0.95l0.97,1.04l0.86,1.13l0.76,1.2l0.63,1.27l0.64,1.66l4.54,13.66l0.13,0.35l0.01,0.04l0.39,0.98l0.25,0.56l0.66,1.31l0.09,0.17l0.79,1.24l0.11,0.16l0.91,1.16l0.12,0.15l1.02,1.07l0.14,0.13l1.11,0.96l0.15,0.12l1.2,0.85l0.17,0.1l1.28,0.73l0.17,0.09l1.34,0.59l0.18,0.07l1.4,0.47l0.19,0.05l1.43,0.32l0.19,0.03l1.46,0.19l0.19,0.01l1.47,0.04l0.2,-0.01l1.47,-0.1l0.19,-0.03l1.45,-0.25l0.19,-0.04l1.41,-0.39l0.19,-0.06l1.37,-0.53l0.18,-0.08l1.31,-0.66l1.07,-0.6l0.5,-0.25l0.75,-0.44l0.4,-0.2l1.23,-0.72l0.2,-0.13l1.2,-0.86l0.15,-0.12l1.1,-0.97l0.14,-0.13l1.01,-1.07l0.12,-0.15l0.9,-1.17l0.11,-0.16l0.77,-1.25l0.1,-0.17l0.65,-1.32l0.07,-0.17l0.52,-1.38l0.06,-0.19l0.38,-1.42l0.04,-0.19l0.24,-1.45l0.02,-0.19l0.1,-1.47l0,-0.19l-0.05,-1.47l-0.01,-0.19l-0.2,-1.46l-0.03,-0.19l-0.34,-1.44l-0.15,-0.53l-0.34,-1.06l-0.06,-0.14l-0.14,-0.38l-2.74,-6.84l-0.08,-0.21l-2.46,-5.9l-0.03,-0.09l-0.04,-0.08l-0.06,-0.14l-0.05,-0.12l-0.04,-0.09l-0.76,-1.7l-0.66,-1.72l-0.39,-1.41l-0.25,-1.45l-0.11,-1.47l0.03,-1.47l0.18,-1.45l0.32,-1.44l0.46,-1.39l0.6,-1.35l0.72,-1.28l0.84,-1.2l0.96,-1.11l0.59,-0.56l0.2,-0.2l1.26,-1.25l0.39,-0.4l4.21,-4.49l0.29,-0.31l0.31,-0.36l0.51,-0.6l0.4,-0.51l0.29,-0.37l2.21,-2.97l1.21,-1.46l1.09,-1.06l1.18,-0.95l1.27,-0.83l1.36,-0.69l1.41,-0.55l1.46,-0.41l1.5,-0.25l1.52,-0.11l1.51,0.05l1.88,0.26l4.47,0.84l0.11,0.02l0.13,0.02l0.21,0.04l0.18,0.03l0.12,0.02l12.06,1.88l0.12,0.02l0.14,0.02l0.23,0.03l0.19,0.03l0.14,0.01l12.09,1.48l0.37,0.04l0.05,0.01l1.05,0.06l0.61,0.02l1.47,-0.03l0.19,-0.02l1.46,-0.17l0.19,-0.04l1.44,-0.32l0.19,-0.05l1.39,-0.46l0.97,-0.37l0.66,-0.21l0.63,-0.25l1.39,-0.39l1.42,-0.25l1.45,-0.12l1.44,0.02l1.44,0.17l1.41,0.3l1.38,0.43l1.34,0.57l1.27,0.7l1.19,0.81l1.12,0.92l1.27,1.29l0.31,0.34l1,1.01l0.18,0.16l1.13,0.94l0.15,0.12l1.22,0.82l0.22,0.14l0.56,0.32l2,1.1l1.26,0.87l1.46,1.25l0.08,0.07l0.79,0.7l0.15,0.13l0.33,0.25l9.61,7.47l0.43,0.32l0.48,0.34l0.83,0.56l0.69,0.43l0.51,0.31l9.73,5.54l0.25,0.14l0.03,0.02l0.72,0.37l0.68,0.32l0.78,0.35l0.11,0.04l0.29,0.12l9.94,3.82l0.28,0.1l0.03,0.02l0.8,0.26l0.75,0.22l0.85,0.23l0.12,0.03l0.32,0.07l9.81,2.1l0.29,0.06l0.04,0.01l0.84,0.14l0.78,0.1l0.89,0.09l0.12,0.01l0.33,0.02l9.6,0.51l0.29,0.01l0.04,0l0.84,0.01l0.78,-0.02l0.88,-0.05l0.12,-0.01l0.32,-0.03l9.31,-0.97l0.29,-0.03l0.03,-0.01l0.81,-0.12l0.74,-0.13l0.84,-0.18l0.11,-0.02l0.31,-0.08l8.66,-2.26l0.53,-0.15l0.59,-0.18l0.97,-0.33l0.78,-0.29l0.57,-0.23l7.93,-3.37l0.48,-0.21l0.53,-0.25l0.88,-0.45l0.71,-0.38l0.5,-0.3l7.4,-4.45l0.43,-0.27l0.47,-0.3l0.79,-0.55l0.62,-0.46l0.45,-0.35l6.75,-5.43l0.39,-0.32l0.42,-0.36l0.69,-0.63l0.54,-0.53l0.39,-0.4l6,-6.3l0.33,-0.36l0.37,-0.41l0.6,-0.71l0.46,-0.59l0.34,-0.44l5.13,-7.05l0.29,-0.41l0.31,-0.46l0.5,-0.79l0.39,-0.65l0.27,-0.48l4.17,-7.68l0.23,-0.45l0.26,-0.51l0.4,-0.87l0.3,-0.71l0.21,-0.53l3.1,-8.19l0.18,-0.49l0.18,-0.55l0.29,-0.95l0.21,-0.77l0.14,-0.57l1.93,-8.58l0.11,-0.53l0.11,-0.6l0.16,-1.01l0.1,-0.83l0.06,-0.6l0.7,-9.14l0.02,-0.28l0,-0.04l0.03,-0.81l0,-0.74l-0.02,-0.84l0,-0.11l-0.02,-0.32l-0.7,-9.66l-0.03,-0.28l0,-0.04l-0.1,-0.82l-0.11,-0.75l-0.15,-0.84l-0.02,-0.12l-0.07,-0.31l-2.24,-9.77l-0.07,-0.28l-0.01,-0.04l-0.22,-0.79l-0.22,-0.73l-0.28,-0.82l-0.04,-0.11l-0.12,-0.3l-3.86,-9.7l-0.14,-0.34l-0.02,-0.05l-0.44,-0.95l-0.28,-0.55l-0.74,-1.27l-0.1,-0.16l-0.86,-1.2l-0.12,-0.15l-0.97,-1.11l-0.13,-0.14l-1.07,-1l-0.16,-0.14l-1.16,-0.89l-0.34,-0.23l-1.49,-1.16l-1.09,-1.03l-1.23,-1.43l-3.51,-4.5l-0.28,-0.36l-0.33,-0.39l-0.57,-0.65l-0.48,-0.51l-0.35,-0.37l-3.96,-3.97l-0.33,-0.32l-0.37,-0.35l-0.65,-0.58l-0.54,-0.45l-0.4,-0.33l-4.38,-3.43l-0.36,-0.28l-0.41,-0.3l-0.7,-0.48l-0.58,-0.38l-0.43,-0.27l-4.82,-2.91l-0.38,-0.22l-0.47,-0.27l-0.31,-0.17l-1.96,-1.11l-1.33,-0.97l-1.53,-1.38l-0.15,-0.16l-0.25,-0.25l-0.95,-0.92l-0.28,-0.26l-0.04,-0.04l-0.84,-0.72l-0.5,-0.39l-1.25,-0.89l-0.17,-0.11l-1.34,-0.76l-0.18,-0.09l-1.41,-0.62l-0.19,-0.07l-1.47,-0.47l-0.56,-0.15l-1.13,-0.25l-0.16,-0.03l-0.42,-0.07l-0.59,-0.09l-0.39,-0.06l-0.05,0l-1.13,-0.1l-0.65,-0.04l-1.58,0l-0.2,0.02l-1.57,0.16l-0.22,0.04l-1.52,0.32l-0.48,0.13l-1.72,0.38l-1.4,0.17l-1.4,0.04l-1.76,-0.11l-1.76,-0.2l-0.34,-0.04l-0.38,-0.03l-0.64,-0.05l-0.28,-0.01l-0.29,-0.03l-1.39,-0.1l-1.39,-0.23l-1.36,-0.36l-1.32,-0.48l-1.27,-0.61l-1.21,-0.72l-1.13,-0.83l-1.05,-0.93l-0.96,-1.03l-0.86,-1.12l-0.94,-1.48l-0.19,-0.35l-0.52,-0.85l-0.44,-0.67l-0.34,-0.49l-4.39,-6.13l-0.22,-0.3l-0.03,-0.03l-0.66,-0.83l-0.65,-0.73l-0.76,-0.81l-0.1,-0.11l-0.3,-0.29l-4.46,-4.17l-0.25,-0.23l-0.03,-0.03l-0.76,-0.63l-0.45,-0.35l-1.13,-0.8l-0.44,-0.28l-0.7,-0.42l-0.36,-0.23l-1.18,-0.69l-1.16,-0.82l-1.06,-0.92l-0.98,-1.02l-0.88,-1.11l-0.77,-1.18l-0.65,-1.25l-0.67,-1.64l-0.25,-0.71l-0.07,-0.19l-1.38,-3.73l-0.57,-1.84l-0.3,-1.52l-0.15,-1.53l0.01,-1.53l-0.01,-0.66l-0.03,-0.66l-0.12,-1.47l-0.03,-0.19l-0.27,-1.44l-0.04,-0.19l-0.41,-1.41l-0.18,-0.53l-0.4,-1.04l-0.06,-0.13l-0.17,-0.38l-0.64,-1.4l-0.69,-1.69l-0.41,-1.4l-0.27,-1.43l-0.13,-1.45l0,-1.46l0.15,-1.45l0.29,-1.42l0.43,-1.4l0.56,-1.34l0.68,-1.29l0.81,-1.21l0.93,-1.12l1.02,-1.04l1.69,-1.39l0,0l0.71,-0.59l0.18,-0.16l1.04,-1.04l0.13,-0.14l0.93,-1.14l0.11,-0.16l0.82,-1.22l0.1,-0.17l0.69,-1.29l0.09,-0.18l0.56,-1.36l0.06,-0.18l0.43,-1.41l0.05,-0.19l0.28,-1.44l0.03,-0.19l0.15,-1.46l0.01,-0.2l0,-1.47l-0.01,-0.19l-0.15,-1.47l-0.03,-0.19l-0.28,-1.44l-0.05,-0.2l-0.43,-1.4l-0.18,-0.51l-0.61,-2.07l-0.08,-0.49l-0.1,-0.52l-0.31,-1.47l-0.29,-1.16l-0.14,-0.48l-0.31,-0.94l-0.05,-0.13l-0.13,-0.34l-0.62,-1.56l-0.15,-0.38l-0.02,-0.05l-0.5,-1.06l-0.32,-0.6l-0.83,-1.4l-0.35,-0.52l-0.73,-0.99l-0.1,-0.13l-0.29,-0.35l-1.29,-1.52l-0.21,-0.25l-0.03,-0.03l-0.63,-0.67l-0.38,-0.38l-0.95,-0.87l-0.38,-0.31l-0.76,-0.6l-0.11,-0.08l-0.29,-0.21l-2.15,-1.5l-0.29,-0.2l-0.04,-0.02l-0.87,-0.54l-0.82,-0.46l-0.95,-0.5l-0.13,-0.06l-0.36,-0.17l-2.89,-1.28l-0.47,-0.21l-0.54,-0.21l-0.92,-0.34l-0.75,-0.25l-0.56,-0.17l-3.83,-1.11l-0.38,-0.1l-0.42,-0.11l-0.71,-0.17l-0.58,-0.12l-0.43,-0.08l-5.13,-0.92l-0.29,-0.05l-0.33,-0.05l-0.56,-0.08l-0.46,-0.05l-0.33,-0.04l-6.42,-0.62l-0.24,-0.03l-0.26,-0.02l-0.45,-0.03l-0.37,-0.02l-0.26,-0.01l-7.72,-0.26l-0.19,0l-0.22,-0.01l-0.37,0l-0.29,0l-0.22,0l-9.04,0.17l-0.16,0l-0.18,0l-0.3,0.02l-0.25,0.01l-0.18,0.01l-10.38,0.63l-0.14,0.01l-0.15,0.01l-0.26,0.02l-0.21,0.02l-0.15,0.02l-11.77,1.15l-0.11,0.01l-0.13,0.01l-0.23,0.03l-0.18,0.02l-0.13,0.02l-12.92,1.68l-0.36,0.05l-0.05,0l-1.04,0.2l-0.59,0.14l-1.42,0.4l-0.18,0.06l-1.37,0.53l-0.18,0.08l-1.31,0.67l-0.17,0.09l-1.24,0.79l-0.16,0.11l-1.15,0.91l-0.15,0.13l-1.06,1.02l-0.13,0.14l-0.96,1.12l-0.12,0.15l-0.84,1.21l-0.1,0.16l-0.73,1.28l-0.08,0.17l-0.59,1.35l-0.08,0.19l-0.45,1.39l-0.23,0.83l-0.59,1.81l-0.63,1.39l-0.76,1.33l-0.89,1.23l-1.01,1.15l-1.12,1.03l-1.22,0.91l-1.31,0.79l-1.38,0.64l-1.44,0.5l-1.49,0.36l-2.26,0.3l-1.13,0.2l-0.64,0.13l-1.56,0.42l-0.2,0.06l-1.5,0.59l-1.11,0.5l-0.41,0.19l-1.07,0.52l-1.3,0.49l-1.34,0.37l-1.38,0.24l-1.39,0.12l-1.39,-0.02l-1.39,-0.14l-1.7,-0.34l-0.4,-0.1l-0.2,-0.05l-0.22,-0.05l-0.38,-0.09l-0.31,-0.06l-0.23,-0.05l-5.17,-0.98l-0.23,-0.05l-0.25,-0.04l-0.43,-0.07l-0.35,-0.05l-0.25,-0.03l-4.33,-0.56l-0.28,-0.03l-0.31,-0.03l-0.52,-0.05l-0.42,-0.03l-0.31,-0.02l-3.33,-0.18l-0.38,-0.02l-0.42,-0.01l-0.72,0l-0.57,0.01l-0.43,0.01l-2.37,0.11l-0.31,0.02l-0.04,0.01l-0.91,0.09l-0.83,0.1l-0.94,0.16l-0.12,0.02l-0.35,0.07l-1.41,0.31l-0.36,0.09l-0.05,0.01l-1.01,0.29l-0.58,0.18l-1.38,0.52l-0.42,0.18l-0.68,0.32l-1.37,0.68l-1.2,0.47l-1.24,0.36l-1.9,0.39l0,0.01l-0.9,0.19l-0.23,0.06l-1.43,0.44l-0.18,0.07l-1.37,0.58l-0.18,0.09l-1.3,0.72l-0.17,0.1l-1.23,0.84l-0.15,0.12l-1.14,0.97l-0.14,0.13l-1.04,1.07l-0.13,0.15l-0.93,1.16l-0.11,0.16l-0.81,1.26l-0.09,0.17l-0.68,1.32l-0.08,0.18l-0.54,1.39l-0.07,0.19l-0.4,1.43l-0.04,0.19l-0.26,1.47l-0.02,0.2l-0.11,1.48l-0.01,0.2l0.04,1.49l0.02,0.19l0.18,1.48l0.04,0.19l0.33,1.46l0.05,0.19l0.48,1.41l0.6,1.54l0.13,0.31l0.24,0.58l0.41,1.33l0.29,1.37l0.17,1.39l0.03,1.4l-0.09,1.22l-0.03,0.73l-0.02,0.66l0.04,1.48l0.02,0.19l0.18,1.46l0.03,0.19l0.33,1.43l0.05,0.19l0.46,1.4l0.07,0.18l0.6,1.34l0.09,0.17l0.73,1.28l0.1,0.16l0.85,1.21l0.12,0.15l0.96,1.11l0.14,0.14l1.06,1.01l0.53,0.45l0.5,0.41l1.13,0.89l1.06,1.02l0.95,1.11l0.84,1.2l0.72,1.27l0.59,1.34l0.45,1.39l0.32,1.43l0.18,1.45l0.04,1.46l-0.11,1.46l-0.25,1.45l-0.39,1.41l-0.52,1.36l-0.66,1.31l-0.78,1.24l-0.89,1.16l-1.01,1.06l-1.1,0.96l-1.2,0.85l-1.27,0.73l-1.33,0.6l-1.39,0.46l-1.42,0.33l-1.82,0.24l-3.88,0.31l-0.46,0.05l-0.54,0.06l-0.83,0.11l-0.19,0.04l-1.73,0.21l-1.4,0.03l-1.39,-0.09l-1.38,-0.22l-1.35,-0.35l-1.31,-0.47l-1.26,-0.59l-1.51,-0.89l-0.1,-0.06l-0.26,-0.17l-0.03,-0.02l-0.77,-0.45l-0.72,-0.39l-0.83,-0.42l-0.11,-0.05l-0.32,-0.14l-2.38,-1.04l-0.34,-0.15l-0.04,-0.02l-0.99,-0.36l-0.58,-0.19l-1.42,-0.39l-0.18,-0.04l-1.45,-0.26l-0.2,-0.02l-1.46,-0.11l-0.2,0l-1.47,0.04l-0.19,0.01l-1.46,0.18l-0.19,0.04l-1.44,0.32l-0.18,0.05l-1.4,0.47l-0.18,0.06l-1.34,0.6l-0.18,0.09l-1.28,0.73l-0.16,0.1l-1.2,0.85l-0.15,0.12l-1.12,0.96l-0.14,0.13l-1.01,1.07l-0.13,0.15l-0.9,1.16l-0.11,0.15l-0.79,1.25l-0.09,0.17l-0.66,1.31l-0.08,0.18l-0.53,1.37l-0.06,0.18l-0.39,1.42l-0.04,0.21l-0.25,1.43l-0.07,0.51l-0.33,1.88l-0.41,1.46l-0.56,1.42l-0.71,1.36l-0.84,1.27l-0.96,1.19l-1.08,1.08l-0.58,0.47l-0.5,0.43l-1.07,0.95l-0.8,0.77l-0.1,0.1l-0.29,0.3l-7.22,7.89l-0.2,0.22l-0.03,0.03l-0.55,0.66l-0.49,0.63l-0.54,0.73l-0.06,0.1l-0.19,0.28l-5.65,8.59l-0.16,0.25l-0.02,0.03l-0.43,0.73l-0.38,0.69l-0.41,0.8l-0.06,0.11l-0.13,0.3l-0.12,0.26l-0.86,1.67l-0.82,1.27l-0.93,1.17l-1.05,1.07l-1.16,0.97l-1.24,0.84l-1.32,0.72l-1.73,0.72l-1.23,0.44l-1.38,0.57l-0.16,0.08l-1.29,0.7l-0.17,0.1l-1.22,0.82l-0.15,0.11l-1.14,0.94l-0.14,0.13l-1.04,1.04l-0.13,0.15l-0.93,1.14l-0.11,0.15l-0.82,1.23l-0.1,0.16l-0.69,1.3l-0.08,0.18l-0.56,1.36l-0.06,0.18l-0.43,1.41l-0.04,0.19l-0.29,1.44l-0.03,0.19l-0.14,1.47l0,0.19l0,1.47l0.01,0.19l0.15,1.47l0.03,0.19l0.29,1.44l0.04,0.19l0.43,1.4l0.07,0.19l0.57,1.35l0.08,0.18l0.7,1.29l0.1,0.17l0.82,1.22l0.11,0.16l0.94,1.13l0.13,0.14l1.04,1.04l1.24,1.12l0.01,-0.01z" id="svg_91" stroke-width="5.71"/>
   <g class="stroke-group" fill="none" id="bicycle" stroke="black" stroke-width="5.71">
    <path d="m99.45,340.36c36.75,-87.05 156.56,-38.17 136,33.67" data-class="wheel" fill="none" id="svg_92" stroke="rgb(0, 0, 0)" stroke-linecap="round" stroke-linejoin="round" stroke-opacity="1" stroke-width="5.71"/>
    <path d="m225.2,325.48c31.64,37.8 -26.86,131.38 -48.89,83.76" data-class="wheel" fill="none" id="svg_93" stroke="rgb(0, 0, 0)" stroke-linecap="round" stroke-linejoin="round" stroke-opacity="1" stroke-width="5.71"/>
    <path d="m188.98,428.33c-78.36,24.84 -131.2,-78.19 -76.83,-128.85" data-class="wheel" fill="none" id="svg_94" stroke="rgb(0, 0, 0)" stroke-linecap="round" stroke-linejoin="round" stroke-opacity="1" stroke-width="5.71"/>
    <path d="m94.75,370.28c-7.22,-66.87 43.36,-111.29 121.42,-73.55" data-class="wheel" fill="none" id="svg_95" stroke="rgb(0, 0, 0)" stroke-linecap="round" stroke-linejoin="round" stroke-opacity="1" stroke-width="5.71"/>
    <path d="m341.17,304.75c56.45,-17.89 99.28,4.87 99.7,63.35" data-class="handlebar" fill="none" id="svg_96" stroke="rgb(0, 0, 0)" stroke-linecap="round" stroke-linejoin="round" stroke-opacity="1" stroke-width="5.71"/>
    <path d="m436.19,330.4c31.8,65.24 -47.71,138.77 -112.69,81.06" data-class="handlebar" fill="none" id="svg_97" stroke="rgb(0, 0, 0)" stroke-linecap="round" stroke-linejoin="round" stroke-opacity="1" stroke-width="5.71"/>
    <path d="m352.63,397.48c-26.11,42.49 -78.14,-27.71 -33.2,-83.36" data-class="wheel" fill="none" id="svg_98" stroke="rgb(0, 0, 0)" stroke-linecap="round" stroke-linejoin="round" stroke-opacity="1" stroke-width="5.71"/>
    <path d="m315.45,405.87c-27.98,-99.67 14.3,-180.7 44.23,-114.53" data-class="wheel" fill="none" id="svg_99" stroke="rgb(0, 0, 0)" stroke-linecap="round" stroke-linejoin="round" stroke-opacity="1" stroke-width="5.71"/>
    <path d="m148.86,354.92c31.44,-2.24 0.7,-8.14 34.46,62.06" data-class="wheel" fill="none" id="svg_100" stroke="rgb(0, 0, 0)" stroke-linecap="round" stroke-linejoin="round" stroke-opacity="1" stroke-width="5.71"/>
    <path d="m182.4,317.2c-18.03,72.94 -0.11,41.8 -104.2,18.18" data-class="wheel" fill="none" id="svg_101" stroke="rgb(0, 0, 0)" stroke-linecap="round" stroke-linejoin="round" stroke-opacity="1" stroke-width="5.71"/>
    <path d="m348.05,352.43c-3.52,-107.74 -3.52,-68.28 22.08,16.24" data-class="handlebar" fill="none" id="svg_102" stroke="rgb(0, 0, 0)" stroke-linecap="round" stroke-linejoin="round" stroke-opacity="1" stroke-width="5.71"/>
    <path d="m417.21,366.46c-23.86,-10.38 -57.62,-0.73 -106.52,-29.4" data-class="handlebar" fill="none" id="svg_103" stroke="rgb(0, 0, 0)" stroke-linecap="round" stroke-linejoin="round" stroke-opacity="1" stroke-width="5.71"/>
    <path d="m164.67,375.66c22.57,-31.98 39.68,-84.37 32.65,-92.27" data-class="seat" fill="none" id="svg_104" stroke="rgb(0, 0, 0)" stroke-linecap="round" stroke-linejoin="round" stroke-opacity="1" stroke-width="5.71"/>
    <path d="m203.59,306.86c7.58,-44.04 26.32,-57.59 8.79,-74.75" data-class="seat" fill="none" id="svg_105" stroke="rgb(0, 0, 0)" stroke-linecap="round" stroke-linejoin="round" stroke-opacity="1" stroke-width="5.71"/>
    <path d="m265.27,241.13c-41.02,3.61 -30.64,-2.21 49.45,-4.3" data-class="frame" fill="none" id="svg_106" stroke="rgb(0, 0, 0)" stroke-linecap="round" stroke-linejoin="round" stroke-opacity="1" stroke-width="5.71"/>
    <path d="m220.75,241.2c54.97,1.19 115.44,-7.32 102.82,3.71" data-class="frame" fill="none" id="svg_107" stroke="rgb(0, 0, 0)" stroke-linecap="round" stroke-linejoin="round" stroke-opacity="1" stroke-width="5.71"/>
    <path d="m311.65,209.4c32.6,103.04 36.52,101.57 9.93,98.61" data-class="frame" fill="none" id="svg_108" stroke="rgb(0, 0, 0)" stroke-linecap="round" stroke-linejoin="round" stroke-opacity="1" stroke-width="5.71"/>
    <path d="m350.93,306.24c-54.29,8.93 -73.44,21.38 -91.43,24.19" data-class="frame" fill="none" id="svg_109" stroke="rgb(0, 0, 0)" stroke-linecap="round" stroke-linejoin="round" stroke-opacity="1" stroke-width="5.71"/>
    <path d="m307.63,316.26c-20.82,41.89 -34.92,49.25 -140.15,35.64" data-class="seatpost" fill="none" id="svg_110" stroke="rgb(0, 0, 0)" stroke-linecap="round" stroke-linejoin="round" stroke-opacity="1" stroke-width="5.71"/>
    <path d="m260.05,353.94c-90.11,7.26 -97.04,-13.05 -111.03,2.4" data-class="seatpost" fill="none" id="svg_111" stroke="rgb(0, 0, 0)" stroke-linecap="round" stroke-linejoin="round" stroke-opacity="1" stroke-width="5.71"/>
    <path d="m270,329.96c-39.2,7.21 -29.78,-24.54 -47.42,-62.87" data-class="seatpost" fill="none" id="svg_112" stroke="rgb(0, 0, 0)" stroke-linecap="round" stroke-linejoin="round" stroke-opacity="1" stroke-width="5.71"/>
    <path d="m238.01,305.06c-19.2,-37.31 -19.44,-86.75 -31.29,-78.76" data-class="seatpost" fill="none" id="svg_113" stroke="rgb(0, 0, 0)" stroke-linecap="round" stroke-linejoin="round" stroke-opacity="1" stroke-width="5.71"/>
    <path d="m260.68,328.28c22.46,7.46 40.1,-22.88 51.07,-29.87" data-class="frame" fill="none" id="svg_114" stroke="rgb(0, 0, 0)" stroke-linecap="round" stroke-linejoin="round" stroke-opacity="1" stroke-width="5.71"/>
    <path d="m327.27,314.42c-50.75,99.68 -53.91,72.08 59.75,48.72" data-class="frame" fill="none" id="svg_115" stroke="rgb(0, 0, 0)" stroke-linecap="round" stroke-linejoin="round" stroke-opacity="1" stroke-width="5.71"/>
    <path d="m320.99,230.75c19.65,48.81 20.23,63.49 22.14,86.1" data-class="handlebar" fill="none" id="svg_116" stroke="rgb(0, 0, 0)" stroke-linecap="round" stroke-linejoin="round" stroke-opacity="1" stroke-width="5.71"/>
    <path d="m330.19,259.59c21.57,40.18 9.17,79.33 41.12,108.84" data-class="handlebar" fill="none" id="svg_117" stroke="rgb(0, 0, 0)" stroke-linecap="round" stroke-linejoin="round" stroke-opacity="1" stroke-width="5.71"/>
    <path d="m325.61,235.07c-22.6,-49.76 -24.95,-38.93 9.1,-41.24" data-class="fork" fill="none" id="svg_118" stroke="rgb(0, 0, 0)" stroke-linecap="round" stroke-linejoin="round" stroke-opacity="1" stroke-width="5.71"/>
    <path d="m318.3,204c26.75,-14.4 23.49,-37.83 -65.97,-24.92" data-class="fork" fill="none" id="svg_119" stroke="rgb(0, 0, 0)" stroke-linecap="round" stroke-linejoin="round" stroke-opacity="1" stroke-width="5.71"/>
    <path d="m228.93,217.5c-80.25,-7.05 -52.52,-24.5 -0.78,-1.32" data-class="pedal" fill="none" id="svg_120" stroke="rgb(0, 0, 0)" stroke-linecap="round" stroke-linejoin="round" stroke-opacity="1" stroke-width="5.71"/>
    <path d="m187.19,211.88c50.73,0.12 26.3,-18.62 46.33,-0.08" data-class="pedal" fill="none" id="svg_121" stroke="rgb(0, 0, 0)" stroke-linecap="round" stroke-linejoin="round" stroke-opacity="1" stroke-width="5.71"/>
    <path d="m201.51,232.67c-54.23,-40.61 -34.73,-19.73 21.5,-10.51" data-class="pedal" fill="none" id="svg_122" stroke="rgb(0, 0, 0)" stroke-linecap="round" stroke-linejoin="round" stroke-opacity="1" stroke-width="5.71"/>
    <path d="m172.33,225.54c66.74,2.69 16.02,-24.36 58.66,-13.81" data-class="pedal" fill="none" id="svg_123" stroke="rgb(0, 0, 0)" stroke-linecap="round" stroke-linejoin="round" stroke-opacity="1" stroke-width="5.71"/>
    <path d="m279.26,370.9c-26.5,-22.4 -32.47,4.43 -40.96,-64.52" data-class="seatpost" fill="none" id="svg_124" stroke="rgb(0, 0, 0)" stroke-linecap="round" stroke-linejoin="round" stroke-opacity="1" stroke-width="5.71"/>
    <path d="m284.03,353.5c-31.39,0.18 -40.34,3.72 -24.05,26.05" data-class="seat" fill="none" id="svg_125" stroke="rgb(0, 0, 0)" stroke-linecap="round" stroke-linejoin="round" stroke-opacity="1" stroke-width="5.71"/>
    <path d="m223.11,352.19c13.49,55.93 67.94,47.37 53.54,12.97" data-class="seat" fill="none" id="svg_126" stroke="rgb(0, 0, 0)" stroke-linecap="round" stroke-linejoin="round" stroke-opacity="1" stroke-width="5.71"/>
    <path d="m114.45,302.92c60.5,85.16 151.02,67.78 129.48,37.97" data-class="seat" fill="none" id="svg_127" stroke="rgb(0, 0, 0)" stroke-linecap="round" stroke-linejoin="round" stroke-opacity="1" stroke-width="5.71"/>
    <path d="m139.63,351.49c84.48,30.23 115.34,44.77 165.96,-37.6" data-class="seat" fill="none" id="svg_128" stroke="rgb(0, 0, 0)" stroke-linecap="round" stroke-linejoin="round" stroke-opacity="1" stroke-width="5.71"/>
    <path d="m237.29,352.95c-93.09,-1.18 -77.56,-22.23 -32.96,115.21" data-class="seatpost" fill="none" id="svg_129" stroke="rgb(0, 0, 0)" stroke-linecap="round" stroke-linejoin="round" stroke-opacity="1" stroke-width="5.71"/>
    <path d="m183.22,417.94c21.26,56.53 3.5,-4.33 24.24,48.5" data-class="seat" fill="none" id="svg_130" stroke="rgb(0, 0, 0)" stroke-linecap="round" stroke-linejoin="round" stroke-opacity="1" stroke-width="5.71"/>
    <path d="m168.39,409.19c-5.43,-80.33 -24.72,-125.55 -43.93,-131.93" data-class="wheel" fill="none" id="svg_131" stroke="rgb(0, 0, 0)" stroke-linecap="round" stroke-linejoin="round" stroke-opacity="1" stroke-width="5.71"/>
    <path d="m159.68,365.63c24.01,-25.23 16.73,-77.71 45.36,-95.49" data-class="wheel" fill="none" id="svg_132" stroke="rgb(0, 0, 0)" stroke-linecap="round" stroke-linejoin="round" stroke-opacity="1" stroke-width="5.71"/>
    <path d="m184.04,351.64c-16.31,11.01 -41.23,23.33 -79.26,44.72" data-class="seatpost" fill="none" id="svg_133" stroke="rgb(0, 0, 0)" stroke-linecap="round" stroke-linejoin="round" stroke-opacity="1" stroke-width="5.71"/>
    <path d="m154.75,360.7c-23.81,-6.58 42.85,28.3 123.46,36.73" data-class="seat" fill="none" id="svg_134" stroke="rgb(0, 0, 0)" stroke-linecap="round" stroke-linejoin="round" stroke-opacity="1" stroke-width="5.71"/>
    <path d="m350.59,323.12c-3.27,-23.57 -77.68,6.46 -12.09,-30.73" data-class="wheel" fill="none" id="svg_135" stroke="rgb(0, 0, 0)" stroke-linecap="round" stroke-linejoin="round" stroke-opacity="1" stroke-width="5.71"/>
    <path d="m372.82,368.25c16.36,-31.59 19.79,-92.82 30.81,-61.53" data-class="handlebar" fill="none" id="svg_136" stroke="rgb(0, 0, 0)" stroke-linecap="round" stroke-linejoin="round" stroke-opacity="1" stroke-width="5.71"/>
    <path d="m392.98,359.34c-33.12,30.74 -52.43,64.91 -84.73,39.25" data-class="handlebar" fill="none" id="svg_137" stroke="rgb(0, 0, 0)" stroke-linecap="round" stroke-linejoin="round" stroke-opacity="1" stroke-width="5.71"/>
    <path d="m351.68,331.35c-2.93,31.46 56.62,24.62 85.46,38.12" data-class="handlebar" fill="none" id="svg_138" stroke="rgb(0, 0, 0)" stroke-linecap="round" stroke-linejoin="round" stroke-opacity="1" stroke-width="5.71"/>
   </g>
  </g>
 </g>
</svg>