<?xml version="1.0"?>
<svg width="512" height="512" xmlns="http://www.w3.org/2000/svg" xmlns:svg="http://www.w3.org/2000/svg">
 <g class="layer">
  <title>Layer 1</title>
  <g id="svg_1" transform="translate(1 0) matrix(0.41499 0 0 0.448821 160.781 216.849)">
   <defs stroke-width="4">
    <style stroke-width="4">.white-box-bg { fill: white; stroke: none; }
      .stroke-group { stroke-linecap: round; stroke-linejoin: round; }</style>
   </defs>
   <path class="white-box-bg" d="m95.51,68.14l1.76,0.44l1.35,0.48l1.3,0.61l1.24,0.73l1.16,0.85l1.08,0.95l0.98,1.05l1.1,1.44l0.07,0.11l0.08,0.1l0.06,0.09l4.38,6.05l0.13,0.19l5.39,7.2l0.08,0.11l1.26,1.66l1,1.45l0.68,1.23l0.71,1.61l2.09,5.41l0.07,0.17l0.07,0.2l0.14,0.32l0.11,0.26l0.08,0.19l5.11,11.53l0.09,0.2l0.1,0.21l0.17,0.37l0.15,0.29l0.1,0.21l5.1,9.94l0.12,0.22l0.12,0.23l0.22,0.4l0.19,0.33l0.09,0.15l0.85,1.59l0.55,1.33l0.43,1.37l0.29,1.4l0.15,1.42l0.02,1.43l-0.12,1.43l-0.26,1.41l-0.38,1.38l-0.52,1.34l-0.97,1.92l0.01,0l-0.38,0.76l-0.09,0.22l-0.54,1.37l-0.06,0.18l-0.39,1.42l-0.04,0.19l-0.26,1.45l-0.02,0.19l-0.11,1.47l0,0.19l0.03,1.47l0.01,0.19l0.18,1.46l0.04,0.19l0.32,1.44l0.05,0.19l0.46,1.39l0.07,0.18l0.59,1.35l0.09,0.17l0.72,1.28l0.11,0.17l0.84,1.2l0.6,0.76l0.43,0.62l0.39,0.49l0.78,1.22l0.66,1.29l0.53,1.35l0.4,1.4l0.26,1.42l0.12,1.45l-0.02,1.45l-0.16,1.44l-0.29,1.42l-0.44,1.38l-0.56,1.34l-0.86,1.59l-0.77,1.26l-0.18,0.3l-0.19,0.34l-0.32,0.58l-0.24,0.48l-0.18,0.35l-2.62,5.4l-0.13,0.27l-0.14,0.31l-0.22,0.51l-0.18,0.42l-0.12,0.31l-2.44,6.24l-0.08,0.24l-0.1,0.26l-0.16,0.44l-0.12,0.37l-0.09,0.26l-2.24,7.12l-0.06,0.2l-0.07,0.22l-0.1,0.37l-0.09,0.31l-0.06,0.22l-2.05,8.03l-0.04,0.17l-0.04,0.18l-0.07,0.31l-0.06,0.26l-0.04,0.18l-1.82,8.75l-0.07,0.36l-0.02,0.11l-0.12,0.82l-0.37,2.18l-0.47,1.62l-0.25,0.58l-0.2,0.52l-0.46,1.23l-0.05,0.13l-0.67,1.84l-0.12,0.35l-0.02,0.04l-0.3,1l-0.15,0.58l-0.3,1.42l-0.03,0.18l-0.16,1.45l-0.03,0.55l-0.03,1.09l0,0.15l0.01,0.4l0.04,1.24l0.02,0.36l0,0.05l0.1,1.03l0.08,0.59l0.26,1.42l0.04,0.18l0.39,1.39l0.06,0.18l0.53,1.35l0.07,0.17l0.65,1.29l0.1,0.16l0.77,1.23l0.31,0.44l0.66,0.87l0.06,0.07l0.06,0.09l1.1,1.42l0.9,1.42l0.52,0.93l0.83,1.19l0.94,1.11l1.04,1.01l1.13,0.91l1.22,0.79l1.28,0.67l1.35,0.54l1.39,0.41l1.42,0.27l1.45,0.14l1.45,-0.01l1.44,-0.14l1.42,-0.29l1.39,-0.42l1.34,-0.55l1.29,-0.68l1.21,-0.8l0.43,-0.32l1.29,-0.76l1.35,-0.62l1.49,-0.52l1.51,-0.36l1.46,-0.2l1.47,-0.05l1.47,0.09l1.46,0.24l1.43,0.37l1.38,0.52l1.33,0.65l1.25,0.77l1.17,0.9l1.08,1.01l0.98,1.1l0.86,1.2l0.74,1.28l0.61,1.36l0.68,1.31l0.79,1.23l0.91,1.16l1.02,1.05l1.12,0.95l1.21,0.84l1.28,0.71l1.35,0.59l0.3,0.1l-0.12,0.01l-1.44,0.26l-1.4,0.41l-1.36,0.53l-1.29,0.67l-1.23,0.79l-1.14,0.91l-1.05,1.01l-0.95,1.11l-1.25,1.61l-1.01,1.08l-1.05,0.93l-1.15,0.83l-1.21,0.71l-1.28,0.6l-1.33,0.48l-1.36,0.35l-1.4,0.22l-1.41,0.09l-1.41,-0.05l-1.4,-0.17l-1.37,-0.31l-1.52,-0.5l-1.36,-0.6l-1.29,-0.74l-1.22,-0.86l-1.13,-0.98l-1.02,-1.08l-0.91,-1.19l-0.97,-1.55l-0.36,-0.67l-0.83,-1.2l-0.94,-1.11l-1.04,-1.02l-1.14,-0.91l-1.21,-0.8l-1.3,-0.68l-1.35,-0.55l-1.39,-0.41l-1.43,-0.28l-1.46,-0.13l-1.45,0l-1.45,0.15l-1.43,0.28l-1.4,0.43l-1.34,0.56l-1.29,0.68l-1.21,0.81l-0.37,0.26l-1.28,0.77l-1.36,0.63l0,0l-0.63,0.24l-1.32,0.52l-1.34,0.62l-0.17,0.09l-1.27,0.74l-0.16,0.1l-1.19,0.87l-0.15,0.12l-1.1,0.97l-0.14,0.14l-1,1.08l-0.13,0.14l-0.89,1.18l-0.11,0.15l-0.77,1.26l-0.09,0.17l-0.65,1.32l-0.07,0.18l-0.51,1.38l-0.06,0.18l-0.38,1.42l-0.04,0.22l-0.23,1.43l-0.04,0.33l-0.23,1.57l-0.07,0.36l-0.17,1.25l-0.04,0.43l-0.07,1.3l0.04,1.29l0.03,0.39l0.15,1.27l0.05,0.32l0.3,1.42l0.44,1.39l0.29,0.78l0.57,1.33l0.69,1.27l0.16,0.27l0.68,1.02l0.19,0.26l0.83,1.04l0.92,0.96l0.32,0.3l1.08,0.94l0.14,0.12l1.17,0.83l0.31,0.2l1.25,0.73l1.32,0.6l0.36,0.14l1.39,0.48l0.18,0.05l1.42,0.34l0.7,0.13l0.61,0.1l1.47,0.21l1.46,0.36l1.41,0.51l1.36,0.64l1.28,0.78l1.2,0.9l1.1,1.02l1,1.12l0.88,1.22l0.75,1.3l0.62,1.37l0.48,1.42l0.34,1.46l0.18,1.5l0.04,1.5l-0.12,1.49l-0.33,1.85l-0.06,0.27l-0.25,1.38l-0.02,0.17l-0.29,1.6l-0.34,1.26l-0.45,1.22l-0.25,0.74l-0.15,0.51l-0.37,1.43l-0.04,0.19l-0.22,1.45l-0.02,0.19l-0.08,1.47l0,0.19l0.06,1.48l0.02,0.19l0.21,1.45l0.04,0.19l0.35,1.43l0.05,0.19l0.49,1.39l0.07,0.17l0.63,1.34l0.09,0.17l0.75,1.26l0.1,0.17l0.87,1.18l0.12,0.15l0.99,1.1l0.13,0.13l1.09,1l0.15,0.12l1.17,0.88l0.16,0.11l1.26,0.76l0.17,0.1l1.33,0.63l0.18,0.08l1.38,0.5l0.18,0.06l1.43,0.36l0.19,0.04l1.45,0.22l0.19,0.02l1.47,0.08l0.2,0l1.47,-0.06l0.19,-0.02l1.46,-0.21l0.19,-0.03l1.43,-0.35l0.18,-0.06l1.39,-0.49l0.18,-0.07l1.33,-0.62l0.17,-0.09l1.27,-0.75l0.16,-0.11l1.18,-0.87l1.3,-1.05l0,0l0.26,-0.2l0.26,-0.22l1.15,-0.81l1.23,-0.69l1.28,-0.58l1.33,-0.45l1.36,-0.33l1.4,-0.2l1.75,-0.08l0.41,0l1.43,0.05l1.96,0.12l1.51,0.15l2.47,0.33l1.49,0.24l3.16,0.64l1.42,0.33l3.97,1.07l1.32,0.4l4.87,1.64l1.19,0.44l5.84,2.33l1.07,0.46l6.84,3.16l0.95,0.47l5.15,2.68l1.48,0.85l1.11,0.79l1.04,0.89l0.95,0.98l0.54,0.67l0.49,0.56l0.54,0.6l1.03,1.05l0.14,0.13l1.14,0.94l0.15,0.12l1.22,0.82l0.48,0.29l0.96,0.54l0.14,0.07l0.37,0.18l11.57,5.51l0.24,0.11l0.3,0.14l0.15,0.06l1.78,0.85l1.29,0.78l1.2,0.91l1.1,1.02l1,1.13l0.88,1.22l0.75,1.3l0.61,1.38l0.48,1.42l0.33,1.47l0.23,1.87l0,0.06l0.01,0.14l0.4,6.2l0,0.12l0.27,4.49l0.02,1.63l-0.11,1.64l-0.05,0.42l-0.24,1.55l-1,5.35l-0.4,1.73l-1.26,4.67l-0.6,1.87l-1.5,4.08l-0.83,1.96l-1.72,3.61l-1.07,1.98l-2,3.28l-1.3,1.9l-2.35,3.1l-1.48,1.75l-2.84,3.05l-1.59,1.54l-3.5,3.07l-1.63,1.31l-4.31,3.13l-1.61,1.06l-5.27,3.17l-1.53,0.85l-6.33,3.17l-1.42,0.65l-7.48,3.11l-1.29,0.49l-8.68,3.01l-1.16,0.36l-10.45,3l-0.36,0.11l-0.04,0.01l-1,0.35l-0.56,0.23l-1.35,0.6l-0.17,0.09l-1.27,0.73l-0.17,0.1l-1.19,0.86l-0.15,0.12l-1.11,0.97l-0.14,0.13l-1.01,1.07l-0.13,0.15l-0.89,1.17l-0.11,0.15l-0.78,1.25l-0.1,0.17l-0.65,1.32l-0.08,0.18l-0.52,1.37l-0.06,0.19l-0.38,1.42l-0.04,0.18l-0.25,1.46l-0.02,0.19l-0.1,1.47l0,0.19l0.04,1.47l0.02,0.19l0.19,1.46l0.03,0.19l0.33,1.44l0.06,0.18l0.47,1.4l0.07,0.18l0.6,1.34l0.09,0.17l0.73,1.27l0.11,0.17l0.85,1.2l0.12,0.15l0.97,1.1l0.13,0.14l1.08,1.01l0.14,0.13l1.17,0.9l0.16,0.11l1.24,0.78l0.17,0.09l1.32,0.65l0.18,0.08l1.37,0.52l0.19,0.06l1.42,0.38l0.19,0.04l1.45,0.25l0.19,0.02l1.47,0.1l0.19,0l1.47,-0.04l0.19,-0.02l1.46,-0.19l0.55,-0.1l1.09,-0.23l0.14,-0.04l0.4,-0.11l11.24,-3.22l0.2,-0.06l0.22,-0.06l0.36,-0.12l0.29,-0.1l0.22,-0.07l10.4,-3.6l0.22,-0.08l0.24,-0.08l0.41,-0.16l0.32,-0.13l0.24,-0.1l9.39,-3.91l0.24,-0.1l0.27,-0.11l0.44,-0.21l0.36,-0.17l0.26,-0.13l8.41,-4.21l0.26,-0.13l0.29,-0.15l0.48,-0.27l0.39,-0.22l0.28,-0.16l7.48,-4.51l0.27,-0.16l0.31,-0.2l0.5,-0.33l0.41,-0.28l0.29,-0.21l6.6,-4.78l0.28,-0.21l0.31,-0.24l0.51,-0.41l0.41,-0.34l0.3,-0.25l5.77,-5.07l0.28,-0.25l0.3,-0.28l0.5,-0.49l0.4,-0.4l0.29,-0.3l5.01,-5.36l0.25,-0.29l0.29,-0.32l0.46,-0.55l0.37,-0.45l0.27,-0.34l4.3,-5.67l0.23,-0.31l0.25,-0.35l0.41,-0.6l0.32,-0.49l0.23,-0.37l3.65,-6.01l0.19,-0.32l0.21,-0.36l0.34,-0.62l0.26,-0.51l0.19,-0.38l3.05,-6.38l0.15,-0.32l0.17,-0.36l0.26,-0.62l0.2,-0.5l0.14,-0.37l2.49,-6.78l0.11,-0.31l0.12,-0.35l0.19,-0.59l0.14,-0.48l0.1,-0.35l1.95,-7.2l0.08,-0.29l0.08,-0.32l0.12,-0.55l0.08,-0.36l0.03,-0.11l0.32,-1.4l0.39,-1.19l0.58,-1.42l0.29,-0.74l0.5,-1.41l0.7,-1.7l0.69,-1.3l0.81,-1.22l0.93,-1.14l1.04,-1.04l1.13,-0.94l1.22,-0.82l1.29,-0.7l1.36,-0.56l1.4,-0.44l0.92,-0.18l0.67,-0.15l0.87,-0.22l1.41,-0.43l0.18,-0.06l1.36,-0.57l0.17,-0.08l1.3,-0.69l0.17,-0.1l1.22,-0.82l0.15,-0.12l1.14,-0.93l0.14,-0.13l1.04,-1.04l0.13,-0.14l0.94,-1.14l0.11,-0.16l0.82,-1.22l0.13,-0.21l0.32,-0.57l1.09,-2.02l0.86,-1.26l0.98,-1.17l1.1,-1.06l1.19,-0.94l1.29,-0.82l1.36,-0.68l1.43,-0.54l1.84,-0.49l5.41,-1.15l5.82,-1.23l0.65,-0.13l4.75,-0.86l1.26,-0.19l3.92,-0.48l1.78,-0.15l3.4,-0.14l2.15,0.01l3.3,0.17l2.33,0.25l3.69,0.58l2.29,0.49l4.53,1.21l2.08,0.66l5.7,2.14l1.76,0.74l1.65,0.9l1.26,0.86l1.17,0.98l1.06,1.09l0.94,1.2l1.03,1.61l0.44,0.78l0.76,1.21l0.14,0.19l0.9,1.17l0.13,0.14l1.01,1.07l0.14,0.14l1.11,0.96l0.15,0.12l1.2,0.85l0.16,0.11l1.28,0.73l0.17,0.08l1.35,0.6l0.18,0.07l1.39,0.47l0.19,0.05l1.43,0.33l0.19,0.03l1.46,0.19l0.2,0.01l1.47,0.04l0.19,0l1.47,-0.1l0.19,-0.03l1.45,-0.24l0.19,-0.05l1.42,-0.38l0.18,-0.06l1.38,-0.53l0.17,-0.08l1.32,-0.65l0.17,-0.1l1.24,-0.78l0.16,-0.11l1.16,-0.9l0.15,-0.13l1.07,-1.01l0.13,-0.14l0.97,-1.11l0.12,-0.15l0.85,-1.2l0.1,-0.17l0.73,-1.27l0.09,-0.18l0.6,-1.34l0.07,-0.18l0.47,-1.4l0.05,-0.18l0.33,-1.44l0.03,-0.19l0.18,-1.46l0.02,-0.19l0.04,-1.47l0,-0.19l-0.11,-1.47l-0.02,-0.19l-0.25,-1.45l-0.04,-0.19l-0.39,-1.42l-0.49,-1.51l-0.09,-0.28l-0.3,-0.85l-0.35,-1.45l-0.2,-1.48l-0.06,-1.5l0.1,-1.49l0.24,-1.47l0.39,-1.44l0.53,-1.4l0.67,-1.34l0.79,-1.26l0.92,-1.18l1.03,-1.08l1.14,-0.97l1.22,-0.86l1.31,-0.73l1.37,-0.59l1.42,-0.46l1.46,-0.31l1.87,-0.2l13.49,-2.87l0.05,0l14.78,-1l0.04,0l22.89,-15.12l0.03,0l17.02,-1.23l0.02,0l18.17,-1.34l0.02,0l18.98,-1.42l0.37,-0.03l0.05,0l1.04,-0.14l0.6,-0.11l1.44,-0.32l0.18,-0.05l1.4,-0.46l0.18,-0.06l1.35,-0.6l0.17,-0.08l1.28,-0.73l0.17,-0.1l1.2,-0.84l0.16,-0.12l1.11,-0.96l0.14,-0.13l1.02,-1.07l0.12,-0.14l0.91,-1.16l0.11,-0.16l0.79,-1.24l0.1,-0.17l0.66,-1.31l0.08,-0.18l0.54,-1.37l0.06,-0.18l0.39,-1.42l-7.96,5.81l0.26,-1.45l0.02,-0.19l0.11,-1.47l0.01,-0.19l-0.03,-1.47l3.98,3.81l-0.17,-1.46l-0.04,-0.19l-0.32,0.56l-0.05,-0.19l-0.46,-1.4l-0.06,-0.17l-0.6,-1.35l-0.08,-0.17l0.27,1.71l-0.1,-0.16l-0.84,-1.2l-0.12,-0.16l-0.96,-1.11l-0.13,-0.14l-1.07,-1.02l-0.14,-0.13l-5.16,0.1l-0.16,-0.12l-1.24,-0.79l-0.17,-0.09l-1.31,-0.67l-0.18,-0.07l-1.37,-0.54l-0.18,-0.06l-1.42,-0.39l-0.19,-0.05l-1.45,-0.25l-0.19,-0.02l-1.47,-0.12l-0.55,-0.01l-1.11,0.01l-0.15,0.01l-0.41,0.02l-18.9,1.41l-18.14,1.34l-13.97,0.22l-18.83,2.11l-14.69,1l-13.57,0.87l-12.49,0.74l-0.13,0.01l-11.24,0.6l-0.17,0.01l-10.12,0.47l-0.21,0.01l-8.99,0.33l-0.28,0.01l-7.83,0.2l-0.37,0l-6.65,0.06l-0.49,0l-5.38,-0.07l-0.69,-0.02l-3.99,-0.18l-0.98,-0.06l-0.22,-0.02l-1.86,-0.26l-1.46,-0.35l-1.42,-0.5l-1.44,-0.67l-0.62,-0.28l-0.54,-0.22l-1.39,-0.5l-0.18,-0.05l-1.43,-0.36l-0.19,-0.04l-1.45,-0.22l-0.19,-0.02l-1.47,-0.07l-0.2,0l-1.47,0.07l-0.19,0.02l-1.46,0.22l-0.18,0.03l-1.43,0.36l-0.19,0.06l-1.38,0.49l-0.18,0.08l-1.33,0.62l-0.75,0.41l-0.71,0.33l-0.86,0.45l-1.52,0.61l-2.14,0.59l-0.21,0.05l-0.67,0.18l-0.55,0.16l-0.4,0.13l-2.88,0.93l-0.33,0.11l-0.36,0.13l-0.62,0.23l-0.49,0.2l-0.36,0.15l-3.01,1.3l-0.31,0.13l-0.34,0.16l-0.56,0.27l-0.46,0.23l-0.33,0.17l-3.08,1.67l-0.28,0.16l-0.32,0.18l-0.53,0.31l-0.43,0.27l-0.3,0.2l-3.08,2.03l-0.27,0.18l-0.3,0.21l-0.5,0.36l-0.41,0.3l-0.29,0.23l-1.8,1.43l-1.52,1.08l-1.29,0.74l-1.35,0.61l-1.41,0.47l-1.45,0.33l-1.48,0.19l-1.48,0.04l-1.48,-0.11l-1.47,-0.26l-1.43,-0.4l-1.38,-0.54l-1.33,-0.67l-1.25,-0.81l-1.17,-0.92l-1.06,-1.03l-0.97,-1.14l-0.84,-1.22l-0.72,-1.3l-0.58,-1.37l-0.45,-1.42l-0.38,-1.82l-0.04,-0.23l-0.03,-0.19l-1.1,-6.46l-0.04,-0.2l-1.22,-6.58l-0.04,-0.2l-1.34,-6.73l-0.04,-0.19l-1.46,-6.91l-0.04,-0.18l-1.25,-5.53l-0.32,-1.83l-0.11,-1.49l0.04,-1.49l0.19,-1.48l0.33,-1.45l0.48,-1.42l0.61,-1.35l0.75,-1.29l0.87,-1.21l0.98,-1.12l1.1,-1.01l1.19,-0.9l1.27,-0.78l1.34,-0.65l1.75,-0.64l0.96,-0.29l1.34,-0.49l0.22,-0.09l1.33,-0.63l0.17,-0.09l1.26,-0.76l0.16,-0.11l1.18,-0.88l0.15,-0.12l1.09,-1l0.13,-0.13l0.99,-1.09l0.13,-0.17l0.86,-1.17l0.28,-0.41l1.15,-1.55l1.04,-1.14l1.16,-1.02l1.25,-0.9l1.34,-0.77l1.41,-0.62l1.46,-0.48l1.51,-0.32l1.88,-0.2l0.44,-0.02l6.98,-0.22l0.54,-0.01l7.44,-0.05l0.52,0.01l7.77,0.13l0.53,0.01l7.98,0.32l0.54,0.03l7.12,0.46l1.94,0.22l1.53,0.34l1.48,0.5l1.77,0.81l0.09,0.05l0.52,0.28l6.04,3.36l0.32,0.17l0.04,0.02l0.96,0.46l0.55,0.24l1.38,0.53l0.18,0.06l1.42,0.38l0.19,0.04l1.45,0.25l0.21,0.02l1.45,0.1l0.28,0.01l1.97,0.15l1.56,0.28l1.52,0.44l1.46,0.6l0.81,0.44l0.56,0.29l0.94,0.46l1.35,0.58l0.18,0.07l1.41,0.44l0.18,0.05l1.44,0.31l0.19,0.03l1.47,0.16l0.19,0.01l1.47,0.02l0.19,-0.01l1.47,-0.13l0.19,-0.02l1.45,-0.27l0.19,-0.05l1.41,-0.41l0.18,-0.06l1.37,-0.55l0.17,-0.08l1.31,-0.67l0.17,-0.1l1.23,-0.8l0.16,-0.12l1.14,-0.92l0.15,-0.12l1.05,-1.03l0.13,-0.14l0.95,-1.13l0.12,-0.15l0.83,-1.22l0.1,-0.16l0.71,-1.29l0.08,-0.17l0.58,-1.36l0.07,-0.18l0.45,-1.4l0.04,-0.19l0.31,-1.44l0.03,-0.19l0.16,-1.46l0.01,-0.19l0.02,-1.47l-0.02,-0.56l-0.08,-1.11l-0.02,-0.15l-0.05,-0.4l-1.77,-12.76l-0.04,-0.24l-0.04,-0.28l-0.08,-0.46l-0.07,-0.38l-0.06,-0.27l-2.43,-11.72l-0.06,-0.27l-0.07,-0.29l-0.12,-0.5l-0.1,-0.4l-0.08,-0.29l-3.01,-10.58l-0.08,-0.28l-0.1,-0.31l-0.17,-0.52l-0.14,-0.42l-0.11,-0.31l-3.52,-9.48l-0.11,-0.29l-0.13,-0.33l-0.23,-0.54l-0.19,-0.44l-0.14,-0.32l-3.96,-8.44l-0.15,-0.3l-0.16,-0.33l-0.29,-0.56l-0.25,-0.44l-0.18,-0.33l-4.33,-7.44l-0.18,-0.3l-0.21,-0.33l-0.36,-0.56l-0.3,-0.44l-0.22,-0.32l-4.65,-6.51l-0.22,-0.3l-0.24,-0.32l-0.43,-0.54l-0.18,-0.22l-0.2,-0.28l-0.89,-1.12l-0.8,-1.25l-0.67,-1.31l-0.53,-1.38l-0.4,-1.42l-0.26,-1.46l-0.11,-1.47l0.03,-1.47l0.18,-1.47l0.32,-1.44l0.46,-1.4l0.6,-1.36l0.72,-1.28l0.85,-1.21l1.21,-1.4l0.03,-0.03l0.19,-0.2l4.66,-5.06l0.14,-0.16l0.16,-0.19l0.27,-0.3l0.21,-0.26l0.16,-0.18l4.99,-6.11l0.11,-0.13l0.12,-0.15l0.2,-0.26l0.16,-0.2l0.11,-0.16l5.39,-7.23l0.08,-0.11l0.09,-0.12l0.15,-0.2l0.11,-0.17l0.09,-0.12l5.82,-8.44l0.06,-0.08l0.07,-0.1l0.11,-0.16l0.08,-0.13l0.07,-0.1l6.3,-9.69l0.04,-0.07l0.05,-0.07l0.08,-0.13l0.07,-0.1l0.05,-0.08l6.73,-10.85l0.13,-0.21l7.43,-12.42l0.18,-0.32l0.32,-0.55l0.9,-1.44l0.82,-1.09l0.92,-1l1.01,-0.91l1.08,-0.83l1.45,-0.89l0.24,-0.14l0.29,-0.17l0.32,-0.19l0.53,-0.32l0.42,-0.28l0.31,-0.2l1.43,-0.98l0.31,-0.22l0.04,-0.03l0.85,-0.67l0.48,-0.4l1.11,-1.02l0.14,-0.14l0.99,-1.14l0.13,-0.15l0.88,-1.23l0.1,-0.16l0.75,-1.31l0.26,-0.51l0.48,-1.03l0.06,-0.15l0.16,-0.39l0.03,-0.08l0.12,-0.34l0.02,-0.05l0.32,-1l0.16,-0.58l0.32,-1.42l0.04,-0.19l0.18,-1.45l0.02,-0.19l0.04,-1.46l-0.01,-0.19l-0.1,-1.46l-0.02,-0.19l-0.24,-1.44l-0.04,-0.19l-0.38,-1.41l-0.06,-0.18l-0.52,-1.37l-0.07,-0.17l-0.65,-1.31l-0.09,-0.17l-0.77,-1.24l-0.11,-0.16l-0.89,-1.16l-0.12,-0.14l-1,-1.07l-0.14,-0.13l-1.09,-0.97l-0.15,-0.12l-1.19,-0.85l-0.16,-0.11l-1.26,-0.73l-0.17,-0.09l-1.32,-0.61l-0.18,-0.07l-1.38,-0.48l-0.53,-0.16l-1.07,-0.27l-0.14,-0.03l-0.41,-0.08l-0.73,-0.13l-0.44,-0.08l-0.05,-0.01l-1.25,-0.14l-1.15,-0.08l-1.32,-0.03l-0.18,0l-0.49,0.02l-2.92,0.14l-0.2,0.01l-0.22,0.02l-0.37,0.02l-0.3,0.03l-0.22,0.02l-5.37,0.55l-0.21,0.03l-8.37,0.98l-0.03,0l-10.54,1.25l-13.16,1.5l-0.17,0.02l-4.26,0.45l-1.55,0.11l-1.56,-0.03l-5.36,-0.33l-0.18,-0.01l-0.2,0l-0.34,-0.02l-0.28,0l-0.2,-0.01l-6.39,-0.08l-0.23,0l-0.26,0l-0.43,0.01l-0.35,0.01l-0.25,0.01l-6.09,0.3l-0.28,0.02l-0.31,0.02l-0.53,0.04l-0.43,0.05l-0.31,0.03l-5.74,0.72l-0.34,0.04l-0.37,0.06l-0.63,0.1l-0.51,0.1l-0.37,0.08l-2.44,0.53l-1.78,0.3l-1.44,0.1l-1.44,-0.04l-1.44,-0.18l-1.41,-0.31l-1.37,-0.45l-1.32,-0.58l-1.26,-0.7l-1.19,-0.83l-1.1,-0.93l-1.01,-1.03l-0.91,-1.13l-0.79,-1.21l-0.84,-1.6l-4.06,-8.74l-0.13,-0.26l-0.14,-0.3l-0.25,-0.49l-0.21,-0.39l-0.16,-0.29l-5.18,-9.2l-0.13,-0.23l-0.15,-0.26l-0.27,-0.44l-0.22,-0.35l-0.16,-0.25l-6.38,-9.62l-0.14,-0.21l-0.16,-0.23l-0.27,-0.39l-0.23,-0.31l-0.16,-0.22l-0.9,-1.18l-1.06,-1.54l-0.72,-1.31l-0.58,-1.37l-0.45,-1.42l-0.3,-1.47l-0.15,-1.48l-0.01,-1.87l0.02,-0.43l0,-1.43l-0.01,-0.23l-0.15,-1.47l-0.03,-0.19l-0.28,-1.44l-0.05,-0.19l-0.43,-1.41l-0.06,-0.18l-0.56,-1.36l-0.09,-0.17l-0.69,-1.3l-0.1,-0.17l-0.82,-1.22l-0.11,-0.16l-0.94,-1.13l-0.12,-0.15l-1.05,-1.04l-1.19,-1.08l-0.32,-0.29l-0.58,-0.49l-1.49,-1.61l-0.55,-0.67l-0.95,-1.06l-0.17,-0.16l-1.09,-1l-0.15,-0.12l-1.18,-0.88l-0.16,-0.11l-1.26,-0.76l-0.17,-0.09l-1.33,-0.63l-0.17,-0.08l-1.39,-0.5l-0.18,-0.05l-1.43,-0.36l-0.19,-0.04l-1.45,-0.22l-0.2,-0.02l-1.47,-0.08l-0.19,0l-1.47,0.07l-0.19,0.02l-1.46,0.21l-0.19,0.04l-1.42,0.35l-0.19,0.06l-1.39,0.49l-0.17,0.07l-1.34,0.63l-0.17,0.09l-1.26,0.75l-0.16,0.11l-1.19,0.87l-0.15,0.12l-1.09,0.99l-0.14,0.13l-0.99,1.09l-0.35,0.43l-0.68,0.88l-0.08,0.12l-0.24,0.34l-2.98,4.46l-0.62,0.89l-2.66,3.59l-0.59,0.77l-2.72,3.36l-0.52,0.62l-2.85,3.27l-0.39,0.44l-3.05,3.32l-0.21,0.23l-3.31,3.5l-3.23,3.42l-0.15,0.17l-3.35,3.65l-0.09,0.1l-0.08,0.09l-0.15,0.17l-0.12,0.14l-0.08,0.1l-2.9,3.37l-0.11,0.13l-0.13,0.16l-0.21,0.26l-0.17,0.21l-0.13,0.15l-2.65,3.42l-0.14,0.18l-0.16,0.2l-0.25,0.35l-0.21,0.29l-0.14,0.21l-2.43,3.55l-0.15,0.22l-0.17,0.25l-0.27,0.43l-0.22,0.35l-0.15,0.26l-2.21,3.78l-0.15,0.26l-0.16,0.29l-0.26,0.48l-0.12,0.24l-0.9,1.58l-0.85,1.18l-0.95,1.1l-1.05,1l-1.15,0.89l-1.23,0.78l-1.3,0.66l-1.35,0.52l-1.4,0.39l-1.43,0.26l-1.45,0.12l-1.45,-0.03l-1.45,-0.17l-1.42,-0.3l-1.73,-0.55l-6.57,-2.46l-0.25,-0.09l-0.29,-0.1l-0.48,-0.16l-0.4,-0.13l-0.29,-0.08l-8.29,-2.43l-0.18,-0.06l-0.21,-0.05l-0.34,-0.09l-0.28,-0.08l-0.2,-0.05l-9.3,-2.22l-0.12,-0.03l-0.13,-0.03l-0.22,-0.05l-0.18,-0.04l-0.14,-0.02l-10.1,-2.08l-0.25,-0.05l-11.57,-2.17l-0.08,-0.01l-4.48,-0.82l-1.75,-0.4l-1.35,-0.45l-1.31,-0.59l-1.56,-0.88l-3.66,-2.3l-0.32,-0.2l-0.36,-0.21l-0.61,-0.35l-0.51,-0.27l-0.37,-0.19l-3.28,-1.63l-0.3,-0.15l-0.03,-0.01l-0.88,-0.38l-0.5,-0.2l-1.25,-0.43l-0.48,-0.15l-0.96,-0.25l-0.13,-0.03l-0.36,-0.07l-1.64,-0.33l-0.37,-0.07l-0.04,-0.01l-1.06,-0.15l-0.61,-0.06l-1.48,-0.08l-0.2,0l-1.48,0.07l-0.19,0.02l-1.47,0.22l-0.19,0.03l-1.44,0.36l-0.31,0.1l-0.64,0.21l-2,0.7l-1.46,0.36l-1.49,0.21l-1.5,0.05l-1.5,-0.09l-1.85,-0.3l-8.17,-1.77l-0.5,-0.11l-15.13,-3.63l-0.36,-0.08l-0.04,-0.01l-1.04,-0.18l-0.61,-0.09l-1.46,-0.13l-0.19,-0.01l-1.48,0.01l-0.19,0.01l-1.46,0.16l-0.19,0.02l-1.44,0.3l-0.19,0.05l-1.41,0.44l-0.18,0.06l-1.35,0.58l-0.18,0.08l-1.29,0.7l-0.16,0.1l-1.22,0.83l-0.16,0.12l-1.13,0.94l-0.14,0.13l-1.03,1.05l-0.13,0.14l-0.93,1.14l-0.11,0.16l-0.81,1.23l-0.1,0.17l-0.68,1.3l-0.08,0.17l-0.56,1.37l-0.06,0.18l-0.42,1.41l-0.04,0.19l-0.28,1.44l-0.03,0.19l-0.13,1.47l-0.01,0.19l0.01,1.47l0.01,0.2l0.16,1.46l0.03,0.19l0.3,1.44l0.04,0.19l0.44,1.4l0.07,0.18l0.57,1.36l0.08,0.17l0.71,1.3l0.1,0.16l0.82,1.22l0.12,0.15l0.94,1.13l0.13,0.15l1.05,1.03l0.14,0.13l1.15,0.92l0.15,0.12l1.23,0.81l0.17,0.09l1.3,0.69l0.18,0.08l1.36,0.55l0.53,0.19l1.05,0.32l0.15,0.04l0.4,0.11l15.44,3.7l0.08,0.02l0.09,0.02l0.16,0.03l0.12,0.03l0.1,0.02l14.82,3.2l0.07,0.02l0.07,0.01l0.07,0.02z" id="svg_2" stroke-width="4"/>
   <g class="stroke-group" fill="none" id="flower" stroke="black" stroke-width="5.71">
    <path d="m274.47,191.24c-28.91,18.06 -33.28,36.02 -26.02,100.59" data-class="leaf" fill="none" id="svg_3" stroke="rgb(0, 0, 0)" stroke-linecap="round" stroke-linejoin="round" stroke-width="4"/>
    <path d="m246.94,242.07c-4.76,8.81 3.77,60.78 11.59,109.75" data-class="leaf" fill="none" id="svg_4" stroke="rgb(0, 0, 0)" stroke-linecap="round" stroke-linejoin="round" stroke-width="4"/>
    <path d="m248,289.95c12.51,48.51 15.41,81.11 17.71,124.09" data-class="leaf" fill="none" id="svg_5" stroke="rgb(0, 0, 0)" stroke-linecap="round" stroke-linejoin="round" stroke-width="4"/>
    <path d="m265.11,366.33c6.4,65.94 -9.29,107.62 -87.51,127.98" data-class="leaf" fill="none" id="svg_6" stroke="rgb(0, 0, 0)" stroke-linecap="round" stroke-linejoin="round" stroke-width="4"/>
    <path d="m247.76,366.03c-44.86,-71.84 -110.74,-57.57 -99.77,-57.87" data-class="petal" fill="none" id="svg_7" stroke="rgb(0, 0, 0)" stroke-linecap="round" stroke-linejoin="round" stroke-width="4"/>
    <path d="m124.29,295.45c-7.09,-4.05 -1,5.78 -3.05,-3.83" data-class="petal" fill="none" id="svg_8" stroke="rgb(0, 0, 0)" stroke-linecap="round" stroke-linejoin="round" stroke-width="4"/>
    <path d="m145.77,301.95c4.69,14.14 9.61,27.06 1.13,41.65" data-class="petal" fill="none" id="svg_9" stroke="rgb(0, 0, 0)" stroke-linecap="round" stroke-linejoin="round" stroke-width="4"/>
    <path d="m148.97,335.55c10.11,4.91 29.33,-17.36 110.1,39.21" data-class="petal" fill="none" id="svg_10" stroke="rgb(0, 0, 0)" stroke-linecap="round" stroke-linejoin="round" stroke-width="4"/>
    <path d="m290.9,391.74c7.43,-37.9 46.19,-50.2 54.87,-38.28" data-class="petal" fill="none" id="svg_11" stroke="rgb(0, 0, 0)" stroke-linecap="round" stroke-linejoin="round" stroke-width="4"/>
    <path d="m337.06,346.28c0.89,7.25 146.47,-7.06 186.95,-16.54" data-class="petal" fill="none" id="svg_12" stroke="rgb(0, 0, 0)" stroke-linecap="round" stroke-linejoin="round" stroke-width="4"/>
    <path d="m373.12,372.66c33.99,4.9 137.45,-71.78 153.98,-37.93" data-class="petal" fill="none" id="svg_13" stroke="rgb(0, 0, 0)" stroke-linecap="round" stroke-linejoin="round" stroke-width="4"/>
    <path d="m387.56,381.38c-65.92,-34.6 -74.07,20.98 -154.97,-20.71" data-class="petal" fill="none" id="svg_14" stroke="rgb(0, 0, 0)" stroke-linecap="round" stroke-linejoin="round" stroke-width="4"/>
    <path d="m262.49,125.72c38.01,14.94 63,-35.06 8.6,-101.91" data-class="leaf" fill="none" id="svg_15" stroke="rgb(0, 0, 0)" stroke-linecap="round" stroke-linejoin="round" stroke-width="4"/>
    <path d="m278.08,93.13c-7.59,-55.54 -29.93,-52.37 -6.8,-82.25" data-class="leaf" fill="none" id="svg_16" stroke="rgb(0, 0, 0)" stroke-linecap="round" stroke-linejoin="round" stroke-width="4"/>
    <path d="m265.53,5.04c-23.64,37.36 -48.16,36.28 -49.52,96" data-class="leaf" fill="none" id="svg_17" stroke="rgb(0, 0, 0)" stroke-linecap="round" stroke-linejoin="round" stroke-width="4"/>
    <path d="m218.6,65.97c-11.13,47.78 -5.03,73.24 52.47,54.56" data-class="leaf" fill="none" id="svg_18" stroke="rgb(0, 0, 0)" stroke-linecap="round" stroke-linejoin="round" stroke-width="4"/>
    <path d="m285.7,151.21c7.8,-78.19 50.44,-75.58 97.48,-68.75" data-class="leaf" fill="none" id="svg_19" stroke="rgb(0, 0, 0)" stroke-linecap="round" stroke-linejoin="round" stroke-width="4"/>
    <path d="m354.13,80.86c111.04,-11.33 44.55,-14.22 -25.67,54.5" data-class="leaf" fill="none" id="svg_20" stroke="rgb(0, 0, 0)" stroke-linecap="round" stroke-linejoin="round" stroke-width="4"/>
    <path d="m397.61,90.27c-49.22,83.58 -61.22,81.25 -102.93,74.62" data-class="leaf" fill="none" id="svg_21" stroke="rgb(0, 0, 0)" stroke-linecap="round" stroke-linejoin="round" stroke-width="4"/>
    <path d="m349.3,158.63c-39.63,22.82 -56.06,19.58 -62.49,-39.5" data-class="leaf" fill="none" id="svg_22" stroke="rgb(0, 0, 0)" stroke-linecap="round" stroke-linejoin="round" stroke-width="4"/>
    <path d="m282.84,168.06c33.06,-7.52 86.99,9.39 96.53,98.05" data-class="leaf" fill="none" id="svg_23" stroke="rgb(0, 0, 0)" stroke-linecap="round" stroke-linejoin="round" stroke-width="4"/>
    <path d="m315.08,200.89c72.96,44.44 76.8,82.11 36.15,50.19" data-class="leaf" fill="none" id="svg_24" stroke="rgb(0, 0, 0)" stroke-linecap="round" stroke-linejoin="round" stroke-width="4"/>
    <path d="m363.35,261.77c-46.03,-26.28 -35.19,-7.52 -73.2,-26.7" data-class="leaf" fill="none" id="svg_25" stroke="rgb(0, 0, 0)" stroke-linecap="round" stroke-linejoin="round" stroke-width="4"/>
    <path d="m303.34,239.63c-33.26,-1.51 -46.24,-44.46 2.48,-72.67" data-class="leaf" fill="none" id="svg_26" stroke="rgb(0, 0, 0)" stroke-linecap="round" stroke-linejoin="round" stroke-width="4"/>
    <path d="m281.31,182.73c-21.18,62.19 32.24,59.34 48.17,61.26" data-class="leaf" fill="none" id="svg_27" stroke="rgb(0, 0, 0)" stroke-linecap="round" stroke-linejoin="round" stroke-width="4"/>
    <path d="m353.08,254.83c-57.72,-5.95 -117.59,3.04 -78.09,13.34" data-class="leaf" fill="none" id="svg_28" stroke="rgb(0, 0, 0)" stroke-linecap="round" stroke-linejoin="round" stroke-width="4"/>
    <path d="m302.92,240.61c2.86,0.92 -38.63,-2.06 -55.31,-16.23" data-class="leaf" fill="none" id="svg_29" stroke="rgb(0, 0, 0)" stroke-linecap="round" stroke-linejoin="round" stroke-width="4"/>
    <path d="m246.57,238.01c16.42,-60.13 -12.23,-36.54 11.3,-39.86" data-class="leaf" fill="none" id="svg_30" stroke="rgb(0, 0, 0)" stroke-linecap="round" stroke-linejoin="round" stroke-width="4"/>
    <path d="m246.74,160.05c-20.23,71.29 -42.98,78.54 -68.07,67.86" data-class="leaf" fill="none" id="svg_31" stroke="rgb(0, 0, 0)" stroke-linecap="round" stroke-linejoin="round" stroke-width="4"/>
    <path d="m179.35,292.37c-16.93,20.05 8.09,0.95 74.78,48.99" data-class="leaf" fill="none" id="svg_32" stroke="rgb(0, 0, 0)" stroke-linecap="round" stroke-linejoin="round" stroke-width="4"/>
    <path d="m192.36,248.71c-3.95,-12.11 76.31,2.33 51.1,-9.59" data-class="leaf" fill="none" id="svg_33" stroke="rgb(0, 0, 0)" stroke-linecap="round" stroke-linejoin="round" stroke-width="4"/>
    <path d="m224.52,220.67c51.11,-0.51 28.64,5.9 4.48,-69.65" data-class="leaf" fill="none" id="svg_34" stroke="rgb(0, 0, 0)" stroke-linecap="round" stroke-linejoin="round" stroke-width="4"/>
    <path d="m231.11,160.91c-57.4,-2.82 -81.04,3.71 -92.61,65.45" data-class="leaf" fill="none" id="svg_35" stroke="rgb(0, 0, 0)" stroke-linecap="round" stroke-linejoin="round" stroke-width="4"/>
    <path d="m190.21,197.03c-54.03,21.23 -81,66.34 -21.58,33.22" data-class="leaf" fill="none" id="svg_36" stroke="rgb(0, 0, 0)" stroke-linecap="round" stroke-linejoin="round" stroke-width="4"/>
    <path d="m147.83,237.86c37.69,-13.94 74.5,-6.15 9.28,-2.69" data-class="leaf" fill="none" id="svg_37" stroke="rgb(0, 0, 0)" stroke-linecap="round" stroke-linejoin="round" stroke-width="4"/>
    <path d="m187.33,233.31c35.67,-7.19 85.99,-54.96 24.63,-90.44" data-class="leaf" fill="none" id="svg_38" stroke="rgb(0, 0, 0)" stroke-linecap="round" stroke-linejoin="round" stroke-width="4"/>
    <path d="m222.11,135.26c-3.47,-80.54 -50.23,-64.55 -154.06,-90.82" data-class="leaf" fill="none" id="svg_39" stroke="rgb(0, 0, 0)" stroke-linecap="round" stroke-linejoin="round" stroke-width="4"/>
    <path d="m181.86,99.86c-109.06,-89.73 -71.33,-46.39 -26.53,12.55" data-class="leaf" fill="none" id="svg_40" stroke="rgb(0, 0, 0)" stroke-linecap="round" stroke-linejoin="round" stroke-width="4"/>
    <path d="m132.1,80.37c33.02,91.66 69.28,74.94 98.09,93.69" data-class="leaf" fill="none" id="svg_41" stroke="rgb(0, 0, 0)" stroke-linecap="round" stroke-linejoin="round" stroke-width="4"/>
    <path d="m148.55,148.92c81.24,18.55 57.69,4.88 71.07,-18.04" data-class="leaf" fill="none" id="svg_42" stroke="rgb(0, 0, 0)" stroke-linecap="round" stroke-linejoin="round" stroke-width="4"/>
    <path d="m269.08,143.93c-0.01,-32.7 -1.3,-24.73 26.74,4.69" data-class="leaf" fill="none" id="svg_43" stroke="rgb(0, 0, 0)" stroke-linecap="round" stroke-linejoin="round" stroke-width="4"/>
    <path d="m256.48,80.67c-12.66,111.2 40,55.02 10.3,122.74" data-class="leaf" fill="none" id="svg_44" stroke="rgb(0, 0, 0)" stroke-linecap="round" stroke-linejoin="round" stroke-width="4"/>
    <path d="m260.73,121.8c41.22,58.6 24.55,69.6 5.72,74.96" data-class="leaf" fill="none" id="svg_45" stroke="rgb(0, 0, 0)" stroke-linecap="round" stroke-linejoin="round" stroke-width="4"/>
    <path d="m251,131.18c45.7,58.25 21.5,64.46 1.24,68.6" data-class="leaf" fill="none" id="svg_46" stroke="rgb(0, 0, 0)" stroke-linecap="round" stroke-linejoin="round" stroke-width="4"/>
    <path d="m273.04,188.89c-11.92,7.42 2.56,-11.38 -19.7,-31.81" data-class="leaf" fill="none" id="svg_47" stroke="rgb(0, 0, 0)" stroke-linecap="round" stroke-linejoin="round" stroke-width="4"/>
    <path d="m250.51,194.31c12.09,-25.76 -10.2,-40.31 -29.73,-64" data-class="leaf" fill="none" id="svg_48" stroke="rgb(0, 0, 0)" stroke-linecap="round" stroke-linejoin="round" stroke-width="4"/>
    <path d="m261.22,197.16c3.27,-35.31 -4.14,-46.38 -39.63,-78.45" data-class="leaf" fill="none" id="svg_49" stroke="rgb(0, 0, 0)" stroke-linecap="round" stroke-linejoin="round" stroke-width="4"/>
    <path d="m215.59,134.59c31.48,-15.85 19.98,-22.4 70.41,-3.57" data-class="leaf" fill="none" id="svg_50" stroke="rgb(0, 0, 0)" stroke-linecap="round" stroke-linejoin="round" stroke-width="4"/>
    <path d="m247.98,121.28c55.1,8.92 75.54,76.02 -19.2,71.23" data-class="leaf" fill="none" id="svg_51" stroke="rgb(0, 0, 0)" stroke-linecap="round" stroke-linejoin="round" stroke-width="4"/>
    <path d="m256.83,207.25c-61.78,-31.2 -58.13,-78.61 -0.01,-88.54" data-class="leaf" fill="none" id="svg_52" stroke="rgb(0, 0, 0)" stroke-linecap="round" stroke-linejoin="round" stroke-width="4"/>
   </g>
  </g>
  <g id="svg_53" transform="translate(0 5) matrix(0.242707 0 0 0.258051 157.64 200.424)">
   <defs stroke-width="7">
    <style stroke-width="7">.white-box-bg { fill: white; stroke: none; }
      .stroke-group { stroke-linecap: round; stroke-linejoin: round; }</style>
   </defs>
   <path class="white-box-bg" d="m84.96,34.39l-0.32,0.58l-0.31,0.64l-0.75,1.24l-0.87,1.15l-0.98,1.07l-1.08,0.97l-1.16,0.86l-1.24,0.75l-1.31,0.62l-1.37,0.49l-1.4,0.36l-1.43,0.22l-1.45,0.08l-1.44,-0.06l-1.8,-0.25l-2.35,-0.44l-0.37,-0.06l-0.04,-0.01l-1.07,-0.13l-0.98,-0.09l-1.12,-0.06l-0.16,0l-0.41,0l-8.47,0.11l-0.32,0.01l-0.04,0l-0.91,0.06l-0.52,0.05l-1.25,0.18l-0.48,0.08l-0.93,0.2l-0.12,0.03l-0.34,0.09l-7.03,1.93l-0.36,0.1l-0.05,0.01l-1.01,0.35l-0.58,0.22l-1.36,0.6l-0.51,0.25l-0.98,0.54l-0.13,0.07l-0.36,0.22l-5.57,3.54l-0.32,0.21l-0.04,0.03l-0.9,0.65l-0.5,0.39l-1.16,1.01l-0.42,0.41l-0.8,0.84l-0.11,0.11l-0.28,0.33l-4.25,5.08l-0.22,0.27l-0.02,0.03l-0.6,0.8l-0.32,0.47l-0.74,1.16l-0.26,0.46l-0.48,0.92l-0.06,0.13l-0.16,0.35l-2.91,6.51l-0.17,0.39l-0.02,0.05l-0.41,1.13l-0.35,1.07l-0.33,1.22l-0.04,0.17l-0.1,0.46l-1.56,7.89l-0.06,0.33l-0.01,0.04l-0.13,0.94l-0.1,0.87l-0.07,1l-0.01,0.13l-0.01,0.37l-0.17,9.08l0,0.53l0.01,0.59l0.05,0.99l0.07,0.8l0.06,0.58l1.24,10.12l0.06,0.43l0.07,0.47l0.15,0.8l0.13,0.64l0.1,0.47l2.74,11.33l0.08,0.34l0.11,0.39l0.19,0.66l0.16,0.52l0.13,0.39l4.27,12.34l0.1,0.3l0.12,0.33l0.22,0.55l0.18,0.44l0.14,0.32l5.83,13.19l0.12,0.25l0.13,0.29l0.23,0.47l0.2,0.39l0.15,0.27l7.41,13.86l0.12,0.22l0.15,0.26l0.24,0.42l0.2,0.34l0.15,0.24l9.02,14.37l0.13,0.21l0.15,0.22l0.25,0.38l0.21,0.31l0.16,0.22l10.63,14.73l0.13,0.19l0.16,0.2l0.26,0.35l0.22,0.28l0.17,0.2l12.25,14.95l0.14,0.17l0.16,0.19l0.28,0.32l0.23,0.25l0.17,0.19l8.98,9.72l1.22,1.45l0.85,1.25l0.71,1.34l0.58,1.4l0.44,1.45l0.28,1.48l0.14,1.51l-0.02,1.52l-0.24,2.06l-0.03,0.3l-0.03,0.34l-0.03,0.41l-0.44,6.64l-0.17,1.58l-0.31,1.57l-0.02,0.11l-0.27,1.4l-0.03,0.24l-0.14,1.46l-0.01,0.2l0.01,1.47l0.03,0.47l0.11,1.19l0.05,0.31l0.07,0.5l0.55,3.22l0.19,1.42l0.67,6.32l0.05,0.43l0.06,0.48l0.13,0.81l0.13,0.65l0.1,0.47l1.25,5.59l0.13,0.52l0.15,0.58l0.28,0.96l0.26,0.77l0.2,0.57l1.8,4.73l0.12,0.3l0.01,0.04l0.37,0.84l0.37,0.76l0.44,0.86l0.06,0.11l0.18,0.32l2.37,4l0.19,0.32l0.03,0.04l0.59,0.88l0.57,0.79l0.69,0.87l0.1,0.11l0.27,0.31l2.78,3.11l0.27,0.3l0.04,0.03l0.81,0.8l0.77,0.7l0.91,0.77l0.13,0.1l0.35,0.26l2.21,1.61l1.38,1.11l1.01,0.98l0.92,1.07l0.81,1.16l0.7,1.23l0.58,1.29l0.46,1.33l0.32,1.38l0.2,1.4l0.06,1.41l-0.06,1.41l-0.26,1.75l-0.74,3.86l-0.06,0.33l-0.01,0.05l-0.13,0.98l-0.09,0.91l-0.07,1.03l-0.01,0.14l0,0.39l-0.03,4.38l0,0.36l0,0.04l0.05,1.01l0.08,0.93l0.13,1.06l0.02,0.14l0.07,0.39l0.83,4.52l0.06,0.32l0.01,0.04l0.23,0.94l0.45,1.64l0.08,0.35l0.16,0.57l0.32,1.62l0.02,0.15l0.24,1.23l0.05,0.22l0.12,0.47l1.21,4.51l0.11,0.37l0.01,0.05l0.36,1.06l0.37,0.96l0.46,1.08l0.07,0.15l0.19,0.39l2.36,4.63l0.17,0.32l0.02,0.04l0.54,0.92l0.32,0.51l0.85,1.2l0.12,0.15l0.96,1.12l0.14,0.14l1.06,1.01l0.15,0.12l1.16,0.91l0.16,0.11l1.24,0.78l0.19,0.11l1.3,0.65l0.25,0.11l1.81,0.92l1.35,0.89l1.57,1.29l0.35,0.32l0.25,0.23l4.02,3.51l1.43,1.4l1.02,1.24l0.98,1.48l0.36,0.52l0.34,0.48l0.92,1.15l0.13,0.14l1.03,1.06l0.14,0.13l1.12,0.94l0.45,0.34l0.9,0.64l0.13,0.08l0.35,0.22l16.19,9.93l0.93,0.61l9.89,6.75l1.46,1.11l1.08,0.99l0.97,1.1l0.86,1.19l0.75,1.27l0.61,1.33l0.6,1.74l0.3,0.99l0.46,1.35l0.09,0.22l0.61,1.34l0.09,0.17l0.74,1.27l0.11,0.17l0.86,1.19l0.12,0.15l0.97,1.1l0.14,0.14l1.08,1l0.14,0.13l1.17,0.89l0.16,0.11l1.26,0.77l0.17,0.09l1.32,0.65l0.17,0.07l1.38,0.52l0.19,0.06l1.42,0.37l0.19,0.04l1.45,0.24l1.04,0.11l1.78,0.29l1.4,0.36l1.35,0.5l1.3,0.62l1.24,0.75l1.15,0.86l1.13,1.02l0.99,1.07l4.17,4.86l1.21,1.55l0.76,1.06l0.96,1.48l0.65,1.26l0.53,1.31l0.41,1.35l0.27,1.39l0.18,1.76l0.09,1.54l0.02,0.33l0,0.04l0.1,0.95l0.13,0.87l0.17,0.99l0.03,0.13l0.08,0.36l0.47,2.01l0.09,0.35l0.01,0.04l0.3,0.99l0.18,0.57l0.53,1.34l0.22,0.5l0.48,0.97l0.07,0.13l0.19,0.35l0.48,0.84l0.19,0.31l0.02,0.04l0.58,0.88l0.34,0.49l0.9,1.16l0.13,0.14l1,1.06l0.14,0.13l1.11,0.96l0.15,0.11l1.19,0.85l0.16,0.1l1.27,0.72l0.49,0.25l1,0.47l0.14,0.05l0.37,0.16l0.15,0.05l0.35,0.13l0.05,0.02l1.04,0.33l0.6,0.17l1.48,0.33l0.19,0.03l1.51,0.19l0.19,0.01l1.52,0.03l0.2,-0.01l1.51,-0.12l0.19,-0.03l1.49,-0.27l0.19,-0.05l1.46,-0.43l0.19,-0.06l1.4,-0.57l0.18,-0.08l1.34,-0.71l0.17,-0.1l1.26,-0.84l0.16,-0.12l1.17,-0.96l0.42,-0.39l0.82,-0.8l0.1,-0.11l0.29,-0.31l0.18,-0.2l0.23,-0.27l0.03,-0.03l0.63,-0.8l0.34,-0.46l0.79,-1.18l0.09,-0.15l0.67,-1.24l0.08,-0.17l0.55,-1.3l0.07,-0.17l0.42,-1.34l0.14,-0.52l0.24,-1.03l0.03,-0.15l0.06,-0.38l0.19,-1.15l0.05,-0.32l0.01,-0.04l0.1,-0.94l0.05,-0.54l0.04,-1.31l0,-0.49l-0.04,-0.99l-0.01,-0.13l-0.04,-0.37l-0.21,-2.19l-0.04,-0.33l0,-0.04l-0.14,-0.92l-0.16,-0.85l-0.21,-0.96l-0.03,-0.12l-0.1,-0.36l-0.53,-1.92l-0.38,-1.63l-0.19,-1.34l-0.06,-1.34l0.07,-1.68l0.06,-0.68l0.05,-1.42l0,-0.24l-0.08,-1.47l-0.02,-0.19l-0.23,-1.46l-0.04,-0.18l-0.37,-1.43l-0.06,-0.18l-0.5,-1.38l-0.08,-0.18l-0.64,-1.33l-0.09,-0.17l-0.77,-1.25l-0.11,-0.16l-0.88,-1.18l-0.13,-0.14l-1,-1.09l-0.13,-0.13l-1.1,-0.98l-0.15,-0.12l-1.19,-0.87l-0.97,-0.64l-1.49,-1.08l-1.1,-0.98l-1,-1.08l-0.88,-1.18l-0.77,-1.26l-0.64,-1.32l-0.5,-1.39l-0.37,-1.42l-0.23,-1.46l-0.08,-1.47l0.06,-1.47l0.21,-1.46l0.35,-1.43l0.48,-1.38l0.63,-1.34l0.74,-1.27l0.98,-1.33l0.4,-0.57l0.71,-1.07l0.32,-0.5l0.04,-0.07l0.26,-0.44l0.51,-0.91l0.25,-0.46l3.6,-6.96l0.91,-1.56l0.84,-1.17l0.95,-1.09l1.06,-0.99l1.14,-0.88l1.22,-0.78l1.29,-0.64l1.35,-0.53l1.39,-0.38l1.42,-0.26l1.44,-0.11l1.45,0.02l1.43,0.16l1.42,0.3l1.38,0.44l0.64,0.25l1.26,0.47l1.4,0.45l0.19,0.05l1.44,0.3l1.52,0.25l0.02,0l1.18,0.16l0.37,0.03l1.47,0.07l0.19,0l1.47,-0.07l0.19,-0.02l1.46,-0.22l0.19,-0.04l1.42,-0.36l0.95,-0.29l0.71,-0.18l0.62,-0.2l1.42,-0.29l1.45,-0.16l1.45,-0.01l1.45,0.13l1.42,0.26l1.4,0.4l1.35,0.54l1.29,0.66l1.22,0.79l1.14,0.9l1.05,1.01l0.94,1.1l0.83,1.19l0.72,1.26l0.59,1.33l0.56,1.71l0.24,0.65l0.4,1.04l0.24,0.59l0.43,1l0.44,1.36l0.31,1.39l0.18,1.41l0.04,1.43l-0.1,1.42l-0.23,1.41l-0.36,1.38l-0.49,1.34l-0.9,1.87l-0.29,0.65l-0.11,0.25l-0.5,1.38l-0.06,0.19l-0.37,1.42l-0.04,0.19l-0.23,1.45l-0.02,0.2l-0.08,1.47l0,0.19l0.06,1.47l0.02,0.19l0.2,1.46l0.04,0.19l0.35,1.43l0.05,0.18l0.48,1.39l0.08,0.18l0.62,1.34l0.09,0.17l0.74,1.26l0.11,0.17l0.87,1.18l0.12,0.15l0.98,1.1l0.13,0.14l1.09,1l0.14,0.12l1.18,0.88l0.46,0.32l0.94,0.59l0.09,0.05l0.1,0.06l1.52,0.93l1.2,0.9l1.11,1.02l0.99,1.13l0.88,1.21l0.75,1.3l0.62,1.37l0.47,1.42l0.34,1.47l0.18,1.49l0.04,1.5l-0.12,1.49l-0.33,1.85l-0.17,0.75l-0.09,0.39l-0.01,0.05l-0.19,1.15l-0.08,0.66l-0.11,1.62l0,0.21l0.06,1.62l0.06,0.61l0.16,1.21l0.03,0.16l0.08,0.44l0.25,1.19l0.08,0.36l0.01,0.04l0.27,1.02l0.18,0.58l0.5,1.37l0.07,0.18l0.63,1.32l0.09,0.17l0.76,1.25l0.11,0.16l0.87,1.18l0.13,0.14l0.98,1.09l0.14,0.13l1.08,0.98l0.15,0.12l1.18,0.88l0.16,0.1l1.25,0.75l0.49,0.27l0.99,0.48l0.14,0.06l0.38,0.16l0.58,0.24l0.34,0.13l0.04,0.02l1,0.34l0.58,0.18l1.43,0.36l0.19,0.03l1.46,0.22l0.19,0.02l1.47,0.07l0.19,0l1.47,-0.07l0.2,-0.02l1.45,-0.22l0.19,-0.03l1.43,-0.36l0.53,-0.16l1.05,-0.36l0.14,-0.06l0.38,-0.15l1.13,-0.47l0.32,-0.14l0.04,-0.02l0.88,-0.43l0.5,-0.26l1.19,-0.69l0.15,-0.1l1.12,-0.8l0.41,-0.33l0.78,-0.66l0.11,-0.1l0.28,-0.26l1.48,-1.41l0.23,-0.22l0.03,-0.03l0.62,-0.66l0.34,-0.38l0.79,-0.97l0.29,-0.39l0.54,-0.77l0.07,-0.1l0.19,-0.3l1.38,-2.2l0.23,-0.38l0.02,-0.05l0.59,-1.11l0.5,-1.05l0.52,-1.22l0.06,-0.17l0.16,-0.46l0.98,-2.93l0.1,-0.3l0.01,-0.04l0.24,-0.86l0.13,-0.5l0.25,-1.23l0.07,-0.47l0.12,-0.93l0.01,-0.12l0.03,-0.35l0.17,-2.21l0.23,-1.88l0.34,-1.47l0.48,-1.44l0.63,-1.37l0.76,-1.31l1.12,-1.53l7.26,-8.99l0.66,-0.78l11.42,-12.88l0.55,-0.61l9.78,-10.24l1.18,-1.13l1.02,-0.83l1.36,-0.91l3.31,-2.01l0.26,-0.16l0.29,-0.18l0.47,-0.32l0.38,-0.26l0.28,-0.2l9.57,-6.93l0.27,-0.2l0.3,-0.23l0.49,-0.39l0.4,-0.33l0.29,-0.24l8.03,-7.01l0.29,-0.25l0.31,-0.29l0.51,-0.49l0.41,-0.41l0.3,-0.31l6.53,-6.97l0.29,-0.32l0.32,-0.36l0.52,-0.62l0.41,-0.52l0.29,-0.38l5.07,-6.84l0.28,-0.4l0.32,-0.45l0.5,-0.78l0.39,-0.64l0.27,-0.47l3.81,-6.85l0.13,-0.25l0.02,-0.03l0.35,-0.72l0.32,-0.67l0.33,-0.77l0.04,-0.11l0.11,-0.29l2.57,-6.86l0.11,-0.3l0.01,-0.03l0.28,-0.87l0.22,-0.8l0.23,-0.92l0.03,-0.13l0.07,-0.35l1.26,-6.56l0.06,-0.35l0.01,-0.04l0.14,-1l0.09,-0.92l0.06,-1.05l0.01,-0.14l0,-0.39l0.02,-6.23l0,-0.37l0,-0.05l-0.06,-1.07l-0.1,-0.99l-0.14,-1.12l-0.03,-0.15l-0.08,-0.41l-1.17,-5.86l-0.07,-0.36l-0.33,-1.84l-0.1,-1.49l0.03,-1.49l0.19,-1.48l0.33,-1.45l0.48,-1.42l0.61,-1.36l0.75,-1.29l0.87,-1.21l0.99,-1.11l0.87,-0.81l0.34,-0.33l1.25,-1.23l0.87,-0.93l0.11,-0.13l0.3,-0.37l3.48,-4.35l0.2,-0.25l0.03,-0.04l0.55,-0.76l0.48,-0.72l0.52,-0.84l0.07,-0.11l0.18,-0.32l3.19,-5.84l0.22,-0.42l0.24,-0.47l0.38,-0.81l0.29,-0.66l0.2,-0.49l2.96,-7.53l0.12,-0.31l0.13,-0.35l0.2,-0.59l0.16,-0.49l0.11,-0.35l2.8,-9.51l0.09,-0.36l0.02,-0.04l0.23,-1.03l0.12,-0.6l0.21,-1.46l0.01,-0.19l0.07,-1.47l0,-0.19l-0.08,-1.47l-0.02,-0.19l-0.23,-1.46l-0.03,-0.19l-0.37,-1.42l-0.06,-0.18l-0.5,-1.39l-0.27,-0.65l-0.48,-1.02l-1.01,-1.97l-0.68,-1.49l-0.55,-1.55l-0.48,-1.55l-0.46,-1.84l-0.22,-1.49l-0.07,-1.51l0.08,-1.51l0.24,-1.49l0.38,-1.46l0.53,-1.42l0.67,-1.35l0.81,-1.28l0.92,-1.2l1.31,-1.36l7.96,-7.55l0.23,-0.23l0.26,-0.25l0.42,-0.43l0.34,-0.36l0.24,-0.27l12.17,-13.7l0.2,-0.23l0.23,-0.27l0.37,-0.45l0.29,-0.37l0.21,-0.28l10.68,-14.22l0.18,-0.25l0.2,-0.27l0.32,-0.47l0.26,-0.39l0.18,-0.29l9.14,-14.48l0.16,-0.26l0.17,-0.3l0.29,-0.5l0.23,-0.41l0.16,-0.3l7.55,-14.47l0.14,-0.29l0.16,-0.32l0.26,-0.54l0.2,-0.45l0.14,-0.33l5.92,-14.17l0.13,-0.32l0.14,-0.36l0.22,-0.61l0.17,-0.5l0.12,-0.36l4.26,-13.59l0.11,-0.37l0.12,-0.42l0.18,-0.71l0.14,-0.58l0.09,-0.42l2.57,-12.7l0.09,-0.45l0.08,-0.5l0.13,-0.86l0.07,-0.7l0.05,-0.51l0.92,-11.75l0.02,-0.29l0,-0.03l0.03,-0.82l0,-0.75l-0.02,-0.86l-0.01,-0.11l-0.02,-0.32l-0.78,-10.59l-0.03,-0.36l-0.01,-0.05l-0.14,-1.04l-0.16,-0.96l-0.23,-1.07l-0.03,-0.15l-0.11,-0.39l-2.49,-9.03l-0.09,-0.31l-0.01,-0.04l-0.28,-0.86l-0.18,-0.49l-0.49,-1.18l-0.2,-0.43l-0.43,-0.85l-0.07,-0.12l-0.17,-0.31l-4.2,-7.28l-0.2,-0.34l-0.03,-0.04l-0.62,-0.93l-0.38,-0.53l-0.98,-1.22l-0.39,-0.44l-0.82,-0.85l-0.12,-0.11l-0.32,-0.3l-5.86,-5.29l-0.31,-0.28l-0.04,-0.03l-0.96,-0.75l-0.56,-0.41l-1.42,-0.91l-0.56,-0.31l-1.13,-0.57l-0.16,-0.08l-0.43,-0.18l-7.67,-3.22l-0.36,-0.14l-0.04,-0.02l-1.04,-0.36l-0.6,-0.18l-1.48,-0.38l-0.56,-0.11l-1.14,-0.18l-0.15,-0.02l-0.43,-0.04l-9.58,-0.88l-0.45,-0.03l-0.06,-0.01l-1.3,-0.02l-1.19,0.03l-1.36,0.1l-0.18,0.02l-0.5,0.06l-11.66,1.77l-0.34,0.05l-0.04,0.01l-0.95,0.2l-0.87,0.21l-0.98,0.27l-0.13,0.04l-0.36,0.12l-13.74,4.71l-0.47,0.17l-0.53,0.2l-0.87,0.36l-0.7,0.32l-0.51,0.24l-8.2,4.12l-1.66,0.73l-1.36,0.45l-1.41,0.32l-1.43,0.18l-0.14,0.01l-1.46,0.11l-1.45,0.26l-1.41,0.4l-1.37,0.54l-1.19,0.61l-0.23,-0.59l-0.7,-1.3l-0.81,-1.23l-0.93,-1.15l-1.04,-1.04l-1.08,-0.98l-1.21,-1.34l-0.07,-0.1l-0.96,-1.05l-0.17,-0.17l-1.09,-1l-0.14,-0.12l-1.18,-0.88l-0.16,-0.11l-1.26,-0.76l-0.17,-0.09l-1.33,-0.63l-0.18,-0.08l-1.38,-0.5l-0.19,-0.05l-1.42,-0.37l-0.19,-0.04l-1.46,-0.22l-0.19,-0.02l-1.47,-0.07l-0.19,0l-1.47,0.06l-0.19,0.02l-1.46,0.21l-0.19,0.04l-1.43,0.35l-0.18,0.06l-1.39,0.49l-0.52,0.21l-1.01,0.46l-0.13,0.06l-0.36,0.19l-8.98,4.8l-0.2,0.1l-0.21,0.12l-0.36,0.21l-0.29,0.17l-0.21,0.12l-8.54,5.23l-0.2,0.13l-0.23,0.14l-0.38,0.25l-0.3,0.2l-0.22,0.15l-7.98,5.61l-0.21,0.15l-0.23,0.17l-0.38,0.29l-0.31,0.24l-0.22,0.18l-7.46,6.04l-0.21,0.17l-0.22,0.19l-0.38,0.32l-0.3,0.27l-0.22,0.2l-5.07,4.74l-1.41,1.19l-1.2,0.83l-1.29,0.71l-1.35,0.59l-1.39,0.44l-1.44,0.31l-1.46,0.17l-1.47,0.02l-1.46,-0.12l-1.44,-0.26l-1.41,-0.4l-1.37,-0.54l-1.31,-0.67l-1.23,-0.8l-1.15,-0.91l-1.39,-1.35l-0.35,-0.32l-0.5,-0.45l-0.71,-0.61l-0.1,-0.08l-0.28,-0.22l-1.18,-0.89l-0.28,-0.22l-0.04,-0.02l-0.84,-0.57l-0.5,-0.31l-1.24,-0.7l-0.48,-0.24l-0.97,-0.44l-0.13,-0.06l-0.37,-0.15l-1.26,-0.48l-0.38,-0.14l-0.05,-0.02l-1.13,-0.35l-0.66,-0.17l-1.6,-0.34l-0.62,-0.09l-1.23,-0.14l-0.17,-0.01l-0.45,-0.02l-1.41,-0.06l-0.33,-0.01l-0.04,0l-0.95,0.02l-0.55,0.02l-1.31,0.13l-0.17,0.02l-1.3,0.23l-0.49,0.12l-0.96,0.25l-0.13,0.04l-0.36,0.11l-1.55,0.5l-0.38,0.13l-0.05,0.02l-1.09,0.43l-0.61,0.28l-1.45,0.74l-0.54,0.32l-1.03,0.66l-0.14,0.09l-0.37,0.27l-1.66,1.24l-0.26,0.2l-0.03,0.03l-0.73,0.6l-0.41,0.37l-0.95,0.92l-0.35,0.36l-0.65,0.75l-0.09,0.1l-0.23,0.29l-1.75,2.23l-0.23,0.3l-0.03,0.04l-0.61,0.89l-0.53,0.83l-0.58,0.98l-0.07,0.13l-0.19,0.38l-1.72,3.43l-0.13,0.25l-0.01,0.03l-0.33,0.74l-0.28,0.69l-0.31,0.79l-0.03,0.11l-0.1,0.29l-0.48,1.46l-0.65,1.71l-0.64,1.3l-0.77,1.23l-0.89,1.16l-0.99,1.06l-1.09,0.96l-1.18,0.85l-1.26,0.73l-1.32,0.61l-1.38,0.48l-1.41,0.34l-1.45,0.2l-1.45,0.06l-1.45,-0.08l-1.44,-0.22l-1.41,-0.36l-1.37,-0.5l-1.31,-0.62l-1.25,-0.75l-1.17,-0.87l-1.08,-0.98l-0.98,-1.07l-0.87,-1.17l-0.75,-1.25l-0.63,-1.31l-0.62,-1.71l-0.04,-0.14l-0.05,-0.15l-0.06,-0.17l-0.09,-0.29l-0.08,-0.24l-0.06,-0.17l-1.66,-4.63l-0.09,-0.24l-0.1,-0.27l-0.18,-0.45l-0.15,-0.37l-0.12,-0.26l-1.5,-3.44l-0.18,-0.39l-0.2,-0.43l-0.37,-0.72l-0.38,-0.7l-0.08,-0.17l-0.59,-1.12l-0.74,-1.76l0,0l-0.44,-1.01l-0.1,-0.22l-0.71,-1.29l-0.1,-0.16l-0.83,-1.22l-0.12,-0.15l-0.94,-1.13l-0.13,-0.14l-1.06,-1.03l-0.14,-0.12l-1.15,-0.93l-0.15,-0.11l-1.24,-0.8l-0.16,-0.1l-1.31,-0.68l-0.17,-0.08l-1.37,-0.55l-0.33,-0.11l-1.26,-0.38l-0.55,-0.14l-0.61,-0.13l-0.4,-0.09l-0.65,-0.16l-0.7,-0.16l-0.91,-0.18l-1.37,-0.21l-0.18,-0.02l-1.39,-0.08l-0.53,0l-1.04,0.02l-0.14,0.01l-0.39,0.03l-1.23,0.1l-0.37,0.04l-0.05,0l-1.04,0.15l-1.03,0.19l-1.36,0.15l-0.51,0.07l-1.65,0.24l-1.35,0.26l-0.18,0.04l-1.42,0.42l-0.18,0.06l-1.36,0.55l-0.18,0.08l-1.3,0.68l-0.17,0.1l-1.23,0.81l-0.15,0.11l-1.15,0.93l-0.54,0.48l-0.46,0.43l-1.02,0.99l-1.16,0.92l-1.25,0.8l-1.31,0.67l-1.38,0.54l-1.42,0.41l-1.46,0.26l-1.47,0.11l-1.48,-0.03l-1.47,-0.17l-1.44,-0.32l-1.41,-0.46l-1.35,-0.6l-1.63,-0.92l-0.04,-0.02l-10.85,-6.67l-0.16,-0.1l-0.18,-0.11l-0.3,-0.17l-0.25,-0.14l-0.18,-0.1l-11.04,-6.05l-0.16,-0.09l-0.18,-0.1l-0.31,-0.16l-0.26,-0.12l-0.18,-0.1l-11.12,-5.39l-0.17,-0.08l-0.19,-0.09l-0.32,-0.15l-0.27,-0.12l-0.2,-0.08l-11.07,-4.7l-0.18,-0.08l-0.21,-0.08l-0.35,-0.14l-0.28,-0.11l-0.21,-0.07l-10.91,-3.97l-0.2,-0.07l-0.22,-0.08l-0.39,-0.12l-0.31,-0.1l-0.23,-0.07l-10.62,-3.19l-0.22,-0.06l-0.26,-0.08l-0.42,-0.11l-0.36,-0.09l-0.25,-0.06l-10.2,-2.37l-0.26,-0.06l-0.3,-0.06l-0.49,-0.1l-0.4,-0.07l-0.3,-0.05l-9.59,-1.52l-0.36,-0.05l-0.05,-0.01l-1.05,-0.1l-0.61,-0.04l-1.47,-0.02l-0.19,0.01l-1.47,0.12l-0.19,0.03l-1.45,0.27l-0.18,0.04l-1.42,0.41l-0.18,0.06l-1.37,0.55l-0.17,0.08l-1.31,0.67l-0.17,0.1l-1.23,0.8l-0.16,0.12l-1.15,0.92l-0.14,0.12l-1.06,1.03l-0.13,0.14l-0.94,1.13l-0.12,0.15l-0.83,1.21l-0.11,0.17l-0.71,1.29l-0.46,0.95z" id="svg_54" stroke-width="7"/>
   <g class="stroke-group" fill="none" id="butterfly" stroke="black" stroke-width="5.71">
    <path d="m253.78,178.77c10.4,20.03 56.51,19.34 38.45,99.79" data-class="body" fill="none" id="svg_55" stroke="rgb(0, 0, 0)" stroke-linecap="round" stroke-linejoin="round" stroke-width="7"/>
    <path d="m293.4,227.78c-3,89.02 -24.8,124.64 -24.34,134.79" data-class="body" fill="none" id="svg_56" stroke="rgb(0, 0, 0)" stroke-linecap="round" stroke-linejoin="round" stroke-width="7"/>
    <path d="m270.89,362.85c-7.56,-28.07 -41.49,-67.85 -24.72,-124.97" data-class="body" fill="none" id="svg_57" stroke="rgb(0, 0, 0)" stroke-linecap="round" stroke-linejoin="round" stroke-width="7"/>
    <path d="m236.31,274.47c-2.45,-53.85 43.32,-69.04 25.65,-109.02" data-class="body" fill="none" id="svg_58" stroke="rgb(0, 0, 0)" stroke-linecap="round" stroke-linejoin="round" stroke-width="7"/>
    <path d="m272.07,159.92c20.37,-1.91 43.87,11.65 1,32.99" data-class="segment" fill="none" id="svg_59" stroke="rgb(0, 0, 0)" stroke-linecap="round" stroke-linejoin="round" stroke-width="7"/>
    <path d="m293.96,166.57c1.61,31.04 -21.95,21.84 -37.6,44.52" data-class="segment" fill="none" id="svg_60" stroke="rgb(0, 0, 0)" stroke-linecap="round" stroke-linejoin="round" stroke-width="7"/>
    <path d="m247.59,219.41c-4.57,-9.41 -7.45,-31.09 -39.58,-47.95" data-class="segment" fill="none" id="svg_61" stroke="rgb(0, 0, 0)" stroke-linecap="round" stroke-linejoin="round" stroke-width="7"/>
    <path d="m256.88,165.81c-2.08,32.51 -17.11,-6.99 22.13,-9.81" data-class="segment" fill="none" id="svg_62" stroke="rgb(0, 0, 0)" stroke-linecap="round" stroke-linejoin="round" stroke-width="7"/>
    <path d="m266.1,165.52c-19.74,-73.59 -24.28,-119.28 -41.16,-82.04" data-class="vein" fill="none" id="svg_63" stroke="rgb(0, 0, 0)" stroke-linecap="round" stroke-linejoin="round" stroke-width="7"/>
    <path d="m239.21,71c-22.83,12.21 -0.2,34.6 -9.52,0.11" data-class="vein" fill="none" id="svg_64" stroke="rgb(0, 0, 0)" stroke-linecap="round" stroke-linejoin="round" stroke-width="7"/>
    <path d="m265.08,160.67c32.84,4.84 28.1,-73.93 54.21,-83.89" data-class="vein" fill="none" id="svg_65" stroke="rgb(0, 0, 0)" stroke-linecap="round" stroke-linejoin="round" stroke-width="7"/>
    <path d="m302.62,115.97c0.94,-71.94 39.24,-27.46 12.76,-24.74" data-class="vein" fill="none" id="svg_66" stroke="rgb(0, 0, 0)" stroke-linecap="round" stroke-linejoin="round" stroke-width="7"/>
    <path d="m266.81,181.63c-4.86,-71.07 -103,-133.21 -166.19,-140.66" data-class="vein" fill="none" id="svg_67" stroke="rgb(0, 0, 0)" stroke-linecap="round" stroke-linejoin="round" stroke-width="7"/>
    <path d="m84.97,65.58c-81.25,-34.51 -76.21,75.75 29.58,171.84" data-class="vein" fill="none" id="svg_68" stroke="rgb(0, 0, 0)" stroke-linecap="round" stroke-linejoin="round" stroke-width="7"/>
    <path d="m102.01,243.45c-6.46,65.43 33.1,62.71 84.89,32.09" data-class="marking" fill="none" id="svg_69" stroke="rgb(0, 0, 0)" stroke-linecap="round" stroke-linejoin="round" stroke-width="7"/>
    <path d="m212.13,270.22c52.48,8.36 5.85,-31.89 55.02,-76.3" data-class="marking" fill="none" id="svg_70" stroke="rgb(0, 0, 0)" stroke-linecap="round" stroke-linejoin="round" stroke-width="7"/>
    <path d="m294.34,258.12c25.36,-124.65 50.77,-176.26 113.07,-207.38" data-class="vein" fill="none" id="svg_71" stroke="rgb(0, 0, 0)" stroke-linecap="round" stroke-linejoin="round" stroke-width="7"/>
    <path d="m439.08,63.25c112.45,-64.17 95.53,89.98 -7.88,164.07" data-class="vein" fill="none" id="svg_72" stroke="rgb(0, 0, 0)" stroke-linecap="round" stroke-linejoin="round" stroke-width="7"/>
    <path d="m448.04,252.35c-18.3,71.02 -49.43,19.81 -157.55,7.23" data-class="marking" fill="none" id="svg_73" stroke="rgb(0, 0, 0)" stroke-linecap="round" stroke-linejoin="round" stroke-width="7"/>
    <path d="m316.18,262c-30.59,23.78 -13.51,-53.29 -53.41,-83.09" data-class="marking" fill="none" id="svg_74" stroke="rgb(0, 0, 0)" stroke-linecap="round" stroke-linejoin="round" stroke-width="7"/>
    <path d="m200.55,273.14c60.15,-11.92 -29.02,6.72 -73.1,27.16" data-class="vein" fill="none" id="svg_75" stroke="rgb(0, 0, 0)" stroke-linecap="round" stroke-linejoin="round" stroke-width="7"/>
    <path d="m155.35,290.07c-38.4,29.72 -49.54,59.14 35.49,103.23" data-class="vein" fill="none" id="svg_76" stroke="rgb(0, 0, 0)" stroke-linecap="round" stroke-linejoin="round" stroke-width="7"/>
    <path d="m153.33,372.9c118.79,69.19 67.51,106.79 78.43,60.42" data-class="marking" fill="none" id="svg_77" stroke="rgb(0, 0, 0)" stroke-linecap="round" stroke-linejoin="round" stroke-width="7"/>
    <path d="m223.08,385.92c36.81,-71.48 36.69,-38.95 14.88,-115.47" data-class="marking" fill="none" id="svg_78" stroke="rgb(0, 0, 0)" stroke-linecap="round" stroke-linejoin="round" stroke-width="7"/>
    <path d="m290.11,280.93c-1.07,-9.59 60.29,-5.28 109.22,31.43" data-class="antenna" fill="none" id="svg_79" stroke="rgb(0, 0, 0)" stroke-linecap="round" stroke-linejoin="round" stroke-width="7"/>
    <path d="m367.12,281.79c75.07,5.12 81.6,70.29 -7.04,111.99" data-class="antenna" fill="none" id="svg_80" stroke="rgb(0, 0, 0)" stroke-linecap="round" stroke-linejoin="round" stroke-width="7"/>
    <path d="m379.96,381.86c-112.27,114.04 2.53,63.44 -68.18,31.1" data-class="marking" fill="none" id="svg_81" stroke="rgb(0, 0, 0)" stroke-linecap="round" stroke-linejoin="round" stroke-width="7"/>
    <path d="m314.3,385.67c-24.33,-50.39 -32.22,-146.23 -22.84,-91.52" data-class="marking" fill="none" id="svg_82" stroke="rgb(0, 0, 0)" stroke-linecap="round" stroke-linejoin="round" stroke-width="7"/>
    <path d="m242.96,208.96c-17.84,-37.85 -52.85,-40.31 -76.13,-75.99" data-class="vein" fill="none" id="svg_83" stroke="rgb(0, 0, 0)" stroke-linecap="round" stroke-linejoin="round" stroke-width="7"/>
    <path d="m137.19,144.89c25.41,16.27 62.61,-21.05 -86.83,-52.71" data-class="vein" fill="none" id="svg_84" stroke="rgb(0, 0, 0)" stroke-linecap="round" stroke-linejoin="round" stroke-width="7"/>
    <path d="m295.53,237.31c13.25,-55.81 36.03,-76.71 92.18,-91.39" data-class="vein" fill="none" id="svg_85" stroke="rgb(0, 0, 0)" stroke-linecap="round" stroke-linejoin="round" stroke-width="7"/>
    <path d="m354.8,155.08c-0.96,51.58 -18.68,-22.66 139.81,-59.13" data-class="vein" fill="none" id="svg_86" stroke="rgb(0, 0, 0)" stroke-linecap="round" stroke-linejoin="round" stroke-width="7"/>
    <path d="m257.1,230.04c-13.38,10.78 -55.82,9.19 -150.8,37.56" data-class="vein" fill="none" id="svg_87" stroke="rgb(0, 0, 0)" stroke-linecap="round" stroke-linejoin="round" stroke-width="7"/>
    <path d="m187.91,238.62c-61.29,-31.01 -79.93,-5.05 -87.33,17.95" data-class="vein" fill="none" id="svg_88" stroke="rgb(0, 0, 0)" stroke-linecap="round" stroke-linejoin="round" stroke-width="7"/>
    <path d="m297.44,244.63c-22.35,-15.87 6.44,-12.9 136.18,16.06" data-class="vein" fill="none" id="svg_89" stroke="rgb(0, 0, 0)" stroke-linecap="round" stroke-linejoin="round" stroke-width="7"/>
    <path d="m357.39,236.47c38.89,-28.29 82.56,-30.14 89.22,17.35" data-class="vein" fill="none" id="svg_90" stroke="rgb(0, 0, 0)" stroke-linecap="round" stroke-linejoin="round" stroke-width="7"/>
    <path d="m287.98,281.3c-119.87,4.27 -176.49,39.94 -155.15,73.74" data-class="vein" fill="none" id="svg_91" stroke="rgb(0, 0, 0)" stroke-linecap="round" stroke-linejoin="round" stroke-width="7"/>
    <path d="m312.45,286.95c22.23,-0.19 82.25,24.35 90.45,37.8" data-class="vein" fill="none" id="svg_92" stroke="rgb(0, 0, 0)" stroke-linecap="round" stroke-linejoin="round" stroke-width="7"/>
    <path d="m233.29,237.46l50.85,-16.78" data-class="segment" fill="none" id="svg_93" stroke="rgb(0, 0, 0)" stroke-linecap="round" stroke-linejoin="round" stroke-width="7"/>
    <path d="m238.67,253.07l55.27,3.31" data-class="segment" fill="none" id="svg_94" stroke="rgb(0, 0, 0)" stroke-linecap="round" stroke-linejoin="round" stroke-width="7"/>
    <path d="m217.8,285.76l75.84,-2.23" data-class="segment" fill="none" id="svg_95" stroke="rgb(0, 0, 0)" stroke-linecap="round" stroke-linejoin="round" stroke-width="7"/>
    <path d="m213.7,313.28l70.29,0.34" data-class="wing" fill="none" id="svg_96" stroke="rgb(0, 0, 0)" stroke-linecap="round" stroke-linejoin="round" stroke-width="7"/>
    <path d="m157.91,150.07c111.3,27.01 102.33,110.47 9.55,58.13" data-class="marking" fill="none" id="svg_97" stroke="rgb(0, 0, 0)" stroke-linecap="round" stroke-linejoin="round" stroke-width="7"/>
    <path d="m175.56,212.59c-96.04,-40.84 -114.62,-94.57 -18.79,-60.66" data-class="marking" fill="none" id="svg_98" stroke="rgb(0, 0, 0)" stroke-linecap="round" stroke-linejoin="round" stroke-width="7"/>
    <path d="m422.2,130.61c-115.93,17.4 -149.44,143.1 -42.58,70.07" data-class="marking" fill="none" id="svg_99" stroke="rgb(0, 0, 0)" stroke-linecap="round" stroke-linejoin="round" stroke-width="7"/>
    <path d="m352.92,213.25c117.33,-60.41 130.3,-111.2 21,-72.16" data-class="marking" fill="none" id="svg_100" stroke="rgb(0, 0, 0)" stroke-linecap="round" stroke-linejoin="round" stroke-width="7"/>
    <path d="m196.43,289.29c82.91,-23.4 25.18,82.28 -1.73,120.52" data-class="marking" fill="none" id="svg_101" stroke="rgb(0, 0, 0)" stroke-linecap="round" stroke-linejoin="round" stroke-width="7"/>
    <path d="m223.74,384.82c-105.67,-42.99 -101.21,-72.58 -25.14,-95.34" data-class="marking" fill="none" id="svg_102" stroke="rgb(0, 0, 0)" stroke-linecap="round" stroke-linejoin="round" stroke-width="7"/>
    <path d="m353.96,291.82c-66.71,-55.54 -41.22,64.11 -31.93,91.16" data-class="marking" fill="none" id="svg_103" stroke="rgb(0, 0, 0)" stroke-linecap="round" stroke-linejoin="round" stroke-width="7"/>
    <path d="m312.51,384.13c118.99,-30.06 104.12,-83.73 47.37,-93.88" data-class="marking" fill="none" id="svg_104" stroke="rgb(0, 0, 0)" stroke-linecap="round" stroke-linejoin="round" stroke-width="7"/>
   </g>
  </g>
 </g>
</svg>