<svg xmlns="http://www.w3.org/2000/svg" width="761.4" height="519.3">
  <defs>
    <style>
      .white-box-bg { fill: white; stroke: none; }
      .stroke-group { stroke-linecap: round; stroke-linejoin: round; }
    </style>
  </defs>
  
  <path class="white-box-bg" d="M 32.09892988658834,437.4086870874712 L 32.19892988658833,439.3086870874713 L 32.12892988658833,440.8286870874713 L 31.898929886588334,442.3286870874713 L 31.51892988658833,443.7986870874713 L 30.998929886588336,445.22868708747126 L 30.328929886588334,446.59868708747126 L 29.528929886588337,447.8886870874712 L 28.598929886588337,449.08868708747127 L 27.548929886588333,450.1986870874713 L 26.398929886588334,451.1886870874713 L 25.148929886588334,452.0586870874713 L 23.818929886588336,452.7886870874712 L 22.078929886588334,453.5386870874712 L 21.008929886588334,453.9386870874713 L 19.69892988658833,454.49868708747124 L 19.488929886588338,454.59868708747126 L 18.19892988658833,455.3086870874713 L 18.028929886588337,455.4086870874712 L 16.80892988658833,456.22868708747126 L 16.658929886588332,456.34868708747126 L 15.528929886588337,457.2886870874712 L 15.388929886588336,457.4186870874713 L 14.358929886588335,458.46868708747127 L 14.228929886588332,458.61868708747124 L 13.298929886588333,459.75868708747123 L 13.188929886588333,459.9186870874713 L 12.378929886588331,461.1486870874712 L 12.278929886588337,461.3086870874713 L 11.598929886588337,462.61868708747124 L 11.518929886588332,462.7886870874712 L 10.968929886588334,464.1586870874712 L 10.898929886588334,464.33868708747127 L 10.488929886588338,465.74868708747124 L 10.438929886588333,465.9386870874713 L 10.168929886588337,467.37868708747123 L 10.138929886588336,467.5686870874713 L 10.008929886588334,469.0386870874712 L 9.998929886588336,469.22868708747126 L 10.008929886588334,470.6986870874713 L 10.018929886588332,470.8986870874712 L 10.178929886588335,472.35868708747125 L 10.208929886588336,472.5486870874713 L 10.508929886588334,473.98868708747125 L 10.55892988658833,474.1786870874713 L 10.998929886588336,475.5786870874713 L 11.05892988658833,475.75868708747123 L 11.638929886588336,477.11868708747124 L 11.718929886588334,477.2886870874712 L 12.428929886588335,478.5786870874713 L 12.528929886588337,478.74868708747124 L 13.348929886588337,479.96868708747127 L 13.468929886588334,480.11868708747124 L 14.408929886588332,481.24868708747124 L 14.538929886588335,481.3886870874712 L 15.588929886588332,482.4186870874713 L 15.738929886588338,482.5486870874713 L 16.87892988658833,483.47868708747126 L 17.038929886588335,483.58868708747127 L 18.26892988658833,484.3986870874712 L 18.428929886588335,484.49868708747124 L 19.738929886588338,485.1786870874713 L 19.908929886588332,485.25868708747123 L 21.278929886588337,485.8086870874713 L 21.458929886588336,485.87868708747123 L 22.868929886588333,486.2886870874712 L 23.408929886588332,486.4186870874713 L 24.498929886588336,486.6386870874712 L 24.648929886588334,486.6686870874713 L 25.048929886588333,486.72868708747126 L 55.08892988658833,490.83868708747127 L 55.34892988658834,490.86868708747124 L 87.74892988658833,494.73868708747125 L 87.99892988658833,494.7686870874712 L 121.87892988658832,498.23868708747125 L 122.10892988658834,498.2686870874712 L 157.29892988658833,501.3286870874713 L 157.52892988658834,501.33868708747127 L 193.86892988658832,503.9586870874713 L 194.08892988658835,503.96868708747127 L 231.42892988658832,506.09868708747126 L 231.64892988658835,506.10868708747125 L 269.81892988658836,507.72868708747126 L 270.03892988658833,507.73868708747125 L 308.87892988658837,508.7986870874713 L 309.1089298865883,508.8086870874713 L 348.45892988658835,509.2986870874713 L 348.68892988658837,509.2986870874713 L 388.37892988658837,509.1786870874713 L 388.6189298865884,509.1686870874713 L 428.49892988658837,508.4086870874712 L 428.74892988658837,508.3986870874712 L 468.83892988658835,506.9486870874713 L 468.91892988658833,506.9486870874713 L 468.94892988658836,506.9486870874713 L 469.14892988658835,506.9386870874713 L 508.87892988658837,504.7786870874712 L 508.9589298865883,504.7786870874712 L 508.99892988658837,504.7686870874712 L 509.1989298865883,504.75868708747123 L 548.6389298865884,501.85868708747125 L 548.7189298865884,501.85868708747125 L 548.7989298865883,501.84868708747126 L 548.9489298865883,501.83868708747127 L 549.0689298865883,501.8286870874713 L 549.1489298865883,501.8186870874713 L 587.9489298865883,498.1586870874712 L 588.0289298865883,498.1486870874712 L 588.1289298865884,498.1386870874712 L 588.2789298865883,498.12868708747123 L 588.4089298865883,498.10868708747125 L 588.5089298865884,498.09868708747126 L 626.6589298865883,493.6386870874712 L 626.7489298865884,493.62868708747123 L 626.8589298865884,493.61868708747124 L 627.0289298865883,493.59868708747126 L 627.1689298865883,493.5786870874713 L 627.2689298865884,493.5586870874713 L 664.6189298865884,488.2686870874712 L 664.7189298865884,488.25868708747123 L 664.8289298865883,488.23868708747125 L 665.0189298865884,488.2086870874713 L 665.1689298865883,488.1886870874713 L 665.2789298865883,488.1686870874713 L 701.6589298865883,482.00868708747123 L 701.7689298865884,481.98868708747125 L 701.8889298865884,481.96868708747127 L 702.0989298865884,481.9286870874713 L 702.2689298865884,481.8986870874712 L 702.3889298865884,481.86868708747124 L 737.3889298865884,474.86868708747124 L 737.7489298865884,474.7886870874712 L 737.7989298865883,474.7786870874712 L 738.8189298865883,474.5186870874712 L 739.3989298865883,474.33868708747127 L 740.7789298865883,473.84868708747126 L 740.9589298865883,473.7786870874712 L 742.2889298865883,473.1486870874712 L 742.4589298865883,473.0586870874713 L 743.7189298865884,472.3086870874713 L 743.8789298865884,472.1986870874713 L 745.0689298865883,471.3286870874713 L 745.2089298865883,471.2086870874713 L 746.3089298865883,470.21868708747127 L 746.4389298865883,470.08868708747127 L 747.4289298865883,468.99868708747124 L 747.5489298865883,468.85868708747125 L 748.4289298865883,467.6786870874713 L 748.5389298865883,467.5186870874712 L 749.2989298865883,466.25868708747123 L 749.3889298865884,466.08868708747127 L 750.0189298865884,464.7686870874712 L 750.0989298865884,464.58868708747127 L 750.5989298865884,463.2086870874713 L 750.6589298865883,463.0186870874712 L 751.0189298865884,461.59868708747126 L 751.0589298865883,461.4086870874712 L 751.2789298865883,459.9586870874713 L 751.2989298865883,459.75868708747123 L 751.3789298865884,458.2986870874713 L 751.3789298865884,458.09868708747126 L 751.3089298865883,456.62868708747123 L 751.2889298865883,456.4386870874713 L 751.0789298865883,454.97868708747126 L 751.0489298865883,454.7886870874712 L 750.6889298865883,453.36868708747124 L 750.6389298865884,453.1786870874713 L 750.1489298865883,451.7886870874712 L 750.0789298865883,451.60868708747125 L 749.4489298865883,450.2786870874712 L 749.3589298865884,450.10868708747125 L 748.6089298865884,448.84868708747126 L 748.4989298865884,448.6786870874713 L 747.6289298865884,447.49868708747124 L 747.5089298865884,447.34868708747126 L 746.5289298865883,446.24868708747124 L 746.3889298865884,446.11868708747124 L 745.2989298865883,445.12868708747123 L 745.1589298865883,444.99868708747124 L 743.9789298865884,444.11868708747124 L 743.8189298865883,444.00868708747123 L 742.5589298865883,443.24868708747124 L 742.3889298865884,443.1586870874712 L 741.0589298865883,442.5186870874712 L 740.8789298865884,442.4486870874713 L 739.4989298865884,441.9486870874713 L 739.3189298865883,441.8886870874712 L 737.8889298865884,441.5286870874712 L 737.6989298865883,441.48868708747125 L 736.2489298865884,441.2686870874712 L 736.0489298865883,441.24868708747124 L 734.5789298865883,441.1686870874713 L 734.3889298865884,441.1686870874713 L 732.9189298865883,441.23868708747125 L 732.3689298865884,441.2886870874712 L 731.2689298865884,441.4286870874713 L 731.1189298865884,441.4586870874713 L 730.6889298865883,441.5386870874712 L 726.0389298865883,442.46868708747127 L 724.2189298865884,442.73868708747125 L 722.7489298865884,442.8086870874713 L 721.2789298865883,442.73868708747125 L 719.8289298865883,442.5286870874712 L 718.3989298865883,442.1786870874713 L 717.0189298865884,441.6786870874713 L 715.6889298865883,441.0586870874713 L 714.4289298865883,440.2986870874713 L 713.2489298865884,439.4286870874713 L 712.1589298865883,438.4386870874713 L 711.1689298865883,437.35868708747125 L 710.2889298865883,436.1786870874713 L 709.5289298865883,434.9186870874713 L 708.8989298865883,433.58868708747127 L 708.4089298865883,432.2086870874713 L 708.0489298865883,430.7786870874712 L 707.8289298865883,429.3286870874713 L 707.7489298865884,427.85868708747125 L 707.8189298865883,426.3886870874712 L 708.0289298865883,424.9386870874713 L 708.3889298865884,423.50868708747123 L 708.8789298865884,422.12868708747123 L 709.5089298865884,420.7986870874713 L 710.2589298865884,419.5386870874712 L 711.1289298865884,418.34868708747126 L 712.1189298865884,417.25868708747123 L 713.1989298865883,416.2686870874712 L 714.3789298865884,415.3986870874712 L 715.9489298865883,414.4486870874713 L 716.9689298865884,413.8986870874712 L 718.1989298865883,413.1586870874712 L 718.3989298865883,413.0286870874712 L 719.5889298865884,412.1486870874712 L 719.7389298865884,412.0186870874712 L 720.8289298865883,411.0286870874712 L 720.9689298865884,410.8886870874712 L 721.9589298865883,409.7886870874712 L 722.0889298865884,409.6386870874712 L 722.9689298865884,408.4486870874713 L 723.0689298865883,408.2886870874712 L 723.8289298865883,407.0186870874712 L 723.9189298865883,406.84868708747126 L 724.5489298865883,405.50868708747123 L 724.6189298865884,405.3286870874713 L 725.1189298865884,403.9386870874713 L 725.1689298865883,403.74868708747124 L 725.5289298865883,402.3186870874713 L 725.5589298865883,402.12868708747123 L 725.7789298865883,400.6586870874712 L 725.7889298865883,400.46868708747127 L 725.8589298865884,398.98868708747125 L 725.8589298865884,398.7986870874713 L 725.7789298865883,397.3186870874713 L 725.7589298865884,397.12868708747123 L 725.5289298865883,395.6686870874713 L 725.4889298865884,395.47868708747126 L 725.1189298865884,394.0386870874712 L 725.0689298865883,393.85868708747125 L 724.5589298865883,392.46868708747127 L 724.4789298865884,392.2886870874712 L 723.8389298865884,390.9586870874713 L 723.2689298865884,389.8986870874712 L 722.4389298865883,388.1686870874713 L 721.9189298865883,386.72868708747126 L 721.5489298865883,385.23868708747125 L 721.3389298865884,383.71868708747127 L 721.2789298865883,382.1786870874713 L 721.3789298865884,380.6486870874712 L 721.6989298865883,378.75868708747123 L 721.8189298865883,378.21868708747127 L 722.0189298865884,377.1786870874713 L 722.0489298865883,376.98868708747125 L 722.0989298865884,376.58868708747127 L 726.8989298865883,337.4186870874713 L 726.9489298865883,336.99868708747124 L 726.9489298865883,336.9486870874713 L 727.0189298865884,335.71868708747127 L 727.0289298865883,334.59868708747126 L 726.9889298865884,333.3086870874713 L 726.9789298865884,333.1386870874712 L 726.9289298865883,332.6586870874712 L 721.8389298865884,284.6786870874713 L 721.8089298865883,284.36868708747124 L 721.7989298865883,284.3286870874713 L 721.6589298865883,283.4486870874713 L 721.5089298865884,282.6486870874712 L 721.3089298865883,281.73868708747125 L 721.2789298865883,281.61868708747124 L 721.1889298865883,281.2786870874712 L 705.2289298865884,223.72868708747126 L 705.0989298865884,223.30868708747124 L 704.9589298865883,222.82868708747128 L 704.6889298865883,222.03868708747126 L 704.4489298865883,221.40868708747126 L 704.2689298865884,220.94868708747128 L 676.4889298865884,153.12868708747123 L 676.3489298865884,152.78868708747126 L 676.3289298865883,152.74868708747124 L 675.8689298865884,151.78868708747126 L 675.5889298865884,151.24868708747124 L 674.8389298865884,149.98868708747125 L 674.7289298865884,149.82868708747128 L 673.8589298865884,148.63868708747128 L 673.7389298865884,148.48868708747125 L 672.7589298865884,147.38868708747128 L 672.2189298865884,146.83868708747127 L 671.5189298865884,146.17868708747125 L 639.3289298865883,117.46868708747127 L 639.1389298865884,117.29868708747125 L 638.9189298865883,117.11868708747124 L 638.5489298865883,116.80868708747124 L 638.2489298865884,116.55868708747124 L 638.0189298865884,116.38868708747128 L 605.3089298865883,90.99868708747124 L 605.0789298865883,90.81868708747123 L 604.8189298865883,90.62868708747123 L 604.3689298865884,90.30868708747124 L 603.9989298865884,90.04868708747125 L 603.7289298865884,89.86868708747124 L 576.0089298865884,71.63868708747128 L 574.5089298865884,70.53868708747126 L 573.3989298865883,69.54868708747125 L 572.3989298865883,68.44868708747128 L 571.5089298865884,67.25868708747123 L 570.7389298865884,65.98868708747125 L 570.1089298865884,64.63868708747128 L 569.4789298865884,62.88868708747128 L 567.3789298865884,55.948687087471285 L 557.2589298865884,22.348687087471262 L 557.1789298865883,22.078687087471252 L 557.0989298865884,21.848687087471262 L 556.8989298865883,21.26868708747125 L 556.8089298865883,21.02868708747127 L 556.2389298865884,19.678687087471246 L 556.1589298865883,19.498687087471268 L 555.4489298865883,18.208687087471247 L 555.3489298865884,18.03868708747126 L 554.5189298865884,16.81868708747126 L 554.3989298865883,16.668687087471255 L 553.4589298865883,15.53868708747126 L 553.3289298865883,15.388687087471254 L 552.2789298865883,14.358687087471253 L 552.1289298865884,14.228687087471258 L 550.9889298865884,13.30868708747127 L 550.8289298865883,13.188687087471266 L 549.5989298865884,12.388687087471254 L 549.4289298865883,12.28868708747126 L 548.1289298865884,11.598687087471262 L 547.9489298865883,11.51868708747125 L 546.5789298865883,10.968687087471267 L 546.3989298865883,10.898687087471245 L 544.9889298865884,10.488687087471249 L 544.7989298865883,10.438687087471266 L 543.3589298865884,10.168687087471255 L 543.1689298865883,10.138687087471254 L 541.7089298865883,10.008687087471259 L 541.5189298865884,9.998687087471268 L 540.0489298865883,10.008687087471259 L 539.8589298865884,10.01868708747125 L 538.3989298865883,10.178687087471246 L 538.2089298865883,10.198687087471257 L 536.7689298865884,10.498687087471268 L 536.5789298865883,10.54868708747125 L 535.1789298865883,10.978687087471258 L 534.9989298865884,11.04868708747125 L 533.6489298865883,11.618687087471244 L 533.4689298865884,11.698687087471257 L 532.1789298865883,12.398687087471245 L 532.0189298865884,12.498687087471268 L 530.7989298865883,13.318687087471261 L 530.6489298865883,13.428687087471246 L 529.5189298865884,14.368687087471244 L 529.3689298865884,14.498687087471268 L 528.3389298865884,15.53868708747126 L 528.1289298865884,15.76868708747125 L 527.4889298865884,16.52868708747127 L 517.2589298865884,29.50868708747123 L 516.0689298865883,30.878687087471235 L 515.0089298865884,31.878687087471235 L 513.8589298865884,32.76868708747128 L 512.6289298865884,33.54868708747125 L 511.3289298865883,34.208687087471276 L 509.9789298865884,34.72868708747126 L 508.5789298865883,35.118687087471244 L 507.13892988658836,35.368687087471244 L 505.6889298865883,35.48868708747125 L 504.2389298865884,35.458687087471276 L 502.78892988658833,35.28868708747126 L 501.3689298865884,34.97868708747126 L 499.5889298865884,34.408687087471264 L 498.88892988658836,34.168687087471255 L 498.24892988658837,33.96868708747127 L 497.77892988658834,33.82868708747128 L 464.83892988658835,24.658687087471264 L 464.3689298865884,24.53868708747126 L 463.82892988658836,24.408687087471264 L 462.91892988658833,24.218687087471267 L 462.1789298865883,24.078687087471252 L 461.63892988658836,23.998687087471268 L 428.84892988658834,19.378687087471263 L 428.31892988658836,19.30868708747127 L 427.71892988658834,19.248687087471268 L 426.70892988658835,19.178687087471246 L 425.88892988658836,19.148687087471245 L 425.28892988658833,19.138687087471254 L 392.40892988658834,19.248687087471268 L 392.1189298865884,19.248687087471268 L 392.08892988658835,19.25868708747126 L 391.26892988658835,19.29868708747125 L 390.51892988658835,19.348687087471262 L 389.6789298865883,19.438687087471266 L 389.5589298865884,19.458687087471247 L 389.24892988658837,19.498687087471268 L 356.25892988658836,24.648687087471245 L 355.96892988658834,24.698687087471257 L 355.93892988658837,24.698687087471257 L 355.12892988658837,24.868687087471244 L 354.38892988658836,25.03868708747126 L 353.5589298865884,25.25868708747123 L 353.44892988658836,25.28868708747126 L 353.13892988658836,25.388687087471283 L 348.16892988658833,26.958687087471276 L 346.3689298865884,27.438687087471237 L 344.88892988658836,27.678687087471246 L 343.39892988658835,27.75868708747123 L 341.90892988658834,27.698687087471285 L 340.4289298865883,27.48868708747125 L 338.97892988658833,27.138687087471283 L 337.57892988658836,26.638687087471283 L 336.22892988658833,25.99868708747124 L 334.6189298865884,25.03868708747126 L 334.32892988658836,24.83868708747127 L 333.71892988658834,24.458687087471247 L 333.6189298865884,24.398687087471245 L 332.97892988658833,24.02868708747127 L 332.88892988658836,23.98868708747125 L 332.2389298865883,23.658687087471264 L 332.14892988658835,23.608687087471253 L 331.46892988658834,23.30868708747127 L 331.38892988658836,23.27868708747127 L 330.69892988658836,23.00868708747126 L 330.6089298865883,22.978687087471258 L 329.90892988658834,22.73868708747125 L 329.81892988658836,22.718687087471267 L 329.1089298865883,22.51868708747125 L 329.00892988658836,22.498687087471268 L 328.28892988658833,22.328687087471252 L 328.19892988658836,22.30868708747127 L 327.46892988658834,22.188687087471266 L 327.37892988658837,22.168687087471255 L 326.63892988658836,22.078687087471252 L 326.5489298865883,22.06868708747126 L 325.81892988658836,22.00868708747126 L 325.71892988658834,22.00868708747126 L 324.97892988658833,21.98868708747125 L 324.87892988658837,21.98868708747125 L 324.14892988658835,22.00868708747126 L 324.0489298865883,22.00868708747126 L 323.3089298865884,22.05868708747127 L 323.21892988658834,22.06868708747126 L 322.4889298865883,22.158687087471264 L 322.38892988658836,22.178687087471246 L 321.65892988658834,22.29868708747125 L 321.56892988658836,22.31868708747126 L 320.84892988658834,22.478687087471258 L 320.74892988658837,22.498687087471268 L 320.03892988658833,22.698687087471257 L 319.94892988658836,22.728687087471258 L 319.24892988658837,22.958687087471247 L 319.15892988658834,22.98868708747125 L 318.46892988658834,23.248687087471268 L 318.37892988658837,23.28868708747126 L 317.70892988658835,23.58868708747127 L 317.6189298865884,23.628687087471263 L 316.95892988658835,23.958687087471247 L 316.87892988658837,23.998687087471268 L 316.2389298865883,24.358687087471253 L 316.14892988658835,24.418687087471255 L 315.52892988658834,24.80868708747127 L 315.44892988658836,24.858687087471253 L 314.84892988658834,25.27868708747127 L 314.75892988658836,25.33868708747127 L 314.1789298865883,25.79868708747125 L 314.1089298865883,25.858687087471253 L 313.5489298865883,26.33868708747127 L 313.47892988658833,26.398687087471274 L 312.93892988658837,26.908687087471264 L 312.8689298865884,26.978687087471258 L 312.3689298865884,27.50868708747123 L 312.2989298865883,27.57868708747128 L 311.81892988658836,28.138687087471283 L 311.75892988658836,28.208687087471276 L 311.2989298865883,28.78868708747126 L 311.2389298865883,28.868687087471244 L 310.81892988658836,29.478687087471258 L 310.75892988658836,29.54868708747125 L 310.3689298865884,30.168687087471255 L 310.31892988658836,30.25868708747123 L 309.94892988658836,30.898687087471274 L 309.87892988658837,31.02868708747127 L 309.56892988658836,31.638687087471283 L 309.47892988658833,31.83868708747127 L 309.22892988658833,32.378687087471235 L 306.84892988658834,37.88868708747128 L 306.01892988658835,39.58868708747127 L 305.20892988658835,40.868687087471244 L 304.28892988658833,42.06868708747123 L 303.2389298865883,43.158687087471264 L 302.08892988658835,44.148687087471274 L 300.84892988658834,45.00868708747123 L 299.18892988658837,45.928687087471246 L 285.2389298865883,52.76868708747128 L 284.77892988658834,52.99868708747124 L 284.26892988658835,53.26868708747128 L 283.4289298865883,53.75868708747123 L 282.75892988658836,54.178687087471246 L 282.26892988658835,54.48868708747125 L 250.54892988658833,75.89868708747127 L 250.16892988658833,76.16868708747126 L 249.74892988658837,76.46868708747127 L 249.04892988658833,77.00868708747123 L 248.49892988658837,77.45868708747128 L 248.09892988658834,77.78868708747126 L 219.3189298865883,102.93868708747124 L 217.78892988658833,104.13868708747128 L 216.47892988658833,104.96868708747127 L 215.08892988658835,105.64868708747127 L 213.6289298865883,106.18868708747124 L 211.74892988658831,106.67868708747125 L 190.72892988658833,110.91868708747126 L 190.3189298865883,111.00868708747123 L 189.85892988658833,111.11868708747124 L 189.08892988658835,111.31868708747123 L 188.46892988658834,111.49868708747124 L 188.00892988658836,111.62868708747123 L 171.86892988658832,116.83868708747127 L 171.52892988658834,116.95868708747128 L 171.47892988658833,116.96868708747127 L 170.51892988658835,117.33868708747127 L 169.63892988658836,117.71868708747127 L 168.65892988658834,118.17868708747125 L 168.52892988658834,118.24868708747124 L 168.17892988658832,118.43868708747124 L 157.55892988658832,124.29868708747125 L 157.19892988658836,124.49868708747124 L 157.14892988658835,124.52868708747127 L 156.15892988658834,125.16868708747126 L 155.59892988658834,125.55868708747124 L 154.30892988658832,126.57868708747128 L 153.83892988658835,126.98868708747125 L 152.9389298865883,127.83868708747127 L 152.8189298865883,127.95868708747128 L 152.50892988658836,128.29868708747125 L 146.63892988658836,134.75868708747123 L 146.40892988658834,135.01868708747128 L 146.3789298865883,135.05868708747124 L 145.74892988658831,135.83868708747127 L 145.39892988658835,136.30868708747124 L 144.59892988658834,137.46868708747127 L 144.50892988658836,137.62868708747123 L 143.8189298865883,138.85868708747125 L 143.73892988658832,139.02868708747127 L 143.17892988658832,140.31868708747123 L 142.98892988658832,140.81868708747123 L 142.64892988658835,141.81868708747123 L 142.60892988658833,141.94868708747128 L 142.49892988658831,142.32868708747128 L 140.53892988658833,149.45868708747128 L 140.4389298865883,149.84868708747126 L 140.42892988658832,149.89868708747127 L 140.19892988658836,151.01868708747128 L 140.08892988658835,151.66868708747126 L 139.90892988658834,153.25868708747123 L 139.89892988658835,153.46868708747127 L 139.89892988658835,155.06868708747123 L 139.92892988658832,155.67868708747125 L 140.02892988658834,156.87868708747123 L 140.04892988658833,157.03868708747126 L 140.11892988658832,157.47868708747126 L 141.39892988658835,165.45868708747128 L 141.45892988658835,165.77868708747127 L 141.46892988658834,165.81868708747123 L 141.65892988658834,166.73868708747125 L 141.78892988658833,167.25868708747123 L 142.15892988658834,168.50868708747123 L 142.3189298865883,168.97868708747126 L 142.66892988658833,169.89868708747127 L 142.71892988658834,170.01868708747128 L 142.86892988658832,170.35868708747125 L 146.39892988658835,178.23868708747125 L 147.05892988658832,179.95868708747128 L 147.45892988658835,181.38868708747128 L 147.71892988658834,182.83868708747127 L 147.82892988658836,184.30868708747124 L 147.78892988658833,185.77868708747127 L 147.61892988658832,187.24868708747124 L 147.28892988658833,188.68868708747124 L 146.82892988658836,190.08868708747127 L 146.22892988658833,191.43868708747124 L 145.32892988658836,193.03868708747126 L 123.06892988658832,228.16868708747126 L 121.83892988658833,229.88868708747128 L 120.62892988658832,231.22868708747126 L 120.24892988658833,231.66868708747126 L 119.81892988658832,232.18868708747124 L 118.92892988658834,233.35868708747125 L 118.69892988658835,233.69868708747128 L 118.03892988658832,234.76868708747128 L 117.81892988658832,235.14868708747127 L 117.55892988658833,235.63868708747128 L 90.67892988658834,287.6386870874712 L 90.63892988658833,287.73868708747125 L 90.62892988658834,287.74868708747124 L 90.48892988658834,288.0286870874712 L 90.27892988658833,288.4586870874713 L 90.16892988658833,288.6986870874713 L 61.91892988658833,350.0386870874712 L 61.83892988658833,350.21868708747127 L 61.74892988658833,350.4286870874713 L 61.59892988658834,350.7686870874712 L 61.47892988658833,351.0586870874713 L 61.398929886588334,351.2686870874712 L 34.138929886588336,419.9086870874712 L 33.998929886588336,420.25868708747123 L 33.98892988658834,420.2986870874713 L 33.65892988658833,421.3086870874713 L 33.48892988658834,421.8886870874712 L 33.148929886588334,423.3186870874713 L 33.108929886588335,423.50868708747123 L 32.90892988658833,424.96868708747127 L 32.888929886588336,425.1886870874713 L 32.83892988658833,426.62868708747123 L 32.83892988658833,426.8186870874713 L 32.77892988658834,428.46868708747127 L 32.61892988658833,429.7786870874712 L 32.568929886588336,430.0386870874712 L 32.47892988658833,430.4486870874713 L 32.208929886588336,431.9386870874713 L 32.01892988658833,433.2886870874712 L 31.998929886588336,433.5186870874712 L 31.938929886588333,434.98868708747125 L 31.938929886588333,435.1986870874713 L 32.01892988658833,436.6586870874712 L 32.09892988658834,437.4086870874712"/>
  
  <g id="ice_rock_4" class="stroke-group" stroke="black" stroke-width="7.0" fill="none">
    <path data-class="facet" fill="none" stroke="black" d="M 49.79892988658834,426.5286870874712 C 220.5996132255451,-35.7689741187603 454.29926046686245,-36.546828066964224 660.6147059907356,159.23095794620457" />
    <path data-class="crack" fill="none" stroke="black" d="M 660.6189298865884,159.22868708747126 C 878.3849233002848,628.0623525200243 322.3863227786358,430.8913999205074 54.03994789968773,440.458140906219" />
    <path data-class="facet" fill="none" stroke="black" d="M 132.89892988658835,242.97868708747126 C 274.4926602941123,341.9780601282247 227.78593253910856,253.82431042964737 324.89892988658835,38.978687087471144" />
    <path data-class="crack" fill="none" stroke="black" d="M 324.89892988658835,38.97868708747126 C 405.5499102787453,352.66496159727546 343.45691307986567,269.2812080958748 540.8989298865882,26.97868708747137" />
    <path data-class="crack" fill="none" stroke="black" d="M 48.898929886588334,434.97868708747126 C 208.8989298865884,366.97868708747114 208.89892988658835,366.97868708747103 240.8989298865883,266.9786870874712" />
    <path data-class="facet" fill="none" stroke="black" d="M 240.89892988658835,266.97868708747126 C 449.61892988658803,267.1120204208039 329.938929886588,142.57868708747077 600.8989298865886,458.9786870874716" />
    <path data-class="contour" fill="none" stroke="black" d="M 216.89892988658835,122.97868708747126 C 327.80047362586834,209.93511933446962 298.0586783142614,173.18874998055293 432.8989298865883,86.97868708747137" />
    <path data-class="crack" fill="none" stroke="black" d="M 432.89892988658835,86.97868708747126 C 497.1278023839541,282.5997619030667 459.54002577699913,245.91254227338106 660.8989298865881,182.9786870874712" />
    <path data-class="facet" fill="none" stroke="black" d="M 240.89892988658835,458.97868708747126 C 250.47894954524253,332.02971023106807 465.73763956400757,37.35220151871067 420.8989298865884,470.97868708747126" />
    <path data-class="facet" fill="none" stroke="black" d="M 420.89892988658835,470.97868708747126 C 518.7450746428661,232.90955857934728 478.16387873499355,198.5443088392082 540.8989298865889,26.978687087471542" />
    <path data-class="crack" fill="none" stroke="black" d="M 540.8989298865883,26.978687087471258 C 608.8989298865883,252.97868708747126 608.8989298865882,252.97868708747126 708.8989298865888,398.9786870874716" />
    <path data-class="facet" fill="none" stroke="black" d="M 108.89892988658833,398.97868708747126 C 214.89892988658846,312.97868708747126 214.89892988658846,312.97868708747114 336.8989298865883,338.97868708747114" />
    <path data-class="facet" fill="none" stroke="black" d="M 336.89892988658835,338.97868708747126 C 541.0207572977562,225.7346417926649 465.0045136429336,164.83384783197232 636.898929886588,314.97868708747137" />
    <path data-class="contour" fill="none" stroke="black" d="M 156.89892988658835,218.97868708747126 C 302.35416144748035,220.7042445488779 274.73289215073925,183.06044809376056 348.8989298865882,110.97868708747114" />
    <path data-class="crack" fill="none" stroke="black" d="M 348.89892988658835,110.97868708747126 C 474.65446202568194,172.9373804489045 438.6719240157466,144.08318806594474 588.8989298865882,110.97868708747131" />
    <path data-class="crack" fill="none" stroke="black" d="M 192.89892988658835,362.97868708747126 C 298.8274381599243,222.830579525571 48.522524682596696,150.27692317881048 216.89892988658835,122.97868708747114" />
    <path data-class="facet" fill="none" stroke="black" d="M 384.89892988658835,242.97868708747126 C 303.56357537126746,342.4652260154354 442.5544396286852,359.22438196983796 420.8989298865884,470.9786870874708" />
    <path data-class="crack" fill="none" stroke="black" d="M 492.89892988658835,230.97868708747126 C 557.4125526531823,314.5881947275393 635.8274608915194,233.22316926064542 660.8989298865882,182.97868708747092" />
    <path data-class="facet" fill="none" stroke="black" d="M 26.94892988658833,469.8286870874713 C 215.86376258350128,497.48982450861206 513.5459991230233,506.03633760956643 734.4168996718897,458.1277012954499" />
    <path data-class="facet" fill="none" stroke="black" d="M 84.89892988658833,446.97868708747126 C 241.10340273003862,441.53246770514954 220.3184432805425,389.79756150378967 396.8989298865882,434.97868708747126" />
    <path data-class="facet" fill="none" stroke="black" d="M 396.89892988658835,434.97868708747126 C 555.6126187536321,398.4365391395726 604.3387594925522,450.8913601439144 696.8989298865887,398.9786870874716" />
  </g>
</svg>